<svg width="1920" height="830" viewBox="0 0 1920 830" fill="none" xmlns="http://www.w3.org/2000/svg">
<g clip-path="url(#clip0_293_2651)">
<rect width="1920" height="830" fill="white"/>
<rect x="-111" y="-53" width="2031" height="1005" fill="#FCB149"/>
<line x1="727.75" y1="132" x2="727.75" y2="680" stroke="#33160D" stroke-width="1.5"/>
<path d="M1278.95 829.572C1279.6 826.716 1280.15 824.05 1280.8 821.194C1269.22 825.934 1255.96 826.414 1244.08 822.526C1232.19 818.637 1222.31 809.646 1215.44 799.198C1206.06 784.939 1196.92 770.435 1187.54 756.177C1197.06 741.53 1212.47 730.236 1229.26 725.403C1238.27 734.215 1248.52 743.382 1258.57 750.984C1264.43 737.388 1270.33 723.733 1278.17 711.17C1286.01 698.606 1295.73 686.692 1309.05 680.224C1320.8 674.516 1333.36 670.471 1346.24 668.251C1348.96 672.055 1353.39 673.894 1358.05 673.513C1362.71 673.131 1367.08 670.159 1369.15 665.962C1383.34 667.198 1396.68 670.021 1409.98 675.092C1429.44 682.502 1446.2 697.313 1456.85 715.202C1464.79 728.536 1471.89 741.872 1477.34 756.396C1480.91 765.889 1483.91 775.943 1482.84 786.027C1481.41 799.445 1472.21 811.754 1459.75 816.927C1447.28 822.099 1432.07 819.921 1421.56 811.456C1421.64 817.493 1421.5 822.88 1421.58 828.917L1278.95 829.572Z" fill="#FE5E04"/>
<path d="M1336.82 671.347C1338.99 677.219 1344.13 681.836 1350.11 683.683C1356.1 685.53 1362.8 684.67 1368.29 681.654C1373.78 678.638 1378.04 673.559 1380.37 667.746" stroke="#060305" stroke-miterlimit="10" stroke-linecap="round" stroke-linejoin="round"/>
<path d="M1339.24 675.164C1340.48 674.671 1341.71 674.178 1342.95 673.686" stroke="#060305" stroke-miterlimit="10" stroke-linecap="round" stroke-linejoin="round"/>
<path d="M1349.35 677.127C1348.25 678.604 1347.15 680.081 1346.05 681.558" stroke="#060305" stroke-miterlimit="10" stroke-linecap="round" stroke-linejoin="round"/>
<path d="M1357.18 678.656C1356.87 680.417 1356.57 682.177 1356.25 683.938" stroke="#060305" stroke-miterlimit="10" stroke-linecap="round" stroke-linejoin="round"/>
<path d="M1364.5 676.56C1365.51 678.068 1366.51 679.576 1367.51 681.085" stroke="#060305" stroke-miterlimit="10" stroke-linecap="round" stroke-linejoin="round"/>
<path d="M1370.89 671.584C1372.55 672.286 1374.21 672.989 1375.87 673.691" stroke="#060305" stroke-miterlimit="10" stroke-linecap="round" stroke-linejoin="round"/>
<path d="M1421.44 812.934C1420.45 798.537 1419.46 784.14 1418.47 769.741C1417.07 749.472 1415.55 728.638 1417.99 708.469" stroke="#060305" stroke-miterlimit="10" stroke-linecap="round" stroke-linejoin="round"/>
<path d="M1445.06 737.063C1457.23 745.83 1467.95 756.61 1476.64 768.834" stroke="#060305" stroke-miterlimit="10" stroke-linecap="round" stroke-linejoin="round"/>
<path d="M1269.37 764.068C1265.6 759.515 1261.83 754.962 1258.06 750.408C1260.18 751.676 1262.85 752.411 1264.97 753.678" stroke="#060305" stroke-miterlimit="10" stroke-linecap="round" stroke-linejoin="round"/>
<path d="M1297.52 704.909C1297.53 725.242 1297.54 745.574 1297.55 765.906C1297.56 777.851 1289.66 788.366 1286 799.737" stroke="#060305" stroke-miterlimit="10" stroke-linecap="round" stroke-linejoin="round"/>
<path d="M1291.73 709.743C1293.49 711.723 1295.25 713.702 1297.02 715.682" stroke="#060305" stroke-miterlimit="10" stroke-linecap="round" stroke-linejoin="round"/>
<path d="M1419.92 788.412C1430.13 788.946 1440.48 785.199 1447.99 778.264C1455.49 771.328 1460.03 761.294 1460.29 751.082" stroke="#060305" stroke-miterlimit="10" stroke-linecap="round" stroke-linejoin="round"/>
<path d="M1423.76 772.365C1425.03 777.448 1426.3 782.531 1427.57 787.615" stroke="#060305" stroke-miterlimit="10" stroke-linecap="round" stroke-linejoin="round"/>
<path d="M1432.85 770.839C1435.19 775.07 1437.53 779.302 1439.87 783.533" stroke="#060305" stroke-miterlimit="10" stroke-linecap="round" stroke-linejoin="round"/>
<path d="M1440 765.011C1442.55 767.759 1445.1 770.506 1447.64 773.255" stroke="#060305" stroke-miterlimit="10" stroke-linecap="round" stroke-linejoin="round"/>
<path d="M1444.12 756.753C1448.01 760.173 1451.9 763.592 1455.79 767.012" stroke="#060305" stroke-miterlimit="10" stroke-linecap="round" stroke-linejoin="round"/>
<path d="M1447.21 747.011C1451.1 750.117 1454.99 753.222 1458.88 756.328" stroke="#060305" stroke-miterlimit="10" stroke-linecap="round" stroke-linejoin="round"/>
<path d="M1343.43 611C1340.86 618.142 1339.53 625.73 1339.53 633.321" stroke="#C14F4F" stroke-miterlimit="10" stroke-linecap="round" stroke-linejoin="round"/>
<path d="M1379.66 621.019C1378.17 622.756 1376.67 624.492 1375.18 626.23C1375.54 624.148 1375.89 622.066 1376.25 619.983L1346.88 611.048C1342.87 618.266 1340.25 626.255 1339.21 634.446C1338.22 642.209 1346.4 649.296 1353.48 652.632C1360.56 655.968 1369.23 655.678 1376.07 651.876C1379.33 642.473 1383.27 632.508 1386.53 623.105L1379.66 621.019Z" fill="#C14F4F"/>
<path d="M1369.9 669.289C1369.57 666.131 1369.39 663.121 1369.06 659.964C1372.59 659.806 1376.39 658.907 1378.6 656.151C1380.85 653.346 1380.75 648.916 1378.35 646.227C1375.96 643.538 1371.58 642.907 1368.53 644.813C1368 640.339 1366.89 635.471 1366.37 630.999C1364.19 632.339 1361.21 632.747 1358.76 631.997C1356.32 631.246 1354.23 629.404 1353.19 627.073C1352.47 628.166 1350.9 628.385 1349.61 628.548C1348.31 628.711 1346.96 628.28 1345.99 627.399C1344.81 628.652 1343.16 629.494 1341.98 630.746C1337.62 635.361 1337.1 642.086 1336.15 648.362C1335.63 651.831 1335.98 655.497 1337.73 658.536C1339.49 661.576 1342.41 663.921 1345.75 664.981C1345.83 667.152 1345.49 669.078 1345.57 671.249C1348.65 675.145 1353.3 677.506 1358.26 677.201C1363.21 676.892 1367.33 673.531 1369.9 669.289Z" fill="#FF9A7D"/>
<path d="M1357.41 647.884C1358.4 647.884 1359.21 647.079 1359.21 646.085C1359.21 645.091 1358.4 644.285 1357.41 644.285C1356.41 644.285 1355.61 645.091 1355.61 646.085C1355.61 647.079 1356.41 647.884 1357.41 647.884Z" fill="#060305"/>
<path d="M1341.27 643.786C1342.26 643.786 1343.07 642.98 1343.07 641.986C1343.07 640.992 1342.26 640.187 1341.27 640.187C1340.27 640.187 1339.47 640.992 1339.47 641.986C1339.47 642.98 1340.27 643.786 1341.27 643.786Z" fill="#060305"/>
<path d="M1348.56 642.536C1347.31 645.036 1346.06 647.535 1344.8 650.034C1345.7 650.134 1346.6 650.234 1347.5 650.334" stroke="#060305" stroke-miterlimit="10" stroke-linecap="round" stroke-linejoin="round"/>
<path d="M1349.04 653.373C1349.75 654.304 1351.07 654.722 1352.2 654.369C1353.32 654.017 1354.16 652.92 1354.22 651.745" stroke="#060305" stroke-miterlimit="10" stroke-linecap="round" stroke-linejoin="round"/>
<path d="M1339.77 633.607C1340.77 632.141 1342.73 631.402 1344.45 631.846C1346.17 632.29 1347.53 633.882 1347.7 635.652" stroke="#060305" stroke-miterlimit="10" stroke-linecap="round" stroke-linejoin="round"/>
<path d="M1354.84 636.588C1355.98 635.938 1357.38 635.74 1358.66 636.041C1359.94 636.345 1361.1 637.146 1361.83 638.239" stroke="#060305" stroke-miterlimit="10" stroke-linecap="round" stroke-linejoin="round"/>
<path d="M1369.31 650.477C1371.47 650.477 1373.62 650.477 1375.77 650.477" stroke="#060305" stroke-miterlimit="10" stroke-linecap="round" stroke-linejoin="round"/>
<path d="M1345.16 665.114C1349.01 666.899 1353.67 666.813 1357.45 664.884" stroke="#060305" stroke-miterlimit="10" stroke-linecap="round" stroke-linejoin="round"/>
<path d="M1373.71 772.751C1378.98 772.751 1383.82 771.078 1387.53 767.93C1392.69 763.561 1395.46 756.166 1394.42 749.529C1393.32 742.481 1388.1 736.68 1381.72 735.421C1375.92 734.274 1369.51 737 1365.4 742.362C1364.3 743.796 1364.42 745.984 1365.67 747.248C1366.91 748.515 1368.81 748.376 1369.91 746.943C1372.67 743.339 1376.9 741.497 1380.71 742.246C1384.57 743.011 1387.85 746.587 1388.5 750.755C1389.14 754.852 1387.32 759.511 1383.97 762.348C1380.86 764.987 1376.52 766.181 1371.77 765.732C1366.94 765.267 1362.28 763.236 1358.35 761.312C1356.83 760.563 1355.06 761.38 1354.41 763.143C1353.76 764.902 1354.47 766.935 1356 767.686C1360.36 769.826 1365.59 772.087 1371.27 772.634C1372.1 772.713 1372.91 772.751 1373.71 772.751Z" fill="white"/>
<path d="M1307.37 733.609C1307.37 761.003 1313.31 783.211 1337.6 783.211C1361.77 783.211 1367.82 761.003 1367.82 733.609H1307.37Z" fill="white"/>
<path d="M1309.27 739.22C1328.75 739.205 1348.24 739.191 1367.72 739.175" stroke="#060305" stroke-miterlimit="10" stroke-linecap="round" stroke-linejoin="round"/>
<path d="M1361.07 770.215C1362.36 768.036 1363.64 765.856 1364.93 763.678" stroke="#060305" stroke-miterlimit="10" stroke-linecap="round" stroke-linejoin="round"/>
<path d="M1339.37 751.964C1340.34 745.537 1341.32 739.11 1342.29 732.684" stroke="#060305" stroke-miterlimit="10" stroke-linecap="round" stroke-linejoin="round"/>
<path d="M1344.15 772.461L1328.17 769.586L1331.07 753.525L1339.69 751.418L1347.04 756.399L1344.15 772.461Z" fill="#FDB044"/>
<path d="M1334.05 759.398C1336.38 759.418 1338.71 759.437 1341.04 759.456" stroke="#060305" stroke-miterlimit="10" stroke-linecap="round" stroke-linejoin="round"/>
<path d="M1334.05 764.23C1336.09 764.444 1338.14 764.658 1340.19 764.871" stroke="#060305" stroke-miterlimit="10" stroke-linecap="round" stroke-linejoin="round"/>
<path d="M1413.89 769.812C1409.85 770.312 1405.74 770.261 1401.71 769.658C1400.24 769.439 1398.7 769.106 1397.63 768.085C1396.56 767.064 1396.12 765.191 1397.21 764.187C1395.76 764.521 1394.28 764.857 1392.8 764.743C1391.31 764.629 1389.8 763.994 1388.97 762.756C1388.15 761.516 1388.21 759.297 1389.4 758.406C1387.87 758.98 1386.32 759.558 1384.69 759.683C1383.06 759.808 1381.32 759.42 1380.15 758.283C1378.97 757.147 1378.52 755.266 1379.46 753.928C1377.94 755.054 1375.66 755.002 1374.19 753.807C1372.72 752.613 1371.87 749.855 1373.2 748.51C1379.85 741.771 1386.51 735.032 1393.17 728.293C1401.96 726.299 1410.6 725.264 1419.61 724.966C1426.54 724.736 1433.49 727.816 1437.97 733.106C1442.45 738.396 1444.36 745.769 1443.02 752.571C1441.68 759.373 1437.1 765.464 1430.95 768.655L1413.89 769.812Z" fill="#FF9A7D"/>
<path d="M1378.02 755.256C1383.37 750.796 1388.73 746.335 1394.08 741.873" stroke="#060305" stroke-miterlimit="10" stroke-linecap="round" stroke-linejoin="round"/>
<path d="M1387.21 759.545C1391.08 757.616 1394.95 755.686 1398.82 753.757" stroke="#060305" stroke-miterlimit="10" stroke-linecap="round" stroke-linejoin="round"/>
<path d="M1396.11 764.862C1398.3 764.229 1400.49 763.596 1402.68 762.963" stroke="#060305" stroke-miterlimit="10" stroke-linecap="round" stroke-linejoin="round"/>
<path d="M1208.04 714.137C1216.79 712.93 1225.86 714.138 1234.01 717.524C1237.4 718.929 1239.62 722.238 1239.69 725.903C1239.83 734.571 1239.81 743.178 1240.05 751.879C1237.67 752.474 1235.64 751.002 1233.9 749.271C1227.08 742.478 1220.21 735.635 1214.72 727.727C1211.95 723.75 1210.04 718.544 1208.04 714.137Z" fill="#FF9A7D"/>
<path d="M1246.74 767.683L1243.61 767.822C1242.44 767.873 1241.39 767.132 1241.04 766.02L1221.28 702.198C1220.38 699.281 1217.31 697.397 1214.39 698.281C1211.31 699.212 1209.71 702.568 1210.89 705.53L1235.65 767.922C1236.08 769.006 1235.73 770.242 1234.79 770.933L1232.26 772.791C1230.82 773.85 1230.29 775.753 1230.97 777.407L1241.53 802.988L1244.34 801.995L1238.93 785.516C1238.63 784.611 1239.12 783.634 1240.01 783.318L1240.13 783.278C1241.02 782.962 1242.01 783.417 1242.35 784.304L1248.54 800.513L1251.42 799.499L1246.1 782.976C1245.81 782.073 1246.29 781.103 1247.19 780.787C1248.08 780.472 1249.07 780.924 1249.41 781.81L1255.65 798.006L1258.47 797.014L1250.64 770.47C1250.13 768.753 1248.52 767.604 1246.74 767.683Z" fill="#060305"/>
<path d="M1232.71 777.8C1238.21 775.927 1243.71 774.052 1249.21 772.179" stroke="white" stroke-miterlimit="10" stroke-linecap="round" stroke-linejoin="round"/>
<path d="M1188.55 759.306C1185.95 758.403 1184.05 755.783 1184 753.032C1183.95 750.282 1185.75 747.593 1188.32 746.593C1186.04 744.799 1184.87 741.447 1185.35 738.592C1185.83 735.736 1187.95 733.216 1190.69 732.263C1188.78 729.638 1188.45 726.193 1190.33 723.548C1192.21 720.903 1195.86 719.661 1198.97 720.608C1198.16 718.396 1198.88 715.802 1200.39 713.994C1201.89 712.185 1204.4 711.263 1206.72 711.663C1208.7 712.003 1210.41 713.199 1212.06 714.364C1219.39 719.571 1223.15 727.78 1228.83 734.761C1233.99 741.116 1234.63 750.175 1237.74 757.752C1236.15 759.101 1233.43 759.48 1231.82 758.152C1233.53 760.131 1235.25 762.109 1236.96 764.088C1236.51 765.786 1234.46 766.756 1232.71 766.621C1230.96 766.486 1229.39 765.558 1227.88 764.654C1229.07 765.991 1230.25 767.326 1231.44 768.662C1230.96 770.132 1228.96 771.072 1227.42 771.183C1225.88 771.293 1224.37 770.767 1222.94 770.176C1220.58 769.203 1218.32 768.029 1216.16 766.67C1216.22 768.026 1214.46 768.85 1213.11 769.001C1211.76 769.152 1210.44 768.625 1209.18 768.11C1202.08 765.195 1195.81 761.829 1188.55 759.306Z" fill="#FF9A7D"/>
<path d="M1203.6 725.253C1213.54 736.543 1223.48 747.834 1233.42 759.126" stroke="#060305" stroke-miterlimit="10" stroke-linecap="round" stroke-linejoin="round"/>
<path d="M1196.27 737.441C1207.46 746.869 1218.64 756.297 1229.82 765.725" stroke="#060305" stroke-miterlimit="10" stroke-linecap="round" stroke-linejoin="round"/>
<path d="M1192.03 749.969C1199.89 755.45 1207.74 760.931 1215.6 766.414" stroke="#060305" stroke-miterlimit="10" stroke-linecap="round" stroke-linejoin="round"/>
<path d="M1266.09 795.064C1270.35 795.064 1273.8 791.615 1273.8 787.361C1273.8 783.106 1270.35 779.657 1266.09 779.657C1261.84 779.657 1258.39 783.106 1258.39 787.361C1258.39 791.615 1261.84 795.064 1266.09 795.064Z" fill="#B478FF"/>
<path d="M1267.97 780.976C1269.14 779.177 1270.3 777.379 1271.47 775.579" stroke="#060305" stroke-miterlimit="10" stroke-linecap="round" stroke-linejoin="round"/>
<path d="M1307.37 793.568H1228V820.354H1307.37V793.568Z" fill="#FF9A7D"/>
<path d="M1235.14 801.119C1239.73 801.265 1244.31 801.41 1248.9 801.556" stroke="#060305" stroke-miterlimit="10" stroke-linecap="round" stroke-linejoin="round"/>
<path d="M1246.36 807.679C1248.9 807.745 1251.45 807.812 1253.99 807.879" stroke="#060305" stroke-miterlimit="10" stroke-linecap="round" stroke-linejoin="round"/>
<path d="M1236.19 814.276C1238.45 814.415 1240.71 814.553 1242.97 814.692" stroke="#060305" stroke-miterlimit="10" stroke-linecap="round" stroke-linejoin="round"/>
<path d="M1307.37 793.568H1263.33V820.354H1307.37V793.568Z" fill="#FFC9C8"/>
<path d="M1307.37 803.115H1263.33V810.808H1307.37V803.115Z" fill="#B478FF"/>
<path d="M1312.59 830.053H1220.94L1209.87 824.873C1206.6 823.344 1207.69 818.441 1211.3 818.441H1322.23C1325.84 818.441 1326.93 823.344 1323.66 824.873L1312.59 830.053Z" fill="white"/>
<path d="M1212.05 823.919C1248.76 823.765 1285.48 823.61 1322.19 823.454" stroke="#060305" stroke-miterlimit="10" stroke-linecap="round" stroke-linejoin="round"/>
<path d="M985.416 772.535C970.654 770.494 953.725 758.553 937.681 742.51L973.45 709.132L999.786 736.936L985.416 772.535Z" fill="#FFC9C8"/>
<path d="M772.139 820.36C764.681 792.775 778.504 749.93 786.418 737.254L840.671 753.256L828.723 809.05L772.139 820.36Z" fill="#FFC9C8"/>
<path d="M951.603 842.233C951.2 812.716 948.02 783.112 944.143 753.847C958.372 739.58 972.225 724.123 984.231 707.95C975.164 700.525 966.054 693.071 956.037 686.99C945.543 680.619 933.845 676.462 921.725 674.519C910.794 672.765 900.288 671.074 889.375 669.323C887.601 674.136 882.832 677.699 877.705 678.039C872.578 678.379 867.586 675.459 865.19 670.923C859.599 673.5 854.009 676.076 848.417 678.653C815.014 694.046 786.713 721.956 773.062 756.05C792.543 757.381 811.118 758.935 830.6 760.266C830.344 768.086 829.528 775.591 829.272 783.409C828.842 796.592 828.791 809.275 828.884 822.119C828.965 833.252 838.028 842.234 849.162 842.234L951.603 842.233Z" fill="white"/>
<path d="M848.085 681.514C850.897 690.742 858.141 698.426 867.04 701.622C875.94 704.817 886.28 703.446 894.092 698.035C901.905 692.622 907.004 683.299 907.433 673.644" stroke="#060305" stroke-miterlimit="10" stroke-linecap="round" stroke-linejoin="round"/>
<path d="M830.425 761.328C830.665 750.844 830.905 740.361 831.146 729.879" stroke="#060305" stroke-miterlimit="10" stroke-linecap="round" stroke-linejoin="round"/>
<path d="M944.391 754.489C943.761 739.754 940.874 725.117 935.859 711.246" stroke="#060305" stroke-miterlimit="10" stroke-linecap="round" stroke-linejoin="round"/>
<path d="M939.717 722.417C940.573 719.491 941.429 716.567 942.285 713.642" stroke="#060305" stroke-miterlimit="10" stroke-linecap="round" stroke-linejoin="round"/>
<path d="M944.085 744.44C956.01 733.648 967.076 721.907 977.141 709.36" stroke="#060305" stroke-miterlimit="10" stroke-linecap="round" stroke-linejoin="round"/>
<path d="M775.866 749.845C793.997 751.501 812.13 753.155 830.261 754.81" stroke="#060305" stroke-miterlimit="10" stroke-linecap="round" stroke-linejoin="round"/>
<path d="M933.393 828.457C921.78 828.457 912.333 819.009 912.333 807.397C912.333 795.784 921.782 786.337 933.393 786.337C945.005 786.337 954.454 795.786 954.454 807.397C954.452 819.01 945.005 828.457 933.393 828.457ZM933.393 793.537C925.751 793.537 919.533 799.755 919.533 807.397C919.533 815.039 925.751 821.256 933.393 821.256C941.035 821.256 947.252 815.038 947.252 807.397C947.252 799.755 941.034 793.537 933.393 793.537Z" fill="#B478FF"/>
<path d="M921.785 842.232H876.47C874.516 842.232 872.931 840.648 872.931 838.693V779.472C872.931 777.518 874.515 775.933 876.47 775.933H921.785C923.739 775.933 925.324 777.516 925.324 779.472V838.693C925.323 840.648 923.739 842.232 921.785 842.232Z" fill="#B478FF"/>
<path d="M925.725 787.216C925.662 790.18 925.6 793.146 925.537 796.11" stroke="#060305" stroke-miterlimit="10" stroke-linecap="round" stroke-linejoin="round"/>
<path d="M925.859 818.509C925.859 821.475 925.859 824.439 925.859 827.405" stroke="#060305" stroke-miterlimit="10" stroke-linecap="round" stroke-linejoin="round"/>
<path d="M875.506 781.734C891.337 781.639 907.169 781.546 923.001 781.451" stroke="#060305" stroke-miterlimit="10" stroke-linecap="round" stroke-linejoin="round"/>
<path d="M899.751 801.502C888.742 777.979 857.112 805.066 898.369 830.055C941.579 809.05 910.186 777.979 899.751 801.502Z" fill="#A03CFF"/>
<path d="M847.796 796.771C839.492 791.285 830.799 786.174 821.273 783.29C811.747 780.407 787.767 776.588 776.082 795.847C765.405 813.445 773.351 842.388 797.131 842.388C815.454 842.388 833.855 841.949 851.775 838.136L847.796 796.771Z" fill="#FFC9C8"/>
<path d="M829.103 786.137C816.925 779.928 802.074 779.214 789.355 784.227" stroke="#060305" stroke-miterlimit="10" stroke-linecap="round" stroke-linejoin="round"/>
<path d="M791.253 778.942C793.535 779.883 795.817 780.824 798.099 781.765" stroke="#060305" stroke-miterlimit="10" stroke-linecap="round" stroke-linejoin="round"/>
<path d="M998.089 653.425C987.184 664.329 972.526 685.693 966.382 722.594C960.239 759.494 972.154 771.501 985.416 772.537C1007.94 774.296 1018.35 754.11 1021.16 716.186C1024.49 671.377 1024.98 663.556 1024.98 663.556L998.089 653.425Z" fill="#FFC9C8"/>
<path d="M965.065 731.993C964.002 738.509 964.133 745.22 965.449 751.691" stroke="#060305" stroke-miterlimit="10" stroke-linecap="round" stroke-linejoin="round"/>
<path d="M1056.81 737.265H1006.95V828.592H1056.81V737.265Z" fill="white"/>
<path d="M901.514 673.989C898.332 673.493 895.329 672.975 892.146 672.479C891.572 668.173 891.274 663.858 890.7 659.552C881.567 658.961 872.508 659.004 863.378 659.66C863.378 664.603 863.378 669.544 863.378 674.487C860.435 676.122 857.19 677.681 854.247 679.314C856.296 686.518 861.621 692.718 868.607 695.412C875.593 698.106 883.828 697.326 890.183 693.364C896.538 689.401 900.858 681.449 901.514 673.989Z" fill="#FFC9C8"/>
<path d="M858.486 641.904C858.811 636.43 859.142 630.919 860.509 625.596C861.875 620.272 864.353 615.089 868.433 611.255" stroke="#FF8632" stroke-miterlimit="10" stroke-linecap="round" stroke-linejoin="round"/>
<path d="M903.857 656.9C904.203 653.383 902.284 649.941 899.088 648.429C897.681 643.546 896.113 638.36 894.706 633.477C896.797 631.368 897.815 628.246 897.371 625.31C896.925 622.374 895.027 619.694 892.407 618.299C890.727 617.405 888.92 616.798 887.24 617.696C887.927 616.089 887.198 614.014 885.654 613.192C884.11 612.369 882.034 612.976 881.083 614.442C881.28 612.436 879.725 610.413 877.736 610.085C875.828 609.771 874.216 610.338 872.717 611.559C863.62 618.966 858.297 630.784 858.779 642.504C859.02 648.37 859.621 654.367 862.506 659.48C865.392 664.591 869.898 668.772 875.209 671.27C880.702 673.854 887.285 673.598 892.707 670.865C898.128 668.132 903.264 662.942 903.857 656.9Z" fill="#FF8632"/>
<path d="M901.53 652.029C896.571 650.824 891.381 650.834 886.318 651.466C881.254 652.097 876.514 653.474 871.565 654.712C870.112 651.043 866.931 647.588 867.359 643.664C867.778 639.819 868.197 635.976 868.616 632.131C870.644 633.286 872.856 633.705 874.99 632.763C877.125 631.821 878.763 629.828 879.277 627.552C880.51 628.72 882.229 629.371 883.927 629.306C885.625 629.241 887.284 628.467 888.426 627.208C890.611 627.925 892.52 628.83 894.705 629.548C898.82 636.081 901.414 644.308 901.53 652.029Z" fill="#FFC9C8"/>
<path d="M865.104 642.52C863.219 641.327 860.881 640.862 858.686 641.269C856.492 641.676 854.47 642.958 853.186 644.784C850.897 648.042 851.344 652.932 854.184 655.721C857.024 658.509 861.921 658.867 865.138 656.52L865.104 642.52Z" fill="#FFC9C8"/>
<path d="M856.69 646.677C858.9 647.557 861.112 648.438 863.322 649.318" stroke="#060305" stroke-miterlimit="10" stroke-linecap="round" stroke-linejoin="round"/>
<path d="M873.852 639.852C874.446 638.388 875.793 637.255 877.337 636.916C878.88 636.579 880.578 637.048 881.729 638.13" stroke="#060305" stroke-miterlimit="10" stroke-linecap="round" stroke-linejoin="round"/>
<path d="M891.004 637.945C891.463 636.707 892.684 635.786 894.001 635.683C895.319 635.579 896.666 636.3 897.313 637.452" stroke="#060305" stroke-miterlimit="10" stroke-linecap="round" stroke-linejoin="round"/>
<path d="M887.282 643.995C887.866 646.303 888.452 648.612 889.036 650.92C888.355 650.899 887.675 650.878 886.994 650.857" stroke="#060305" stroke-miterlimit="10" stroke-linecap="round" stroke-linejoin="round"/>
<path d="M881.939 654.571C882.174 655.762 883.094 656.794 884.251 657.16C885.409 657.527 886.754 657.216 887.633 656.38" stroke="#060305" stroke-miterlimit="10" stroke-linecap="round" stroke-linejoin="round"/>
<path d="M878.647 648.476C879.641 648.476 880.447 647.67 880.447 646.677C880.447 645.683 879.641 644.877 878.647 644.877C877.653 644.877 876.848 645.683 876.848 646.677C876.848 647.67 877.653 648.476 878.647 648.476Z" fill="#060305"/>
<path d="M894.958 646.675C895.952 646.675 896.757 645.87 896.757 644.876C896.757 643.882 895.952 643.076 894.958 643.076C893.964 643.076 893.158 643.882 893.158 644.876C893.158 645.87 893.964 646.675 894.958 646.675Z" fill="#060305"/>
<path d="M854.292 797.737C870.635 800.502 886.605 805.45 901.647 812.408C902.319 813.393 901.398 814.816 900.395 815.46C899.39 816.103 898.134 816.165 896.943 816.209C893.54 816.331 890.137 816.456 886.734 816.579C892.086 818.231 897.437 819.883 902.789 821.535C902.085 822.951 900.624 824.205 899.118 824.686C897.611 825.166 896.01 825.236 894.429 825.303C889.025 825.529 883.621 825.757 878.217 825.984C884.226 828.006 889.622 830.616 895.631 832.637C895.366 833.996 893.852 834.99 892.563 835.501C891.276 836.011 889.86 836.078 888.476 836.138C885.826 836.253 883.174 836.369 880.524 836.485C877.736 839.721 873.501 841.145 869.275 841.778C857.055 843.61 844.486 843.092 832.457 840.265C826.186 833.747 823.315 823.272 825.316 814.451C827.316 805.63 833.971 798.006 842.439 794.829C846.117 795.492 850.606 797.113 854.292 797.737Z" fill="#FFC9C8"/>
<path d="M844.051 795.59C840.745 795.42 837.447 796.602 834.776 798.558C832.104 800.514 830.029 803.203 828.477 806.128C825.578 811.594 824.452 817.982 825.308 824.109C826.164 830.235 828.996 836.071 833.281 840.531" stroke="#060305" stroke-miterlimit="10" stroke-linecap="round" stroke-linejoin="round"/>
<path d="M865.459 811.704C873.524 813.427 881.589 815.149 889.654 816.87" stroke="#060305" stroke-miterlimit="10" stroke-linecap="round" stroke-linejoin="round"/>
<path d="M863.086 823.416C869.085 824.614 875.082 825.81 881.08 827.008" stroke="#060305" stroke-miterlimit="10" stroke-linecap="round" stroke-linejoin="round"/>
<path d="M1053.79 753.078H1009.97V823.505H1053.79V753.078Z" fill="#C14F4F"/>
<path d="M1053.79 815.457V823.505H1009.97V814.934C1011.57 815.564 1013.17 816.194 1014.79 816.825C1016.49 814.899 1017.85 812.756 1019.55 810.848C1021.55 813.135 1023.8 814.934 1025.8 817.22C1027.04 816.283 1028.26 815.347 1029.5 814.412C1030.04 816.013 1030.6 817.599 1031.16 819.2C1032.29 817.958 1034.31 816.824 1036 816.841C1037.69 816.841 1039.37 817.597 1040.5 818.876C1041.3 817.706 1042.11 816.175 1042.9 815.024C1044.26 816.357 1045.63 817.706 1047 819.039C1049.25 817.906 1051.52 816.662 1053.79 815.457Z" fill="#060305"/>
<path d="M1015.64 802.786C1017.62 803.484 1019.6 804.182 1021.58 804.88" stroke="#060305" stroke-miterlimit="10" stroke-linecap="round" stroke-linejoin="round"/>
<path d="M1035.56 803.539C1037.4 803.183 1039.23 802.827 1041.07 802.471" stroke="#060305" stroke-miterlimit="10" stroke-linecap="round" stroke-linejoin="round"/>
<path d="M1049.23 805.778C1048.18 807.136 1047.12 808.495 1046.06 809.853" stroke="#060305" stroke-miterlimit="10" stroke-linecap="round" stroke-linejoin="round"/>
<path d="M1026.67 812.016C1029.21 811.66 1031.75 811.304 1034.29 810.949" stroke="#060305" stroke-miterlimit="10" stroke-linecap="round" stroke-linejoin="round"/>
<path d="M1014.77 808.409C1013.86 809.405 1012.95 810.402 1012.04 811.396" stroke="#060305" stroke-miterlimit="10" stroke-linecap="round" stroke-linejoin="round"/>
<path d="M1026.25 798.094C1027.31 798.024 1028.37 797.954 1029.43 797.884" stroke="#060305" stroke-miterlimit="10" stroke-linecap="round" stroke-linejoin="round"/>
<path d="M1033.87 724.895H1029.89V793.178H1033.87V724.895Z" fill="#060305"/>
<path d="M1051.26 794.718H1012.5C1011.57 794.718 1010.82 793.967 1010.82 793.04C1010.82 792.185 1011.46 791.468 1012.31 791.372L1031.76 789.167C1031.88 789.153 1032.01 789.153 1032.13 789.167L1051.45 791.372C1052.3 791.468 1052.94 792.185 1052.94 793.04V793.041C1052.94 793.966 1052.19 794.718 1051.26 794.718Z" fill="#060305"/>
<path d="M1034.78 703.65H1028.98V728.11H1034.78V703.65Z" fill="#060305"/>
<path d="M1031.88 709.621C1035.59 709.621 1038.6 706.611 1038.6 702.898C1038.6 699.185 1035.59 696.175 1031.88 696.175C1028.17 696.175 1025.16 699.185 1025.16 702.898C1025.16 706.611 1028.17 709.621 1031.88 709.621Z" fill="#060305"/>
<path d="M1057.55 740.49H1006.21C1005.07 740.49 1004.15 739.569 1004.15 738.431V736.094C1004.15 734.958 1005.07 734.035 1006.21 734.035H1057.55C1058.69 734.035 1059.61 734.956 1059.61 736.094V738.431C1059.61 739.569 1058.69 740.49 1057.55 740.49Z" fill="#03A0FF"/>
<path d="M1006.95 734.824C1006.95 734.824 1029.97 708.947 1056.81 734.824H1006.95Z" fill="#03A0FF"/>
<path d="M1007.61 734.018C1023.64 733.99 1039.67 733.961 1055.69 733.932" stroke="#060305" stroke-miterlimit="10" stroke-linecap="round" stroke-linejoin="round"/>
<path d="M1022.88 724.982C1028.48 728.597 1035.97 729.078 1042 726.207" stroke="#060305" stroke-miterlimit="10" stroke-linecap="round" stroke-linejoin="round"/>
<path d="M1060.54 839.133H1003.22C1001.32 839.133 1000.12 837.093 1001.04 835.432L1003.88 830.33C1004.47 829.257 1005.61 828.592 1006.83 828.592H1056.93C1058.16 828.592 1059.29 829.257 1059.88 830.33L1062.72 835.432C1063.64 837.093 1062.44 839.133 1060.54 839.133Z" fill="#03A0FF"/>
<path d="M995.147 657.095C989.875 668.714 991.115 683.041 998.303 693.582C1002.14 699.211 1004.3 706.002 1007.23 712.154C1008.81 712.024 1010.37 710.754 1010.91 709.266C1011.45 707.779 1011.41 706.151 1011.36 704.569C1011.19 699.351 1011.02 694.133 1010.85 688.917C1012.25 688.464 1013.54 686.928 1014.94 686.475C1019.2 692.168 1024.03 697.639 1029.5 702.184C1031.97 704.236 1035.62 705.457 1038.59 704.234C1039.58 706.02 1042.72 705.792 1044.09 704.283C1041.99 699.309 1039.64 694.154 1037.54 689.18C1039.83 689.727 1042.41 687.077 1042.27 684.723C1043.64 684.663 1044.36 683.53 1044.66 682.192C1044.96 680.853 1044.65 679.463 1044.3 678.138C1042.45 671.189 1039.37 664.471 1034.58 659.104C1029.8 653.737 1023.22 649.802 1016.08 648.987C1008.94 648.169 998.118 650.55 995.147 657.095Z" fill="#FFC9C8"/>
<path d="M992.214 670.15C991.344 679.401 994.037 688.941 999.613 696.373C1003.27 701.247 1005.26 707.298 1007.88 712.804C1009.61 712.239 1010.68 710.199 1011.16 708.44C1011.64 706.681 1011.52 704.823 1011.41 703.003C1011.1 698.188 1010.79 693.372 1010.48 688.557C1012.07 687.855 1013.38 687.459 1014.97 686.757C1017.63 690.039 1020.19 693.14 1022.84 696.422" stroke="#060305" stroke-miterlimit="10" stroke-linecap="round" stroke-linejoin="round"/>
<path d="M1021.91 677.964C1027.34 686.816 1032.78 695.67 1038.21 704.523" stroke="#060305" stroke-miterlimit="10" stroke-linecap="round" stroke-linejoin="round"/>
<path d="M1029.48 673.4C1032.2 678.817 1034.93 684.235 1037.65 689.651" stroke="#060305" stroke-miterlimit="10" stroke-linecap="round" stroke-linejoin="round"/>
<path d="M1035.92 669.873C1038.04 674.804 1040.16 679.736 1042.28 684.666" stroke="#060305" stroke-miterlimit="10" stroke-linecap="round" stroke-linejoin="round"/>
<path d="M1134.71 306.621L1150.66 468.332H1086.04L1117 315.994C1118.82 307.024 1125.28 299.7 1133.95 296.77L1151.2 290.948L1134.71 306.621Z" fill="#772227"/>
<path d="M1390.01 290.204L1272.32 402.021L1360.75 525.7L1509 384.852L1390.01 290.204Z" fill="#C14F4F"/>
<path d="M1212.45 215.207L1206.51 220.849L1178.6 204.94C1173.39 201.967 1172.89 194.599 1177.61 190.117L1183.24 184.767C1187.95 180.285 1195.29 181.154 1197.99 186.517L1212.45 215.207Z" fill="#C14F4F"/>
<path d="M1382.51 307.566L1290.03 395.417L1215.46 330.706L1134.71 306.622L1276.49 171.925L1382.51 307.566Z" fill="#C14F4F"/>
<path d="M1168.06 274.934C1168.06 274.934 1164.76 184.507 1268.43 179.578L1168.06 274.934Z" fill="#060305"/>
<path d="M1268.02 179.144L1280.79 167.704C1285.42 163.781 1288.11 160.59 1295.7 155.01C1309.32 145.625 1326.84 143.061 1341.15 148.542C1342.91 149.237 1344.67 149.976 1346.31 150.895L1348.74 152.279L1350.48 153.421C1352.8 154.942 1355.13 156.462 1357.37 158.07C1361.9 161.223 1366.3 164.526 1370.57 167.964C1379.12 174.811 1387.27 182.073 1394.88 189.833C1410.25 205.195 1423.67 222.265 1435.53 240.254C1447.38 258.267 1457.45 277.404 1465.91 297.218C1467.58 301.109 1465.63 305.889 1461.55 307.894C1457.65 309.818 1453.19 308.446 1451.37 304.896C1441.95 286.46 1431.11 268.906 1418.73 252.668C1406.33 236.455 1392.65 221.34 1377.4 208.082C1369.84 201.378 1361.85 195.208 1353.6 189.491C1349.49 186.617 1345.27 183.886 1340.99 181.329C1338.86 180.007 1336.68 178.79 1334.51 177.573L1332.88 176.655L1331.82 176.177C1331.14 175.841 1330.4 175.637 1329.68 175.401C1323.86 173.681 1316.93 175.289 1312.01 179.262C1310.42 180.491 1305.35 185.804 1301.56 189.566L1289.48 201.732C1282.86 208.398 1272.52 208.907 1266.37 202.874C1260.24 196.84 1260.61 186.549 1267.23 179.889C1267.49 179.646 1267.77 179.373 1268.02 179.144Z" fill="#C14F4F"/>
<path d="M1283.34 390.711C1315.47 360.364 1347.59 330.023 1379.71 299.676" stroke="#060305" stroke-miterlimit="10" stroke-linecap="round" stroke-linejoin="round"/>
<path d="M1353.3 511.659C1400.37 466.03 1447.46 420.407 1494.53 374.777" stroke="#060305" stroke-miterlimit="10" stroke-linecap="round" stroke-linejoin="round"/>
<path d="M1297.66 382.91C1323.29 418.533 1348.93 454.15 1374.56 489.773" stroke="#060305" stroke-miterlimit="10" stroke-linecap="round" stroke-linejoin="round"/>
<path d="M1322.99 354.331C1350.91 389.11 1378.83 423.895 1406.74 458.674" stroke="#060305" stroke-miterlimit="10" stroke-linecap="round" stroke-linejoin="round"/>
<path d="M1352 326.634C1382.58 358.266 1413.17 389.892 1443.75 421.524" stroke="#060305" stroke-miterlimit="10" stroke-linecap="round" stroke-linejoin="round"/>
<path d="M1376.57 301.979C1410.11 331.669 1443.66 361.358 1477.21 391.041" stroke="#060305" stroke-miterlimit="10" stroke-linecap="round" stroke-linejoin="round"/>
<path d="M1164.98 282.756C1180.97 297.275 1196.95 311.793 1212.94 326.318" stroke="#060305" stroke-miterlimit="10" stroke-linecap="round" stroke-linejoin="round"/>
<path d="M1277.09 172.943C1284.12 180.907 1291.15 188.871 1298.18 196.834" stroke="#060305" stroke-miterlimit="10" stroke-linecap="round" stroke-linejoin="round"/>
<path d="M1180.17 230.844C1200.21 225.624 1217.39 210.429 1225.01 191.174" stroke="white" stroke-miterlimit="10" stroke-linecap="round" stroke-linejoin="round"/>
<path d="M1005.12 559.671C988.376 559.671 972.988 555.053 961.17 546.363C944.77 534.302 935.975 513.899 939.271 495.575C942.765 476.128 959.376 460.113 979.655 456.637C998.115 453.471 1018.49 460.995 1031.55 475.793C1035.05 479.753 1034.67 485.792 1030.72 489.281C1026.76 492.776 1020.72 492.391 1017.23 488.443C1008.45 478.493 994.974 473.409 982.883 475.476C970.58 477.586 960.146 487.456 958.079 498.958C956.043 510.267 961.834 523.123 972.492 530.956C982.398 538.237 996.178 541.533 1011.29 540.298C1026.67 539.013 1041.49 533.408 1053.97 528.095C1058.81 526.028 1064.43 528.287 1066.51 533.147C1068.57 538.001 1066.31 543.613 1061.45 545.686C1047.58 551.589 1030.96 557.833 1012.88 559.342C1010.26 559.559 1007.67 559.671 1005.12 559.671Z" fill="white"/>
<path d="M1211.7 439.375C1211.7 514.979 1192.81 576.269 1115.56 576.269C1038.67 576.269 1019.42 514.979 1019.42 439.375H1211.7Z" fill="white"/>
<path d="M1018.33 465.452C1019.86 475.191 1021.4 484.93 1022.93 494.663" stroke="#060305" stroke-miterlimit="10" stroke-linecap="round" stroke-linejoin="round"/>
<path d="M1035.35 534.532C1040.11 540.516 1044.87 546.499 1049.63 552.483" stroke="#060305" stroke-miterlimit="10" stroke-linecap="round" stroke-linejoin="round"/>
<path d="M1028.17 453.683C1085.89 454.092 1143.6 454.502 1201.32 454.912" stroke="#060305" stroke-miterlimit="10" stroke-linecap="round" stroke-linejoin="round"/>
<path opacity="0.5" d="M1049.61 319.459C1025.57 295.524 992.546 283.001 959.768 274.332C926.991 265.664 893.189 260.101 861.91 247.012C848.315 241.322 835.118 234.114 824.601 223.778C800.638 200.236 793.949 163.791 796.513 130.275C797.655 115.329 800.444 100.311 806.939 86.8022C813.434 73.2981 823.915 61.3441 837.537 55.1208C848.87 49.9415 862.844 49.1777 873.397 55.8032C887.994 64.9642 891.727 84.4249 892.435 101.658C893.139 118.89 892.625 137.569 902.762 151.512C908.034 158.765 919.485 163.759 925.506 157.116C927.686 154.711 928.476 151.403 929.491 148.321C935.35 130.6 954.912 116.292 972.537 122.384C986.773 127.306 994.469 143.187 995.913 158.196C997.357 173.205 994.107 188.255 993.963 203.332C993.819 218.409 997.646 234.878 1009.64 243.993C1015.49 248.431 1022.66 250.65 1029.49 253.321C1049.83 261.262 1068.63 274.188 1081.06 292.157C1094.41 311.469 1099.67 335.472 1099.99 358.959C1100.27 379.717 1096.1 399.598 1093.44 420.035C1091.42 384.964 1074.97 344.709 1049.61 319.459Z" fill="#FFE2D6"/>
<path d="M1696.7 636.897C1696.87 645.436 1696.38 651.782 1692.73 658.142C1690.22 662.516 1686.52 666.065 1683.46 670.074C1680.41 674.084 1677.91 678.946 1678.47 683.957" stroke="#FE5E04" stroke-miterlimit="10" stroke-linecap="round" stroke-linejoin="round"/>
<path d="M1689.22 688.469C1685.54 689.104 1682.11 685.567 1681.57 681.756C1681.04 677.945 1682.7 674.156 1684.82 670.986C1686.94 667.819 1689.56 665 1691.36 661.632C1695.13 654.625 1694.94 646.143 1694.37 638.153C1693.79 630.164 1692.94 621.873 1695.62 614.352C1698.29 606.83 1705.76 600.409 1713.34 602.112C1718.88 598.776 1725.93 599.588 1731.32 603.172C1736.72 606.755 1740.49 612.433 1743.45 618.303C1750.88 633.012 1754.1 649.54 1757.23 665.814L1689.22 688.469Z" fill="#FE5E04"/>
<path d="M1754.27 649.789C1736.82 651.782 1720.19 660.299 1708.37 673.298C1714.27 699.697 1722.58 725.967 1733.88 750.546C1740.38 717.111 1747.77 683.222 1754.27 649.789Z" fill="white"/>
<path d="M1711.86 679.32C1713.17 683.678 1716.35 687.443 1720.43 689.453C1724.51 691.463 1729.43 691.691 1733.68 690.065C1737.81 688.488 1741.16 685.304 1743.68 681.675C1746.2 678.046 1747.96 673.961 1749.71 669.904" stroke="#060305" stroke-miterlimit="10" stroke-linecap="round" stroke-linejoin="round"/>
<path d="M1752.08 644.048C1748.66 644.618 1744.59 645.066 1741.17 645.636C1738.9 642.145 1736.49 638.656 1733.76 635.519C1736.33 634.282 1738.46 632.007 1739.21 629.253C1739.96 626.499 1739.19 623.309 1737.05 621.415C1735.25 619.813 1732.57 619.262 1730.28 620.024C1727.99 620.785 1726.18 622.825 1725.69 625.187C1723.97 623.205 1721.65 621.571 1719.93 619.59C1717.92 621.876 1713.84 622.462 1710.8 622.292C1707.75 622.121 1704.82 620.492 1703.08 617.996C1700.24 619.241 1698.05 621.625 1697.12 624.581C1696.2 627.536 1696.32 630.737 1696.96 633.766C1697.61 636.794 1698.77 639.684 1699.92 642.559C1701.16 645.643 1702.67 648.988 1705.48 650.749C1708.3 652.51 1711.88 653.004 1715.06 652.075C1716.13 654.456 1717.04 656.695 1718.1 659.075C1715.73 661.778 1712.67 664.267 1710.3 666.97C1718.82 700.722 1747.58 685.648 1752.08 644.048Z" fill="#FF9A7D"/>
<path d="M1729.87 628.117C1731.07 626.785 1732.28 625.452 1733.49 624.121" stroke="#060305" stroke-miterlimit="10" stroke-linecap="round" stroke-linejoin="round"/>
<path d="M1714.63 652.612C1718.67 652.15 1722.51 650.035 1725.06 646.858" stroke="#060305" stroke-miterlimit="10" stroke-linecap="round" stroke-linejoin="round"/>
<path d="M1700.26 638.138C1701.25 638.138 1702.06 637.333 1702.06 636.339C1702.06 635.345 1701.25 634.539 1700.26 634.539C1699.26 634.539 1698.46 635.345 1698.46 636.339C1698.46 637.333 1699.26 638.138 1700.26 638.138Z" fill="#060305"/>
<path d="M1715 634.048C1716 634.048 1716.8 633.243 1716.8 632.249C1716.8 631.255 1716 630.449 1715 630.449C1714.01 630.449 1713.21 631.255 1713.21 632.249C1713.21 633.243 1714.01 634.048 1715 634.048Z" fill="#060305"/>
<path d="M1706.17 634.324C1706.45 636.704 1706.73 639.086 1707.01 641.467C1707.8 641.149 1708.43 640.832 1709.22 640.514" stroke="#060305" stroke-miterlimit="10" stroke-linecap="round" stroke-linejoin="round"/>
<path d="M1713.38 641.897C1714.32 642.497 1715.58 642.534 1716.55 641.992C1717.51 641.45 1718.14 640.352 1718.12 639.243" stroke="#060305" stroke-miterlimit="10" stroke-linecap="round" stroke-linejoin="round"/>
<path d="M1695.58 631.94C1695.73 631.024 1696.39 630.21 1697.26 629.882C1698.13 629.554 1699.17 629.723 1699.88 630.31" stroke="#060305" stroke-miterlimit="10" stroke-linecap="round" stroke-linejoin="round"/>
<path d="M1709.31 628.121C1709.39 626.634 1710.42 625.239 1711.82 624.73C1713.22 624.22 1714.91 624.625 1715.93 625.713" stroke="#060305" stroke-miterlimit="10" stroke-linecap="round" stroke-linejoin="round"/>
<path d="M1702.96 617.332C1702.68 620.172 1704.17 623.113 1706.62 624.571" stroke="#FE5E04" stroke-miterlimit="10" stroke-linecap="round" stroke-linejoin="round"/>
<path d="M1607.14 832.409C1594.03 830.599 1579.55 831.9 1568.81 824.183C1557.96 816.395 1551.16 802.93 1552.32 789.631C1553.49 776.332 1563.36 763.407 1576.21 759.816C1600.69 759.923 1625.78 761.532 1650.05 764.806C1654.5 752.912 1658.96 741.019 1663.42 729.126C1667.79 717.478 1670.35 704.904 1677.86 694.983C1683.24 687.867 1689.02 681.514 1694.41 674.398C1694.2 673.623 1694.01 672.435 1693.8 671.66C1694.81 667.866 1697.2 664.455 1700.41 662.206C1703.63 659.957 1707.77 660.078 1711.68 660.436C1715.46 685.294 1722.14 709.708 1731.55 733.02C1738.32 701.938 1743.73 670.559 1747.77 639.006C1751.26 634.458 1756.31 630.913 1761.99 630.101C1767.67 629.289 1773.64 630.78 1778.27 634.167C1778.43 635.654 1778.13 637.331 1778.29 638.818C1785.07 638.708 1791.71 638.739 1798.49 638.629C1817.54 638.32 1836.05 650.977 1844.9 667.842C1860.1 696.8 1873.49 727.201 1877.24 759.693C1878.27 768.711 1874.41 778.965 1868.54 785.888C1862.67 792.811 1853.97 797.255 1844.92 797.952C1845.56 810.13 1846.59 820.231 1847.23 832.409H1607.14Z" fill="#B478FF"/>
<path d="M1799.33 715.42C1795.3 699.677 1791.27 683.935 1787.24 668.193C1785.61 661.849 1786.79 654.686 1790.66 649.408C1794.54 644.13 1800.95 640.801 1807.49 640.664" stroke="#060305" stroke-miterlimit="10" stroke-linecap="round" stroke-linejoin="round"/>
<path d="M1752.08 711.455C1768.36 711.904 1786.85 714.428 1801.19 716.129C1813.5 717.589 1825.99 718.971 1837.15 724.372" stroke="#060305" stroke-miterlimit="10" stroke-linecap="round" stroke-linejoin="round"/>
<path d="M1845.48 798.636C1827.36 798.752 1787.04 790.613 1749.94 759.171" stroke="#060305" stroke-miterlimit="10" stroke-linecap="round" stroke-linejoin="round"/>
<path d="M1773.93 775.813C1782.42 768.665 1788.6 758.825 1791.36 748.079C1794.12 737.332 1793.44 725.729 1789.45 715.377" stroke="#060305" stroke-miterlimit="10" stroke-linecap="round" stroke-linejoin="round"/>
<path d="M1693.55 673.088C1697.62 692.991 1717.25 756.57 1727.37 774.183" stroke="#060305" stroke-miterlimit="10" stroke-linecap="round" stroke-linejoin="round"/>
<path d="M1682.59 689.612C1685.5 691.224 1687.35 694.324 1688.19 697.54C1689.04 700.759 1689 704.132 1688.95 707.457C1688.81 718.395 1688.66 729.332 1688.51 740.27C1688.08 772.54 1684.35 799.095 1682.07 831.286" stroke="#060305" stroke-miterlimit="10" stroke-linecap="round" stroke-linejoin="round"/>
<path d="M1651.06 782.856C1650.39 776.577 1649.72 770.298 1649.05 764.018C1649.54 763.469 1650.66 763.459 1651.3 763.825C1651.94 764.192 1652.37 764.822 1652.79 765.43C1655.07 768.772 1657.35 772.111 1659.62 775.453" stroke="#060305" stroke-miterlimit="10" stroke-linecap="round" stroke-linejoin="round"/>
<path d="M1684.68 808.741C1737.73 807.347 1790.83 807.448 1843.88 809.05" stroke="#060305" stroke-miterlimit="10" stroke-linecap="round" stroke-linejoin="round"/>
<path d="M1685.56 795.537C1727.54 795.73 1769.52 794.374 1811.49 793.021" stroke="#060305" stroke-miterlimit="10" stroke-linecap="round" stroke-linejoin="round"/>
<path d="M1778.54 637.986C1768.36 680.037 1758.18 711.026 1758.18 711.026" stroke="#060305" stroke-miterlimit="10" stroke-linecap="round" stroke-linejoin="round"/>
<path d="M1746.86 752.521C1746.27 755.502 1745.67 758.482 1745.08 761.46C1742.89 772.517 1740.69 783.574 1738.5 794.63" stroke="#060305" stroke-miterlimit="10" stroke-linecap="round" stroke-linejoin="round"/>
<path d="M1735.71 808.408C1733.89 818.657 1731.64 831.287 1731.64 831.287" stroke="#060305" stroke-miterlimit="10" stroke-linecap="round" stroke-linejoin="round"/>
<path d="M1731.34 733.287C1730.15 753.625 1728.95 773.961 1727.75 794.298" stroke="#060305" stroke-miterlimit="10" stroke-linecap="round" stroke-linejoin="round"/>
<path d="M1726.54 808.123C1726.06 818.331 1725.45 831.286 1725.45 831.286" stroke="#060305" stroke-miterlimit="10" stroke-linecap="round" stroke-linejoin="round"/>
<path d="M1637.24 756.213L1641.75 801.908H1623.49L1632.24 758.862C1632.75 756.327 1634.58 754.257 1637.03 753.429L1641.9 751.784L1637.24 756.213Z" fill="#772227"/>
<path d="M1709.38 751.574L1676.13 783.171L1701.11 818.119L1743.01 778.319L1709.38 751.574Z" fill="#C14F4F"/>
<path d="M1659.21 730.382L1657.53 731.976L1649.64 727.481C1648.17 726.64 1648.03 724.558 1649.36 723.292L1650.95 721.78C1652.29 720.514 1654.36 720.759 1655.12 722.275L1659.21 730.382Z" fill="#C14F4F"/>
<path d="M1707.26 756.48L1681.13 781.304L1660.06 763.019L1637.24 756.213L1677.3 718.151L1707.26 756.48Z" fill="#C14F4F"/>
<path d="M1646.67 747.259C1646.67 747.259 1645.73 721.707 1675.03 720.314L1646.67 747.259Z" fill="#060305"/>
<path d="M1674.91 720.191L1678.52 716.959C1679.83 715.85 1680.59 714.948 1682.73 713.372C1686.58 710.72 1691.53 709.995 1695.58 711.544C1696.07 711.74 1696.57 711.949 1697.03 712.209L1697.72 712.6L1698.21 712.923C1698.87 713.352 1699.53 713.782 1700.16 714.236C1701.44 715.127 1702.68 716.06 1703.89 717.032C1706.31 718.967 1708.61 721.019 1710.76 723.212C1715.1 727.553 1718.89 732.376 1722.25 737.459C1725.6 742.549 1728.44 747.957 1730.83 753.556C1731.3 754.656 1730.75 756.006 1729.6 756.573C1728.5 757.116 1727.24 756.729 1726.72 755.725C1724.06 750.516 1721 745.556 1717.5 740.967C1714 736.386 1710.13 732.115 1705.82 728.368C1703.68 726.474 1701.43 724.73 1699.1 723.115C1697.93 722.303 1696.74 721.531 1695.53 720.809C1694.93 720.435 1694.31 720.091 1693.7 719.747L1693.24 719.488L1692.94 719.353C1692.75 719.258 1692.54 719.2 1692.34 719.133C1690.69 718.648 1688.73 719.102 1687.34 720.224C1686.89 720.572 1685.46 722.073 1684.39 723.136L1680.98 726.574C1679.11 728.458 1676.18 728.602 1674.45 726.897C1672.71 725.192 1672.82 722.284 1674.69 720.402C1674.76 720.333 1674.84 720.256 1674.91 720.191Z" fill="#C14F4F"/>
<path d="M1679.24 779.974C1688.32 771.399 1697.4 762.825 1706.47 754.25" stroke="#060305" stroke-miterlimit="10" stroke-linecap="round" stroke-linejoin="round"/>
<path d="M1699.01 814.151C1712.31 801.257 1725.62 788.365 1738.92 775.472" stroke="#060305" stroke-miterlimit="10" stroke-linecap="round" stroke-linejoin="round"/>
<path d="M1683.29 777.77C1690.53 787.836 1697.77 797.9 1705.02 807.966" stroke="#060305" stroke-miterlimit="10" stroke-linecap="round" stroke-linejoin="round"/>
<path d="M1690.45 769.693C1698.33 779.521 1706.22 789.35 1714.11 799.178" stroke="#060305" stroke-miterlimit="10" stroke-linecap="round" stroke-linejoin="round"/>
<path d="M1698.64 761.867C1707.28 770.806 1715.93 779.742 1724.57 788.681" stroke="#060305" stroke-miterlimit="10" stroke-linecap="round" stroke-linejoin="round"/>
<path d="M1705.58 754.9C1715.06 763.29 1724.54 771.679 1734.02 780.067" stroke="#060305" stroke-miterlimit="10" stroke-linecap="round" stroke-linejoin="round"/>
<path d="M1645.79 749.469C1650.31 753.571 1654.83 757.674 1659.35 761.778" stroke="#060305" stroke-miterlimit="10" stroke-linecap="round" stroke-linejoin="round"/>
<path d="M1677.47 718.438C1679.46 720.689 1681.45 722.939 1683.43 725.19" stroke="#060305" stroke-miterlimit="10" stroke-linecap="round" stroke-linejoin="round"/>
<path d="M1650.09 734.8C1655.75 733.325 1660.6 729.031 1662.76 723.59" stroke="white" stroke-miterlimit="10" stroke-linecap="round" stroke-linejoin="round"/>
<path d="M1759.14 715.257C1748.26 708.244 1734.03 704.859 1721.9 709.358C1710.93 713.424 1700.81 719.761 1692.36 727.854C1691.36 728.815 1691.46 730.745 1692.29 731.862C1693.11 732.979 1694.67 733.492 1696 733.078C1699.22 732.074 1702.78 731.415 1706.03 730.525C1703.21 731.89 1700.83 733.551 1698.5 735.661C1697.12 736.915 1697.06 739.383 1698.41 740.671C1699.22 741.449 1700.39 741.77 1701.52 741.777C1702.65 741.784 1703.76 741.507 1704.85 741.232C1708.55 740.304 1712.24 739.374 1715.94 738.447C1714.62 739.588 1713.49 741.037 1712.87 742.665C1712.24 744.293 1712.63 746.461 1714.18 747.255C1714.98 747.664 1715.93 747.646 1716.83 747.592C1719.31 747.441 1721.79 747.09 1724.22 746.545C1723.41 747.501 1722.47 748.515 1722.14 749.725C1721.81 750.935 1722 752.351 1722.89 753.235C1723.6 753.94 1724.65 754.208 1725.65 754.175C1726.65 754.14 1727.62 753.836 1728.57 753.533C1731.68 752.55 1734.79 751.566 1737.89 750.584C1742.98 751.863 1748.25 753.489 1753.33 754.768C1776.43 751.509 1776.43 726.405 1759.14 715.257Z" fill="#FF9A7D"/>
<path d="M1702.5 731.736C1708.07 729.42 1713.64 727.105 1719.2 724.788" stroke="#060305" stroke-miterlimit="10" stroke-linecap="round" stroke-linejoin="round"/>
<path d="M1713.84 739.509C1716.96 738.269 1720.07 737.031 1723.19 735.791" stroke="#060305" stroke-miterlimit="10" stroke-linecap="round" stroke-linejoin="round"/>
<path d="M1722.06 747.841C1724.29 746.68 1726.52 745.519 1728.74 744.357" stroke="#060305" stroke-miterlimit="10" stroke-linecap="round" stroke-linejoin="round"/>
<path d="M1737.17 751.203C1738.75 750.696 1740.33 750.19 1741.91 749.683" stroke="#060305" stroke-miterlimit="10" stroke-linecap="round" stroke-linejoin="round"/>
<path d="M1600.62 827.719C1595.89 827.719 1591.54 826.414 1588.2 823.958C1583.57 820.55 1581.08 814.785 1582.02 809.607C1583 804.112 1587.7 799.587 1593.43 798.604C1598.64 797.71 1604.4 799.836 1608.09 804.017C1609.08 805.136 1608.97 806.843 1607.85 807.829C1606.74 808.816 1605.03 808.707 1604.04 807.592C1601.56 804.78 1597.76 803.344 1594.34 803.928C1590.86 804.524 1587.91 807.313 1587.33 810.563C1586.75 813.759 1588.39 817.391 1591.4 819.605C1594.2 821.662 1598.1 822.594 1602.37 822.245C1606.71 821.882 1610.9 820.298 1614.43 818.796C1615.79 818.212 1617.38 818.851 1617.97 820.224C1618.55 821.596 1617.91 823.181 1616.54 823.767C1612.62 825.435 1607.92 827.2 1602.82 827.626C1602.08 827.687 1601.34 827.719 1600.62 827.719Z" fill="white"/>
<path d="M1659 793.727C1659 815.09 1653.66 832.409 1631.83 832.409C1610.1 832.409 1604.66 815.09 1604.66 793.727H1659Z" fill="white"/>
<path d="M1604.35 801.096C1604.79 803.848 1605.22 806.6 1605.65 809.35" stroke="#060305" stroke-miterlimit="10" stroke-linecap="round" stroke-linejoin="round"/>
<path d="M1609.16 820.615C1610.51 822.306 1611.85 823.997 1613.2 825.688" stroke="#060305" stroke-miterlimit="10" stroke-linecap="round" stroke-linejoin="round"/>
<path d="M1607.14 797.77C1623.44 797.885 1639.75 798.001 1656.06 798.117" stroke="#060305" stroke-miterlimit="10" stroke-linecap="round" stroke-linejoin="round"/>
<path d="M1591.55 784.135C1593.26 777.23 1593.62 769.372 1589.87 763.328C1584.76 755.078 1574.39 750.571 1564.8 752.072C1555.21 753.573 1546.85 760.812 1543.6 769.959C1540.35 779.106 1542.17 789.788 1547.94 797.594C1554.64 806.653 1566.41 810.161 1577.31 813.008C1581.96 814.223 1586.8 814.706 1591.44 815.983C1592.19 814.728 1592.14 812.925 1591.32 811.719C1592.6 812.592 1593.89 813.464 1595.18 814.337C1596.87 812.359 1597.21 809.209 1595.56 807.195C1596.51 808.128 1597.46 809.06 1598.42 809.993C1599.45 809.87 1600.37 808.539 1600.43 807.498C1600.48 806.458 1600.05 805.459 1599.64 804.504C1596.94 798.36 1594.24 790.278 1591.55 784.135Z" fill="#FF9A7D"/>
<path d="M1582.2 764.887C1586.2 771.306 1589.55 778.128 1592.2 785.217" stroke="#060305" stroke-miterlimit="10" stroke-linecap="round" stroke-linejoin="round"/>
<path d="M1570.23 775.215C1578.8 786.258 1587.38 797.301 1595.95 808.344" stroke="#060305" stroke-miterlimit="10" stroke-linecap="round" stroke-linejoin="round"/>
<path d="M1561.77 787.342C1571.78 795.912 1581.79 804.484 1591.8 813.054" stroke="#060305" stroke-miterlimit="10" stroke-linecap="round" stroke-linejoin="round"/>
<path d="M1558.19 800.233C1565.92 806.378 1574.85 810.994 1584.33 813.743" stroke="#060305" stroke-miterlimit="10" stroke-linecap="round" stroke-linejoin="round"/>
</g>
<defs>
<clipPath id="clip0_293_2651">
<rect width="1920" height="830" fill="white"/>
</clipPath>
</defs>
</svg>
