<svg width="256" height="256" viewBox="0 0 256 256" fill="none" xmlns="http://www.w3.org/2000/svg">
<mask id="mask0_18_3981" style="mask-type:alpha" maskUnits="userSpaceOnUse" x="0" y="0" width="256" height="256">
<circle cx="128" cy="128" r="128" fill="#621305"/>
<circle cx="128" cy="128" r="128" stroke="#61433A"/>
</mask>
<g mask="url(#mask0_18_3981)">
<path d="M186.366 455.09C182.846 455.09 179.45 454.743 176.594 454.4C169.544 453.556 163.376 450.637 159.098 446.277C157.655 445.79 156.186 445.157 154.699 444.377C153.395 443.785 152.172 443.091 151.058 442.311C145.819 438.634 142.815 433.259 141.103 428.003C137.842 428.154 134.69 428.201 132.019 428.201C124.163 428.201 113.7 427.759 109.288 426.79C102.437 425.282 93.026 420.411 86.2581 413.647L-55.0069 413.061C-56.9062 413.053 -58.7568 412.641 -60.4268 411.879H-108.587C-115.443 411.879 -121 406.711 -121 400.334V149.107C-121 148.465 -120.998 147.823 -120.979 147.183C-120.433 98.3947 -99.2347 52.6136 -61.2815 18.2648C-23.3282 -16.0839 26.9889 -35 80.3958 -35C131.403 -35 180.039 -17.5596 217.339 14.1115C219.122 15.6173 220.94 17.2093 222.717 18.8292C231.535 26.8687 239.625 35.785 246.771 45.3388C259.922 62.9193 269.546 82.2597 275.376 102.824C276.476 106.762 277.372 110.435 278.125 114.09C279.146 118.825 279.959 123.715 280.582 128.935C281.386 135.49 281.794 142.287 281.794 149.105V400.33C281.794 406.706 276.235 411.874 269.381 411.874H231.294C229.207 422.262 225.279 431.017 219.562 437.99C209.871 449.818 199.631 455.09 186.366 455.09Z" fill="white"/>
<path d="M270.442 149.762V400.989H-107.531V149.762C-107.531 149.199 -107.531 148.637 -107.51 148.075C-106.524 53.5593 -22.3044 -22.7986 81.4543 -22.7986C131.127 -22.7986 176.326 -5.31938 210.029 23.2949C211.752 24.749 213.454 26.244 215.092 27.7369C223.435 35.3412 230.976 43.6844 237.638 52.5878C249.742 68.768 258.903 86.9257 264.429 106.421C265.395 109.874 266.257 113.347 266.993 116.917C267.98 121.494 268.737 126.132 269.305 130.865C270.062 137.054 270.442 143.379 270.442 149.762Z" fill="#9AAFCE"/>
<path d="M227.806 51.9759C231.289 61.2454 230.099 71.5576 226.861 80.9069C225.258 85.5363 223.164 90.0472 222.214 94.8317C221.265 99.6161 221.594 104.864 224.524 108.892C227.403 112.854 232.345 115.09 235.697 118.715C240 123.371 241.233 130.303 238.771 135.998C235.769 142.937 227.979 147.728 226.411 155.065C224.355 164.677 233.689 172.822 237.367 182.008C239.716 187.87 239.697 194.524 237.314 200.375C234.4 207.533 228.174 213.362 226.207 220.794C225.14 224.825 225.411 229.051 224.778 233.16C224.146 237.268 222.316 241.582 218.427 243.618C216.764 244.488 214.863 244.868 212.982 245.171C182.144 250.141 149.62 236.555 130.104 213.8C110.588 191.043 103.421 160.375 107.122 131.47C110.173 107.638 120.688 84.8361 136.406 65.8662C144.337 56.2929 153.606 47.6675 163.946 40.3411C172.052 34.5958 186.109 23.6934 196.956 24.6994C203.592 25.3155 210.061 30.8453 214.786 34.8155C220.433 39.5505 225.272 45.2376 227.806 51.9759Z" fill="#BB5631"/>
<path d="M234.52 348.618C234.52 348.618 229.765 260.186 220.257 233.164C210.749 206.142 184.337 188.947 184.337 188.947C167.433 178.139 136.267 158.977 136.267 158.977C100.875 157.504 86.6121 134.413 86.6121 134.413L85.5559 136.378C52.1563 131.473 -9.75336 136.429 -29.6217 138.233C-29.7838 137.847 -29.9437 137.457 -30.1081 137.074C-55.6558 139.704 -80.768 145.988 -104.287 155.634C-105.178 156 -106.105 156.397 -106.696 157.118C-107.49 158.088 -107.499 159.41 -107.471 160.63C-106.839 188.294 -104.877 215.935 -101.598 243.437C-81.9145 240.982 -62.2222 238.194 -42.5322 235.482L-53.9001 402.168L183.279 403.15L183.543 349.64L234.52 348.618Z" fill="#FFE2D6"/>
<path d="M155.804 113.948L155.121 115.411L135.385 157.224L134.329 159.475C102.282 164.055 87.4881 136.212 87.4881 136.212L111.447 84.1425L136.047 100.672L151.584 111.12L155.804 113.948Z" fill="#F99183"/>
<path d="M155.121 115.411L135.385 157.224C127.067 152.433 119.66 146.101 114.778 138.232C109.77 130.13 104.806 114.295 111.384 105.615C117.094 98.0541 127.357 97.7461 136.045 100.669C139.355 101.785 142.438 103.381 144.962 105.21C147.383 106.981 149.597 108.963 151.582 111.117C152.865 112.485 154.025 113.909 155.121 115.411Z" fill="#33160D"/>
<path d="M224.679 82.1025L224.843 82.18C224.843 82.18 224.491 83.2572 223.85 85.1615C223.435 86.5466 222.981 87.893 222.465 89.2221C220.602 94.5129 217.686 102.287 214.004 110.678C204.59 132.209 191.726 150.865 174.302 154.068C148.613 158.79 106.872 133.597 105.798 117.548C105.425 111.794 107.949 100.211 111.322 87.7034C109.355 82.2382 108.281 76.3895 108.281 70.3082C108.281 40.0395 134.639 15.5247 167.163 15.5247C179.286 15.5247 190.522 18.9111 199.872 24.7425C215.678 34.5571 226.066 51.2974 226.066 70.3082C226.066 74.3474 225.589 78.3111 224.679 82.1025Z" fill="#F99183"/>
<path d="M151.008 78.9643C152.803 77.4585 155.237 76.9285 157.567 77.0233C158.739 77.088 159.904 77.3141 160.984 77.7622C161.539 77.9776 162.005 78.2318 162.579 78.583C163.117 78.9557 163.793 79.4899 164.041 80.2805C164.185 80.7415 163.9 81.2262 163.404 81.3597C163.318 81.3834 163.233 81.3942 163.147 81.3942H162.355C162 81.3942 161.741 81.4287 161.331 81.4481C160.944 81.4545 160.418 81.433 159.976 81.4136L157.291 81.2649C155.506 81.1228 153.782 81.0969 151.658 80.7889L151.587 80.7781C150.971 80.6876 150.549 80.1512 150.646 79.5804C150.69 79.3326 150.822 79.1194 151.008 78.9643Z" fill="#33160D"/>
<path d="M197.134 87.3933C199.363 86.5209 201.85 86.7665 204.016 87.5721C205.1 87.9922 206.119 88.5631 206.978 89.317C207.425 89.6919 207.775 90.0732 208.194 90.5816C208.57 91.0986 209.019 91.8094 208.973 92.6324C208.945 93.1127 208.505 93.4811 207.988 93.4574C207.9 93.4531 207.814 93.438 207.733 93.4122L206.985 93.1688C206.649 93.061 206.395 93.0136 206.001 92.9059C205.635 92.7939 205.146 92.613 204.734 92.4579L202.253 91.4949C200.618 90.8121 198.999 90.2606 197.104 89.3192L197.042 89.2869C196.493 89.0133 196.284 88.3778 196.579 87.8673C196.704 87.6454 196.905 87.4838 197.134 87.3933Z" fill="#33160D"/>
<path d="M160.259 91.0579C160.259 93.951 157.736 96.2991 154.623 96.2991C151.51 96.2991 148.988 93.9531 148.988 91.0579C148.988 88.1626 151.51 85.8167 154.623 85.8167C157.736 85.8189 160.259 88.1648 160.259 91.0579Z" fill="#33160D"/>
<path d="M200.801 102.481C200.801 105.377 198.279 107.723 195.166 107.723C192.053 107.723 189.53 105.377 189.53 102.481C189.53 99.5861 192.053 97.2402 195.166 97.2402C198.279 97.2402 200.801 99.5861 200.801 102.481Z" fill="#33160D"/>
<path d="M162.204 105.635C161.324 107.232 161.908 109.646 163.779 110.079C165.028 110.368 166.45 109.715 167.589 110.275C168.648 110.795 168.972 112.145 170.014 112.695C171.661 113.563 173.748 111.891 175.555 112.417C176.697 112.749 177.53 113.923 178.728 113.867C181.815 113.724 181.039 109.153 182.228 103.134C183.154 98.4468 183.497 94.1987 185.792 88.7636" stroke="#33160D" stroke-width="0.4466" stroke-miterlimit="10" stroke-linecap="round" stroke-linejoin="round"/>
<path d="M159.628 115.833C161.361 117.856 163.948 119.12 166.628 119.805C169.308 120.488 172.108 120.641 174.883 120.79" stroke="#33160D" stroke-width="0.4466" stroke-miterlimit="10" stroke-linecap="round" stroke-linejoin="round"/>
<path d="M188.037 45.0545C184.604 48.1588 180.768 51.0023 176.293 52.5856C165.535 56.3921 151.146 53.1565 143.943 61.5062C136.269 70.4009 142.852 86.7233 132.612 92.9985C126.069 97.0075 115.262 94.5452 111.389 100.881C108.021 106.391 113.592 112.974 119.331 116.393C125.068 119.814 132.144 123.131 133.404 129.361C135.331 138.896 122.03 145.871 121.585 155.565C121.207 163.796 129.983 169.634 133.483 177.202C137.527 185.944 134.09 196.125 129.129 204.448C124.487 212.24 118.388 219.463 110.384 224.353C102.379 229.243 92.2988 231.598 83.0039 229.454C74.3807 227.464 67.2838 221.953 60.4418 216.686C33.6967 196.099 5.81427 176.786 -23.0548 158.852C-32.7481 152.831 -43.6921 145.083 -43.5068 134.243C-43.4281 129.689 -41.2763 125.385 -38.6984 121.512C-33.5912 113.84 -26.0033 106.928 -16.4606 105.31C-8.02964 103.879 1.50151 106.581 8.73036 102.3C16.1399 97.9122 17.3582 88.4876 21.803 81.439C26.4076 74.1406 35.1211 69.2355 44.2076 68.8262C52.0595 68.4729 60.2565 71.2044 67.6012 68.6021C77.8087 64.9874 81.0351 53.4387 85.9455 44.3631C93.0863 31.1643 106.24 21.2118 121.05 15.8629C135.86 10.5141 152.219 9.5339 167.976 11.4167C178.234 12.6424 190.376 15.1865 198.304 21.8495C205.471 27.8726 193.079 40.4941 188.037 45.0545Z" fill="#BB5631"/>
<path d="M224.679 82.1024L224.843 82.18C224.843 82.18 224.491 83.2571 223.85 85.1614C223.435 86.5466 222.981 87.8929 222.465 89.2221C220.602 94.5128 217.686 102.287 214.004 110.678C214.108 107.444 214.955 104.155 213.631 101.21C211.954 97.4382 207.321 95.5533 205.128 92.0312C202.46 87.7982 203.991 82.3911 205.955 77.8307C207.9 73.2702 210.279 68.4211 209.1 63.6302C208.086 59.5113 204.651 56.3748 202.108 52.8936C198.383 47.7558 196.563 41.5022 196.79 35.3261C196.915 32.056 197.1 26.8407 199.872 24.7425C215.678 34.557 226.066 51.2973 226.066 70.3082C226.066 74.3473 225.589 78.311 224.679 82.1024Z" fill="#BB5631"/>
<path d="M-10.406 230.544C-4.7429 223.562 1.38808 216.874 7.82711 210.504C19.0746 199.377 28.8929 189.194 45.9726 186.43C67.4993 182.947 95.2983 193.569 103.292 213.588C108.765 227.293 103.539 241.533 97.501 254.217C90.8327 268.228 82.2512 281.401 73.0536 294.087" stroke="#33160D" stroke-width="0.8932" stroke-miterlimit="10" stroke-linecap="round" stroke-linejoin="round"/>
<path d="M116.019 325.865L115.708 326.001L57.5719 349.439C57.5719 349.439 16.2972 368.411 -19.9096 350.094C-75.2945 322.095 -84.3578 292.77 -71.3222 259.693C-58.289 226.615 -11.8191 229.56 -11.8191 229.56L36.8627 248.917L41.7244 250.86L45.4072 255.768L75.1796 295.407C75.1796 295.407 79.3997 307.184 76.5855 320.288L112.234 319.653L112.855 319.633L116.019 325.865Z" fill="#DBD495"/>
<path d="M53.6876 247.905C53.6876 252.246 49.903 255.766 45.2358 255.766C40.5687 255.766 36.784 252.246 36.784 247.905C36.784 243.564 40.5687 240.044 45.2358 240.044C49.903 240.044 53.6876 243.562 53.6876 247.905Z" fill="#DBD495"/>
<path d="M-9.98931 229.808C12.4662 256.849 41.5507 278.12 74.1119 293.759" stroke="#33160D" stroke-width="0.4397" stroke-miterlimit="10" stroke-linecap="round" stroke-linejoin="round"/>
<path d="M27.9849 142.773L7.37767 177.641C7.37767 177.641 -42.8143 195.498 -89.8007 207.68C-95.7997 209.239 -101.759 210.7 -107.531 212.029V151.8C-107.531 151.242 -107.531 150.684 -107.51 150.126C-52.3316 143.101 27.9849 142.773 27.9849 142.773Z" fill="#F99183"/>
<path d="M116.204 216.953C116.452 219.935 114.405 226.69 111.405 232.386C111.241 232.714 111.074 233.022 110.889 233.33C108.612 237.468 105.839 240.872 103.15 241.585C102.715 241.72 102.303 241.757 101.867 241.72C101.351 241.701 100.853 241.548 100.357 241.279C93.2184 237.354 100.088 223.825 100.088 223.825L92.9706 201.928L92.4332 200.254C92.4332 200.254 92.4332 214.263 82.1307 213.511C74.6818 212.992 71.5179 212.568 70.3367 212.395C70.1097 212.356 69.9429 212.337 69.8618 212.298C69.7576 212.298 69.7159 212.279 69.7159 212.279C69.7159 212.279 68.6597 214.993 62.0609 213.761C56.722 212.759 53.806 210.183 52.854 209.22C52.7289 209.065 52.627 208.951 52.5853 208.892C52.5645 208.873 52.5436 208.854 52.5436 208.854C52.5436 208.854 46.73 213.259 40.3998 208.604C34.0488 203.927 33.801 192.383 33.801 192.383C33.801 192.383 33.4697 192.325 32.8698 192.21C28.7123 191.344 11.9939 187.303 7.38007 177.644L27.9873 142.776C27.9873 142.776 53.3311 148.913 72.3448 155.302C91.3793 161.692 101.93 163.404 104.579 170.524C107.224 177.641 115.667 210.814 116.204 216.953Z" fill="#F99183"/>
<path d="M46.8526 211.005C43.8879 211.005 40.9255 209.831 38.7158 207.57C33.6989 202.438 33.0736 194.946 32.615 189.476C32.5918 189.211 32.8049 188.981 33.0898 188.959C33.384 188.929 33.6248 189.136 33.6457 189.401C34.0927 194.733 34.7042 202.035 39.4825 206.923C42.8526 210.37 48.1497 211.036 52.1266 208.528L61.0486 188.761C61.1575 188.516 61.4609 188.399 61.7249 188.503C61.989 188.606 62.1117 188.886 62.0006 189.132L53.0207 209.028C52.9836 209.112 52.9211 209.183 52.84 209.235C51.0148 210.428 48.9326 211.005 46.8526 211.005Z" fill="#33160D"/>
<path d="M64.7245 214.491C59.0105 214.491 52.8864 209.909 52.546 209.651C52.3236 209.483 52.2935 209.179 52.4718 208.974C52.6525 208.767 52.9791 208.739 53.2014 208.905C53.3057 208.985 63.6846 216.753 69.3639 211.932C75.2447 206.938 79.2031 188.914 79.2425 188.733C79.298 188.473 79.576 188.302 79.8516 188.356C80.1319 188.408 80.3125 188.662 80.257 188.923C80.0925 189.677 76.192 207.438 70.061 212.643C68.4791 213.983 66.6238 214.491 64.7245 214.491Z" fill="#33160D"/>
<path d="M80.7155 214.082C75.7705 214.082 70.6146 212.958 70.251 212.876C69.973 212.813 69.8016 212.555 69.8688 212.296C69.9336 212.038 70.207 211.874 70.4918 211.941C70.6378 211.973 85.1163 215.133 88.308 211.023C91.6318 206.741 95.1802 187.71 95.2149 187.519C95.2636 187.258 95.5276 187.081 95.8125 187.127C96.0928 187.172 96.2827 187.422 96.2341 187.682C96.0881 188.475 92.6069 207.126 89.1442 211.588C87.6525 213.511 84.2362 214.082 80.7155 214.082Z" fill="#33160D"/>
<path d="M38.7206 9.58548L51.557 -3.63918L50.5796 14.1545L69.7113 13.2455L55.4922 25.1841L69.7113 37.1227L50.5796 36.2136L51.557 54.0073L38.7206 40.7827L25.8843 54.0073L26.8617 36.2136L7.7299 37.1227L21.949 25.1841L7.7299 13.2455L26.8617 14.1545L25.8843 -3.63918L38.7206 9.58548Z" fill="#FFE2D6"/>
<path d="M240.156 147.366L247.959 139.329L247.366 150.145L258.996 149.594L250.352 156.851L258.996 164.109L247.366 163.557L247.959 174.374L240.156 166.334L232.352 174.374L232.945 163.557L221.316 164.109L229.96 156.851L221.316 149.594L232.945 150.145L232.352 139.329L240.156 147.366Z" fill="#FCB149"/>
<path d="M255.6 222.578C254.711 224.463 253.986 226.484 253.302 228.543C253.219 228.716 253.177 228.89 253.117 229.062C251.959 232.526 250.903 236.066 249.414 239.241C249.02 240.068 248.647 240.895 248.255 241.723C248.151 241.914 248.07 242.089 247.987 242.281C246.456 245.417 244.779 248.515 242.546 251.343C240.063 254.48 236.918 257.25 233.318 259.501C233.029 259.712 232.718 259.887 232.429 260.059C225.642 264.12 217.325 266.487 208.739 266.429H208.201C208.201 266.41 208.201 266.41 208.201 266.39C206.05 258.502 207.974 250.111 212.857 243.011C212.982 242.8 213.126 242.589 213.292 242.395C213.292 242.395 213.292 242.395 213.292 242.375C214.949 240.085 216.892 237.948 219.106 236.005C222.333 233.177 226.057 230.809 230.133 228.847C230.402 228.711 230.65 228.597 230.919 228.481C237.622 225.402 245.175 223.477 252.869 222.766C252.869 222.766 252.869 222.766 252.89 222.766C253.346 222.727 253.8 222.688 254.257 222.669C254.711 222.636 255.144 222.598 255.6 222.578Z" fill="#DBD495"/>
<path d="M208.267 267.06C208.232 267.06 208.195 267.054 208.165 267.041C208.033 266.987 207.972 266.845 208.03 266.724C217.022 247.567 233.779 231.359 254.007 222.255C254.137 222.197 254.292 222.246 254.352 222.365C254.414 222.485 254.361 222.63 254.234 222.686C234.113 231.742 217.446 247.862 208.503 266.916C208.461 267.008 208.366 267.06 208.267 267.06Z" fill="#33160D"/>
<path d="M229.075 238.607C229.075 238.743 229.096 238.877 229.117 239.012C229.117 239.129 229.034 239.262 228.89 239.282C228.869 239.282 228.869 239.282 228.848 239.282C228.723 239.282 228.621 239.185 228.6 239.071C228.6 239.051 228.6 239.051 228.6 239.032C228.105 235.626 228.663 232.048 230.131 228.853C230.4 228.718 230.648 228.603 230.917 228.487C229.302 231.604 228.642 235.182 229.075 238.607Z" fill="#33160D"/>
<path d="M248.256 241.725C248.151 241.916 248.07 242.091 247.987 242.282C241.428 243.784 234.724 244.534 227.959 244.534C226.592 244.534 225.228 244.495 223.861 244.437H223.614C223.489 244.437 223.387 244.34 223.366 244.226C223.366 244.206 223.366 244.206 223.366 244.187C223.387 244.051 223.491 243.976 223.614 243.956H223.634C223.861 243.976 224.07 243.976 224.297 243.976C232.406 244.303 240.434 243.551 248.256 241.725Z" fill="#33160D"/>
<path d="M253.302 228.543C253.219 228.715 253.177 228.89 253.117 229.062C249.807 229.659 246.456 229.967 243.083 229.967C242.421 229.967 241.759 229.948 241.078 229.928H240.932C240.786 229.928 240.663 229.812 240.684 229.678C240.684 229.639 240.684 229.62 240.705 229.581C240.705 229.581 240.705 229.562 240.726 229.562C240.767 229.523 240.809 229.504 240.851 229.465H240.871C240.892 229.446 240.934 229.446 240.955 229.446C241.244 229.446 241.513 229.465 241.803 229.465C245.668 229.564 249.515 229.256 253.302 228.543Z" fill="#33160D"/>
<path d="M216.206 253.577C216.227 253.654 216.227 253.73 216.185 253.807C216.144 253.846 216.102 253.866 216.039 253.885C216.019 253.904 215.977 253.904 215.956 253.904C215.852 253.904 215.75 253.846 215.708 253.751C215.708 253.732 215.687 253.693 215.687 253.674C214.302 250.21 213.371 246.651 212.852 243.013C212.977 242.802 213.121 242.59 213.288 242.397C213.744 246.072 214.673 249.671 216.039 253.153C216.104 253.288 216.144 253.443 216.206 253.577Z" fill="#33160D"/>
</g>
</svg>
