<svg width="75" height="75" viewBox="0 0 75 75" fill="none" xmlns="http://www.w3.org/2000/svg">
<mask id="mask0_18_3982" style="mask-type:alpha" maskUnits="userSpaceOnUse" x="0" y="0" width="75" height="75">
<circle cx="37.5" cy="37.5" r="37.5" fill="#621305"/>
<circle cx="37.5" cy="37.5" r="37.5" stroke="#61433A"/>
</mask>
<g mask="url(#mask0_18_3982)">
<path d="M54.5995 133.327C53.5681 133.327 52.5733 133.225 51.7366 133.125C49.6711 132.878 47.864 132.023 46.6107 130.745C46.1879 130.603 45.7577 130.417 45.3221 130.189C44.9401 130.015 44.5818 129.812 44.2554 129.583C42.7204 128.506 41.8403 126.931 41.3389 125.391C40.3834 125.436 39.4599 125.45 38.6775 125.45C36.3758 125.45 33.3107 125.32 32.018 125.036C30.0107 124.594 27.2537 123.167 25.2709 121.186L-16.1153 121.014C-16.6717 121.012 -17.2139 120.891 -17.7032 120.668H-31.8127C-33.8213 120.668 -35.4492 119.154 -35.4492 117.285V43.6836C-35.4492 43.4956 -35.4485 43.3075 -35.4431 43.1201C-35.283 28.8266 -29.0727 15.4141 -17.9536 5.35102C-6.83445 -4.71209 7.90689 -10.2539 23.5534 -10.2539C38.497 -10.2539 52.7457 -5.14441 63.6734 4.13424C64.1959 4.57538 64.7286 5.04178 65.2491 5.51637C67.8324 7.87169 70.2027 10.4839 72.2961 13.2829C76.149 18.4334 78.9685 24.0995 80.6765 30.1241C80.9988 31.2778 81.2614 32.3539 81.4819 33.4249C81.7812 34.8121 82.0194 36.2447 82.2019 37.7739C82.4374 39.6944 82.5568 41.6855 82.5568 43.683V117.284C82.5568 119.152 80.9282 120.666 78.9203 120.666H67.7618C67.1504 123.71 65.9996 126.274 64.3249 128.317C61.4857 131.783 58.4857 133.327 54.5995 133.327Z" fill="white"/>
<path d="M79.2311 43.8755V117.477H-31.5033V43.8755C-31.5033 43.7108 -31.5033 43.5461 -31.4972 43.3813C-31.2081 15.6912 -6.5345 -6.67927 23.8636 -6.67927C38.4163 -6.67927 51.6579 -1.55841 61.5319 6.82468C62.0367 7.25068 62.5355 7.68867 63.0152 8.12604C65.4594 10.3539 67.6689 12.7982 69.6205 15.4066C73.1667 20.1469 75.8504 25.4665 77.4695 31.1781C77.7525 32.1898 78.0049 33.2071 78.2207 34.2529C78.5098 35.594 78.7317 36.9528 78.8979 38.3394C79.1198 40.1526 79.2311 42.0055 79.2311 43.8755Z" fill="#9AAFCE"/>
<path d="M66.7399 15.2273C67.7605 17.943 67.4117 20.9641 66.4631 23.7032C65.9935 25.0594 65.3801 26.381 65.1018 27.7827C64.8236 29.1844 64.92 30.7218 65.7784 31.902C66.6218 33.0626 68.0699 33.7177 69.0518 34.7799C70.3126 36.1437 70.6736 38.1746 69.9523 39.8433C69.0729 41.8761 66.7908 43.2797 66.3314 45.4293C65.7288 48.2453 68.4635 50.6316 69.5411 53.3226C70.2291 55.0399 70.2237 56.9894 69.5255 58.7035C68.6718 60.8007 66.8478 62.5085 66.2717 64.6859C65.9589 65.8667 66.0383 67.1049 65.853 68.3085C65.6678 69.512 65.1317 70.7761 63.9924 71.3725C63.5052 71.6275 62.948 71.7386 62.397 71.8275C53.3625 73.2835 43.834 69.3031 38.1163 62.6366C32.3987 55.9695 30.2992 46.985 31.3835 38.5167C32.2772 31.5347 35.3579 24.8543 39.9627 19.2967C42.2862 16.4921 45.0018 13.9651 48.031 11.8187C50.406 10.1355 54.5242 6.94142 57.702 7.23615C59.6461 7.41665 61.5414 9.03672 62.9257 10.1999C64.58 11.5871 65.9976 13.2532 66.7399 15.2273Z" fill="#BB5631"/>
<path d="M68.707 102.134C68.707 102.134 67.3139 76.2264 64.5283 68.3098C61.7428 60.3931 54.005 55.3555 54.005 55.3555C49.0528 52.1892 39.9219 46.5754 39.9219 46.5754C29.5533 46.1438 25.3746 39.3788 25.3746 39.3788L25.0652 39.9544C15.2802 38.5174 -2.85744 39.9696 -8.67824 40.4978C-8.72574 40.3848 -8.77257 40.2706 -8.82074 40.1583C-16.3054 40.9289 -23.6625 42.7698 -30.5527 45.5959C-30.814 45.7032 -31.0854 45.8194 -31.2585 46.0308C-31.4912 46.3148 -31.4939 46.7023 -31.4858 47.0595C-31.3005 55.1643 -30.7258 63.2621 -29.7649 71.3195C-23.9984 70.6001 -18.2292 69.7834 -12.4606 68.9888L-15.7911 117.823L53.6949 118.11L53.7722 102.433L68.707 102.134Z" fill="#FFE2D6"/>
<path d="M45.6458 33.3832L45.4456 33.8117L39.6635 46.0617L39.3541 46.7212C29.9653 48.0629 25.6313 39.9058 25.6313 39.9058L32.6505 24.6511L39.8576 29.4936L44.4095 32.5545L45.6458 33.3832Z" fill="#F99183"/>
<path d="M45.4456 33.8117L39.6635 46.0616C37.2268 44.658 35.0567 42.8032 33.6263 40.4977C32.1592 38.1241 30.705 33.4848 32.6321 30.942C34.3048 28.7268 37.3116 28.6365 39.8569 29.493C40.8266 29.8199 41.7298 30.2875 42.4694 30.8234C43.1785 31.3421 43.8272 31.9228 44.4088 32.5539C44.7847 32.9546 45.1247 33.3718 45.4456 33.8117Z" fill="#33160D"/>
<path d="M65.8239 24.0535L65.872 24.0762C65.872 24.0762 65.7689 24.3917 65.5809 24.9496C65.4595 25.3555 65.3265 25.7499 65.1752 26.1393C64.6296 27.6893 63.7753 29.967 62.6963 32.4252C59.9386 38.7332 56.1698 44.1986 51.0649 45.1371C43.5388 46.5205 31.3102 39.1396 30.9954 34.4378C30.8861 32.7521 31.6258 29.3586 32.6138 25.6944C32.0377 24.0932 31.7228 22.3797 31.7228 20.5981C31.7228 11.7303 39.445 4.54825 48.9735 4.54825C52.5252 4.54825 55.8169 5.54036 58.5563 7.24879C63.1869 10.1241 66.2303 15.0285 66.2303 20.5981C66.2303 21.7815 66.0905 22.9427 65.8239 24.0535Z" fill="#F99183"/>
<path d="M44.2405 23.1341C44.7664 22.6929 45.4796 22.5377 46.1622 22.5655C46.5056 22.5844 46.8469 22.6506 47.1631 22.7819C47.326 22.845 47.4624 22.9195 47.6307 23.0224C47.7881 23.1316 47.9862 23.2881 48.0588 23.5197C48.1009 23.6547 48.0174 23.7968 47.8722 23.8359C47.8471 23.8428 47.822 23.846 47.7969 23.846H47.5648C47.461 23.846 47.385 23.8561 47.2649 23.8618C47.1516 23.8636 46.9975 23.8573 46.8679 23.8517L46.0815 23.8081C45.5583 23.7665 45.0534 23.7589 44.4312 23.6686L44.4101 23.6655C44.2296 23.639 44.1061 23.4818 44.1346 23.3146C44.1475 23.242 44.1862 23.1795 44.2405 23.1341Z" fill="#33160D"/>
<path d="M57.7543 25.6035C58.4071 25.3479 59.1358 25.4199 59.7703 25.6559C60.0879 25.779 60.3865 25.9462 60.6382 26.1671C60.7692 26.2769 60.8716 26.3886 60.9945 26.5376C61.1044 26.689 61.236 26.8973 61.2225 27.1384C61.2143 27.2791 61.0854 27.387 60.9341 27.3801C60.9083 27.3788 60.8832 27.3744 60.8594 27.3669L60.6403 27.2955C60.5419 27.264 60.4672 27.2501 60.3519 27.2185C60.2446 27.1857 60.1015 27.1327 59.9807 27.0873L59.2539 26.8052C58.7749 26.6051 58.3005 26.4435 57.7455 26.1677L57.7271 26.1583C57.5663 26.0781 57.5052 25.8919 57.5914 25.7424C57.6281 25.6774 57.6871 25.63 57.7543 25.6035Z" fill="#33160D"/>
<path d="M46.9508 26.6771C46.9508 27.5247 46.2118 28.2126 45.2998 28.2126C44.3878 28.2126 43.6489 27.5253 43.6489 26.6771C43.6489 25.8289 44.3878 25.1416 45.2998 25.1416C46.2118 25.1422 46.9508 25.8295 46.9508 26.6771Z" fill="#33160D"/>
<path d="M58.8284 30.0238C58.8284 30.8721 58.0894 31.5594 57.1774 31.5594C56.2654 31.5594 55.5264 30.8721 55.5264 30.0238C55.5264 29.1756 56.2654 28.4883 57.1774 28.4883C58.0894 28.4883 58.8284 29.1756 58.8284 30.0238Z" fill="#33160D"/>
<path d="M47.5207 30.9479C47.2629 31.4155 47.4339 32.123 47.9822 32.2498C48.3479 32.3344 48.7646 32.1432 49.0984 32.3073C49.4085 32.4594 49.5035 32.8551 49.8089 33.016C50.2914 33.2704 50.9027 32.7806 51.432 32.9346C51.7666 33.0318 52.0109 33.3757 52.3617 33.3593C53.2662 33.3177 53.0389 31.9785 53.387 30.2151C53.6584 28.8418 53.7589 27.5973 54.4313 26.005" stroke="#33160D" stroke-width="0.4466" stroke-miterlimit="10" stroke-linecap="round" stroke-linejoin="round"/>
<path d="M46.7661 33.9355C47.2737 34.5281 48.0316 34.8986 48.8168 35.0993C49.6019 35.2993 50.4223 35.3441 51.2352 35.3877" stroke="#33160D" stroke-width="0.4466" stroke-miterlimit="10" stroke-linecap="round" stroke-linejoin="round"/>
<path d="M55.0888 13.1996C54.0832 14.1091 52.9595 14.9421 51.6485 15.406C48.4965 16.5212 44.2812 15.5733 42.1708 18.0195C39.9227 20.6253 41.8512 25.4073 38.8512 27.2457C36.9343 28.4202 33.768 27.6989 32.6335 29.555C31.6468 31.1693 33.2788 33.098 34.9603 34.0996C36.6411 35.1018 38.7142 36.0737 39.0833 37.8989C39.6479 40.6922 35.7508 42.7358 35.6205 45.5758C35.5099 47.9873 38.0811 49.6976 39.1064 51.9147C40.2912 54.4758 39.2842 57.4584 37.8307 59.897C36.4708 62.1798 34.6841 64.2959 32.339 65.7285C29.9938 67.1612 27.0407 67.851 24.3176 67.223C21.7912 66.6399 19.7121 65.0255 17.7076 63.4824C9.87207 57.4508 1.7034 51.7929 -6.75434 46.5389C-9.59417 44.7749 -12.8004 42.5048 -12.7461 39.329C-12.7231 37.9948 -12.0927 36.7339 -11.3374 35.5991C-9.84117 33.3517 -7.61816 31.3265 -4.82244 30.8525C-2.35243 30.4335 0.439897 31.2249 2.55772 29.9709C4.72848 28.6853 5.08541 25.9242 6.3876 23.8592C7.7366 21.7209 10.2894 20.2839 12.9514 20.164C15.2518 20.0605 17.6533 20.8607 19.805 20.0983C22.7955 19.0393 23.7408 15.6559 25.1793 12.997C27.2714 9.13021 31.125 6.21446 35.4638 4.64741C39.8026 3.08035 44.5954 2.79319 49.2117 3.34479C52.2171 3.70389 55.7742 4.44924 58.0969 6.40127C60.1964 8.16587 56.5661 11.8636 55.0888 13.1996Z" fill="#BB5631"/>
<path d="M65.8239 24.0534L65.8721 24.0762C65.8721 24.0762 65.7689 24.3917 65.581 24.9496C65.4595 25.3554 65.3265 25.7499 65.1752 26.1393C64.6296 27.6893 63.7753 29.967 62.6963 32.4252C62.7269 31.4779 62.9752 30.5142 62.5871 29.6514C62.0958 28.5463 60.7387 27.9941 60.096 26.9623C59.3143 25.7221 59.7629 24.138 60.3383 22.802C60.9083 21.4659 61.6052 20.0452 61.2598 18.6416C60.9626 17.435 59.9563 16.5161 59.2112 15.4962C58.12 13.991 57.5867 12.1588 57.6532 10.3494C57.6898 9.39141 57.7441 7.86348 58.5564 7.24877C63.187 10.1241 66.2304 15.0285 66.2304 20.5981C66.2304 21.7814 66.0906 22.9427 65.8239 24.0534Z" fill="#BB5631"/>
<path d="M-3.04865 67.5422C-1.38953 65.4968 0.406653 63.5372 2.29309 61.671C5.58824 58.4113 8.46472 55.428 13.4685 54.6183C19.7752 53.5978 27.9194 56.7098 30.2612 62.5747C31.8646 66.5899 30.3338 70.7616 28.5647 74.4776C26.6111 78.5823 24.097 82.4416 21.4024 86.1582" stroke="#33160D" stroke-width="0.8932" stroke-miterlimit="10" stroke-linecap="round" stroke-linejoin="round"/>
<path d="M33.9899 95.4684L33.899 95.5081L16.8668 102.375C16.8668 102.375 4.77458 107.933 -5.83288 102.567C-22.0589 94.3639 -24.7142 85.7725 -20.8952 76.0818C-17.0768 66.391 -3.46263 67.2538 -3.46263 67.2538L10.7996 72.925L12.224 73.4942L13.3029 74.9319L22.0253 86.545C22.0253 86.545 23.2616 89.9953 22.4372 93.8344L32.8811 93.6482L33.063 93.6425L33.9899 95.4684Z" fill="#DBD495"/>
<path d="M15.7288 72.6284C15.7288 73.9001 14.62 74.9313 13.2527 74.9313C11.8854 74.9313 10.7766 73.9001 10.7766 72.6284C10.7766 71.3567 11.8854 70.3255 13.2527 70.3255C14.62 70.3255 15.7288 71.3561 15.7288 72.6284Z" fill="#DBD495"/>
<path d="M-2.92654 67.3264C3.65223 75.2488 12.1731 81.4804 21.7125 86.0623" stroke="#33160D" stroke-width="0.4397" stroke-miterlimit="10" stroke-linecap="round" stroke-linejoin="round"/>
<path d="M8.19869 41.8281L2.16142 52.0434C2.16142 52.0434 -12.5433 57.2747 -26.3088 60.8436C-28.0663 61.3005 -29.8123 61.7284 -31.5033 62.1178V44.4725C-31.5033 44.3091 -31.5033 44.1456 -31.4972 43.9821C-15.3315 41.9241 8.19869 41.8281 8.19869 41.8281Z" fill="#F99183"/>
<path d="M34.0443 63.5606C34.1169 64.4341 33.517 66.4132 32.6382 68.0819C32.5901 68.1778 32.5412 68.2681 32.4869 68.3583C31.8199 69.5707 31.0076 70.5679 30.2198 70.7768C30.0922 70.8165 29.9715 70.8272 29.8439 70.8165C29.6926 70.8108 29.5467 70.766 29.4014 70.6871C27.3101 69.5372 29.3227 65.5738 29.3227 65.5738L27.2375 59.1586L27.08 58.6682C27.08 58.6682 27.08 62.7723 24.0617 62.5521C21.8795 62.4 20.9525 62.2756 20.6065 62.2252C20.54 62.2138 20.4911 62.2081 20.4673 62.1968C20.4368 62.1968 20.4246 62.1911 20.4246 62.1911C20.4246 62.1911 20.1152 62.9863 18.1819 62.6253C16.6178 62.3318 15.7635 61.577 15.4846 61.2949C15.4479 61.2495 15.4181 61.216 15.4059 61.199C15.3998 61.1933 15.3936 61.1876 15.3936 61.1876C15.3936 61.1876 13.6904 62.4782 11.8359 61.1144C9.97524 59.7443 9.90263 56.3621 9.90263 56.3621C9.90263 56.3621 9.8056 56.3451 9.62985 56.3116C8.41181 56.0579 3.51386 54.8739 2.16214 52.044L8.19941 41.8288C8.19941 41.8288 15.6244 43.6269 21.1948 45.4987C26.7713 47.3706 29.8622 47.8724 30.6385 49.9582C31.4134 52.0434 33.8868 61.7619 34.0443 63.5606Z" fill="#F99183"/>
<path d="M13.7264 61.818C12.8578 61.818 11.9899 61.4741 11.3425 60.8114C9.87273 59.3081 9.68952 57.1131 9.55516 55.5107C9.54838 55.433 9.61081 55.3655 9.69427 55.3592C9.78045 55.3504 9.85102 55.4109 9.85713 55.4886C9.98809 57.0506 10.1672 59.1901 11.5671 60.6221C12.5545 61.6318 14.1064 61.8269 15.2715 61.0922L17.8853 55.3011C17.9172 55.2292 18.0061 55.1951 18.0835 55.2254C18.1608 55.2557 18.1968 55.3377 18.1642 55.4097L15.5334 61.2386C15.5225 61.2633 15.5042 61.2841 15.4805 61.2992C14.9457 61.6489 14.3357 61.818 13.7264 61.818Z" fill="#33160D"/>
<path d="M18.9622 62.8392C17.2882 62.8392 15.4941 61.4968 15.3943 61.4211C15.3292 61.3719 15.3203 61.2829 15.3726 61.2229C15.4255 61.1623 15.5212 61.1541 15.5863 61.2027C15.6169 61.2261 18.6576 63.5019 20.3214 62.0894C22.0443 60.6265 23.204 55.346 23.2155 55.293C23.2318 55.2166 23.3133 55.1667 23.394 55.1825C23.4761 55.1977 23.5291 55.2721 23.5128 55.3485C23.4646 55.5694 22.3219 60.7729 20.5257 62.2977C20.0622 62.6903 19.5187 62.8392 18.9622 62.8392Z" fill="#33160D"/>
<path d="M23.6471 62.7194C22.1984 62.7194 20.6879 62.3899 20.5813 62.3659C20.4999 62.3476 20.4497 62.2719 20.4694 62.1962C20.4884 62.1204 20.5684 62.0725 20.6519 62.092C20.6946 62.1015 24.9364 63.0273 25.8715 61.8232C26.8452 60.5685 27.8848 54.9932 27.895 54.9371C27.9092 54.8607 27.9866 54.809 28.0701 54.8222C28.1522 54.8355 28.2078 54.9087 28.1936 54.985C28.1508 55.2173 27.1309 60.6815 26.1164 61.9885C25.6794 62.5521 24.6785 62.7194 23.6471 62.7194Z" fill="#33160D"/>
<path d="M11.3439 2.80829L15.1046 -1.06612L14.8182 4.14689L20.4232 3.88056L16.2575 7.37819L20.4232 10.8758L14.8182 10.6095L15.1046 15.8225L11.3439 11.9481L7.58328 15.8225L7.86964 10.6095L2.26462 10.8758L6.43038 7.37819L2.26462 3.88056L7.86964 4.14689L7.58328 -1.06612L11.3439 2.80829Z" fill="#FFE2D6"/>
<path d="M70.3581 43.1737L72.6442 40.819L72.4705 43.9879L75.8777 43.8263L73.3452 45.9525L75.8777 48.0787L72.4705 47.9172L72.6442 51.086L70.3581 48.7307L68.072 51.086L68.2457 47.9172L64.8386 48.0787L67.3711 45.9525L64.8386 43.8263L68.2457 43.9879L68.072 40.819L70.3581 43.1737Z" fill="#FCB149"/>
<path d="M74.8829 65.2085C74.6223 65.7607 74.4099 66.3527 74.2097 66.956C74.1853 67.0065 74.1731 67.0576 74.1554 67.1081C73.8162 68.1229 73.5067 69.1599 73.0704 70.0901C72.955 70.3325 72.8458 70.5748 72.7311 70.8172C72.7006 70.8733 72.6768 70.9245 72.6524 70.9806C72.2039 71.8995 71.7126 72.8071 71.0584 73.6357C70.331 74.5546 69.4095 75.3662 68.355 76.0258C68.2702 76.0876 68.1792 76.1387 68.0944 76.1892C66.1062 77.3789 63.6694 78.0725 61.154 78.0554H60.9965C60.9965 78.0497 60.9965 78.0497 60.9965 78.0441C60.3661 75.7329 60.93 73.2747 62.3605 71.1946C62.3971 71.1327 62.4392 71.0709 62.488 71.0141C62.488 71.0141 62.488 71.0141 62.488 71.0084C62.9732 70.3375 63.5425 69.7115 64.1913 69.1422C65.1365 68.3135 66.2277 67.62 67.422 67.045C67.5007 67.0052 67.5733 66.9718 67.652 66.9377C69.6158 66.0359 71.8286 65.4716 74.0828 65.2634C74.0828 65.2634 74.0828 65.2634 74.0889 65.2634C74.2226 65.252 74.3556 65.2406 74.4893 65.235C74.6223 65.2255 74.7492 65.2141 74.8829 65.2085Z" fill="#DBD495"/>
<path d="M61.0156 78.2403C61.0054 78.2403 60.9946 78.2384 60.9858 78.2346C60.9471 78.2188 60.9294 78.1772 60.9464 78.1418C63.5806 72.5293 68.4901 67.7808 74.4161 65.1137C74.4541 65.0967 74.4996 65.1112 74.5172 65.1459C74.5355 65.1813 74.5199 65.2236 74.4826 65.24C68.5878 67.8932 63.7048 72.6158 61.0848 78.198C61.0726 78.2251 61.0448 78.2403 61.0156 78.2403Z" fill="#33160D"/>
<path d="M67.1119 69.9045C67.1119 69.9443 67.118 69.9834 67.1241 70.0232C67.1241 70.0573 67.0997 70.0964 67.0576 70.1021C67.0515 70.1021 67.0515 70.1021 67.0454 70.1021C67.0088 70.1021 66.9789 70.0737 66.9728 70.0402C66.9728 70.0345 66.9728 70.0345 66.9728 70.0289C66.8276 69.0311 66.9911 67.9828 67.4213 67.0468C67.5001 67.0071 67.5727 66.9736 67.6514 66.9396C67.1784 67.8528 66.985 68.9011 67.1119 69.9045Z" fill="#33160D"/>
<path d="M72.7312 70.8177C72.7006 70.8739 72.6769 70.925 72.6524 70.9812C70.7307 71.4211 68.7669 71.6407 66.7848 71.6407C66.3845 71.6407 65.9848 71.6293 65.5844 71.6123H65.5118C65.4752 71.6123 65.4453 71.5839 65.4392 71.5505C65.4392 71.5448 65.4392 71.5448 65.4392 71.5391C65.4453 71.4993 65.4759 71.4772 65.5118 71.4716H65.5179C65.5844 71.4772 65.6455 71.4772 65.712 71.4772C68.0877 71.5732 70.4396 71.3529 72.7312 70.8177Z" fill="#33160D"/>
<path d="M74.2097 66.9559C74.1853 67.0064 74.173 67.0576 74.1554 67.108C73.1857 67.2829 72.2038 67.3731 71.2158 67.3731C71.0218 67.3731 70.8277 67.3674 70.6282 67.3618H70.5854C70.5427 67.3618 70.5067 67.3277 70.5128 67.2885C70.5128 67.2772 70.5128 67.2715 70.5189 67.2601C70.5189 67.2601 70.5189 67.2545 70.525 67.2545C70.5372 67.2431 70.5495 67.2374 70.5617 67.2261H70.5678C70.5739 67.2204 70.5861 67.2204 70.5922 67.2204C70.677 67.2204 70.7558 67.2261 70.8406 67.2261C71.9731 67.2551 73.1002 67.1648 74.2097 66.9559Z" fill="#33160D"/>
<path d="M63.3416 74.2901C63.3478 74.3128 63.3478 74.3349 63.3355 74.3576C63.3233 74.369 63.3111 74.3747 63.2928 74.3804C63.2867 74.386 63.2745 74.386 63.2684 74.386C63.2378 74.386 63.208 74.369 63.1958 74.3412C63.1958 74.3356 63.1896 74.3242 63.1896 74.3185C62.7839 73.3037 62.5111 72.2611 62.3591 71.1951C62.3957 71.1333 62.4378 71.0714 62.4866 71.0146C62.6203 72.0913 62.8924 73.1459 63.2928 74.1658C63.3118 74.2055 63.3233 74.251 63.3416 74.2901Z" fill="#33160D"/>
</g>
</svg>
