<svg width="820" height="550" viewBox="0 0 820 550" fill="none" xmlns="http://www.w3.org/2000/svg">
<g clip-path="url(#clip0_292_490)">
<rect width="820" height="550" fill="white"/>
<rect x="-47" y="-19" width="914" height="1217" fill="#DBD495"/>
<path d="M87.5 57.37L101.377 42L100.32 62.6796L121 61.6251L105.63 75.5L121 89.3769L100.32 88.3205L101.377 109L87.5 93.63L73.6251 109L74.6815 88.3205L54 89.3769L69.37 75.5L54 61.6251L74.6815 62.6796L73.6251 42L87.5 57.37Z" fill="#FCB149"/>
<path d="M645.5 244.37L659.377 229L658.32 249.68L679 248.625L663.63 262.5L679 276.377L658.32 275.32L659.377 296L645.5 280.63L631.625 296L632.682 275.32L612 276.377L627.37 262.5L612 248.625L632.682 249.68L631.625 229L645.5 244.37Z" fill="#FCB149"/>
<path d="M729.5 57.37L743.377 42L742.32 62.6796L763 61.6251L747.63 75.5L763 89.3769L742.32 88.3205L743.377 109L729.5 93.63L715.625 109L716.682 88.3205L696 89.3769L711.37 75.5L696 61.6251L716.682 62.6796L715.625 42L729.5 57.37Z" fill="#FCB149"/>
<path d="M171.5 295.37L185.377 280L184.32 300.68L205 299.625L189.63 313.5L205 327.377L184.32 326.32L185.377 347L171.5 331.63L157.625 347L158.682 326.32L138 327.377L153.37 313.5L138 299.625L158.682 300.68L157.625 280L171.5 295.37Z" fill="#FCB149"/>
<path d="M229.697 133.348C229.697 137.534 212.311 134.828 209.57 137.57C206.825 140.315 209.535 157.697 205.348 157.697C201.162 157.697 203.869 140.311 201.127 137.57C198.382 134.828 181 137.534 181 133.348C181 129.162 198.385 131.869 201.127 129.127C203.872 126.382 201.162 109 205.348 109C209.535 109 206.828 126.385 209.57 129.127C212.311 131.869 229.697 129.162 229.697 133.348Z" fill="white"/>
<path d="M654 431C654 434.61 639.006 432.276 636.641 434.641C634.274 437.008 636.611 452 633 452C629.39 452 631.724 437.006 629.359 434.641C626.992 432.276 612 434.61 612 431C612 427.39 626.994 429.724 629.359 427.359C631.726 424.992 629.39 410 633 410C636.611 410 634.276 424.994 636.641 427.359C639.006 429.724 654 427.39 654 431Z" fill="white"/>
<path d="M797 171.5C797 177.088 773.794 173.475 770.135 177.135C766.471 180.799 770.088 204 764.5 204C758.912 204 762.525 180.794 758.865 177.135C755.201 173.475 732 177.088 732 171.5C732 165.912 755.206 169.525 758.865 165.865C762.529 162.201 758.912 139 764.5 139C770.088 139 766.475 162.206 770.135 165.865C773.794 169.525 797 165.912 797 171.5Z" fill="white"/>
<path d="M205 417.5C205 420.337 193.219 418.503 191.361 420.361C189.501 422.221 191.337 434 188.5 434C185.663 434 187.497 422.219 185.639 420.361C183.779 418.503 172 420.337 172 417.5C172 414.663 183.781 416.497 185.639 414.639C187.499 412.779 185.663 401 188.5 401C191.337 401 189.503 412.781 191.361 414.639C193.219 416.497 205 414.663 205 417.5Z" fill="white"/>
<path d="M645.697 99.3483C645.697 103.534 628.311 100.828 625.57 103.57C622.825 106.315 625.535 123.697 621.348 123.697C617.162 123.697 619.869 106.311 617.127 103.57C614.382 100.828 597 103.534 597 99.3483C597 95.1621 614.385 97.8685 617.127 95.1269C619.872 92.382 617.162 75 621.348 75C625.535 75 622.828 92.3852 625.57 95.1269C628.311 97.8685 645.697 95.1621 645.697 99.3483Z" fill="white"/>
<path d="M78.6966 401.348C78.6966 405.534 61.3114 402.828 58.5697 405.57C55.8249 408.315 58.5345 425.697 54.3484 425.697C50.1622 425.697 52.8685 408.311 50.1269 405.57C47.382 402.828 30 405.534 30 401.348C30 397.162 47.3852 399.869 50.1269 397.127C52.8718 394.382 50.1622 377 54.3484 377C58.5345 377 55.8281 394.385 58.5697 397.127C61.3114 399.869 78.6966 397.162 78.6966 401.348Z" fill="white"/>
<path d="M807.575 362.337C804.519 362.503 801.384 362.961 798.226 363.499C797.944 363.512 797.688 363.579 797.422 363.618C792.102 364.508 786.747 365.578 781.603 365.866C780.261 365.937 778.928 366.029 777.586 366.1C777.266 366.1 776.984 366.116 776.677 366.142C771.559 366.353 766.402 366.359 761.255 365.498C755.544 364.534 749.907 362.509 744.677 359.572C744.216 359.358 743.793 359.089 743.383 358.849C733.765 353.192 725.44 344.509 720.168 333.873L719.832 333.21C719.858 333.197 719.858 333.197 719.883 333.184C729.015 325.244 741.349 321.996 753.815 323.268C754.173 323.281 754.545 323.316 754.904 323.393C754.904 323.393 754.904 323.393 754.929 323.38C759 323.889 763.045 324.86 767.007 326.291C772.772 328.38 778.233 331.393 783.38 335.109C783.726 335.352 784.034 335.58 784.357 335.836C792.621 342.049 799.878 350.082 805.621 359.105C805.621 359.105 805.621 359.105 805.634 359.13C805.967 359.665 806.303 360.203 806.614 360.751C806.944 361.276 807.264 361.789 807.575 362.337Z" fill="#9AAFCE"/>
<path d="M719.039 333.709C719.017 333.667 719.004 333.616 719 333.568C718.991 333.37 719.141 333.2 719.337 333.19C750.366 331.454 782.321 341.284 807.009 360.155C807.166 360.277 807.198 360.501 807.076 360.655C806.955 360.812 806.731 360.841 806.577 360.722C782.02 341.95 750.238 332.175 719.375 333.898C719.231 333.911 719.1 333.831 719.039 333.709Z" fill="#33160D"/>
<path d="M769.772 340.333C769.592 340.423 769.426 340.538 769.262 340.656C769.109 340.733 768.878 340.72 768.763 340.557C768.75 340.531 768.75 340.531 768.737 340.506C768.66 340.352 768.724 340.16 768.862 340.057C768.888 340.045 768.888 340.045 768.913 340.032C773.125 337.136 778.224 335.429 783.377 335.103C783.723 335.346 784.031 335.573 784.354 335.83C779.211 335.919 774.047 337.502 769.772 340.333Z" fill="#33160D"/>
<path d="M777.585 366.097C777.265 366.097 776.983 366.113 776.676 366.138C770.597 359.047 765.424 351.274 761.209 342.924C760.357 341.239 759.559 339.526 758.784 337.802L758.631 337.495C758.554 337.341 758.618 337.149 758.756 337.047C758.781 337.034 758.781 337.034 758.807 337.021C758.999 336.957 759.166 337.034 759.268 337.171L759.281 337.197C759.396 337.492 759.527 337.748 759.668 338.027C764.287 348.26 770.286 357.667 777.585 366.097Z" fill="#33160D"/>
<path d="M798.222 363.499C797.94 363.512 797.684 363.579 797.418 363.618C794.564 359.931 792.066 355.998 789.965 351.837C789.552 351.021 789.164 350.191 788.764 349.333L788.674 349.153C788.584 348.974 788.661 348.743 788.85 348.679C788.901 348.654 788.927 348.641 788.991 348.641C788.991 348.641 789.017 348.628 789.03 348.654C789.106 348.679 789.158 348.718 789.235 348.743L789.247 348.769C789.286 348.782 789.311 348.833 789.324 348.859C789.504 349.217 789.648 349.56 789.827 349.919C792.111 354.758 794.916 359.3 798.222 363.499Z" fill="#33160D"/>
<path d="M741.884 334.475C741.794 334.552 741.691 334.603 741.563 334.603C741.486 334.577 741.435 334.539 741.371 334.475C741.333 334.462 741.307 334.411 741.294 334.385C741.23 334.257 741.243 334.09 741.342 333.975C741.368 333.962 741.406 333.911 741.432 333.898C745.167 329.866 749.311 326.333 753.814 323.258C754.173 323.271 754.545 323.306 754.903 323.383C750.307 326.407 746.111 329.968 742.342 333.985C742.201 334.154 742.024 334.308 741.884 334.475Z" fill="#33160D"/>
<path d="M744.676 359.569C744.215 359.355 743.792 359.086 743.382 358.846C741.322 355.784 739.493 352.603 737.831 349.307C735.33 344.353 733.251 339.154 731.579 333.812C731.592 333.773 731.579 333.748 731.566 333.722C731.502 333.53 731.602 333.351 731.794 333.287C731.986 333.223 732.204 333.338 732.229 333.514C732.255 333.629 732.306 333.732 732.332 333.847C735.198 343.011 739.337 351.655 744.676 359.569Z" fill="#33160D"/>
<path d="M101.822 199C101.55 202.049 101.563 205.217 101.643 208.42C101.617 208.702 101.646 208.961 101.646 209.233C101.771 214.624 102.069 220.078 101.623 225.209C101.502 226.548 101.406 227.877 101.284 229.219C101.239 229.536 101.214 229.815 101.198 230.126C100.679 235.221 99.9548 240.327 98.3694 245.298C96.6046 250.813 93.7988 256.104 90.1508 260.867C89.8721 261.293 89.5454 261.674 89.2507 262.045C82.2845 270.76 72.5093 277.768 61.2288 281.477L60.5241 281.714C60.5145 281.689 60.5145 281.689 60.5049 281.66C53.9422 271.494 52.4817 258.823 55.5084 246.662C55.5724 246.31 55.6589 245.948 55.787 245.602C55.787 245.602 55.7871 245.602 55.7775 245.576C56.86 241.617 58.3942 237.752 60.3736 234.036C63.2594 228.627 67.0163 223.646 71.4267 219.082C71.715 218.775 71.9872 218.502 72.2851 218.22C79.6069 210.924 88.591 204.88 98.3405 200.48C98.3405 200.48 98.3405 200.48 98.3694 200.47C98.9459 200.214 99.5256 199.961 100.112 199.733C100.682 199.474 101.233 199.227 101.822 199Z" fill="#9AAFCE"/>
<path d="M60.9046 282.57C60.8597 282.586 60.8085 282.592 60.7605 282.589C60.5619 282.57 60.4146 282.397 60.4338 282.201C63.1242 251.239 77.393 221.004 99.5826 199.247C99.7235 199.109 99.9509 199.109 100.089 199.25C100.226 199.391 100.223 199.618 100.085 199.756C78.0175 221.398 63.8224 251.47 61.148 282.262C61.132 282.41 61.0327 282.525 60.9046 282.57Z" fill="#33160D"/>
<path d="M74.6681 233.293C74.7322 233.482 74.8219 233.665 74.9148 233.844C74.9692 234.007 74.9243 234.232 74.745 234.324C74.7193 234.334 74.7194 234.334 74.6905 234.344C74.5272 234.398 74.3478 234.308 74.2646 234.155C74.2549 234.129 74.2549 234.129 74.2453 234.1C71.9777 229.52 71.0104 224.232 71.4204 219.082C71.7087 218.774 71.9809 218.502 72.2788 218.22C71.6446 223.323 72.4742 228.659 74.6681 233.293Z" fill="#33160D"/>
<path d="M101.28 229.219C101.235 229.536 101.21 229.815 101.194 230.126C93.3113 235.135 84.8814 239.151 76.0158 242.137C74.2254 242.739 72.419 243.286 70.6029 243.808L70.2763 243.917C70.1129 243.972 69.9336 243.882 69.8503 243.728C69.8407 243.703 69.8407 243.703 69.831 243.674C69.7926 243.475 69.8919 243.322 70.0456 243.238L70.0713 243.229C70.3788 243.155 70.651 243.065 70.9488 242.963C81.7361 239.846 91.9021 235.247 101.28 229.219Z" fill="#33160D"/>
<path d="M101.642 208.42C101.616 208.702 101.645 208.961 101.645 209.233C97.5901 211.536 93.3431 213.448 88.9231 214.938C88.0552 215.229 87.1776 215.495 86.2744 215.77L86.0854 215.834C85.8965 215.898 85.6786 215.789 85.6402 215.591C85.621 215.536 85.6113 215.511 85.621 215.447C85.621 215.447 85.6114 215.421 85.6402 215.412C85.6754 215.338 85.7202 215.293 85.7587 215.223L85.7843 215.213C85.8035 215.178 85.858 215.159 85.8836 215.149C86.2615 215.021 86.6235 214.931 87.0046 214.803C92.1196 213.224 97.0168 211.094 101.642 208.42Z" fill="#33160D"/>
<path d="M64.9099 260.066C64.974 260.166 65.0092 260.274 64.9932 260.399C64.958 260.473 64.9132 260.518 64.8395 260.572C64.8203 260.608 64.7659 260.627 64.7402 260.636C64.6057 260.681 64.4424 260.646 64.3431 260.531C64.3335 260.505 64.2886 260.457 64.279 260.431C60.8199 256.162 57.9085 251.559 55.5063 246.662C55.5704 246.31 55.6568 245.948 55.7849 245.602C58.1262 250.579 61.0537 255.24 64.4968 259.544C64.6377 259.704 64.7658 259.906 64.9099 260.066Z" fill="#33160D"/>
<path d="M90.1439 260.863C89.8652 261.289 89.5385 261.67 89.2439 262.042C85.9193 263.643 82.5114 265.005 79.0139 266.18C73.7547 267.951 68.313 269.271 62.788 270.168C62.7528 270.148 62.724 270.158 62.6984 270.168C62.4998 270.203 62.3364 270.078 62.3012 269.879C62.2627 269.681 62.4069 269.482 62.5894 269.482C62.7079 269.473 62.8137 269.437 62.9322 269.428C72.4063 267.897 81.5538 265.027 90.1439 260.863Z" fill="#33160D"/>
<path d="M296.365 316.999C291.745 316.999 288 313.253 288 308.634V146.055C288 145.631 288.001 145.209 288.015 144.772C288.347 112.97 301.199 83.1263 324.209 60.7355C347.222 38.3419 377.728 26.01 410.11 26.01C441.026 26.01 470.513 37.3824 493.135 58.0312C494.232 59.0247 495.321 60.0549 496.381 61.0838C501.746 66.3454 506.651 72.1622 510.983 78.3955C518.971 89.8632 524.809 102.478 528.334 115.881C528.989 118.374 529.535 120.771 530.004 123.217C530.626 126.367 531.116 129.541 531.496 132.885C531.984 137.273 532.232 141.697 532.232 146.057V308.635C532.232 313.255 528.487 317 523.868 317L296.365 316.999Z" fill="white"/>
<path d="M525.262 146.055V308.635H297.758V146.055C297.758 145.693 297.758 145.33 297.771 144.954C298.357 83.7946 349.046 34.3746 411.503 34.3746C441.407 34.3746 468.606 45.6953 488.89 64.2087C489.935 65.1573 490.953 66.1182 491.943 67.0804C496.962 72.0017 501.506 77.4102 505.507 83.1686C512.798 93.6386 518.32 105.391 521.638 118.007C522.223 120.238 522.739 122.482 523.185 124.796C523.77 127.765 524.231 130.762 524.579 133.83C525.024 137.83 525.262 141.929 525.262 146.055Z" fill="#DBD495"/>
<path d="M525.262 252.732V308.37L523.771 308.635H297.758V265.098C299.151 257.18 300.797 248.857 302.749 240.757C306.388 225.533 311.044 211.132 316.829 201.875C334.617 173.407 413.636 169.127 413.636 169.127C413.636 169.127 484.471 176.962 505.829 198.682C512.548 205.499 517.567 218.758 521.303 233.743V233.757C522.822 239.906 524.146 246.333 525.262 252.732Z" fill="#FCB149"/>
<path d="M414.006 59.9191C419.371 59.1011 425.353 59.3515 429.525 62.8207C431.481 64.447 432.922 66.694 435.112 67.987C438.696 70.1006 443.197 69.1343 447.328 68.6552C455.547 67.7025 465.157 69.7562 469.175 76.9898C472.104 82.2636 471.244 88.7351 470.383 94.7057C470.179 96.1184 469.99 97.6142 470.54 98.9316C471.754 101.839 475.6 102.262 478.356 103.786C481.975 105.787 483.887 110.152 483.69 114.282C483.491 118.413 481.458 122.282 478.773 125.427C476.947 127.565 474.754 129.525 473.798 132.169C472.282 136.364 474.285 141.115 473.228 145.449C472.267 149.385 468.99 152.267 465.842 154.818C462.878 157.218 459.773 159.62 456.111 160.687C449.967 162.477 443.378 160.23 437.007 160.824C431.008 161.383 425.572 164.406 419.996 166.685C414.42 168.965 407.993 170.51 402.471 168.101C395.885 165.228 392.096 157.364 385.106 155.701C381.373 154.812 377.501 155.916 373.725 156.598C369.95 157.28 365.676 157.42 362.69 155.011C358.312 151.48 359.032 144.814 358.673 139.202C358.398 134.912 357.241 130.682 355.295 126.848C353.179 122.679 350.031 118.323 351.224 113.803C353.067 106.828 363.723 105.32 365.671 98.3736C366.213 96.4437 365.958 94.39 366.101 92.3907C366.439 87.6695 369.163 83.1796 373.196 80.6999C376.861 78.4461 381.345 77.7166 384.254 74.3237C386.697 71.4751 387.668 66.8546 391.487 65.3902C394.247 64.3327 397.434 65.0949 400.304 64.0945C404.907 62.4899 409.13 60.6622 414.006 59.9191Z" fill="#33160D"/>
<path d="M361.114 130.917C356.049 131.992 352.955 137.474 352.705 142.648C352.495 146.996 353.861 151.404 356.496 154.869C359.131 158.336 363.011 160.833 367.258 161.795C369.969 162.409 372.983 162.363 375.324 160.864C378.735 158.681 379.75 154.014 379.015 150.034C377.575 142.246 371.071 128.801 361.114 130.917Z" fill="#BB5631"/>
<path d="M359.02 137.389C362.589 137.134 365.694 139.772 367.961 142.54C371.904 147.355 374.689 153.114 376.014 159.194" stroke="#33160D" stroke-width="0.5122" stroke-miterlimit="10" stroke-linecap="round" stroke-linejoin="round"/>
<path d="M465.667 130.917C470.733 131.992 473.826 137.475 474.077 142.648C474.287 146.996 472.92 151.404 470.285 154.869C467.652 158.336 463.77 160.833 459.525 161.795C456.814 162.409 453.8 162.363 451.459 160.864C448.048 158.681 447.033 154.015 447.768 150.034C449.206 142.246 455.709 128.801 465.667 130.917Z" fill="#BB5631"/>
<path d="M467.76 137.389C464.19 137.134 461.086 139.772 458.819 142.54C454.876 147.355 452.091 153.114 450.766 159.194" stroke="#33160D" stroke-width="0.5122" stroke-miterlimit="10" stroke-linecap="round" stroke-linejoin="round"/>
<path d="M457.242 133.103C456.476 138.178 455.389 143.21 454.594 147.783C452.935 157.527 451.15 167.37 448.292 176.85C443.538 192.506 394.187 192.269 383.745 183.25C382.1 181.841 380.971 179.889 379.996 177.994C375.967 170.033 374.182 160.818 372.551 152.119C371.714 147.644 370.99 143.14 370.363 138.623C370.07 136.533 369.777 134.427 369.541 132.322C369.011 127.61 368.719 122.87 369.234 118.143C371.117 100.55 383.357 85.5353 399.598 79.9866C399.821 79.9036 400.031 79.8328 400.254 79.7634C404.408 78.397 408.828 77.658 413.401 77.658C414.475 77.658 415.534 77.6852 416.594 77.7696C438.231 79.3034 453.524 95.7114 457.483 116.247C457.581 116.749 457.664 117.252 457.734 117.767C458.414 122.619 458.01 127.889 457.242 133.103Z" fill="#BB5631"/>
<path d="M460.033 129.446L458.487 128.564C458.844 124.818 458.917 121.11 458.425 117.619C458.355 117.098 458.27 116.592 458.172 116.085C454.182 95.3509 438.77 78.7837 416.966 77.2349C415.897 77.1505 414.83 77.1219 413.748 77.1219C409.14 77.1219 404.687 77.8678 400.501 79.2478C400.276 79.3186 400.065 79.388 399.84 79.4724C399.842 79.4765 399.845 79.4819 399.847 79.486C383.458 85.0919 370.16 100.289 368.26 118.055C367.87 121.646 368.496 125.214 369.056 128.786L367.902 129.445L372.025 143.682L376.294 124.782C376.429 124.249 376.524 123.77 376.562 123.403C376.871 120.447 376.338 116.97 378.515 114.957C380.426 113.184 383.46 113.577 385.863 112.55C389.656 110.916 391.02 106.074 390.5 101.979C390.135 99.1916 389.249 95.996 391.076 93.8716C392.72 91.943 395.698 92.0424 398.015 91.0149C400.671 89.8322 402.455 86.9333 402.315 84.0194C402.305 83.818 402.259 83.622 402.233 83.4233C403.276 84.7326 404.428 85.8418 405.448 86.525C408.637 88.6781 412.655 89.3545 416.476 88.9462C419.398 88.6508 422.686 87.8628 424.961 89.692C426.97 91.3102 427.195 94.2241 428.221 96.5894C429.598 99.785 432.885 102.206 436.369 102.093C438.631 102.036 440.738 100.981 442.958 100.531C445.164 100.067 447.889 100.446 449.013 102.417C449.982 104.093 449.406 106.203 448.928 108.09C447.608 113.27 447.271 119.027 449.799 123.756C450.352 124.807 451.08 125.792 452.023 126.483L455.909 143.682L460.033 129.446Z" fill="#33160D"/>
<path d="M382.665 121.256C381.934 122.554 381.853 124.29 382.756 125.475C383.593 126.571 385.039 126.98 386.397 127.222C388.626 127.618 390.903 127.744 393.161 127.591C394.795 127.481 396.469 127.21 397.864 126.351C402.205 123.683 399.352 117.6 395.187 116.556C391.426 115.611 384.572 117.867 382.665 121.256Z" fill="#33160D"/>
<path d="M443.602 121.611C444.333 122.909 444.415 124.646 443.511 125.83C442.674 126.926 441.227 127.335 439.87 127.578C437.641 127.974 435.364 128.099 433.105 127.946C431.47 127.836 429.796 127.565 428.401 126.707C424.061 124.038 426.914 117.955 431.078 116.912C434.842 115.967 441.695 118.222 443.602 121.611Z" fill="#33160D"/>
<path d="M395.845 137.544C395.845 139.658 394.132 141.37 392.018 141.37C389.905 141.37 388.192 139.656 388.192 137.544C388.192 135.432 389.906 133.718 392.018 133.718C394.132 133.718 395.845 135.43 395.845 137.544Z" fill="#33160D"/>
<path d="M432.063 141.371C434.177 141.371 435.89 139.658 435.89 137.544C435.89 135.43 434.177 133.717 432.063 133.717C429.95 133.717 428.236 135.43 428.236 137.544C428.236 139.658 429.95 141.371 432.063 141.371Z" fill="#33160D"/>
<path d="M407.74 127.843C405.273 136.277 404.127 145.084 404.174 153.872C404.184 155.638 404.723 157.945 406.484 158.072C407.624 158.153 408.67 157.164 409.798 157.352C410.742 157.508 411.423 158.453 412.374 158.559C413.618 158.698 414.548 157.38 415.77 157.111C416.872 156.867 417.953 157.511 419.054 157.757C420.155 158.004 421.678 157.461 421.585 156.335" stroke="#33160D" stroke-width="0.5122" stroke-miterlimit="10" stroke-linecap="round" stroke-linejoin="round"/>
<path d="M462.264 202.272C460.639 209.44 456.336 215.573 450.462 219.114C446.902 221.262 442.85 222.356 438.865 222.356C438.195 222.356 437.526 222.323 436.856 222.264C435.178 222.104 433.534 221.746 431.962 221.19C431.306 220.964 430.669 220.698 430.046 220.4L430.901 218.611C431.186 218.743 431.471 218.869 431.762 218.989C433.519 219.712 435.416 220.136 437.358 220.282C441.47 220.587 445.792 219.606 449.433 217.41C454.844 214.148 458.816 208.471 460.328 201.827C460.984 198.936 461.044 196.463 460.513 194.255C459.896 191.688 458.417 189.573 456.454 188.439C453.947 186.987 450.401 187.033 446.721 188.566C445.786 188.956 444.878 189.415 444.015 189.932C440.739 191.888 438.021 194.706 436.204 198.088L435.064 197.472L434.454 197.14C435.024 196.078 435.674 195.071 436.403 194.123C438.538 191.304 441.309 188.997 444.486 187.406C444.964 187.161 445.454 186.935 445.952 186.73C450.209 184.959 454.399 184.952 457.449 186.716C459.883 188.122 461.7 190.701 462.449 193.792C463.052 196.304 462.994 199.075 462.264 202.272Z" fill="#9AAFCE"/>
<path d="M431.763 218.988C433.52 219.71 435.417 220.135 437.359 220.28C437.193 220.943 437.027 221.606 436.855 222.263C435.177 222.104 433.533 221.746 431.961 221.19C431.816 220.474 431.77 219.731 431.763 218.988Z" fill="#33160D"/>
<path d="M444.486 187.405C444.34 188.247 444.181 189.089 444.015 189.931C440.739 191.886 438.021 194.705 436.204 198.087L435.063 197.47C435.468 196.337 435.913 195.222 436.403 194.122C438.538 191.304 441.31 188.997 444.486 187.405Z" fill="#33160D"/>
<path d="M446.808 170.49L444.891 178.056L444.799 178.421L431.942 229.147L431.697 230.103L431.265 231.807L428.905 240.135C415.617 247.8 390.599 239.962 390.599 239.962L384.386 212.258L383.896 210.069L383.16 206.773L382.424 203.497L381.953 201.382L381.197 198.027L376.748 178.174L376.669 177.817L375.025 170.489L446.808 170.49Z" fill="#9AAFCE"/>
<path d="M446.719 170.239C446.719 171.081 445.246 171.869 442.647 172.566C442.614 172.573 442.587 172.58 442.554 172.593C436.533 174.184 424.585 175.266 410.826 175.266C396.662 175.266 384.408 174.119 378.573 172.448C378.56 172.448 378.553 172.441 378.541 172.441C376.227 171.778 374.933 171.028 374.933 170.239C374.933 167.468 391.006 165.22 410.826 165.22C430.653 165.218 446.719 167.467 446.719 170.239Z" fill="#FFE2D6"/>
<path d="M442.558 172.592C436.537 174.183 424.589 175.265 410.829 175.265C396.665 175.265 384.411 174.118 378.577 172.446C378.563 172.446 378.556 172.439 378.544 172.439C380.732 170.079 394.206 168.268 410.492 168.268C427.12 168.269 440.813 170.158 442.558 172.592Z" fill="#33160D"/>
<path d="M444.892 178.056L444.799 178.421C433.805 180.483 422.599 181.517 411.392 181.517C399.768 181.517 388.137 180.403 376.746 178.175L376.667 177.817C399.092 182.226 422.433 182.307 444.892 178.056Z" fill="#FFE2D6"/>
<path d="M319.495 230.534L322.521 221.101C322.521 221.101 321.275 216.296 321.987 213.093C322.699 209.89 319.318 208.111 320.563 204.551C321.809 200.992 323.411 198.5 323.589 196.186C323.767 193.872 325.546 189.423 327.683 186.041C329.818 182.659 330.887 178.922 333.378 176.608C335.87 174.295 351.531 170.201 351.531 170.201C351.531 170.201 379.117 171.269 379.295 174.116C379.474 176.963 376.748 178.175 376.748 178.175C376.748 178.175 381.61 178.922 381.075 182.837C380.542 186.753 371.999 188.177 371.999 188.177C371.999 188.177 374.669 189.6 373.956 192.982C373.244 196.364 364.168 197.61 364.168 197.61C364.168 197.61 355.447 215.05 353.49 220.39C351.531 225.729 342.1 239.789 342.1 239.789L319.495 230.534Z" fill="#BB5631"/>
<path d="M333.378 176.608C333.378 176.608 346.251 170.319 350.997 170.201C355.743 170.082 378.88 170.437 379.235 174.59C379.54 178.154 376.746 178.173 376.746 178.173" stroke="#33160D" stroke-width="0.5122" stroke-miterlimit="10" stroke-linecap="round" stroke-linejoin="round"/>
<path d="M333.436 182.659C333.436 182.659 345.062 177.438 349.453 177.083C353.843 176.727 379.826 176.371 380.894 180.761C381.963 185.151 375.555 187.938 371.403 188.473" stroke="#33160D" stroke-width="0.5122" stroke-miterlimit="10" stroke-linecap="round" stroke-linejoin="round"/>
<path d="M328.453 194.169C328.453 194.169 334.741 189.066 340.2 188.236C345.657 187.406 370.693 187.643 372.946 189.185C375.2 190.727 374.133 195.354 370.099 196.184C366.065 197.014 341.743 197.608 341.743 197.608L330.946 202.947" stroke="#33160D" stroke-width="0.5122" stroke-miterlimit="10" stroke-linecap="round" stroke-linejoin="round"/>
<path d="M327.503 205.321C327.503 205.321 355.859 199.27 356.691 202.117C357.521 204.964 355.029 207.219 347.792 209.236C340.555 211.253 336.521 212.558 336.521 212.558" stroke="#33160D" stroke-width="0.5122" stroke-miterlimit="10" stroke-linecap="round" stroke-linejoin="round"/>
<path d="M347.093 209.713C347.016 210.682 346.809 211.641 346.482 212.557" stroke="#33160D" stroke-width="0.5122" stroke-miterlimit="10" stroke-linecap="round" stroke-linejoin="round"/>
<path d="M351.933 308.636H297.758V245.189C299.278 243.613 300.81 242.206 302.387 241.036C302.512 240.938 302.623 240.841 302.749 240.757C304.31 239.614 305.913 238.68 307.516 238.01C307.545 238.01 307.558 237.997 307.585 237.983C308.519 237.592 309.468 237.313 310.415 237.119L310.777 236.408L311.711 234.596L311.724 234.567L315.404 227.388L315.739 227.527L316.409 227.792L329.987 233.256L330.043 233.284L350.55 241.537L350.76 241.62L346.48 253.26C346.48 253.26 353.366 261.082 354.078 273.656C354.512 281.298 353.103 297.274 351.933 308.636Z" fill="#FCB149"/>
<path d="M347.18 308.636H346.469C347.362 303.756 350.234 287.11 349.941 275.037C349.593 260.873 345.048 253.387 345.006 253.317C344.95 253.219 344.937 253.094 344.979 252.996L349.831 241.927L330.049 233.283L329.993 233.256L316.624 227.415L316.415 227.792L311.786 235.864C311.757 235.933 311.702 235.989 311.632 236.018C311.34 236.143 311.061 236.283 310.782 236.408C309.638 236.938 308.58 237.467 307.589 237.984C307.56 237.998 307.547 238.012 307.519 238.012C305.539 239.057 303.839 240.075 302.388 241.037C300.437 242.319 298.932 243.518 297.76 244.565V243.589C300.437 241.302 304.646 238.402 311.24 235.419L311.714 234.597L311.728 234.568L315.742 227.528L316.16 226.803C316.258 226.649 316.453 226.593 316.607 226.649L350.427 241.426C350.483 241.455 350.525 241.496 350.552 241.538C350.581 241.566 350.594 241.594 350.608 241.621C350.637 241.704 350.637 241.802 350.608 241.886L345.687 253.109C346.356 254.294 350.302 261.808 350.637 275.025C350.929 287.055 348.1 303.589 347.18 308.636Z" fill="#33160D"/>
<path d="M475.933 243.703L472.196 238.186C472.196 238.186 462.586 231.423 459.559 224.66C459.559 224.66 445.143 223.237 447.101 215.406C447.101 215.406 441.583 211.135 444.253 205.796C444.253 205.796 438.381 202.237 441.761 193.337C441.761 193.337 434.642 188.355 440.516 179.99C446.389 171.626 462.584 178.21 467.745 179.634C472.906 181.057 480.916 185.151 482.873 188.355C484.83 191.558 499.068 226.085 499.068 226.085C499.068 226.085 490.704 244.06 475.933 243.703Z" fill="#BB5631"/>
<path d="M480.915 185.626C480.915 185.626 464.186 177.558 456.355 176.61C448.524 175.66 439.033 175.423 438.084 185.271C438.084 185.271 438.084 191.678 441.761 193.339" stroke="#33160D" stroke-width="0.5122" stroke-miterlimit="10" stroke-linecap="round" stroke-linejoin="round"/>
<path d="M466.915 203.304L444.254 205.796C444.254 205.796 442.355 204.847 441.168 201.168C439.982 197.491 441.05 194.049 442.71 191.795C444.372 189.542 466.914 190.253 466.914 190.253" stroke="#33160D" stroke-width="0.5122" stroke-miterlimit="10" stroke-linecap="round" stroke-linejoin="round"/>
<path d="M444.254 205.796C444.254 205.796 441.762 211.372 447.101 215.406L463 216.711" stroke="#33160D" stroke-width="0.5122" stroke-miterlimit="10" stroke-linecap="round" stroke-linejoin="round"/>
<path d="M525.264 237.048V308.635H480.095C478.143 304.062 476.122 298.849 474.519 293.467C471.87 284.685 470.281 275.47 471.703 268.067C471.703 268.067 471.703 268.067 471.716 268.054C471.953 266.757 472.302 265.53 472.748 264.36C473.096 263.426 473.514 262.534 474.003 261.697C474.03 261.641 474.059 261.599 474.086 261.543C474.519 260.79 475.02 260.093 475.578 259.424L475.312 258.74L469.875 244.716L477.863 238.484L498.997 221.978L500.252 220.988L505.953 230.956C505.953 230.956 513.718 228.851 521.302 233.745V233.758C522.643 234.609 523.981 235.696 525.264 237.048Z" fill="#FCB149"/>
<path d="M525.263 249.372V251.031C522.823 245.788 520.007 240.296 518.042 238.247C513.915 233.953 503.432 233.549 503.334 233.549C503.195 233.549 503.068 233.466 503.012 233.339L498.565 222.73L471.017 244.883L476.426 257.444C476.454 257.499 476.468 257.569 476.454 257.638C476.441 257.763 476.148 259.116 471.714 268.052C471.7 268.066 471.7 268.066 471.7 268.066C471.562 268.359 471.408 268.651 471.254 268.959C468.786 273.88 471.366 284.336 474.516 293.467C476.789 300.061 479.368 305.987 480.552 308.635H479.771C476.662 301.762 466.262 277.379 470.64 268.639C471.462 266.98 472.16 265.558 472.746 264.359C473.248 263.327 473.666 262.434 474 261.695C474.028 261.639 474.056 261.597 474.083 261.541C474.684 260.244 475.073 259.353 475.31 258.739C475.589 258.07 475.7 257.75 475.742 257.61L470.278 244.909C470.209 244.77 470.25 244.603 470.376 244.491L477.863 238.482L498.495 221.892C498.578 221.823 498.69 221.809 498.802 221.823C498.871 221.85 498.955 221.906 498.996 221.976C499.01 221.99 499.025 222.005 499.038 222.032L503.569 232.864C505.186 232.947 514.513 233.575 518.541 237.772C520.411 239.738 522.962 244.535 525.263 249.372Z" fill="#33160D"/>
<path d="M339.837 83.4515L347.208 75.287L346.648 86.2715L357.633 85.7107L349.468 93.0818L357.633 100.453L346.648 99.8922L347.208 110.878L339.837 102.713L332.466 110.878L333.027 99.8922L322.041 100.453L330.207 93.0818L322.041 85.7107L333.027 86.2715L332.466 75.287L339.837 83.4515Z" fill="#FFE2D6"/>
<path d="M499.537 150.576L505.831 143.605L505.351 152.984L514.73 152.505L507.759 158.798L514.73 165.091L505.351 164.612L505.831 173.991L499.537 167.02L493.244 173.991L493.723 164.612L484.345 165.091L491.316 158.798L484.345 152.505L493.723 152.984L493.244 143.605L499.537 150.576Z" fill="#FFE2D6"/>
<path d="M336.41 139.729C336.292 141.056 336.297 142.435 336.332 143.829C336.321 143.951 336.334 144.066 336.334 144.183C336.388 146.529 336.517 148.904 336.324 151.137C336.271 151.72 336.229 152.3 336.176 152.882C336.157 153.019 336.145 153.142 336.138 153.275C335.912 155.492 335.596 157.715 334.906 159.879C334.138 162.28 332.916 164.582 331.328 166.655C331.207 166.84 331.065 167.006 330.936 167.168C327.904 170.963 323.649 174.011 318.739 175.625L318.431 175.729C318.427 175.717 318.427 175.717 318.423 175.706C315.567 171.281 314.931 165.765 316.248 160.472C316.276 160.318 316.315 160.161 316.37 160.011C316.37 160.011 316.369 160.011 316.365 159.999C316.836 158.276 317.505 156.592 318.366 154.975C319.622 152.621 321.258 150.453 323.177 148.467C323.302 148.332 323.421 148.214 323.55 148.091C326.737 144.915 330.648 142.284 334.891 140.369C334.891 140.369 334.891 140.369 334.903 140.365C335.155 140.253 335.407 140.143 335.663 140.044C335.915 139.935 336.154 139.829 336.41 139.729Z" fill="#9AAFCE"/>
<path d="M318.6 176.105C318.581 176.111 318.558 176.114 318.538 176.113C318.452 176.105 318.388 176.03 318.396 175.944C319.568 162.468 325.778 149.307 335.436 139.837C335.497 139.777 335.596 139.777 335.656 139.839C335.716 139.9 335.715 139.999 335.655 140.059C326.049 149.478 319.872 162.568 318.707 175.971C318.7 176.034 318.658 176.086 318.6 176.105Z" fill="#33160D"/>
<path d="M324.591 154.655C324.619 154.738 324.659 154.816 324.698 154.895C324.723 154.966 324.703 155.064 324.625 155.105C324.613 155.109 324.613 155.109 324.602 155.113C324.531 155.137 324.452 155.098 324.417 155.031C324.413 155.019 324.413 155.019 324.409 155.008C323.422 153.014 323.001 150.713 323.18 148.471C323.305 148.336 323.423 148.218 323.552 148.096C323.275 150.317 323.635 152.638 324.591 154.655Z" fill="#33160D"/>
<path d="M336.175 152.883C336.156 153.021 336.144 153.143 336.137 153.277C332.706 155.457 329.037 157.206 325.178 158.506C324.4 158.768 323.613 159.006 322.823 159.234L322.681 159.281C322.61 159.306 322.531 159.266 322.496 159.2C322.492 159.187 322.492 159.187 322.488 159.177C322.471 159.089 322.515 159.023 322.582 158.987L322.594 158.983C322.727 158.952 322.846 158.911 322.975 158.868C327.668 157.509 332.091 155.506 336.175 152.883Z" fill="#33160D"/>
<path d="M336.332 143.829C336.321 143.951 336.334 144.066 336.334 144.183C334.568 145.184 332.72 146.017 330.797 146.665C330.42 146.793 330.038 146.907 329.644 147.027L329.561 147.054C329.478 147.083 329.384 147.035 329.368 146.948C329.36 146.925 329.356 146.913 329.36 146.886C329.36 146.886 329.356 146.873 329.368 146.869C329.383 146.838 329.404 146.817 329.419 146.786L329.431 146.782C329.439 146.766 329.462 146.759 329.474 146.755C329.639 146.699 329.797 146.66 329.962 146.604C332.188 145.921 334.319 144.992 336.332 143.829Z" fill="#33160D"/>
<path d="M320.343 166.309C320.37 166.353 320.386 166.399 320.378 166.455C320.363 166.486 320.343 166.507 320.312 166.53C320.303 166.546 320.28 166.553 320.268 166.557C320.209 166.578 320.137 166.561 320.095 166.511C320.091 166.499 320.071 166.48 320.068 166.467C318.561 164.61 317.296 162.605 316.249 160.474C316.276 160.32 316.316 160.162 316.37 160.012C317.39 162.179 318.663 164.207 320.162 166.081C320.224 166.153 320.28 166.239 320.343 166.309Z" fill="#33160D"/>
<path d="M331.328 166.656C331.206 166.842 331.065 167.008 330.936 167.17C329.489 167.868 328.005 168.458 326.484 168.972C324.195 169.743 321.825 170.318 319.42 170.707C319.404 170.699 319.393 170.703 319.381 170.707C319.294 170.723 319.223 170.667 319.207 170.582C319.19 170.494 319.253 170.409 319.332 170.407C319.384 170.403 319.43 170.387 319.482 170.383C323.607 169.717 327.588 168.468 331.328 166.656Z" fill="#33160D"/>
<path d="M489.369 85.7613C488.064 85.4904 486.695 85.3353 485.306 85.2101C485.186 85.1842 485.07 85.1828 484.953 85.1706C482.616 84.9542 480.243 84.8086 478.046 84.3581C477.473 84.2383 476.903 84.1294 476.33 84.0096C476.195 83.9743 476.075 83.9498 475.943 83.9266C473.766 83.4462 471.596 82.876 469.526 81.941C467.23 80.9012 465.084 79.4218 463.209 77.6035C463.039 77.462 462.89 77.3014 462.745 77.1544C459.326 73.7043 456.789 69.126 455.753 64.0618L455.687 63.7447C455.699 63.7419 455.699 63.7419 455.711 63.7392C460.436 61.4119 465.988 61.4187 471.093 63.3391C471.243 63.384 471.395 63.4398 471.537 63.5119C471.537 63.5119 471.537 63.5119 471.549 63.5092C473.205 64.1761 474.8 65.0348 476.307 66.076C478.501 67.5962 480.465 69.4716 482.216 71.607C482.335 71.7472 482.439 71.8779 482.545 72.0208C485.333 75.5539 487.494 79.7416 488.907 84.1771C488.907 84.1771 488.907 84.1771 488.909 84.1893C488.991 84.452 489.071 84.7147 489.141 84.98C489.221 85.2454 489.3 85.4959 489.369 85.7613Z" fill="#9AAFCE"/>
<path d="M455.295 63.8686C455.291 63.8482 455.291 63.8264 455.295 63.8047C455.313 63.7203 455.394 63.6658 455.479 63.6835C468.729 66.4041 481.084 74.0923 489.375 84.7801C489.428 84.8481 489.416 84.9461 489.348 84.9978C489.28 85.0509 489.182 85.0387 489.13 84.9706C480.884 74.3413 468.596 66.6926 455.416 63.987C455.354 63.9761 455.309 63.9272 455.295 63.8686Z" fill="#33160D"/>
<path d="M475.909 72.2985C475.824 72.3162 475.742 72.3474 475.659 72.3774C475.586 72.3924 475.49 72.3624 475.46 72.2794C475.458 72.2672 475.458 72.2671 475.455 72.2549C475.44 72.1814 475.488 72.1079 475.558 72.0807C475.571 72.078 475.571 72.078 475.583 72.0753C477.677 71.3254 480.013 71.1729 482.218 71.6098C482.336 71.75 482.441 71.8806 482.547 72.0235C480.372 71.4914 478.023 71.5826 475.909 72.2985Z" fill="#33160D"/>
<path d="M476.331 84.0098C476.196 83.9744 476.077 83.9499 475.945 83.9267C474.175 80.267 472.862 76.4209 472.017 72.4373C471.847 71.633 471.7 70.8246 471.566 70.0121L471.535 69.8664C471.52 69.7929 471.568 69.7195 471.638 69.6922C471.651 69.6895 471.651 69.6895 471.663 69.6868C471.751 69.6814 471.813 69.7317 471.84 69.8025L471.843 69.8147C471.859 69.9508 471.885 70.0733 471.913 70.2067C472.718 75.0246 474.196 79.6505 476.331 84.0098Z" fill="#33160D"/>
<path d="M485.306 85.2101C485.186 85.1842 485.07 85.1828 484.953 85.1706C484.162 83.302 483.549 81.3694 483.127 79.3837C483.044 78.9945 482.973 78.6011 482.901 78.1969L482.883 78.1112C482.865 78.0255 482.923 77.937 483.011 77.9315C483.036 77.9261 483.048 77.9234 483.075 77.9302C483.075 77.9302 483.087 77.9275 483.09 77.9397C483.12 77.9588 483.136 77.9805 483.166 77.9996L483.169 78.0119C483.184 78.0214 483.189 78.0459 483.192 78.0581C483.229 78.2282 483.249 78.3902 483.286 78.5603C483.706 80.8522 484.383 83.0774 485.306 85.2101Z" fill="#33160D"/>
<path d="M464.823 66.732C464.777 66.7552 464.728 66.7647 464.675 66.7511C464.645 66.732 464.627 66.7103 464.608 66.6763C464.593 66.6667 464.587 66.6422 464.585 66.63C464.571 66.5687 464.596 66.5007 464.651 66.4626C464.664 66.4598 464.685 66.4422 464.698 66.4394C466.717 65.1574 468.854 64.1312 471.092 63.3378C471.241 63.3827 471.394 63.4385 471.535 63.5106C469.265 64.2728 467.104 65.3044 465.069 66.5755C464.993 66.6327 464.9 66.6776 464.823 66.732Z" fill="#33160D"/>
<path d="M463.209 77.6023C463.038 77.4607 462.89 77.3001 462.745 77.1531C462.219 75.6356 461.803 74.0936 461.469 72.523C460.968 70.1604 460.67 67.7405 460.562 65.3071C460.571 65.2921 460.568 65.2799 460.566 65.2677C460.56 65.1792 460.623 65.1152 460.71 65.1098C460.798 65.1043 460.877 65.1765 460.868 65.254C460.866 65.3058 460.876 65.3534 460.875 65.4051C461.061 69.5806 461.841 73.6785 463.209 77.6023Z" fill="#33160D"/>
<path d="M461.173 283.067C462.305 282.364 463.405 281.534 464.499 280.669C464.604 280.605 464.688 280.526 464.782 280.455C466.626 279.003 468.447 277.474 470.35 276.289C470.848 275.981 471.337 275.667 471.835 275.361C471.956 275.294 472.061 275.229 472.172 275.155C474.082 274.004 476.048 272.923 478.193 272.176C480.575 271.35 483.15 270.944 485.762 270.97C485.984 270.957 486.2 270.969 486.407 270.976C491.261 271.124 496.255 272.697 500.493 275.655L500.76 275.839C500.753 275.849 500.753 275.849 500.746 275.859C498.921 280.801 494.893 284.618 489.868 286.741C489.729 286.812 489.579 286.876 489.427 286.921C489.427 286.921 489.427 286.921 489.42 286.932C487.76 287.589 486.012 288.066 484.202 288.347C481.564 288.756 478.849 288.749 476.108 288.406C475.926 288.385 475.76 288.364 475.584 288.332C471.131 287.689 466.679 286.141 462.601 283.897C462.601 283.897 462.601 283.897 462.59 283.89C462.35 283.755 462.111 283.621 461.876 283.476C461.636 283.34 461.406 283.212 461.173 283.067Z" fill="#9AAFCE"/>
<path d="M500.958 275.479C500.974 275.491 500.99 275.506 501.001 275.525C501.046 275.599 501.024 275.696 500.951 275.74C489.47 282.892 475.215 285.824 461.845 283.784C461.759 283.772 461.7 283.691 461.714 283.607C461.727 283.521 461.806 283.464 461.891 283.476C475.19 285.505 489.368 282.59 500.788 275.478C500.842 275.441 500.909 275.445 500.958 275.479Z" fill="#33160D"/>
<path d="M480.207 283.561C480.256 283.489 480.296 283.41 480.335 283.331C480.377 283.269 480.469 283.226 480.547 283.264C480.558 283.271 480.558 283.271 480.568 283.278C480.629 283.32 480.645 283.407 480.613 283.475C480.606 283.486 480.606 283.486 480.599 283.495C479.598 285.481 478.008 287.2 476.108 288.402C475.926 288.381 475.76 288.359 475.584 288.328C477.526 287.219 479.166 285.535 480.207 283.561Z" fill="#33160D"/>
<path d="M471.834 275.359C471.955 275.293 472.06 275.227 472.172 275.154C475.975 276.59 479.575 278.475 482.931 280.78C483.609 281.246 484.272 281.732 484.928 282.228L485.05 282.313C485.112 282.355 485.128 282.442 485.097 282.51C485.09 282.521 485.09 282.521 485.083 282.53C485.023 282.596 484.944 282.601 484.875 282.569L484.864 282.562C484.758 282.473 484.656 282.404 484.543 282.326C480.641 279.388 476.384 277.051 471.834 275.359Z" fill="#33160D"/>
<path d="M464.499 280.669C464.604 280.605 464.688 280.526 464.782 280.455C466.643 281.265 468.419 282.243 470.091 283.393C470.419 283.619 470.74 283.855 471.073 284.098L471.145 284.147C471.217 284.196 471.236 284.301 471.176 284.365C471.162 284.385 471.154 284.396 471.131 284.41C471.131 284.41 471.124 284.421 471.113 284.413C471.079 284.419 471.051 284.415 471.017 284.422L471.007 284.415C470.99 284.418 470.969 284.404 470.96 284.398C470.815 284.298 470.69 284.198 470.546 284.098C468.66 282.728 466.638 281.58 464.499 280.669Z" fill="#33160D"/>
<path d="M492.078 279.964C492.095 279.916 492.124 279.874 492.173 279.848C492.207 279.841 492.235 279.845 492.274 279.856C492.291 279.853 492.312 279.867 492.321 279.874C492.373 279.909 492.403 279.975 492.388 280.04C492.381 280.051 492.377 280.078 492.37 280.088C491.788 282.407 490.945 284.624 489.869 286.74C489.73 286.811 489.58 286.875 489.428 286.92C490.549 284.805 491.407 282.567 492.005 280.245C492.023 280.153 492.059 280.056 492.078 279.964Z" fill="#33160D"/>
<path d="M485.763 270.97C485.985 270.957 486.201 270.969 486.408 270.976C487.834 271.715 489.198 272.545 490.521 273.455C492.512 274.823 494.393 276.373 496.148 278.064C496.151 278.081 496.162 278.088 496.173 278.095C496.238 278.155 496.237 278.245 496.177 278.309C496.117 278.374 496.011 278.375 495.963 278.313C495.929 278.275 495.888 278.246 495.854 278.208C492.844 275.308 489.456 272.873 485.763 270.97Z" fill="#33160D"/>
<path d="M392.977 57.3098C392.977 59.1321 385.41 57.9535 384.217 59.1471C383.022 60.3406 384.202 67.9077 382.379 67.9077C380.557 67.9077 381.735 60.3406 380.542 59.1471C379.347 57.9535 371.781 59.1321 371.781 57.3098C371.781 55.4874 379.348 56.666 380.542 55.4724C381.735 54.2789 380.557 46.7118 382.379 46.7118C384.202 46.7118 383.023 54.2789 384.217 55.4724C385.411 56.666 392.977 55.4874 392.977 57.3098Z" fill="white"/>
<path d="M507.769 111.826C507.769 113.649 500.202 112.47 499.009 113.664C497.815 114.859 498.994 122.424 497.171 122.424C495.349 122.424 496.527 114.857 495.334 113.664C494.139 112.47 486.573 113.649 486.573 111.826C486.573 110.004 494.14 111.183 495.334 109.989C496.527 108.796 495.349 101.229 497.171 101.229C498.994 101.229 497.815 108.796 499.009 109.989C500.202 111.184 507.769 110.004 507.769 111.826Z" fill="white"/>
<path d="M342.198 259.485C342.198 261.307 334.631 260.129 333.437 261.322C332.244 262.517 333.422 270.083 331.6 270.083C329.778 270.083 330.956 262.516 329.763 261.322C328.569 260.129 321.002 261.307 321.002 259.485C321.002 257.663 328.569 258.841 329.763 257.648C330.956 256.454 329.778 248.887 331.6 248.887C333.422 248.887 332.244 256.454 333.437 257.648C334.631 258.841 342.198 257.663 342.198 259.485Z" fill="white"/>
<path d="M238.312 340.504L248.008 364.696H243.4L240.968 358.168H232.264L229.896 364.696H225.32L234.792 340.504H238.312ZM233.544 354.584H239.624L236.68 346.712H236.424L233.544 354.584ZM269.081 340.504V364.696H264.729L253.944 347.864H253.624L253.753 350.744V364.696H249.432V340.504H253.785L264.569 357.368H264.889L264.792 354.488V340.504H269.081ZM297.342 348.056C297.342 352.6 294.334 355.608 288.414 355.608H283.614V364.696H279.326V340.504H288.414C294.334 340.504 297.342 343.512 297.342 348.056ZM293.054 348.056C293.054 345.912 291.646 344.152 288.414 344.152H283.614V351.96H288.414C291.646 351.96 293.054 350.2 293.054 348.056ZM307.787 340.504L317.483 364.696H312.875L310.443 358.168H301.739L299.371 364.696H294.795L304.267 340.504H307.787ZM303.019 354.584H309.099L306.155 346.712H305.899L303.019 354.584ZM343.612 340.504V364.696H339.324V351.896L339.452 349.656H339.132L332.924 364.696H329.596L323.388 349.656H323.068L323.196 351.896V364.696H318.908V340.504H323.772L331.1 358.552H331.42L338.748 340.504H343.612ZM372.552 364.184V364.696H368.008L362.984 355.288H358.152V364.696H353.864V340.504H362.664C368.584 340.504 371.592 343.352 371.592 347.896C371.592 351.064 370.12 353.4 367.272 354.52L372.552 364.184ZM367.304 347.896C367.304 345.752 365.864 344.152 362.664 344.152H358.152V351.64H362.664C365.864 351.64 367.304 350.072 367.304 347.896ZM390.383 361.048V364.696H374.639V340.504H390.319V344.152H378.927V350.424H389.103V354.072H378.927V361.048H390.383ZM409.884 358.232C409.884 362.488 406.076 365.016 400.796 365.016C395.804 365.016 390.94 362.808 390.94 356.792H395.26C395.26 360.504 398.076 361.368 400.796 361.368C403.708 361.368 405.596 360.184 405.596 358.264C405.596 356.344 404.252 355.352 400.124 354.2H400.092C395.036 352.824 391.676 351.224 391.676 346.968C391.676 342.936 395.388 340.216 400.668 340.216C406.204 340.216 409.724 343.576 409.724 348.408H405.436C405.436 345.496 403.58 343.864 400.668 343.864C397.564 343.864 395.964 345.176 395.964 346.904C395.964 348.728 397.628 349.688 401.308 350.68C406.844 352.184 409.884 354.232 409.884 358.232ZM427.933 361.048V364.696H412.189V340.504H427.869V344.152H416.477V350.424H426.653V354.072H416.477V361.048H427.933ZM448.714 364.184V364.696H444.17L439.146 355.288H434.314V364.696H430.026V340.504H438.826C444.746 340.504 447.754 343.352 447.754 347.896C447.754 351.064 446.282 353.4 443.434 354.52L448.714 364.184ZM443.466 347.896C443.466 345.752 442.026 344.152 438.826 344.152H434.314V351.64H438.826C442.026 351.64 443.466 350.072 443.466 347.896ZM465.625 340.504H470.169L460.857 364.696H457.401L448.089 340.504H452.633L458.201 355.48L458.969 358.04H459.289L460.057 355.48L465.625 340.504ZM487.351 361.048V364.696H471.607V340.504H487.287V344.152H475.895V350.424H486.071V354.072H475.895V361.048H487.351ZM511.589 361.048V364.696H495.845V340.504H511.525V344.152H500.133V350.424H510.309V354.072H500.133V361.048H511.589ZM528.818 340.504H533.362L524.05 364.696H520.594L511.282 340.504H515.826L521.394 355.48L522.162 358.04H522.482L523.25 355.48L528.818 340.504ZM550.545 361.048V364.696H534.801V340.504H550.481V344.152H539.089V350.424H549.265V354.072H539.089V361.048H550.545ZM572.287 340.504V364.696H567.935L557.151 347.864H556.831L556.959 350.744V364.696H552.639V340.504H556.991L567.775 357.368H568.095L567.999 354.488V340.504H572.287ZM594.149 340.504V344.152H586.245V364.696H581.957V344.152H574.053V340.504H594.149Z" fill="#BB5631"/>
<path d="M290.922 407H288.408L293.994 391.445H296.723L302.33 407H299.816L298.398 402.896H292.34L290.922 407ZM293.027 400.92H297.711L295.412 394.281H295.305L293.027 400.92ZM315.754 391.445V407H313.584L305.699 395.635H305.57V407H303.207V391.445H305.398L313.283 402.832H313.433V391.445H315.754ZM322.104 407V391.445H327.647C331.257 391.445 333.04 393.615 333.04 396.494C333.04 399.352 331.257 401.543 327.647 401.543H324.468V407H322.104ZM324.468 399.523H327.411C329.71 399.523 330.655 398.234 330.655 396.494C330.655 394.732 329.71 393.465 327.411 393.465H324.468V399.523ZM334.11 407H331.596L337.182 391.445H339.911L345.518 407H343.004L341.586 402.896H335.528L334.11 407ZM336.215 400.92H340.899L338.6 394.281H338.493L336.215 400.92ZM346.395 391.445H349.273L354.193 403.498H354.387L359.307 391.445H362.186V407H359.93V395.764H359.779L355.225 406.979H353.355L348.779 395.742H348.65V407H346.395V391.445ZM385.208 399.438V401.092H367.655V399.438H375.411V397.225H377.431V399.438H385.208ZM377.431 389.555V391.402H383.446V393.035H377.56C377.775 394.894 380.439 396.29 384.263 396.602L383.64 398.17C380.31 397.858 377.613 396.741 376.421 394.947C375.218 396.741 372.522 397.858 369.224 398.17L368.579 396.602C372.382 396.29 375.046 394.894 375.282 393.035H369.417V391.402H375.411V389.555H377.431ZM376.421 402.359C380.611 402.359 383.06 403.498 383.06 405.582C383.06 407.666 380.611 408.805 376.421 408.783C372.21 408.805 369.739 407.666 369.739 405.582C369.739 403.498 372.21 402.359 376.421 402.359ZM376.421 403.885C373.456 403.885 371.802 404.486 371.802 405.582C371.802 406.678 373.456 407.258 376.421 407.236C379.343 407.258 381.019 406.678 381.019 405.582C381.019 404.486 379.343 403.885 376.421 403.885ZM406.254 389.598V403.906H404.321V396.924H401.957V403.391H400.045V389.941H401.957V395.248H404.321V389.598H406.254ZM406.813 406.764V408.418H393.493V402.574H395.512V406.764H406.813ZM397.961 391.209V396.859H392.676V399.459C395.061 399.459 396.876 399.33 398.993 398.922L399.207 400.555C396.78 401.006 394.782 401.092 391.967 401.092H390.7V395.312H396.006V392.842H390.657V391.209H397.961ZM417.615 390.779V392.434H410.826V398.191C414.242 398.181 416.283 398.084 418.625 397.611L418.818 399.266C416.283 399.76 414.092 399.889 410.268 399.889H408.807V390.779H417.615ZM423.803 389.576V400.705H421.762V395.85H416.541V394.174H421.762V389.576H423.803ZM423.803 401.629V408.568H411.105V401.629H423.803ZM413.125 403.24V406.914H421.805V403.24H413.125ZM436.126 407.215C432.904 407.215 430.605 405.475 430.519 402.939H432.925C433.011 404.314 434.364 405.174 436.105 405.174C437.974 405.174 439.349 404.143 439.349 402.639C439.349 401.113 438.06 399.996 435.847 399.996H434.515V398.062H435.847C437.609 398.062 438.855 397.074 438.855 395.592C438.855 394.174 437.802 393.207 436.148 393.207C434.579 393.207 433.204 394.066 433.14 395.484H430.863C430.927 392.949 433.269 391.23 436.169 391.23C439.22 391.23 441.154 393.164 441.132 395.463C441.154 397.225 440.058 398.514 438.382 398.922V399.029C440.509 399.33 441.734 400.748 441.734 402.725C441.734 405.324 439.349 407.215 436.126 407.215ZM448.647 407.215C445.038 407.215 442.932 404.314 442.932 399.223C442.932 394.174 445.081 391.23 448.647 391.23C452.214 391.23 454.362 394.174 454.362 399.223C454.362 404.314 452.235 407.215 448.647 407.215ZM448.647 405.174C450.753 405.174 451.999 403.111 451.999 399.223C451.999 395.355 450.731 393.229 448.647 393.229C446.563 393.229 445.296 395.355 445.296 399.223C445.296 403.111 446.542 405.174 448.647 405.174ZM471.094 389.576V400.941H469.053V398.084H464.864V399.652H455.926V391.016H464.864V392.605H469.053V389.576H471.094ZM457.946 392.648V398.02H462.866V392.648H457.946ZM464.649 401.479C468.688 401.479 471.159 402.811 471.159 405.152C471.159 407.473 468.688 408.805 464.649 408.783C460.61 408.805 458.118 407.473 458.139 405.152C458.118 402.811 460.61 401.479 464.649 401.479ZM464.649 403.047C461.834 403.068 460.159 403.799 460.159 405.152C460.159 406.441 461.834 407.215 464.649 407.215C467.463 407.215 469.139 406.441 469.139 405.152C469.139 403.799 467.463 403.068 464.649 403.047ZM464.864 396.43H469.053V394.238H464.864V396.43ZM493.171 389.576V408.869H491.13V389.576H493.171ZM482.88 391.016C485.738 391.016 487.843 393.637 487.843 397.762C487.843 401.908 485.738 404.529 482.88 404.529C479.98 404.529 477.896 401.908 477.896 397.762C477.896 393.637 479.98 391.016 482.88 391.016ZM482.88 392.842C481.097 392.842 479.873 394.732 479.873 397.762C479.873 400.812 481.097 402.703 482.88 402.703C484.642 402.703 485.867 400.812 485.867 397.762C485.867 394.732 484.642 392.842 482.88 392.842ZM511.558 389.576V404.186H509.624V389.576H511.558ZM507.798 389.92V403.584H505.864V396.73H503.501V400.619H495.96V391.102H497.894V394.26H501.611V391.102H503.501V395.076H505.864V389.92H507.798ZM497.894 398.965H501.611V395.828H497.894V398.965ZM512.116 406.764V408.418H498.796V402.209H500.816V406.764H512.116ZM528.677 399.824V401.457H515.27V391.166H528.483V392.82H517.333V395.42H528.075V397.031H517.333V399.824H528.677ZM530.675 404.723V406.398H513.057V404.723H530.675Z" fill="#BB5631"/>
<path d="M261.43 436.867V452.371H260.34V436.867H261.43ZM256.859 438.572C256.842 442.949 254.645 446.904 249.547 449.365L248.932 448.451C253.186 446.438 255.462 443.266 255.752 439.486H249.617V438.572H256.859ZM275.418 436.867V441.701H277.809V442.65H275.418V448.293H274.293V436.867H275.418ZM271.235 438.08C271.235 442 268.299 444.971 263.887 446.395L263.413 445.498C267.192 444.285 269.758 441.947 270.039 439.012H264.028V438.08H271.235ZM276.174 451.07V452.002H265.803V447.115H266.911V451.07H276.174ZM282.97 449.277C282.443 449.277 282.021 448.855 282.021 448.346C282.021 447.818 282.443 447.396 282.97 447.396C283.48 447.396 283.902 447.818 283.902 448.346C283.902 448.855 283.48 449.277 282.97 449.277ZM282.97 441.877C282.443 441.877 282.021 441.455 282.021 440.945C282.021 440.418 282.443 439.996 282.97 439.996C283.48 439.996 283.902 440.418 283.902 440.945C283.902 441.455 283.48 441.877 282.97 441.877ZM288.957 451V450.086L293.264 445.428C294.898 443.652 295.566 442.756 295.584 441.561C295.566 440.154 294.424 439.205 292.912 439.205C291.295 439.205 290.258 440.26 290.258 441.754H289.062C289.062 439.609 290.715 438.098 292.947 438.098C295.162 438.098 296.744 439.609 296.744 441.561C296.744 442.984 296.094 444.057 293.896 446.377L290.732 449.787V449.875H297.131V451H288.957ZM302.664 451.176C299.94 451.176 298.358 448.768 298.358 444.637C298.358 440.523 299.957 438.098 302.664 438.098C305.354 438.098 306.954 440.523 306.954 444.637C306.954 448.768 305.371 451.176 302.664 451.176ZM302.664 450.051C304.598 450.051 305.741 448.082 305.741 444.637C305.741 441.191 304.58 439.205 302.664 439.205C300.731 439.205 299.588 441.191 299.588 444.637C299.588 448.082 300.731 450.051 302.664 450.051ZM308.251 451V450.086L312.557 445.428C314.192 443.652 314.86 442.756 314.878 441.561C314.86 440.154 313.718 439.205 312.206 439.205C310.589 439.205 309.552 440.26 309.552 441.754H308.356C308.356 439.609 310.009 438.098 312.241 438.098C314.456 438.098 316.038 439.609 316.038 441.561C316.038 442.984 315.388 444.057 313.19 446.377L310.026 449.787V449.875H316.425V451H308.251ZM321.888 451.176C319.655 451.176 317.986 449.77 317.933 447.801H319.146C319.216 449.102 320.376 450.068 321.888 450.068C323.663 450.068 324.946 448.732 324.929 446.992C324.929 445.164 323.575 443.898 321.8 443.881C320.728 443.881 319.849 444.232 319.339 445.059H318.091L318.97 438.273H325.597V439.398H320.025L319.48 443.6H319.585C320.148 443.072 321.062 442.756 322.011 442.756C324.349 442.756 326.159 444.496 326.159 446.975C326.159 449.4 324.366 451.176 321.888 451.176ZM339.779 436.867V448.381H338.671V442.914H333.996V441.982H338.671V439.926H333.996V439.012H338.671V436.867H339.779ZM340.218 451.07V452.002H329.9V447.414H331.007V451.07H340.218ZM329.056 438.045V445.006H329.091C331.289 445.006 333.416 444.883 335.929 444.426L336.07 445.375C333.468 445.85 331.341 445.955 329.091 445.955H327.931V438.045H329.056ZM349.598 451.176C347.366 451.176 345.696 449.77 345.643 447.801H346.856C346.926 449.102 348.086 450.068 349.598 450.068C351.373 450.068 352.657 448.732 352.639 446.992C352.639 445.164 351.286 443.898 349.51 443.881C348.438 443.881 347.559 444.232 347.049 445.059H345.801L346.68 438.273H353.307V439.398H347.735L347.19 443.6H347.295C347.858 443.072 348.772 442.756 349.721 442.756C352.059 442.756 353.87 444.496 353.87 446.975C353.87 449.4 352.077 451.176 349.598 451.176ZM367.366 436.867V446.061H366.259V445.094H363.007V444.32H366.259V436.867H367.366ZM354.639 442.844C357.645 442.861 361.512 442.809 364.887 442.422L364.958 443.195C363.402 443.406 361.767 443.538 360.177 443.617V446.131H359.087V443.652C357.549 443.714 356.081 443.723 354.78 443.723L354.639 442.844ZM367.366 446.658V449.717H358.208V451.316H367.946V452.178H357.118V448.926H366.276V447.484H357.065V446.658H367.366ZM359.72 437.201C362.022 437.201 363.552 438.08 363.552 439.539C363.552 440.998 362.022 441.859 359.72 441.842C357.382 441.859 355.887 440.998 355.887 439.539C355.887 438.08 357.382 437.201 359.72 437.201ZM359.72 437.992C358.032 437.992 356.925 438.625 356.942 439.539C356.925 440.436 358.032 441.068 359.72 441.051C361.389 441.068 362.497 440.436 362.497 439.539C362.497 438.625 361.389 437.992 359.72 437.992ZM377.431 438.273V451H376.166V439.574H376.095L373.089 441.561V440.277L376.13 438.273H377.431ZM383.879 437.465C386.199 437.482 387.852 438.871 387.869 440.875C387.852 442.896 386.199 444.268 383.879 444.268C381.559 444.268 379.889 442.896 379.906 440.875C379.889 438.871 381.559 437.482 383.879 437.465ZM383.879 438.414C382.209 438.414 380.979 439.451 380.996 440.875C380.979 442.299 382.209 443.336 383.879 443.336C385.549 443.336 386.797 442.299 386.797 440.875C386.797 439.451 385.549 438.414 383.879 438.414ZM392.246 436.867V444.883H391.139V436.867H392.246ZM392.246 445.674V449.26H383.387V451.229H392.844V452.143H382.314V448.398H391.156V446.588H382.262V445.674H392.246ZM395.108 446.148C395.108 442.896 395.969 440.102 397.498 437.729H398.571C397.34 439.68 396.338 443.037 396.338 446.148C396.338 449.277 397.34 452.635 398.571 454.586H397.498C395.969 452.195 395.108 449.4 395.108 446.148ZM411.399 437.729V438.854C411.399 440.058 411.399 441.508 410.96 443.494H413.315V444.426H399.112V443.494H409.835C410.292 441.49 410.292 440.058 410.292 438.854V438.66H400.94V437.729H411.399ZM411.487 446.711V452.143H400.887V446.711H411.487ZM401.977 447.607V451.229H410.397V447.607H401.977ZM417.302 446.148C417.302 449.4 416.441 452.195 414.911 454.586H413.839C415.07 452.635 416.071 449.277 416.071 446.148C416.071 443.037 415.07 439.68 413.839 437.729H414.911C416.441 440.102 417.302 442.896 417.302 446.148ZM427.982 444.074V445.199H422.639V444.074H427.982ZM432.915 451V450.086L437.221 445.428C438.856 443.652 439.524 442.756 439.542 441.561C439.524 440.154 438.382 439.205 436.87 439.205C435.253 439.205 434.216 440.26 434.216 441.754H433.02C433.02 439.609 434.673 438.098 436.905 438.098C439.12 438.098 440.702 439.609 440.702 441.561C440.702 442.984 440.052 444.057 437.854 446.377L434.69 449.787V449.875H441.089V451H432.915ZM446.622 451.176C443.898 451.176 442.316 448.768 442.316 444.637C442.316 440.523 443.915 438.098 446.622 438.098C449.312 438.098 450.911 440.523 450.911 444.637C450.911 448.768 449.329 451.176 446.622 451.176ZM446.622 450.051C448.556 450.051 449.698 448.082 449.698 444.637C449.698 441.191 448.538 439.205 446.622 439.205C444.689 439.205 443.546 441.191 443.546 444.637C443.546 448.082 444.689 450.051 446.622 450.051ZM452.209 451V450.086L456.515 445.428C458.15 443.652 458.818 442.756 458.836 441.561C458.818 440.154 457.675 439.205 456.164 439.205C454.546 439.205 453.509 440.26 453.509 441.754H452.314C452.314 439.609 453.966 438.098 456.199 438.098C458.414 438.098 459.996 439.609 459.996 441.561C459.996 442.984 459.345 444.057 457.148 446.377L453.984 449.787V449.875H460.382V451H452.209ZM465.846 451.176C463.613 451.176 461.943 449.77 461.891 447.801H463.104C463.174 449.102 464.334 450.068 465.846 450.068C467.621 450.068 468.904 448.732 468.887 446.992C468.887 445.164 467.533 443.898 465.758 443.881C464.686 443.881 463.807 444.232 463.297 445.059H462.049L462.928 438.273H469.555V439.398H463.982L463.438 443.6H463.543C464.105 443.072 465.02 442.756 465.969 442.756C468.307 442.756 470.117 444.496 470.117 446.975C470.117 449.4 468.324 451.176 465.846 451.176ZM483.737 436.867V448.381H482.629V442.914H477.954V441.982H482.629V439.926H477.954V439.012H482.629V436.867H483.737ZM484.176 451.07V452.002H473.858V447.414H474.965V451.07H484.176ZM473.014 438.045V445.006H473.049C475.246 445.006 477.373 444.883 479.887 444.426L480.028 445.375C477.426 445.85 475.299 445.955 473.049 445.955H471.889V438.045H473.014ZM493.556 451.176C491.323 451.176 489.654 449.77 489.601 447.801H490.814C490.884 449.102 492.044 450.068 493.556 450.068C495.331 450.068 496.614 448.732 496.597 446.992C496.597 445.164 495.243 443.898 493.468 443.881C492.396 443.881 491.517 444.232 491.007 445.059H489.759L490.638 438.273H497.265V439.398H491.693L491.148 443.6H491.253C491.816 443.072 492.73 442.756 493.679 442.756C496.017 442.756 497.827 444.496 497.827 446.975C497.827 449.4 496.034 451.176 493.556 451.176ZM511.324 436.867V446.061H510.216V445.094H506.964V444.32H510.216V436.867H511.324ZM498.597 442.844C501.603 442.861 505.47 442.809 508.845 442.422L508.916 443.195C507.36 443.406 505.725 443.538 504.134 443.617V446.131H503.045V443.652C501.506 443.714 500.039 443.723 498.738 443.723L498.597 442.844ZM511.324 446.658V449.717H502.166V451.316H511.904V452.178H501.076V448.926H510.234V447.484H501.023V446.658H511.324ZM503.677 437.201C505.98 437.201 507.509 438.08 507.509 439.539C507.509 440.998 505.98 441.859 503.677 441.842C501.339 441.859 499.845 440.998 499.845 439.539C499.845 438.08 501.339 437.201 503.677 437.201ZM503.677 437.992C501.99 437.992 500.882 438.625 500.9 439.539C500.882 440.436 501.99 441.068 503.677 441.051C505.347 441.068 506.455 440.436 506.455 439.539C506.455 438.625 505.347 437.992 503.677 437.992ZM521.389 438.273V451H520.123V439.574H520.053L517.047 441.561V440.277L520.088 438.273H521.389ZM527.96 451.176C525.727 451.176 524.057 449.77 524.005 447.801H525.218C525.288 449.102 526.448 450.068 527.96 450.068C529.735 450.068 531.018 448.732 531.001 446.992C531.001 445.164 529.647 443.898 527.872 443.881C526.8 443.881 525.921 444.232 525.411 445.059H524.163L525.042 438.273H531.669V439.398H526.096L525.552 443.6H525.657C526.22 443.072 527.134 442.756 528.083 442.756C530.421 442.756 532.231 444.496 532.231 446.975C532.231 449.4 530.438 451.176 527.96 451.176ZM537.448 437.465C539.769 437.482 541.421 438.871 541.439 440.875C541.421 442.896 539.769 444.268 537.448 444.268C535.128 444.268 533.458 442.896 533.476 440.875C533.458 438.871 535.128 437.482 537.448 437.465ZM537.448 438.414C535.779 438.414 534.548 439.451 534.566 440.875C534.548 442.299 535.779 443.336 537.448 443.336C539.118 443.336 540.366 442.299 540.366 440.875C540.366 439.451 539.118 438.414 537.448 438.414ZM545.816 436.867V444.883H544.708V436.867H545.816ZM545.816 445.674V449.26H536.956V451.229H546.413V452.143H535.884V448.398H544.726V446.588H535.831V445.674H545.816ZM548.677 446.148C548.677 442.896 549.539 440.102 551.068 437.729H552.14C550.91 439.68 549.908 443.037 549.908 446.148C549.908 449.277 550.91 452.635 552.14 454.586H551.068C549.539 452.195 548.677 449.4 548.677 446.148ZM564.986 437.518V442.703H560.311V444.83H566.814V445.762H552.682V444.83H559.203V442.703H554.527V437.518H564.986ZM555.617 438.432V441.789H563.896V438.432H555.617ZM565.039 447.537V452.371H563.932V448.451H554.246V447.537H565.039ZM570.871 446.148C570.871 449.4 570.01 452.195 568.481 454.586H567.409C568.639 452.635 569.641 449.277 569.641 446.148C569.641 443.037 568.639 439.68 567.409 437.729H568.481C570.01 440.102 570.871 442.896 570.871 446.148Z" fill="#BB5631"/>
<path d="M298.437 316.997C293.816 316.997 290.072 313.251 290.072 308.632V209.857C289.273 207.551 288.56 205.361 287.941 203.317C287.671 202.828 287.444 202.308 287.268 201.761C282.444 186.657 285.751 181.847 286.837 180.266C287.748 178.942 288.687 177.742 289.649 176.672C289.631 175.267 289.74 173.743 290.073 172.217V146.049C290.073 145.621 290.074 145.196 290.09 144.752C290.424 112.953 303.277 83.1148 326.284 60.7264C349.297 38.3311 379.805 26 412.187 26C443.104 26 472.59 37.3719 495.214 58.0218C496.308 59.013 497.394 60.0405 498.451 61.0666C503.824 66.3364 508.729 72.1527 513.06 78.3873C521.049 89.8596 526.889 102.474 530.412 115.873C531.068 118.372 531.613 120.772 532.082 123.21C532.702 126.359 533.193 129.534 533.574 132.881C534.063 137.266 534.31 141.692 534.31 146.052V308.635C534.31 313.254 530.565 317 525.945 317H298.437V316.997Z" fill="white"/>
<path d="M526.006 146.049V308.632H298.497V146.049C298.497 145.686 298.497 145.324 298.511 144.947C299.097 83.7868 349.787 34.3647 412.244 34.3647C442.148 34.3647 469.348 45.6851 489.633 64.1992C490.678 65.1472 491.696 66.1092 492.686 67.0711C497.705 71.9924 502.249 77.4016 506.251 83.1594C513.542 93.6293 519.063 105.382 522.381 117.999C522.966 120.229 523.482 122.474 523.928 124.788C524.514 127.758 524.974 130.755 525.322 133.822C525.768 137.823 526.006 141.922 526.006 146.049Z" fill="#BB5631"/>
<path d="M398.77 50.9008C409.117 49.7674 419.547 49.3826 429.95 49.7506C434.937 49.9263 439.982 50.2888 444.711 51.8795C449.44 53.4716 453.877 56.4285 456.339 60.7684C457.841 63.4131 458.636 66.5722 460.902 68.6007C463.521 70.9442 467.398 71.1561 470.488 72.8291C475.382 75.4765 477.611 81.5047 477.465 87.0659C477.318 92.6285 475.252 97.9304 473.497 103.21C472.677 105.673 471.915 108.303 472.506 110.832C473.468 114.947 477.573 117.388 480.295 120.624C483.621 124.579 484.916 129.993 484.473 135.141C484.03 140.29 481.969 145.194 479.234 149.579C477.815 151.854 476.17 154.051 473.979 155.597C471.58 157.291 468.675 158.101 465.8 158.702C454.597 161.043 442.285 160.456 432.578 154.393C421.613 147.543 415.698 135.002 411.395 122.81C407.302 111.208 404.135 99.3009 401.246 87.3434C398.752 77.0198 396.457 66.621 395.335 56.0605" fill="#FCB149"/>
<path d="M380.725 60.4241C379.722 64.672 376.483 68.0151 373.083 70.7518C369.682 73.4871 365.938 75.9003 363.239 79.3299C360.54 82.7595 359.063 87.6013 360.95 91.5369C361.786 93.2824 363.257 94.848 363.282 96.7844C363.307 98.7766 361.801 100.398 360.622 102.005C357.876 105.751 356.703 111.261 359.54 114.937C361.631 117.646 365.281 118.639 367.781 120.977C369.542 122.623 370.845 125.006 373.168 125.654C374.987 126.162 376.984 125.388 378.361 124.095C379.738 122.802 380.599 121.059 381.317 119.311C384.209 112.275 385.251 104.629 385.985 97.0577C387.06 85.9701 387.399 74.1981 382.199 64.3472C381.97 63.915 381.307 63.4842 381.112 63.9317" fill="#FCB149"/>
<path d="M453.302 133.418L450.932 186.088C430.522 205.787 407.742 188.709 407.742 188.709L408.3 176.762L409.638 147.652L441.173 137.363L453.302 133.418Z" fill="#F99183"/>
<path d="M446.374 150.719C445.732 155.599 443.139 160.032 440.058 163.852C436.085 168.773 431.108 172.983 425.266 175.423C420.401 177.459 414.894 178.183 409.708 177.082C409.206 176.971 408.732 176.873 408.3 176.761L409.638 147.652L441.173 137.363C441.271 137.419 441.355 137.475 441.438 137.545C445.398 140.458 447.015 145.84 446.374 150.719Z" fill="#33160D"/>
<path d="M462.798 99.9531C462.798 75.3801 442.877 55.4594 418.304 55.4594C394.668 55.4594 375.425 74.6398 373.756 97.8912C373.317 104.016 373.751 110.203 373.833 116.333C373.937 124.166 374.233 132.071 375.472 139.818C378.321 157.616 378.321 164.023 389.948 166.159C401.576 168.295 440.73 170.431 445.476 161.887C450.222 153.344 461.138 112.054 461.121 112.051C462.204 108.204 462.798 104.149 462.798 99.9531Z" fill="#F99183"/>
<path d="M422.009 104.533C421.236 106.387 419.064 107.175 417.097 107.579C415.007 108.009 412.773 108.226 410.789 107.44C406.155 105.602 406.783 98.7919 411.551 97.7505C415.258 96.9405 424.27 99.1084 422.009 104.533Z" fill="#FCB149"/>
<path d="M374.525 104.533C375.297 106.387 377.47 107.175 379.437 107.579C381.526 108.009 383.761 108.226 385.745 107.44C390.379 105.602 389.75 98.7919 384.983 97.7505C381.276 96.9405 372.264 99.1084 374.525 104.533Z" fill="#FCB149"/>
<path d="M381.021 120.42C383.036 120.42 384.67 118.787 384.67 116.772C384.67 114.757 383.036 113.123 381.021 113.123C379.007 113.123 377.373 114.757 377.373 116.772C377.373 118.787 379.007 120.42 381.021 120.42Z" fill="#33160D"/>
<path d="M417.062 116.95C417.062 118.965 415.428 120.599 413.413 120.599C411.399 120.599 409.765 118.965 409.765 116.95C409.765 114.936 411.399 113.302 413.413 113.302C415.428 113.302 417.062 114.936 417.062 116.95Z" fill="#33160D"/>
<path d="M390.331 109.085C388.544 115.965 387.31 123.005 386.964 130.105C386.918 131.056 386.893 132.042 387.258 132.92C387.624 133.798 388.488 134.543 389.436 134.462C389.935 134.42 390.397 134.161 390.897 134.125C391.89 134.051 392.708 134.837 393.436 135.519C394.162 136.199 395.144 136.874 396.079 136.534C397.012 136.196 397.378 135.021 398.248 134.546C399.58 133.817 401.169 135.054 402.684 134.964C404.254 134.869 405.453 133.041 404.914 131.564" stroke="#33160D" stroke-width="0.5" stroke-miterlimit="10" stroke-linecap="round" stroke-linejoin="round"/>
<path d="M391.89 139.548C394.021 140.893 396.61 141.441 399.124 141.263C401.637 141.084 404.076 140.204 406.231 138.898" stroke="#33160D" stroke-width="0.5" stroke-miterlimit="10" stroke-linecap="round" stroke-linejoin="round"/>
<path d="M378.752 70.7739C379.294 74.6287 381.443 78.3957 384.902 80.1829C387.447 81.4976 390.41 81.6454 393.22 82.2016C396.032 82.7565 399.005 83.9471 400.342 86.4816C401.387 88.4654 401.207 90.8369 401.412 93.0703C401.899 98.3443 405.554 103.819 410.834 104.24C413.83 104.478 416.686 103.09 419.631 102.489C422.575 101.888 426.268 102.464 427.516 105.198C428.378 107.084 427.745 109.269 427.512 111.329C427.279 113.39 427.494 115.572 428.567 117.345C429.641 119.118 431.7 120.383 433.753 120.104C435.762 119.833 438.017 118.272 439.553 119.595C440.331 120.266 440.467 121.4 440.55 122.424C440.709 124.381 440.866 126.338 441.025 128.296C441.054 128.654 441.093 129.04 441.33 129.311C442.124 130.22 443.403 128.82 443.818 127.687C445.234 123.819 447.571 120.133 451.081 117.979C454.551 115.85 458.777 115.425 462.843 115.248C463.556 115.217 464.309 115.181 464.909 114.795C465.783 114.233 466.079 113.115 466.287 112.097C468.547 100.986 468.483 89.2336 464.762 78.5239C461.039 67.8142 453.434 58.2477 443.2 53.3682C435.239 49.5734 426.197 48.7439 417.378 48.7132C410.491 48.6895 403.526 49.1858 396.846 50.9494C391.802 52.2808 383.637 54.8014 380.578 59.4299C378.617 62.398 378.274 67.375 378.752 70.7739Z" fill="#FCB149"/>
<path d="M440.082 126.86C442.304 122.823 445.135 118.971 449.047 116.535C452.961 114.099 458.119 113.302 462.219 115.404C467.529 118.127 469.654 125.186 467.86 130.878C466.065 136.57 461.114 140.843 455.615 143.166C453.758 143.951 451.792 144.552 449.776 144.593C446.449 144.664 443.124 143.11 441.042 140.511C438.961 137.913 438.172 134.328 438.968 131.095" fill="#F99183"/>
<path d="M446.884 136.067C448.732 127.554 454.882 120.093 462.886 116.651" stroke="#33160D" stroke-width="0.5" stroke-miterlimit="10" stroke-linecap="round" stroke-linejoin="round"/>
<path d="M526.006 231.174V308.632H298.498V219.993C313.053 209.37 348.422 192.696 362.07 191.79C378.075 190.717 402.291 190.368 407.268 182.533C407.268 182.533 423.649 197.841 451.058 181.111C451.058 181.111 454.613 187.51 463.87 191.079C471.454 193.993 509.779 215.644 526.006 231.174Z" fill="#FFE2D6"/>
<path d="M339.165 221.457L324.206 308.633H298.498V245.339C301.593 236.458 303.628 230.059 303.573 228.804C303.336 223.827 301.44 216.229 301.44 216.229L339.165 221.457Z" fill="#F99183"/>
<path d="M310.274 184.135L333.233 194.991C333.233 194.991 353.344 177.372 355.479 179.508C357.615 181.644 339.165 221.45 339.165 221.45L319.528 214.39L304.579 186.982L310.274 184.135Z" fill="#F99183"/>
<path d="M370.255 167.226L364.093 172.76L340.337 194.091L330.216 203.166L330.202 203.18C330.202 203.18 307.073 194.997 305.651 181.641C305.651 181.641 305.693 181.557 305.791 181.39C306.46 180.107 309.736 173.959 314.114 166.445C318.77 158.457 324.667 148.907 330.049 141.978C331.457 140.166 332.823 138.534 334.12 137.154C334.12 137.154 348.005 138.214 357.973 148.893C367.941 159.572 370.255 167.226 370.255 167.226Z" fill="#FFE2D6"/>
<path d="M330.216 203.166L330.202 203.18C330.202 203.18 307.073 194.997 305.651 181.641C305.651 181.641 305.693 181.557 305.791 181.39C308.941 181.014 313.166 183.272 315.466 184.527C319.202 186.576 322.743 189.072 325.49 192.362C328.041 195.401 329.853 199.193 330.216 203.166Z" fill="#33160D"/>
<path opacity="0.29" d="M364.093 172.76L340.337 194.091C334.705 182.491 325.392 172.691 314.113 166.445C318.77 158.457 324.667 148.907 330.048 141.978C331.414 142.215 332.739 142.731 334.008 143.288C347.112 149.06 357.471 160.032 364.093 172.76Z" fill="#F99183"/>
<path d="M344.98 167.449C344.004 170.627 340.811 172.872 337.507 173.081C336.573 173.137 335.611 173.039 334.761 172.663C334.147 172.384 333.631 171.98 333.213 171.478C333.157 171.422 333.102 171.352 333.06 171.296C333.06 171.296 333.06 171.296 333.06 171.283C332.307 170.321 331.903 169.08 331.875 167.867C331.847 165.887 332.655 163.991 333.757 162.36C335.276 160.074 338.664 157.355 341.55 158.903C341.578 158.903 341.62 158.931 341.648 158.944C341.745 159 341.829 159.056 341.912 159.112C344.547 160.785 345.886 164.535 344.98 167.449Z" fill="#BB5631"/>
<path d="M341.912 159.112C340.867 159.558 340.002 160.45 339.612 161.538C339.221 162.653 339.305 163.922 339.389 165.148C339.486 166.696 339.598 168.313 338.72 169.61C337.883 170.864 336.28 171.547 334.3 171.547C333.952 171.547 333.589 171.534 333.213 171.478C333.115 171.478 333.045 171.394 333.059 171.297C333.059 171.297 333.059 171.297 333.059 171.283C333.073 171.199 333.157 171.115 333.241 171.143C334.119 171.241 337.075 171.436 338.427 169.428C339.235 168.215 339.138 166.738 339.04 165.162C338.957 163.908 338.859 162.597 339.291 161.412C339.682 160.325 340.518 159.405 341.55 158.903C341.578 158.903 341.619 158.931 341.647 158.945C341.745 159 341.828 159.056 341.912 159.112Z" fill="#33160D"/>
<path d="M332.81 134.906C332.108 135.749 332.53 137.032 333.599 137.28C337.614 138.211 346.13 140.882 354.776 147.981C362.436 154.27 367.797 163.825 369.926 168.041C370.415 169.01 371.743 169.131 372.405 168.27L377.213 162.019L375.333 158.133L378.814 152.476C379.136 151.952 379.105 151.291 378.727 150.806C376.922 148.484 371.345 141.667 364.677 136.949C358.084 132.283 350.177 129.177 347.4 128.161C346.789 127.938 346.116 128.145 345.725 128.664L342.992 132.311C342.992 132.311 337.476 131.058 336.223 130.807L332.81 134.906Z" fill="#9AAFCE"/>
<path d="M336.224 130.808C336.224 130.808 348.005 131.721 360.374 142.934C372.743 154.146 377.213 162.02 377.213 162.02" stroke="#FFE2D6" stroke-width="0.5" stroke-miterlimit="10" stroke-linecap="round" stroke-linejoin="round"/>
<path d="M301.434 216.231C301.434 216.231 290.697 189.832 294.077 185.204C297.46 180.577 298.883 180.222 298.883 180.222C298.883 180.222 297.637 173.459 299.595 171.857C301.553 170.255 302.444 169.721 302.444 169.721C302.444 169.721 301.197 162.603 303.867 159.933C306.537 157.263 315.257 153.881 315.257 153.881C315.257 153.881 325.981 137.819 330.429 141.557L321.842 155.306C321.842 155.306 328.605 157.086 327.715 160.288C326.826 163.492 315.91 162.958 315.91 162.958L313.477 167.585C313.477 167.585 324.333 168.653 323.977 172.212C323.622 175.772 309.028 176.661 309.028 176.661L308.139 179.686C308.139 179.686 314.012 180.042 314.012 183.246C314.012 186.449 309.385 187.517 309.385 187.517L317.394 200.509L339.166 221.45L301.434 216.231Z" fill="#F99183"/>
<path d="M302.354 169.63C302.354 169.63 300.307 162.244 304.667 159.219C309.028 156.194 315.791 152.99 317.482 153.435C319.173 153.88 328.695 156.639 327.715 160.287C326.736 163.935 315.523 162.868 315.523 162.868L313.476 167.584" stroke="#33160D" stroke-width="0.5" stroke-miterlimit="10" stroke-linecap="round" stroke-linejoin="round"/>
<path d="M298.885 180.22C298.885 180.22 297.194 173.547 300.309 171.143C303.423 168.741 311.966 167.406 314.547 167.762C317.127 168.118 324.513 169.543 323.979 172.211C323.445 174.881 309.03 176.66 309.03 176.66L308.23 179.596" stroke="#33160D" stroke-width="0.5" stroke-miterlimit="10" stroke-linecap="round" stroke-linejoin="round"/>
<path d="M295.621 199.086C295.621 199.086 292.12 188.051 294.079 185.204C296.036 182.356 299.181 178.797 302.147 179.034C305.113 179.271 313.774 179.628 314.012 182.89C314.249 186.152 311.639 187.339 308.614 187.577C305.589 187.814 301.851 187.696 301.851 187.696" stroke="#33160D" stroke-width="0.5" stroke-miterlimit="10" stroke-linecap="round" stroke-linejoin="round"/>
<path d="M486.451 202.881L494.936 193.483L494.29 206.128L506.937 205.482L497.537 213.967L506.937 222.453L494.29 221.806L494.936 234.452L486.451 225.054L477.967 234.452L478.612 221.806L465.966 222.453L475.365 213.967L465.966 205.482L478.612 206.128L477.967 193.483L486.451 202.881Z" fill="#FCB149"/>
<path d="M336.952 247.019L345.437 237.619L344.791 250.266L357.438 249.62L348.038 258.105L357.438 266.59L344.791 265.944L345.437 278.59L336.952 269.191L328.466 278.59L329.113 265.944L316.467 266.59L325.866 258.105L316.467 249.62L329.113 250.266L328.466 237.619L336.952 247.019Z" fill="#FCB149"/>
<path d="M345.106 73.6932C344.988 75.0205 344.992 76.3992 345.028 77.7934C345.017 77.916 345.028 78.029 345.029 78.1475C345.084 80.4938 345.213 82.868 345.02 85.1014C344.967 85.6841 344.925 86.2627 344.872 86.8469C344.852 86.9849 344.841 87.1062 344.834 87.2414C344.608 89.4595 344.293 91.6817 343.603 93.8454C342.835 96.2461 341.614 98.5492 340.025 100.622C339.903 100.808 339.762 100.974 339.633 101.135C336.601 104.929 332.346 107.979 327.436 109.594L327.129 109.697C327.125 109.684 327.125 109.684 327.12 109.673C324.264 105.248 323.628 99.7328 324.946 94.4393C324.972 94.2859 325.011 94.1284 325.066 93.9778C325.066 93.9778 325.065 93.9779 325.061 93.9667C325.533 92.2436 326.2 90.5608 327.062 88.9436C328.318 86.589 329.953 84.4211 331.873 82.4344C331.999 82.3006 332.117 82.1821 332.247 82.0594C335.434 78.8836 339.344 76.2528 343.588 74.3373C343.588 74.3373 343.588 74.3373 343.599 74.3331C343.851 74.2216 344.102 74.1114 344.357 74.0125C344.61 73.8995 344.85 73.7922 345.106 73.6932Z" fill="#DBD495"/>
<path d="M327.296 110.069C327.277 110.076 327.254 110.079 327.234 110.077C327.147 110.07 327.084 109.994 327.091 109.909C328.262 96.4316 334.473 83.271 344.132 73.8007C344.193 73.7394 344.292 73.7407 344.352 73.8021C344.412 73.8634 344.412 73.9624 344.351 74.0224C334.745 83.4425 328.566 96.532 327.402 109.935C327.395 109.998 327.352 110.05 327.296 110.069Z" fill="#33160D"/>
<path d="M333.287 88.6203C333.315 88.7025 333.354 88.782 333.394 88.8601C333.418 88.9312 333.398 89.0287 333.32 89.0692C333.309 89.0733 333.309 89.0733 333.296 89.0775C333.225 89.1012 333.147 89.0622 333.111 88.9953C333.107 88.9841 333.107 88.9841 333.103 88.9716C332.116 86.978 331.695 84.6763 331.873 82.4345C331.998 82.3007 332.117 82.1821 332.247 82.0594C331.971 84.2803 332.332 86.603 333.287 88.6203Z" fill="#33160D"/>
<path d="M344.872 86.8469C344.853 86.9849 344.842 87.1062 344.835 87.2414C341.404 89.4219 337.734 91.1701 333.875 92.4694C333.096 92.7315 332.31 92.9713 331.519 93.1972L331.377 93.2446C331.306 93.2683 331.228 93.2293 331.192 93.1623C331.187 93.1498 331.187 93.1498 331.183 93.1386C331.167 93.0522 331.21 92.9853 331.277 92.949L331.288 92.9448C331.422 92.9128 331.54 92.8737 331.67 92.8291C336.364 91.4726 340.789 89.4707 344.872 86.8469Z" fill="#33160D"/>
<path d="M345.028 77.7921C345.017 77.9148 345.028 78.0278 345.029 78.1463C343.264 79.1486 341.416 79.9809 339.492 80.6292C339.114 80.756 338.732 80.8718 338.339 80.9917L338.257 81.0195C338.174 81.0474 338.079 81 338.063 80.9136C338.054 80.8899 338.05 80.8787 338.054 80.8508C338.054 80.8508 338.05 80.8397 338.063 80.8355C338.078 80.8035 338.098 80.7839 338.113 80.7519L338.125 80.7477C338.134 80.7324 338.156 80.724 338.169 80.7198C338.333 80.664 338.491 80.6236 338.657 80.5692C340.884 79.8847 343.015 78.9562 345.028 77.7921Z" fill="#33160D"/>
<path d="M329.038 100.274C329.066 100.317 329.082 100.364 329.075 100.419C329.059 100.451 329.04 100.47 329.008 100.494C328.999 100.509 328.977 100.518 328.965 100.522C328.906 100.542 328.835 100.526 328.792 100.475C328.788 100.463 328.768 100.444 328.764 100.431C327.258 98.573 325.991 96.5682 324.945 94.438C324.972 94.2847 325.011 94.1271 325.065 93.9766C326.084 96.143 327.359 98.1715 328.857 100.045C328.92 100.116 328.976 100.203 329.038 100.274Z" fill="#33160D"/>
<path d="M340.022 100.621C339.9 100.806 339.76 100.972 339.63 101.134C338.183 101.831 336.699 102.424 335.177 102.935C332.888 103.706 330.519 104.281 328.114 104.671C328.099 104.663 328.087 104.667 328.075 104.671C327.989 104.688 327.918 104.632 327.901 104.545C327.884 104.459 327.949 104.373 328.027 104.371C328.078 104.367 328.126 104.352 328.176 104.347C332.301 103.682 336.283 102.433 340.022 100.621Z" fill="#33160D"/>
<path d="M511.229 122.942C510.063 122.296 508.802 121.741 507.513 121.208C507.406 121.148 507.297 121.113 507.189 121.066C505.022 120.164 502.798 119.319 500.836 118.234C500.324 117.949 499.812 117.677 499.301 117.391C499.182 117.317 499.076 117.257 498.956 117.196C497.021 116.09 495.118 114.9 493.42 113.391C491.538 111.715 489.928 109.663 488.679 107.371C488.559 107.185 488.464 106.988 488.369 106.805C486.132 102.495 485.071 97.3685 485.588 92.2255L485.619 91.9034C485.631 91.9048 485.631 91.9049 485.644 91.9063C490.848 91.0907 496.146 92.7469 500.449 96.0998C500.579 96.1862 500.707 96.2866 500.822 96.3967C500.822 96.3967 500.822 96.3967 500.834 96.3981C502.217 97.5274 503.484 98.8211 504.614 100.264C506.256 102.368 507.573 104.742 508.611 107.303C508.682 107.472 508.743 107.628 508.802 107.797C510.412 111.998 511.229 116.64 511.258 121.296C511.258 121.296 511.258 121.296 511.257 121.308C511.257 121.583 511.255 121.859 511.243 122.132C511.241 122.406 511.241 122.669 511.229 122.942Z" fill="#DBD495"/>
<path d="M485.21 91.9048C485.211 91.8839 485.218 91.863 485.228 91.8449C485.27 91.7696 485.364 91.7417 485.44 91.7835C497.281 98.322 506.789 109.338 511.527 122.008C511.557 122.089 511.516 122.18 511.436 122.209C511.355 122.24 511.266 122.198 511.235 122.118C506.525 109.517 497.067 98.559 485.289 92.0554C485.233 92.0247 485.204 91.9648 485.21 91.9048Z" fill="#33160D"/>
<path d="M502.383 106.085C502.297 106.076 502.209 106.08 502.121 106.085C502.047 106.078 501.965 106.02 501.961 105.933C501.962 105.92 501.962 105.92 501.964 105.907C501.971 105.834 502.039 105.776 502.114 105.771C502.127 105.772 502.127 105.772 502.139 105.774C504.362 105.68 506.637 106.231 508.614 107.303C508.685 107.472 508.746 107.628 508.805 107.797C506.884 106.641 504.615 106.029 502.383 106.085Z" fill="#33160D"/>
<path d="M499.303 117.391C499.185 117.317 499.079 117.257 498.959 117.196C498.358 113.175 498.249 109.113 498.627 105.058C498.704 104.24 498.804 103.425 498.918 102.609L498.932 102.46C498.939 102.386 499.008 102.329 499.083 102.323C499.095 102.325 499.095 102.325 499.108 102.326C499.193 102.347 499.238 102.414 499.243 102.489L499.242 102.502C499.217 102.637 499.205 102.761 499.193 102.898C498.527 107.738 498.561 112.594 499.303 117.391Z" fill="#33160D"/>
<path d="M507.516 121.208C507.408 121.148 507.3 121.113 507.191 121.066C506.992 119.046 506.98 117.019 507.169 114.997C507.206 114.6 507.255 114.205 507.305 113.797L507.314 113.711C507.322 113.624 507.403 113.556 507.489 113.577C507.514 113.579 507.527 113.581 507.551 113.595C507.551 113.595 507.563 113.596 507.562 113.609C507.584 113.635 507.594 113.662 507.616 113.688L507.615 113.701C507.626 113.715 507.623 113.738 507.622 113.751C507.605 113.925 507.578 114.084 507.562 114.258C507.284 116.571 507.269 118.897 507.516 121.208Z" fill="#33160D"/>
<path d="M493.455 97.473C493.405 97.4814 493.355 97.4758 493.307 97.4465C493.285 97.4186 493.275 97.3935 493.265 97.3545C493.254 97.3406 493.257 97.3168 493.257 97.3043C493.263 97.243 493.306 97.1844 493.37 97.1649C493.383 97.1663 493.408 97.1565 493.42 97.1565C495.729 96.5334 498.075 96.189 500.448 96.0984C500.578 96.1848 500.706 96.2852 500.82 96.3954C498.427 96.4469 496.057 96.7899 493.735 97.3991C493.647 97.4284 493.546 97.4437 493.455 97.473Z" fill="#33160D"/>
<path d="M488.679 107.371C488.559 107.185 488.465 106.988 488.37 106.805C488.32 105.199 488.381 103.604 488.53 102.005C488.755 99.6005 489.191 97.2012 489.81 94.8451C489.824 94.8339 489.825 94.8214 489.825 94.8088C489.846 94.7238 489.924 94.6806 490.011 94.7015C490.096 94.7224 490.15 94.8144 490.118 94.8869C490.101 94.9357 490.096 94.9845 490.079 95.0333C489.015 99.0721 488.541 103.218 488.679 107.371Z" fill="#33160D"/>
<path d="M512.139 158.744C512.139 160.566 504.571 159.388 503.378 160.581C502.183 161.776 503.363 169.342 501.541 169.342C499.718 169.342 500.896 161.775 499.703 160.581C498.51 159.388 490.942 160.566 490.942 158.744C490.942 156.922 498.51 158.1 499.703 156.906C500.898 155.711 499.718 148.146 501.541 148.146C503.363 148.146 502.185 155.713 503.378 156.906C504.571 158.1 512.139 156.922 512.139 158.744Z" fill="white"/>
<path d="M451.743 276.091C451.743 277.913 444.176 276.735 442.983 277.928C441.788 279.123 442.967 286.689 441.145 286.689C439.323 286.689 440.501 279.121 439.308 277.928C438.113 276.733 430.547 277.913 430.547 276.091C430.547 274.268 438.114 275.446 439.308 274.253C440.502 273.058 439.323 265.492 441.145 265.492C442.967 265.492 441.789 273.06 442.983 274.253C444.176 275.446 451.743 274.268 451.743 276.091Z" fill="white"/>
<path d="M405.706 55.281C405.706 57.1031 398.139 55.925 396.945 57.1184C395.751 58.3132 396.93 65.8791 395.108 65.8791C393.286 65.8791 394.464 58.3118 393.271 57.1184C392.076 55.9236 384.51 57.1031 384.51 55.281C384.51 53.4588 392.077 54.6368 393.271 53.4435C394.465 52.2487 393.286 44.6827 395.108 44.6827C396.93 44.6827 395.752 52.2501 396.945 53.4435C398.14 54.6368 405.706 53.4588 405.706 55.281Z" fill="white"/>
<path d="M325.621 130.389C325.621 132.211 318.054 131.033 316.86 132.226C315.666 133.421 316.845 140.987 315.023 140.987C313.201 140.987 314.379 133.419 313.186 132.226C311.991 131.031 304.425 132.211 304.425 130.389C304.425 128.566 311.992 129.744 313.186 128.551C314.38 127.356 313.201 119.79 315.023 119.79C316.845 119.79 315.667 127.358 316.86 128.551C318.054 129.744 325.621 128.566 325.621 130.389Z" fill="white"/>
</g>
<defs>
<clipPath id="clip0_292_490">
<rect width="820" height="550" fill="white"/>
</clipPath>
</defs>
</svg>
