<svg width="820" height="550" viewBox="0 0 820 550" fill="none" xmlns="http://www.w3.org/2000/svg">
<g clip-path="url(#clip0_290_371)">
<rect width="820" height="550" fill="white"/>
<rect x="-47" y="-19" width="914" height="1217" fill="#FFE2D6"/>
<path d="M87.5 57.37L101.377 42L100.32 62.6796L121 61.6251L105.63 75.5L121 89.3769L100.32 88.3205L101.377 109L87.5 93.63L73.6251 109L74.6815 88.3205L54 89.3769L69.37 75.5L54 61.6251L74.6815 62.6796L73.6251 42L87.5 57.37Z" fill="#FCB149"/>
<path d="M645.5 244.37L659.377 229L658.32 249.68L679 248.625L663.63 262.5L679 276.377L658.32 275.32L659.377 296L645.5 280.63L631.625 296L632.682 275.32L612 276.377L627.37 262.5L612 248.625L632.682 249.68L631.625 229L645.5 244.37Z" fill="#FCB149"/>
<path d="M729.5 57.37L743.377 42L742.32 62.6796L763 61.6251L747.63 75.5L763 89.3769L742.32 88.3205L743.377 109L729.5 93.63L715.625 109L716.682 88.3205L696 89.3769L711.37 75.5L696 61.6251L716.682 62.6796L715.625 42L729.5 57.37Z" fill="#FCB149"/>
<path d="M171.5 295.37L185.377 280L184.32 300.68L205 299.625L189.63 313.5L205 327.377L184.32 326.32L185.377 347L171.5 331.63L157.625 347L158.682 326.32L138 327.377L153.37 313.5L138 299.625L158.682 300.68L157.625 280L171.5 295.37Z" fill="#FCB149"/>
<path d="M229.697 133.348C229.697 137.534 212.311 134.828 209.57 137.57C206.825 140.315 209.535 157.697 205.348 157.697C201.162 157.697 203.869 140.311 201.127 137.57C198.382 134.828 181 137.534 181 133.348C181 129.162 198.385 131.869 201.127 129.127C203.872 126.382 201.162 109 205.348 109C209.535 109 206.828 126.385 209.57 129.127C212.311 131.869 229.697 129.162 229.697 133.348Z" fill="white"/>
<path d="M629 356C629 359.61 614.006 357.276 611.641 359.641C609.274 362.008 611.611 377 608 377C604.39 377 606.724 362.006 604.359 359.641C601.992 357.276 587 359.61 587 356C587 352.39 601.994 354.724 604.359 352.359C606.726 349.992 604.39 335 608 335C611.611 335 609.276 349.994 611.641 352.359C614.006 354.724 629 352.39 629 356Z" fill="white"/>
<path d="M797 171.5C797 177.088 773.794 173.475 770.135 177.135C766.471 180.799 770.088 204 764.5 204C758.912 204 762.525 180.794 758.865 177.135C755.201 173.475 732 177.088 732 171.5C732 165.912 755.206 169.525 758.865 165.865C762.529 162.201 758.912 139 764.5 139C770.088 139 766.475 162.206 770.135 165.865C773.794 169.525 797 165.912 797 171.5Z" fill="white"/>
<path d="M232 339.5C232 342.337 220.219 340.503 218.361 342.361C216.501 344.221 218.337 356 215.5 356C212.663 356 214.497 344.219 212.639 342.361C210.779 340.503 199 342.337 199 339.5C199 336.663 210.781 338.497 212.639 336.639C214.499 334.779 212.663 323 215.5 323C218.337 323 216.503 334.781 218.361 336.639C220.219 338.497 232 336.663 232 339.5Z" fill="white"/>
<path d="M645.697 99.3483C645.697 103.534 628.311 100.828 625.57 103.57C622.825 106.315 625.535 123.697 621.348 123.697C617.162 123.697 619.869 106.311 617.127 103.57C614.382 100.828 597 103.534 597 99.3483C597 95.1621 614.385 97.8685 617.127 95.1269C619.872 92.382 617.162 75 621.348 75C625.535 75 622.828 92.3852 625.57 95.1269C628.311 97.8685 645.697 95.1621 645.697 99.3483Z" fill="white"/>
<path d="M78.6966 401.348C78.6966 405.534 61.3114 402.828 58.5697 405.57C55.8249 408.315 58.5345 425.697 54.3484 425.697C50.1622 425.697 52.8685 408.311 50.1269 405.57C47.382 402.828 30 405.534 30 401.348C30 397.162 47.3852 399.869 50.1269 397.127C52.8718 394.382 50.1622 377 54.3484 377C58.5345 377 55.8281 394.385 58.5697 397.127C61.3114 399.869 78.6966 397.162 78.6966 401.348Z" fill="white"/>
<path d="M807.574 362.337C804.519 362.503 801.383 362.961 798.225 363.499C797.943 363.512 797.687 363.579 797.421 363.618C792.101 364.508 786.746 365.578 781.602 365.866C780.26 365.937 778.928 366.029 777.586 366.1C777.266 366.1 776.984 366.116 776.676 366.142C771.558 366.353 766.401 366.359 761.254 365.498C755.544 364.534 749.907 362.51 744.676 359.572C744.215 359.358 743.792 359.089 743.382 358.849C733.764 353.192 725.44 344.509 720.168 333.873L719.832 333.21C719.857 333.197 719.857 333.197 719.883 333.184C729.014 325.244 741.349 321.996 753.814 323.268C754.173 323.281 754.544 323.316 754.903 323.393C754.903 323.393 754.903 323.393 754.929 323.38C759 323.889 763.045 324.86 767.007 326.291C772.772 328.38 778.233 331.394 783.38 335.109C783.726 335.352 784.033 335.58 784.357 335.836C792.62 342.05 799.878 350.082 805.621 359.105C805.621 359.105 805.621 359.105 805.633 359.13C805.967 359.665 806.303 360.203 806.614 360.751C806.943 361.276 807.264 361.789 807.574 362.337Z" fill="#9AAFCE"/>
<path d="M719.039 333.709C719.017 333.667 719.004 333.616 719 333.568C718.991 333.37 719.141 333.2 719.337 333.19C750.366 331.454 782.321 341.284 807.009 360.155C807.166 360.277 807.198 360.501 807.076 360.655C806.955 360.812 806.731 360.841 806.577 360.722C782.02 341.95 750.238 332.175 719.375 333.898C719.231 333.911 719.1 333.831 719.039 333.709Z" fill="#33160D"/>
<path d="M769.771 340.333C769.592 340.423 769.425 340.538 769.262 340.656C769.108 340.733 768.877 340.72 768.762 340.557C768.749 340.531 768.749 340.531 768.737 340.506C768.66 340.352 768.724 340.16 768.861 340.057C768.887 340.045 768.887 340.045 768.913 340.032C773.124 337.136 778.223 335.429 783.377 335.103C783.723 335.346 784.03 335.573 784.354 335.83C779.21 335.919 774.047 337.502 769.771 340.333Z" fill="#33160D"/>
<path d="M777.586 366.097C777.265 366.097 776.984 366.113 776.676 366.138C770.597 359.047 765.424 351.274 761.209 342.924C760.357 341.239 759.56 339.526 758.785 337.802L758.631 337.495C758.554 337.341 758.618 337.149 758.756 337.047C758.782 337.034 758.782 337.034 758.807 337.021C758.999 336.957 759.166 337.034 759.268 337.171L759.281 337.197C759.397 337.492 759.528 337.748 759.669 338.027C764.287 348.26 770.286 357.667 777.586 366.097Z" fill="#33160D"/>
<path d="M798.222 363.499C797.94 363.512 797.684 363.579 797.418 363.618C794.564 359.931 792.066 355.998 789.965 351.837C789.552 351.021 789.164 350.191 788.764 349.333L788.674 349.153C788.584 348.974 788.661 348.743 788.85 348.679C788.901 348.654 788.927 348.641 788.991 348.641C788.991 348.641 789.017 348.628 789.03 348.654C789.106 348.679 789.158 348.718 789.235 348.743L789.247 348.769C789.286 348.782 789.311 348.833 789.324 348.859C789.504 349.217 789.648 349.56 789.827 349.919C792.111 354.758 794.916 359.3 798.222 363.499Z" fill="#33160D"/>
<path d="M741.884 334.475C741.794 334.552 741.691 334.603 741.563 334.603C741.486 334.577 741.435 334.539 741.371 334.475C741.333 334.462 741.307 334.411 741.294 334.385C741.23 334.257 741.243 334.09 741.342 333.975C741.368 333.962 741.406 333.911 741.432 333.898C745.167 329.866 749.311 326.333 753.814 323.258C754.173 323.271 754.545 323.306 754.903 323.383C750.307 326.407 746.111 329.968 742.342 333.985C742.201 334.154 742.024 334.308 741.884 334.475Z" fill="#33160D"/>
<path d="M744.675 359.569C744.214 359.355 743.791 359.086 743.381 358.846C741.322 355.784 739.493 352.603 737.831 349.307C735.329 344.353 733.25 339.154 731.579 333.812C731.591 333.773 731.579 333.748 731.566 333.722C731.502 333.53 731.601 333.351 731.793 333.287C731.985 333.223 732.203 333.338 732.229 333.514C732.254 333.629 732.306 333.732 732.331 333.847C735.198 343.011 739.336 351.655 744.675 359.569Z" fill="#33160D"/>
<path d="M101.822 199C101.55 202.049 101.563 205.217 101.643 208.42C101.617 208.702 101.646 208.961 101.646 209.233C101.771 214.624 102.069 220.078 101.623 225.209C101.502 226.548 101.406 227.877 101.284 229.219C101.239 229.536 101.214 229.815 101.198 230.126C100.679 235.221 99.9548 240.327 98.3694 245.298C96.6046 250.813 93.7988 256.104 90.1508 260.867C89.8721 261.293 89.5454 261.674 89.2507 262.045C82.2845 270.76 72.5093 277.768 61.2288 281.477L60.5241 281.714C60.5145 281.689 60.5145 281.689 60.5049 281.66C53.9422 271.494 52.4817 258.823 55.5084 246.662C55.5724 246.31 55.6589 245.948 55.787 245.602C55.787 245.602 55.7871 245.602 55.7775 245.576C56.86 241.617 58.3942 237.752 60.3736 234.036C63.2594 228.627 67.0163 223.646 71.4267 219.082C71.715 218.775 71.9872 218.502 72.2851 218.22C79.6069 210.924 88.591 204.88 98.3405 200.48C98.3405 200.48 98.3405 200.48 98.3694 200.47C98.9459 200.214 99.5256 199.961 100.112 199.733C100.682 199.474 101.233 199.227 101.822 199Z" fill="#9AAFCE"/>
<path d="M60.9046 282.57C60.8597 282.586 60.8085 282.592 60.7605 282.589C60.5619 282.57 60.4146 282.397 60.4338 282.201C63.1242 251.239 77.393 221.004 99.5826 199.247C99.7235 199.109 99.9509 199.109 100.089 199.25C100.226 199.391 100.223 199.618 100.085 199.756C78.0175 221.398 63.8224 251.47 61.148 282.262C61.132 282.41 61.0327 282.525 60.9046 282.57Z" fill="#33160D"/>
<path d="M74.6681 233.293C74.7322 233.482 74.8219 233.665 74.9148 233.844C74.9692 234.007 74.9243 234.232 74.745 234.324C74.7193 234.334 74.7194 234.334 74.6905 234.344C74.5272 234.398 74.3478 234.308 74.2646 234.155C74.2549 234.129 74.2549 234.129 74.2453 234.1C71.9777 229.52 71.0104 224.232 71.4204 219.082C71.7087 218.774 71.9809 218.502 72.2788 218.22C71.6446 223.323 72.4742 228.659 74.6681 233.293Z" fill="#33160D"/>
<path d="M101.28 229.219C101.235 229.536 101.21 229.815 101.194 230.126C93.3113 235.135 84.8814 239.152 76.0158 242.137C74.2254 242.739 72.419 243.286 70.6029 243.808L70.2763 243.917C70.1129 243.972 69.9336 243.882 69.8503 243.728C69.8407 243.703 69.8407 243.703 69.831 243.674C69.7926 243.475 69.8919 243.322 70.0456 243.238L70.0713 243.229C70.3788 243.155 70.651 243.065 70.9488 242.963C81.7361 239.847 91.9021 235.247 101.28 229.219Z" fill="#33160D"/>
<path d="M101.642 208.42C101.616 208.702 101.645 208.961 101.645 209.233C97.5901 211.536 93.3431 213.448 88.9231 214.938C88.0552 215.229 87.1776 215.495 86.2744 215.77L86.0854 215.834C85.8965 215.898 85.6786 215.789 85.6402 215.591C85.621 215.536 85.6113 215.511 85.621 215.447C85.621 215.447 85.6114 215.421 85.6402 215.412C85.6754 215.338 85.7202 215.293 85.7587 215.223L85.7843 215.213C85.8035 215.178 85.858 215.159 85.8836 215.149C86.2615 215.021 86.6235 214.931 87.0046 214.803C92.1196 213.224 97.0168 211.094 101.642 208.42Z" fill="#33160D"/>
<path d="M64.9099 260.066C64.974 260.166 65.0092 260.274 64.9932 260.399C64.958 260.473 64.9132 260.518 64.8395 260.572C64.8203 260.608 64.7659 260.627 64.7402 260.636C64.6057 260.681 64.4424 260.646 64.3431 260.531C64.3335 260.505 64.2886 260.457 64.279 260.431C60.8199 256.162 57.9085 251.559 55.5063 246.662C55.5704 246.31 55.6568 245.948 55.7849 245.602C58.1262 250.579 61.0537 255.24 64.4968 259.544C64.6377 259.704 64.7658 259.906 64.9099 260.066Z" fill="#33160D"/>
<path d="M90.1439 260.863C89.8652 261.289 89.5385 261.67 89.2439 262.042C85.9193 263.643 82.5114 265.005 79.0139 266.18C73.7547 267.951 68.313 269.271 62.788 270.168C62.7528 270.148 62.724 270.158 62.6984 270.168C62.4998 270.203 62.3364 270.078 62.3012 269.879C62.2627 269.681 62.4069 269.482 62.5894 269.482C62.7079 269.473 62.8137 269.437 62.9322 269.428C72.4063 267.897 81.5538 265.027 90.1439 260.863Z" fill="#33160D"/>
<path d="M268.698 368.048V371.696H252.954V347.504H268.634V351.152H257.242V357.424H267.418V361.072H257.242V368.048H268.698ZM295.496 347.504V371.696H291.208V358.896L291.336 356.656H291.016L284.808 371.696H281.48L275.272 356.656H274.952L275.08 358.896V371.696H270.792V347.504H275.656L282.984 365.552H283.304L290.632 347.504H295.496ZM317.364 355.056C317.364 359.6 314.356 362.608 308.436 362.608H303.636V371.696H299.348V347.504H308.436C314.356 347.504 317.364 350.512 317.364 355.056ZM313.076 355.056C313.076 352.912 311.668 351.152 308.436 351.152H303.636V358.96H308.436C311.668 358.96 313.076 357.2 313.076 355.056ZM339.811 359.6C339.811 367.44 335.907 372.016 329.315 372.016C322.723 372.016 318.819 367.44 318.819 359.6C318.819 351.76 322.723 347.184 329.315 347.184C335.907 347.184 339.811 351.76 339.811 359.6ZM335.523 359.6C335.523 354.16 333.411 350.832 329.315 350.832C325.219 350.832 323.107 354.16 323.107 359.6C323.107 365.04 325.219 368.368 329.315 368.368C333.411 368.368 335.523 365.04 335.523 359.6ZM366.423 347.504H370.775L364.407 371.696H360.407L356.503 357.424L355.767 354.224H355.447L354.711 357.424L350.743 371.696H346.743L340.439 347.504H344.791L348.119 361.552L348.823 364.752H349.143L349.911 361.552L353.623 347.504H357.591L361.303 361.552L362.071 364.752H362.391L363.095 361.552L366.423 347.504ZM388.105 368.048V371.696H372.361V347.504H388.041V351.152H376.649V357.424H386.825V361.072H376.649V368.048H388.105ZM408.886 371.184V371.696H404.342L399.318 362.288H394.486V371.696H390.198V347.504H398.998C404.918 347.504 407.926 350.352 407.926 354.896C407.926 358.064 406.454 360.4 403.606 361.52L408.886 371.184ZM403.638 354.896C403.638 352.752 402.198 351.152 398.998 351.152H394.486V358.64H398.998C402.198 358.64 403.638 357.072 403.638 354.896ZM432.669 347.504H437.373L428.349 362.672V371.696H424.061V362.672L414.973 347.504H419.741L426.045 358.448H426.365L432.669 347.504ZM458.368 359.6C458.368 367.44 454.464 372.016 447.872 372.016C441.28 372.016 437.376 367.44 437.376 359.6C437.376 351.76 441.28 347.184 447.872 347.184C454.464 347.184 458.368 351.76 458.368 359.6ZM454.08 359.6C454.08 354.16 451.968 350.832 447.872 350.832C443.776 350.832 441.664 354.16 441.664 359.6C441.664 365.04 443.776 368.368 447.872 368.368C451.968 368.368 454.08 365.04 454.08 359.6ZM479.476 347.504V363.536C479.476 369.36 475.284 372.016 470.196 372.016C465.108 372.016 460.916 369.36 460.916 363.536V347.504H465.204V363.536C465.204 366.864 467.412 368.368 470.196 368.368C472.98 368.368 475.188 366.864 475.188 363.536V347.504H479.476ZM501.027 347.504V351.152H493.123V371.696H488.835V351.152H480.931V347.504H501.027ZM526.261 359.6C526.261 366.928 521.909 371.696 515.029 371.696H508.373V347.504H515.029C521.909 347.504 526.261 352.272 526.261 359.6ZM521.973 359.6C521.973 354.416 519.413 351.152 515.029 351.152H512.661V368.048H515.029C519.413 368.048 521.973 364.784 521.973 359.6ZM539.24 347.504L548.936 371.696H544.328L541.896 365.168H533.192L530.824 371.696H526.248L535.72 347.504H539.24ZM534.472 361.584H540.552L537.608 353.712H537.352L534.472 361.584ZM563.75 347.504H568.454L559.43 362.672V371.696H555.142V362.672L546.054 347.504H550.822L557.126 358.448H557.446L563.75 347.504ZM164.759 392.504L174.455 416.696H169.847L167.415 410.168H158.711L156.343 416.696H151.767L161.239 392.504H164.759ZM159.991 406.584H166.071L163.127 398.712H162.871L159.991 406.584ZM195.527 392.504V416.696H191.175L180.391 399.864H180.071L180.199 402.744V416.696H175.879V392.504H180.231L191.015 409.368H191.335L191.239 406.488V392.504H195.527ZM223.789 400.056C223.789 404.6 220.781 407.608 214.861 407.608H210.061V416.696H205.773V392.504H214.861C220.781 392.504 223.789 395.512 223.789 400.056ZM219.501 400.056C219.501 397.912 218.093 396.152 214.861 396.152H210.061V403.96H214.861C218.093 403.96 219.501 402.2 219.501 400.056ZM234.234 392.504L243.93 416.696H239.322L236.89 410.168H228.186L225.818 416.696H221.242L230.714 392.504H234.234ZM229.466 406.584H235.546L232.602 398.712H232.346L229.466 406.584ZM270.058 392.504V416.696H265.77V403.896L265.898 401.656H265.578L259.37 416.696H256.042L249.834 401.656H249.514L249.642 403.896V416.696H245.354V392.504H250.218L257.546 410.552H257.866L265.194 392.504H270.058ZM295.735 419.384H291.447V390.712H295.735V401.016H299.127V404.728H295.735V419.384ZM287.383 407.416H283.159C283.863 403.544 284.119 398.168 284.119 395.64H272.727V391.992H288.535C288.535 397.336 288.215 403.16 287.383 407.416ZM276.567 401.528H280.855V410.072C284.567 410.04 287.607 409.88 290.487 409.496V413.016C286.711 413.592 282.551 413.72 278.551 413.72H271.799V410.072H276.567V401.528ZM309.079 408.856H328.279V419.192H309.079V408.856ZM313.463 407.288C308.759 407.288 305.751 405.208 305.751 402.008C305.751 398.808 308.759 396.728 313.463 396.728C318.167 396.728 321.175 398.808 321.175 402.008C321.175 405.208 318.167 407.288 313.463 407.288ZM328.343 407.512H324.055V390.712H328.343V397.624H331.895V401.336H328.343V407.512ZM322.135 395.8H304.791V392.28H311.479V389.816H315.767V392.28H322.135V395.8ZM313.367 412.376V415.64H323.991V412.376H313.367ZM313.463 400.12C311.159 400.12 310.103 400.792 310.103 402.008C310.103 403.224 311.159 403.896 313.463 403.896C315.767 403.896 316.823 403.224 316.823 402.008C316.823 400.792 315.767 400.12 313.463 400.12ZM347.8 418.648V404.248H345.176C344.568 408.408 343.448 411.992 341.336 415.608L337.816 413.752C341.208 408.152 341.592 402.04 341.656 396.056H339.16V392.408H345.752C345.752 395.416 345.72 398.104 345.56 400.536H347.8V391.032H351.64V418.648H347.8ZM356.824 419.352H352.92V390.712H356.824V419.352ZM332.056 396.056V392.408H338.584C338.584 402.296 337.752 407.896 334.072 413.752L330.616 412.024C333.976 407.064 334.392 401.464 334.456 396.056H332.056ZM388.441 405.208H384.153V390.712H388.441V405.208ZM372.537 404.792C367.929 404.792 364.569 401.944 364.569 397.784C364.569 393.624 367.929 390.776 372.537 390.776C377.145 390.776 380.505 393.624 380.505 397.784C380.505 401.944 377.145 404.792 372.537 404.792ZM372.537 394.296C370.169 394.296 368.857 395.704 368.857 397.784C368.857 399.864 370.169 401.272 372.537 401.272C374.905 401.272 376.217 399.864 376.217 397.784C376.217 395.704 374.905 394.296 372.537 394.296ZM389.017 419.192H368.537V411.224H384.089V409.816H368.537V406.424H388.377V414.296H372.825V415.768H389.017V419.192ZM403.77 420.152C397.466 420.152 393.434 417.912 393.434 413.752C393.434 409.592 397.466 407.352 403.77 407.352C410.074 407.352 414.106 409.592 414.106 413.752C414.106 417.912 410.074 420.152 403.77 420.152ZM401.018 391.32V394.008C401.018 397.528 404.09 400.984 407.93 402.968L405.754 406.04C402.81 404.44 400.314 402.072 398.874 399.704C397.53 402.136 394.906 404.824 391.514 406.808L388.922 403.96C393.562 401.432 396.538 397.4 396.538 394.008V391.32H401.018ZM413.53 407.032H409.242V390.712H413.53V396.344H417.242V400.056H413.53V407.032ZM403.77 410.936C399.738 410.936 397.85 411.96 397.85 413.752C397.85 415.544 399.738 416.568 403.77 416.568C407.802 416.568 409.69 415.544 409.69 413.752C409.69 411.96 407.802 410.936 403.77 410.936ZM423.482 391.704C427.13 391.704 429.338 394.68 429.754 400.792H432.026V391.032H436.122V418.648H432.026V404.504H429.818C429.53 411.224 427.322 414.488 423.482 414.488C419.386 414.488 417.114 410.776 417.114 403.096C417.114 395.416 419.386 391.704 423.482 391.704ZM441.69 419.352H437.53V390.712H441.69V419.352ZM423.482 410.84C424.954 410.84 425.69 408.568 425.69 403.096C425.69 397.624 424.954 395.352 423.482 395.352C422.01 395.352 421.274 397.624 421.274 403.096C421.274 408.568 422.01 410.84 423.482 410.84ZM473.883 419.192H453.531V412.28H468.955V411.16H453.531V408.152H473.243V414.968H457.819V416.152H473.883V419.192ZM449.211 406.936V403.928H456.251V402.808C452.859 402.424 450.843 401.08 450.843 398.936C450.843 396.408 453.691 394.968 458.331 394.968C462.971 394.968 465.819 396.408 465.819 398.936C465.819 401.016 463.867 402.392 460.603 402.776V403.896C463.355 403.832 465.755 403.672 468.059 403.352V406.232C464.283 406.808 460.123 406.936 456.123 406.936H449.211ZM473.307 407.064H469.019V390.712H473.307V396.824H476.539V400.536H473.307V407.064ZM466.939 394.424H449.723V391.416H456.187V389.176H460.475V391.416H466.939V394.424ZM458.331 397.784C456.187 397.784 455.131 398.168 455.131 398.936C455.131 399.704 456.187 400.088 458.331 400.088C460.475 400.088 461.531 399.704 461.531 398.936C461.531 398.168 460.475 397.784 458.331 397.784ZM477.212 397.496H486.716V395.032H477.212V391.448H491.004V400.952H481.5V403.544H483.772C487.196 403.544 490.46 403.544 493.948 403.064V406.52C490.716 407.032 486.94 407.128 483.772 407.128H477.212V397.496ZM500.252 419.544H495.964V412.952H479.772V409.304H500.252V419.544ZM492.284 402.104V398.584H496.028V396.824H492.284V393.304H496.028V390.712H500.316V407.96H496.028V402.104H492.284ZM515.325 390.264C522.141 390.264 526.045 392.088 526.045 395.416C526.045 398.744 522.141 400.568 515.325 400.568C508.509 400.568 504.605 398.744 504.605 395.416C504.605 392.088 508.509 390.264 515.325 390.264ZM515.325 397.112C519.741 397.112 521.565 396.472 521.565 395.416C521.565 394.36 519.741 393.72 515.325 393.72C510.909 393.72 509.085 394.36 509.085 395.416C509.085 396.472 510.909 397.112 515.325 397.112ZM526.077 419.192H505.181V411.608H521.149V410.328H505.181V407.128H525.437V414.552H509.469V415.96H526.077V419.192ZM528.541 405.368H502.109V401.912H528.541V405.368ZM536.797 392.216H550.621V395.8H541.085V409.848H542.909C546.333 409.848 549.597 409.784 553.085 409.24V412.76C549.853 413.336 546.077 413.496 542.909 413.496H536.797V392.216ZM548.285 403.992V400.344H555.165V390.712H559.453V419.384H555.165V403.992H548.285ZM586.654 419.352H582.494V405.496H580.766V418.648H576.67V391.032H580.766V401.656H582.494V390.712H586.654V419.352ZM568.574 399C572.702 399 575.134 402.264 575.134 406.808C575.134 411.352 572.702 414.616 568.574 414.616C564.446 414.616 562.014 411.352 562.014 406.808C562.014 402.264 564.446 399 568.574 399ZM575.646 398.008H561.502V394.36H566.59V390.968H570.878V394.36H575.646V398.008ZM568.574 411.032C570.174 411.032 570.974 409.368 570.974 406.808C570.974 404.248 570.174 402.584 568.574 402.584C566.974 402.584 566.174 404.248 566.174 406.808C566.174 409.368 566.974 411.032 568.574 411.032ZM606.655 396.12V391.672H610.943V407.928H603.039V412.984H614.047V416.632H587.615V412.984H598.623V407.928H590.719V391.672H595.007V396.12H606.655ZM595.007 404.28H606.655V399.768H595.007V404.28ZM623.552 392.088V399.384C623.552 403.736 625.952 408.792 628.96 411.832L626.304 414.488C624.096 412.056 622.4 409.24 621.408 406.872C620.384 409.432 618.464 412.568 615.776 415.128L612.864 412.6C616.544 409.368 619.2 403.608 619.2 399.384V392.088H623.552ZM626.208 403.32V399.608H629.728V391.032H633.824V418.648H629.728V403.32H626.208ZM639.392 419.352H635.232V390.712H639.392V419.352ZM653.568 407.032C647.2 407.032 642.88 403.704 642.88 398.968C642.88 394.232 647.2 390.904 653.568 390.904C659.936 390.904 664.256 394.232 664.256 398.968C664.256 403.704 659.936 407.032 653.568 407.032ZM666.784 416.632H640.352V412.984H645.792V407.864H650.08V412.984H657.056V407.864H661.344V412.984H666.784V416.632ZM653.568 394.552C649.664 394.552 647.296 396.248 647.296 398.968C647.296 401.688 649.664 403.384 653.568 403.384C657.472 403.384 659.84 401.688 659.84 398.968C659.84 396.248 657.472 394.552 653.568 394.552Z" fill="#33160D"/>
<path d="M255.607 443.867V459.371H254.517V443.867H255.607ZM251.037 445.572C251.019 449.949 248.822 453.904 243.724 456.365L243.109 455.451C247.363 453.438 249.639 450.266 249.929 446.486H243.795V445.572H251.037ZM269.596 443.867V448.701H271.986V449.65H269.596V455.293H268.471V443.867H269.596ZM265.412 445.08C265.412 449 262.477 451.971 258.064 453.395L257.59 452.498C261.369 451.285 263.936 448.947 264.217 446.012H258.205V445.08H265.412ZM270.352 458.07V459.002H259.98V454.115H261.088V458.07H270.352ZM277.147 456.277C276.62 456.277 276.198 455.855 276.198 455.346C276.198 454.818 276.62 454.396 277.147 454.396C277.657 454.396 278.079 454.818 278.079 455.346C278.079 455.855 277.657 456.277 277.147 456.277ZM277.147 448.877C276.62 448.877 276.198 448.455 276.198 447.945C276.198 447.418 276.62 446.996 277.147 446.996C277.657 446.996 278.079 447.418 278.079 447.945C278.079 448.455 277.657 448.877 277.147 448.877ZM283.134 458V457.086L287.441 452.428C289.076 450.652 289.744 449.756 289.761 448.561C289.744 447.154 288.601 446.205 287.089 446.205C285.472 446.205 284.435 447.26 284.435 448.754H283.24C283.24 446.609 284.892 445.098 287.125 445.098C289.339 445.098 290.921 446.609 290.921 448.561C290.921 449.984 290.271 451.057 288.074 453.377L284.91 456.787V456.875H291.308V458H283.134ZM296.842 458.176C294.117 458.176 292.535 455.768 292.535 451.637C292.535 447.523 294.135 445.098 296.842 445.098C299.531 445.098 301.131 447.523 301.131 451.637C301.131 455.768 299.549 458.176 296.842 458.176ZM296.842 457.051C298.775 457.051 299.918 455.082 299.918 451.637C299.918 448.191 298.758 446.205 296.842 446.205C294.908 446.205 293.766 448.191 293.766 451.637C293.766 455.082 294.908 457.051 296.842 457.051ZM302.428 458V457.086L306.735 452.428C308.37 450.652 309.037 449.756 309.055 448.561C309.037 447.154 307.895 446.205 306.383 446.205C304.766 446.205 303.729 447.26 303.729 448.754H302.534C302.534 446.609 304.186 445.098 306.418 445.098C308.633 445.098 310.215 446.609 310.215 448.561C310.215 449.984 309.565 451.057 307.368 453.377L304.204 456.787V456.875H310.602V458H302.428ZM316.065 458.176C313.833 458.176 312.163 456.77 312.11 454.801H313.323C313.393 456.102 314.554 457.068 316.065 457.068C317.841 457.068 319.124 455.732 319.106 453.992C319.106 452.164 317.753 450.898 315.977 450.881C314.905 450.881 314.026 451.232 313.516 452.059H312.268L313.147 445.273H319.774V446.398H314.202L313.657 450.6H313.762C314.325 450.072 315.239 449.756 316.188 449.756C318.526 449.756 320.337 451.496 320.337 453.975C320.337 456.4 318.544 458.176 316.065 458.176ZM333.956 443.867V455.381H332.849V449.914H328.173V448.982H332.849V446.926H328.173V446.012H332.849V443.867H333.956ZM334.396 458.07V459.002H324.077V454.414H325.185V458.07H334.396ZM323.234 445.045V452.006H323.269C325.466 452.006 327.593 451.883 330.107 451.426L330.247 452.375C327.646 452.85 325.519 452.955 323.269 452.955H322.109V445.045H323.234ZM339.539 455.293V454.273L345.34 445.273H346.852V454.186H348.592V455.293H346.852V458H345.656V455.293H339.539ZM340.928 454.186H345.656V446.943H345.533L340.928 454.098V454.186ZM361.983 443.867V453.061H360.875V452.094H357.623V451.32H360.875V443.867H361.983ZM349.256 449.844C352.262 449.861 356.129 449.809 359.504 449.422L359.575 450.195C358.019 450.406 356.384 450.538 354.793 450.617V453.131H353.704V450.652C352.165 450.714 350.698 450.723 349.397 450.723L349.256 449.844ZM361.983 453.658V456.717H352.825V458.316H362.563V459.178H351.735V455.926H360.893V454.484H351.682V453.658H361.983ZM354.336 444.201C356.639 444.201 358.168 445.08 358.168 446.539C358.168 447.998 356.639 448.859 354.336 448.842C351.998 448.859 350.504 447.998 350.504 446.539C350.504 445.08 351.998 444.201 354.336 444.201ZM354.336 444.992C352.649 444.992 351.541 445.625 351.559 446.539C351.541 447.436 352.649 448.068 354.336 448.051C356.006 448.068 357.114 447.436 357.114 446.539C357.114 445.625 356.006 444.992 354.336 444.992ZM368.606 445.273V458H367.341V446.574H367.27L364.264 448.561V447.277L367.305 445.273H368.606ZM378.619 458.176C376.386 458.176 374.716 456.77 374.664 454.801H375.877C375.947 456.102 377.107 457.068 378.619 457.068C380.394 457.068 381.677 455.732 381.66 453.992C381.66 452.164 380.306 450.898 378.531 450.881C377.459 450.881 376.58 451.232 376.07 452.059H374.822L375.701 445.273H382.328V446.398H376.755L376.211 450.6H376.316C376.879 450.072 377.793 449.756 378.742 449.756C381.08 449.756 382.89 451.496 382.89 453.975C382.89 456.4 381.097 458.176 378.619 458.176ZM388.107 444.465C390.428 444.482 392.08 445.871 392.098 447.875C392.08 449.896 390.428 451.268 388.107 451.268C385.787 451.268 384.117 449.896 384.135 447.875C384.117 445.871 385.787 444.482 388.107 444.465ZM388.107 445.414C386.438 445.414 385.207 446.451 385.225 447.875C385.207 449.299 386.438 450.336 388.107 450.336C389.777 450.336 391.025 449.299 391.025 447.875C391.025 446.451 389.777 445.414 388.107 445.414ZM396.475 443.867V451.883H395.367V443.867H396.475ZM396.475 452.674V456.26H387.615V458.229H397.072V459.143H386.543V455.398H395.385V453.588H386.49V452.674H396.475ZM399.336 453.148C399.336 449.896 400.198 447.102 401.727 444.729H402.799C401.569 446.68 400.567 450.037 400.567 453.148C400.567 456.277 401.569 459.635 402.799 461.586H401.727C400.198 459.195 399.336 456.4 399.336 453.148ZM415.241 443.867V450.564H417.878V451.514H415.241V459.371H414.151V443.867H415.241ZM403.147 455.311C404.457 455.311 405.986 455.302 407.577 455.24V453.412C405.705 453.254 404.483 452.19 404.501 450.6C404.483 448.859 405.942 447.734 408.122 447.734C410.284 447.734 411.761 448.859 411.761 450.6C411.761 452.182 410.539 453.245 408.684 453.412V455.205C410.196 455.126 411.717 455.003 413.132 454.801L413.22 455.662C409.809 456.242 406.1 456.277 403.358 456.277L403.147 455.311ZM412.815 445.801V446.732H403.411V445.801H407.577V443.867H408.684V445.801H412.815ZM408.122 448.613C406.575 448.613 405.538 449.439 405.538 450.6C405.538 451.76 406.575 452.551 408.122 452.533C409.669 452.551 410.688 451.76 410.706 450.6C410.688 449.439 409.669 448.613 408.122 448.613ZM421.53 453.148C421.53 456.4 420.669 459.195 419.14 461.586H418.068C419.298 459.635 420.3 456.277 420.3 453.148C420.3 450.037 419.298 446.68 418.068 444.729H419.14C420.669 447.102 421.53 449.896 421.53 453.148ZM432.211 451.074V452.199H426.867V451.074H432.211ZM437.143 458V457.086L441.45 452.428C443.085 450.652 443.753 449.756 443.77 448.561C443.753 447.154 442.61 446.205 441.098 446.205C439.481 446.205 438.444 447.26 438.444 448.754H437.249C437.249 446.609 438.901 445.098 441.134 445.098C443.348 445.098 444.93 446.609 444.93 448.561C444.93 449.984 444.28 451.057 442.083 453.377L438.919 456.787V456.875H445.317V458H437.143ZM450.851 458.176C448.126 458.176 446.544 455.768 446.544 451.637C446.544 447.523 448.144 445.098 450.851 445.098C453.54 445.098 455.14 447.523 455.14 451.637C455.14 455.768 453.558 458.176 450.851 458.176ZM450.851 457.051C452.784 457.051 453.927 455.082 453.927 451.637C453.927 448.191 452.767 446.205 450.851 446.205C448.917 446.205 447.775 448.191 447.775 451.637C447.775 455.082 448.917 457.051 450.851 457.051ZM456.437 458V457.086L460.744 452.428C462.379 450.652 463.046 449.756 463.064 448.561C463.046 447.154 461.904 446.205 460.392 446.205C458.775 446.205 457.738 447.26 457.738 448.754H456.543C456.543 446.609 458.195 445.098 460.427 445.098C462.642 445.098 464.224 446.609 464.224 448.561C464.224 449.984 463.574 451.057 461.377 453.377L458.212 456.787V456.875H464.611V458H456.437ZM470.074 458.176C467.842 458.176 466.172 456.77 466.119 454.801H467.332C467.402 456.102 468.562 457.068 470.074 457.068C471.85 457.068 473.133 455.732 473.115 453.992C473.115 452.164 471.762 450.898 469.986 450.881C468.914 450.881 468.035 451.232 467.525 452.059H466.277L467.156 445.273H473.783V446.398H468.211L467.666 450.6H467.771C468.334 450.072 469.248 449.756 470.197 449.756C472.535 449.756 474.346 451.496 474.346 453.975C474.346 456.4 472.553 458.176 470.074 458.176ZM487.965 443.867V455.381H486.858V449.914H482.182V448.982H486.858V446.926H482.182V446.012H486.858V443.867H487.965ZM488.405 458.07V459.002H478.086V454.414H479.194V458.07H488.405ZM477.243 445.045V452.006H477.278C479.475 452.006 481.602 451.883 484.116 451.426L484.256 452.375C481.655 452.85 479.528 452.955 477.278 452.955H476.118V445.045H477.243ZM497.784 458.176C495.552 458.176 493.882 456.77 493.829 454.801H495.042C495.112 456.102 496.273 457.068 497.784 457.068C499.56 457.068 500.843 455.732 500.825 453.992C500.825 452.164 499.472 450.898 497.696 450.881C496.624 450.881 495.745 451.232 495.236 452.059H493.987L494.866 445.273H501.493V446.398H495.921L495.376 450.6H495.482C496.044 450.072 496.958 449.756 497.907 449.756C500.245 449.756 502.056 451.496 502.056 453.975C502.056 456.4 500.263 458.176 497.784 458.176ZM515.552 443.867V453.061H514.445V452.094H511.193V451.32H514.445V443.867H515.552ZM502.826 449.844C505.832 449.861 509.699 449.809 513.074 449.422L513.144 450.195C511.588 450.406 509.954 450.538 508.363 450.617V453.131H507.273V450.652C505.735 450.714 504.267 450.723 502.966 450.723L502.826 449.844ZM515.552 453.658V456.717H506.394V458.316H516.132V459.178H505.304V455.926H514.462V454.484H505.252V453.658H515.552ZM507.906 444.201C510.209 444.201 511.738 445.08 511.738 446.539C511.738 447.998 510.209 448.859 507.906 448.842C505.568 448.859 504.074 447.998 504.074 446.539C504.074 445.08 505.568 444.201 507.906 444.201ZM507.906 444.992C506.218 444.992 505.111 445.625 505.129 446.539C505.111 447.436 506.218 448.068 507.906 448.051C509.576 448.068 510.683 447.436 510.683 446.539C510.683 445.625 509.576 444.992 507.906 444.992ZM521.557 458V457.086L525.864 452.428C527.498 450.652 528.166 449.756 528.184 448.561C528.166 447.154 527.024 446.205 525.512 446.205C523.895 446.205 522.858 447.26 522.858 448.754H521.663C521.663 446.609 523.315 445.098 525.547 445.098C527.762 445.098 529.344 446.609 529.344 448.561C529.344 449.984 528.694 451.057 526.496 453.377L523.332 456.787V456.875H529.731V458H521.557ZM535.317 445.273V458H534.052V446.574H533.981L530.975 448.561V447.277L534.016 445.273H535.317ZM541.765 444.465C544.085 444.482 545.737 445.871 545.755 447.875C545.737 449.896 544.085 451.268 541.765 451.268C539.445 451.268 537.775 449.896 537.792 447.875C537.775 445.871 539.445 444.482 541.765 444.465ZM541.765 445.414C540.095 445.414 538.864 446.451 538.882 447.875C538.864 449.299 540.095 450.336 541.765 450.336C543.435 450.336 544.683 449.299 544.683 447.875C544.683 446.451 543.435 445.414 541.765 445.414ZM550.132 443.867V451.883H549.025V443.867H550.132ZM550.132 452.674V456.26H541.273V458.229H550.73V459.143H540.2V455.398H549.042V453.588H540.148V452.674H550.132ZM552.994 453.148C552.994 449.896 553.855 447.102 555.384 444.729H556.457C555.226 446.68 554.224 450.037 554.224 453.148C554.224 456.277 555.226 459.635 556.457 461.586H555.384C553.855 459.195 552.994 456.4 552.994 453.148ZM564.645 445.379C564.645 447.682 567.809 449.527 570.357 449.914L569.9 450.828C567.615 450.415 565.049 449.062 564.082 447.066C563.115 449.079 560.549 450.406 558.264 450.828L557.789 449.914C560.355 449.527 563.502 447.734 563.502 445.379V444.447H564.645V445.379ZM571.131 452.691V453.641H564.574V459.371H563.502V453.641H556.998V452.691H571.131ZM575.188 453.148C575.188 456.4 574.327 459.195 572.797 461.586H571.725C572.955 459.635 573.957 456.277 573.957 453.148C573.957 450.037 572.955 446.68 571.725 444.729H572.797C574.327 447.102 575.188 449.896 575.188 453.148Z" fill="#33160D"/>
<path d="M741.802 468.228C740.338 468.228 738.908 467.987 737.551 467.515C733.052 465.945 729.717 461.992 728.16 456.386C726.643 450.927 726.997 444.516 729.153 438.334C732.919 427.54 741.34 420 749.631 420C751.094 420 752.524 420.24 753.881 420.714C758.381 422.283 761.716 426.236 763.273 431.842C764.79 437.302 764.437 443.712 762.28 449.893C758.513 460.688 750.093 468.228 741.802 468.228ZM749.631 422.255C742.284 422.255 734.738 429.172 731.282 439.077C729.275 444.829 728.938 450.761 730.333 455.782C731.686 460.656 734.513 464.066 738.294 465.385C739.412 465.775 740.593 465.973 741.802 465.973C749.15 465.973 756.696 459.055 760.151 449.15C762.158 443.399 762.495 437.466 761.101 432.445C759.747 427.572 756.92 424.162 753.139 422.843C752.021 422.452 750.841 422.255 749.631 422.255Z" fill="#33160D"/>
<path d="M739.563 460.45C739.44 460.45 739.314 460.428 739.191 460.386C738.603 460.18 738.293 459.537 738.498 458.95C739.451 456.219 740.34 454.975 741.2 453.773C742.003 452.65 742.762 451.59 743.608 449.164C744.454 446.738 744.521 445.435 744.591 444.057C744.665 442.58 744.743 441.053 745.696 438.322C746.649 435.591 747.538 434.347 748.398 433.145C749.201 432.022 749.96 430.961 750.806 428.535C751.012 427.947 751.654 427.637 752.242 427.842C752.83 428.047 753.14 428.69 752.935 429.278C751.982 432.01 751.092 433.254 750.232 434.456C749.429 435.579 748.671 436.639 747.825 439.065C746.978 441.491 746.912 442.793 746.842 444.172C746.767 445.649 746.69 447.175 745.737 449.907C744.784 452.639 743.894 453.883 743.034 455.085C742.232 456.207 741.473 457.268 740.627 459.693C740.465 460.158 740.029 460.45 739.563 460.45Z" fill="#33160D"/>
<path d="M709.171 492.655C701.31 492.655 692.93 486.236 688.317 476.68C682.377 464.372 684.632 450.938 693.342 446.734C695.103 445.884 697.027 445.453 699.06 445.453C706.921 445.453 715.302 451.873 719.914 461.428C722.76 467.324 723.839 473.653 722.954 479.25C722.044 484.997 719.18 489.303 714.889 491.374C713.128 492.224 711.204 492.655 709.171 492.655ZM699.06 447.707C697.369 447.707 695.775 448.063 694.322 448.765C686.731 452.429 684.948 464.511 690.348 475.699C694.592 484.493 702.156 490.401 709.171 490.401C710.861 490.401 712.455 490.046 713.909 489.344C717.515 487.603 719.936 483.893 720.726 478.897C721.541 473.751 720.531 467.894 717.883 462.409C713.639 453.615 706.075 447.707 699.06 447.707Z" fill="#33160D"/>
<path d="M710.518 485.286C710.099 485.286 709.697 485.051 709.502 484.649C708.245 482.043 707.994 480.535 707.752 479.077C707.526 477.715 707.313 476.429 706.196 474.116C705.079 471.802 704.205 470.835 703.28 469.811C702.289 468.714 701.264 467.58 700.006 464.974C698.749 462.369 698.498 460.861 698.256 459.402C698.03 458.04 697.816 456.754 696.699 454.44C696.428 453.879 696.663 453.205 697.224 452.934C697.785 452.663 698.459 452.899 698.73 453.459C699.987 456.065 700.238 457.573 700.48 459.032C700.707 460.394 700.92 461.68 702.037 463.993C703.154 466.308 704.027 467.275 704.953 468.299C705.944 469.396 706.969 470.53 708.227 473.136C709.483 475.741 709.734 477.249 709.977 478.707C710.202 480.069 710.416 481.355 711.533 483.668C711.804 484.229 711.568 484.903 711.007 485.173C710.85 485.25 710.683 485.286 710.518 485.286Z" fill="#33160D"/>
<path d="M749.344 507.901C741.834 507.901 735.841 504.775 733.314 499.538C731.242 495.247 731.678 490.094 734.542 485.028C737.33 480.096 742.113 475.812 748.008 472.966C752.533 470.781 757.345 469.627 761.924 469.627C769.434 469.627 775.426 472.753 777.954 477.99C780.025 482.282 779.589 487.435 776.726 492.501C773.937 497.434 769.155 501.717 763.259 504.563C758.734 506.747 753.922 507.901 749.344 507.901ZM761.924 471.882C757.683 471.882 753.21 472.959 748.989 474.997C743.502 477.645 739.069 481.601 736.505 486.138C734.015 490.541 733.603 494.952 735.344 498.558C737.487 502.997 742.72 505.647 749.344 505.647C753.585 505.647 758.058 504.57 762.279 502.532C767.765 499.884 772.198 495.928 774.762 491.391C777.252 486.988 777.664 482.576 775.923 478.97C773.78 474.532 768.547 471.882 761.924 471.882Z" fill="#33160D"/>
<path d="M740.53 496.295C740.111 496.295 739.708 496.059 739.514 495.657C739.243 495.096 739.478 494.422 740.039 494.151C742.645 492.893 744.153 492.643 745.612 492.4C746.974 492.174 748.26 491.961 750.574 490.844C752.887 489.728 753.854 488.853 754.878 487.928C755.976 486.937 757.11 485.912 759.716 484.654C762.321 483.397 763.829 483.147 765.288 482.904C766.649 482.678 767.935 482.464 770.249 481.348C770.81 481.076 771.484 481.313 771.754 481.872C772.025 482.433 771.79 483.107 771.229 483.378C768.624 484.636 767.116 484.886 765.657 485.128C764.296 485.355 763.01 485.568 760.696 486.685C758.382 487.802 757.414 488.676 756.39 489.601C755.293 490.593 754.158 491.617 751.554 492.875C748.949 494.132 747.44 494.383 745.982 494.625C744.62 494.851 743.333 495.065 741.019 496.182C740.861 496.258 740.694 496.295 740.53 496.295Z" fill="#33160D"/>
</g>
<path d="M322.918 335C313.37 335 302.947 330.193 299.501 317.237H288.824C284.654 317.237 281.274 313.856 281.274 309.687V145.39C281.274 144.969 281.275 144.548 281.288 144.128C281.623 112.226 294.518 82.2924 317.604 59.8322C340.689 37.3705 371.294 25 403.779 25C434.802 25 464.379 36.4041 487.065 57.1118C488.123 58.0811 489.247 59.1221 490.361 60.2224C495.688 65.4434 500.609 71.2701 504.968 77.5237C512.951 89.0024 518.805 101.651 522.369 115.121C523.082 117.908 523.606 120.235 524.037 122.505C524.657 125.586 525.167 128.879 525.533 132.208C526.02 136.45 526.27 140.898 526.27 145.39V309.687C526.27 313.857 522.889 317.237 518.72 317.237H500.599C499.996 317.393 499.362 317.475 498.71 317.475H452.706C447.908 318.334 444.584 318.833 442.558 318.999C442.058 319.041 441.533 319.062 441.006 319.062C438.4 319.062 435.696 318.529 432.948 317.475H348.107C346.942 322.793 345.245 326.157 342.76 328.276C337.975 332.361 330.184 335 322.918 335Z" fill="white"/>
<path d="M518.551 145.39V309.687H288.655V145.39C288.655 145.026 288.655 144.661 288.667 144.296C289.272 82.484 340.501 32.5497 403.609 32.5497C433.823 32.5497 461.307 43.9763 481.806 62.6878C482.85 63.6444 483.895 64.6136 484.89 65.5941C489.962 70.5643 494.554 76.0262 498.606 81.8402C505.967 92.423 511.53 104.302 514.903 117.05C515.482 119.315 516.01 121.581 516.451 123.908C517.055 126.903 517.52 129.936 517.86 133.031C518.325 137.086 518.551 141.225 518.551 145.39Z" fill="#FCB149"/>
<path d="M431.835 73.8483C432.754 74.1681 433.654 74.5231 434.536 74.9133C443.327 78.81 450.011 86.354 453.19 95.3914C456.7 105.375 456.969 116.162 457.203 126.742C457.682 148.433 458.163 170.125 458.642 191.816C427.87 191.666 396.635 191.524 365.863 191.375C365.528 164.096 366.975 136.139 373.419 109.631C374.949 103.338 376.774 97.0636 379.76 91.3158C381.915 87.1669 384.768 83.08 388.28 79.968C391.653 76.9786 396.683 75.1134 400.938 73.7736C410.775 70.6771 422.034 70.4306 431.835 73.8483Z" fill="#33160D"/>
<path d="M443.249 123.947C438.392 135.877 427.192 144.661 413.576 145.717C394.298 147.215 377.435 132.642 375.925 113.188C375.849 112.194 375.811 111.213 375.811 110.231C375.899 92.0482 389.804 76.6573 408.114 75.2485C415.337 74.6822 422.22 76.3811 428.072 79.7538C429.105 80.3455 430.098 80.9738 431.055 81.6542C439.247 87.5063 444.91 96.8677 445.752 107.766C446.206 113.477 445.275 118.99 443.249 123.947Z" fill="#BB5631"/>
<path d="M423.051 153.532V178.373L397.129 179.228L397.682 168.28L398.199 157.835L398.424 153.318L423.051 153.532Z" fill="#BB5631"/>
<path opacity="0.36" d="M422.964 157.748C422.612 158.554 422.058 159.359 421.403 159.938C418.395 162.642 415.111 165.022 411.613 167.048C409.562 168.231 407.398 169.313 405.069 169.754C402.742 170.208 400.199 169.955 398.211 168.672C398.023 168.559 397.859 168.42 397.683 168.282L398.199 157.837C398.841 157.862 399.469 157.888 400.112 157.913C407.725 158.201 415.376 158.478 422.964 157.748Z" fill="#33160D"/>
<path d="M375.823 108.122C375.823 108.122 374.752 147.749 380.107 153.746C385.462 159.743 431.299 162.528 436.868 155.889C442.437 149.249 445.65 112.835 445.65 112.835L375.823 108.122Z" fill="#BB5631"/>
<path d="M423.373 123.812C423.373 125.617 421.911 127.079 420.106 127.079C418.303 127.079 416.839 125.617 416.839 123.812C416.839 122.007 418.302 120.545 420.106 120.545C421.911 120.545 423.373 122.007 423.373 123.812Z" fill="#33160D"/>
<path d="M393.279 123.812C393.279 125.617 391.817 127.079 390.012 127.079C388.207 127.079 386.745 125.617 386.745 123.812C386.745 122.007 388.207 120.545 390.012 120.545C391.817 120.545 393.279 122.007 393.279 123.812Z" fill="#33160D"/>
<path d="M400.284 118.405C399.72 123.18 399.233 127.961 398.823 132.751C398.772 133.347 398.752 134.027 399.178 134.446C399.852 135.108 400.995 134.584 401.919 134.782C403.015 135.018 403.901 136.297 404.969 135.957C405.45 135.804 405.771 135.354 406.207 135.101C406.906 134.696 407.79 134.854 408.557 135.103C409.325 135.353 410.106 135.685 410.909 135.595C411.712 135.505 412.515 134.781 412.333 133.993" stroke="#33160D" stroke-width="0.4466" stroke-miterlimit="10" stroke-linecap="round" stroke-linejoin="round"/>
<path d="M402.26 139.529C405.243 141.222 409.244 140.905 411.922 138.761" stroke="#33160D" stroke-width="0.4466" stroke-miterlimit="10" stroke-linecap="round" stroke-linejoin="round"/>
<path d="M384.077 114.827C383.78 115.538 383.949 116.488 384.617 116.872C384.932 117.054 385.308 117.091 385.673 117.11C387.065 117.188 388.465 117.091 389.833 116.822C391.284 116.536 392.867 115.868 392.99 114.189C393.072 113.086 392.499 112.306 391.462 112.001C389.309 111.37 384.976 112.67 384.077 114.827Z" fill="#33160D"/>
<path d="M425.201 114.399C425.498 115.11 425.329 116.06 424.661 116.444C424.346 116.626 423.97 116.663 423.605 116.682C422.213 116.76 420.812 116.663 419.445 116.393C417.994 116.107 416.411 115.44 416.287 113.76C416.206 112.657 416.779 111.878 417.816 111.573C419.969 110.941 424.301 112.242 425.201 114.399Z" fill="#33160D"/>
<path d="M457.215 131.019C456.674 134.857 454.195 138.28 450.949 140.382C449.528 141.301 447.941 141.992 446.268 142.169C442.341 142.597 438.402 139.878 437.094 136.166C434.728 129.458 440.252 124.412 445.349 121.166C446.783 120.248 448.457 119.505 450.156 119.694C451.174 119.807 452.144 120.248 452.988 120.827C453.705 121.317 454.347 121.909 454.888 122.577C455.039 122.753 455.177 122.941 455.316 123.13C456.914 125.369 457.606 128.277 457.215 131.019Z" fill="#BB5631"/>
<path d="M455.316 123.129C454.775 123.443 454.296 123.796 453.882 124.123C449.327 127.659 446.18 132.856 445.262 138.356C445.223 138.532 445.073 138.658 444.909 138.658C444.897 138.658 444.871 138.645 444.859 138.645C444.67 138.62 444.532 138.431 444.57 138.242C445.514 132.566 448.76 127.218 453.454 123.57C453.869 123.243 454.347 122.903 454.888 122.575C455.04 122.751 455.178 122.94 455.316 123.129Z" fill="#33160D"/>
<path d="M447.829 109.844C446.786 96.4408 439.117 85.1452 428.306 78.9916C428.254 79.1508 428.219 79.3142 428.168 79.4734C427.943 79.3325 427.721 79.1874 427.492 79.0522C421.706 75.6021 414.899 73.8636 407.755 74.444C389.648 75.8852 375.896 91.6298 375.811 110.233C393.756 105.715 410.643 97.3593 424.929 85.9411C425.519 85.4692 426.208 84.9409 426.916 84.3731C425.287 92.2652 425.517 100.542 427.707 108.294C428.305 110.415 429.041 112.508 430.236 114.365C433.376 119.243 439.087 121.738 444.465 123.956C444.673 125.231 444.868 126.451 445.062 127.671C447.301 122.206 448.329 116.136 447.829 109.844Z" fill="#33160D"/>
<path d="M499.285 273.294C499.285 282.304 498.92 297.002 498.542 309.926H320.443C320.317 273.936 322.405 212.54 337.671 201.328C359.517 185.258 393.254 179.469 393.254 179.469L394.538 167.804L425.808 167.263C425.808 167.263 425.38 178.185 428.275 179.155C431.17 180.124 473.263 189.436 484.186 203.568C495.108 217.71 499.285 254.33 499.285 273.294Z" fill="#9AAFCE"/>
<path d="M359.125 309.925H358.482L352.165 260.671C352.14 260.495 352.267 260.332 352.43 260.319C352.606 260.294 352.77 260.42 352.782 260.584L359.125 309.925Z" fill="#33160D"/>
<path d="M465.461 239.217L462.578 309.927H461.949L464.831 239.192C464.831 239.028 464.995 238.89 465.158 238.89C465.335 238.901 465.461 239.052 465.461 239.217Z" fill="#33160D"/>
<path d="M506.571 309.687H468.744L467.209 306.944C467.209 306.944 460.098 308.417 453.177 309.687C448.597 310.53 444.092 311.285 441.776 311.474C438.831 311.726 435.924 310.731 433.772 309.687C431.658 308.655 430.274 307.585 430.274 307.585C424.108 307.749 412.607 298.513 412.607 298.513L427.068 295.382L428.488 292.359L442.91 287.665L429.784 285.387L431.571 275.018C431.571 275.018 441.776 277.447 446.156 276.97C450.523 276.479 451.013 271.294 451.013 271.294C440.153 269.52 434.163 263.844 434.805 260.76C435.46 257.69 453.605 261.25 457.167 262.383C460.728 263.516 465.912 271.456 465.912 271.456L506.571 309.687Z" fill="#BB5631"/>
<path d="M412.608 298.511C412.608 298.511 421.982 301.86 426.801 302.076C431.621 302.29 449.293 298.862 449.293 298.862" stroke="#33160D" stroke-width="0.4466" stroke-miterlimit="10" stroke-linecap="round" stroke-linejoin="round"/>
<path d="M414.136 299.423C414.136 299.423 422.938 307.822 430.385 307.585C437.831 307.348 449.317 305.731 449.317 305.731" stroke="#33160D" stroke-width="0.4497" stroke-miterlimit="10" stroke-linecap="round" stroke-linejoin="round"/>
<path d="M435.208 286.293L437.31 286.683C435.121 287.916 432.59 288.584 430.062 288.584C429.294 288.584 428.539 288.52 427.784 288.395L427.985 287.149C430.414 287.551 432.943 287.224 435.208 286.293Z" fill="#FFE2D6"/>
<path d="M444.193 277.119C443.803 277.106 443.375 277.081 442.923 277.03C443.237 275.609 443.287 274.136 443.073 272.701C442.821 271.002 442.229 269.744 441.312 268.951C440.406 268.17 439.098 267.793 437.713 267.919C436.506 268.032 435.246 268.511 433.975 269.354C432.968 270.02 432.302 270.7 431.95 271.443L430.817 270.902C431.271 269.958 432.075 269.103 433.284 268.297C434.718 267.353 436.179 266.799 437.6 266.674C439.325 266.511 440.973 266.988 442.143 267.996C443.289 268.99 444.019 270.513 444.32 272.513C444.545 274.049 444.495 275.609 444.193 277.119Z" fill="#FFE2D6"/>
<path d="M434.302 264.434L433.044 270.575L432.981 270.902L428.577 292.47C428.212 294.257 426.903 295.705 425.166 296.271C407.675 301.884 390.674 298.537 383.525 296.611C381.424 296.044 379.926 294.207 379.801 292.043L378.479 269.368L378.441 268.587L378.176 264.057L378.717 264.157L434.302 264.434Z" fill="#FFE2D6"/>
<path d="M433.044 270.575L432.981 270.902C432.728 270.927 432.478 270.94 432.213 270.927C430.829 270.889 429.583 270.285 428.878 269.341C428.463 271.456 426.738 273.267 424.625 273.732C422.474 274.21 420.082 273.255 418.836 271.441C417.816 273.393 415.905 274.801 413.903 275.066C411.726 275.344 409.486 274.222 408.542 272.411C407.422 274.513 405.259 275.947 403.068 276.023H402.917C400.614 276.023 398.437 274.425 397.846 272.349C396.399 274.249 393.832 275.242 391.491 274.79C389.163 274.337 387.174 272.474 386.533 270.198C386.03 270.991 385.212 271.557 384.193 271.833C382.821 272.198 381.274 271.958 380.167 271.179C379.45 270.689 378.896 270.059 378.48 269.368L378.442 268.587C378.845 269.493 379.462 270.324 380.343 270.927C381.374 271.644 382.822 271.871 384.106 271.532C385.188 271.243 386.019 270.588 386.446 269.707C386.471 269.644 386.547 269.606 386.609 269.619C386.672 269.619 386.722 269.669 386.734 269.731C387.225 272.071 389.201 274.022 391.554 274.476C393.907 274.93 396.462 273.872 397.784 271.884C397.822 271.833 397.884 271.808 397.947 271.82C398.01 271.833 398.06 271.884 398.072 271.946C398.488 274.086 400.728 275.796 403.055 275.709C405.232 275.634 407.384 274.148 408.403 271.984C408.428 271.933 408.479 271.895 408.541 271.895C408.604 271.895 408.655 271.933 408.679 271.997C409.485 273.846 411.712 275.03 413.851 274.752C415.839 274.5 417.739 273.04 418.67 271.053C418.696 271.002 418.746 270.964 418.808 270.964C418.872 270.964 418.921 270.989 418.946 271.04C420.079 272.89 422.432 273.91 424.559 273.431C426.673 272.966 428.385 271.053 428.623 268.887C428.636 268.824 428.687 268.762 428.749 268.749C428.825 268.737 428.887 268.775 428.912 268.825C429.504 269.882 430.774 270.575 432.221 270.612C432.503 270.626 432.766 270.613 433.044 270.575Z" fill="#F99183"/>
<path d="M434.302 264.434C434.302 265.642 433.409 266.787 431.786 267.82C427.37 270.651 417.591 272.626 406.241 272.626C395.418 272.626 386.03 270.84 381.35 268.21C379.325 267.077 378.179 265.794 378.179 264.434C378.179 259.904 390.739 256.242 406.242 256.242C421.73 256.242 434.302 259.905 434.302 264.434Z" fill="#DBD495"/>
<path d="M431.936 267.001C431.936 267.279 431.886 267.555 431.786 267.82C427.369 270.651 417.591 272.626 406.24 272.626C395.418 272.626 386.03 270.84 381.35 268.21C381.123 267.82 381.01 267.417 381.01 267.002C381.01 262.9 392.412 259.578 406.48 259.578C420.535 259.577 431.936 262.899 431.936 267.001Z" fill="#33160D"/>
<path d="M383.718 256.359L387.84 267.26C388.188 268.181 389.141 268.704 390.087 268.518C390.131 268.509 390.179 268.494 390.221 268.486L411.129 262.876C411.663 262.732 412.099 262.386 412.363 261.905C412.626 261.425 412.684 260.871 412.516 260.348L408.68 248.113C408.666 248.071 408.638 248.031 408.601 248L399.332 241.011C399.278 240.965 399.212 240.952 399.139 240.973L392.319 243.003L391.782 243.167L384.999 245.19C384.914 245.212 384.852 245.289 384.844 245.374L383.705 256.262C383.698 256.293 383.705 256.329 383.718 256.359ZM384.151 256.254L385.271 245.569L399.157 241.428L408.279 248.312L412.095 260.479C412.221 260.889 412.177 261.319 411.976 261.691C411.768 262.064 411.423 262.329 411.018 262.442L390.104 268.053C390.075 268.066 390.038 268.073 390.001 268.08C389.263 268.225 388.525 267.821 388.257 267.106L384.151 256.254Z" fill="white"/>
<path d="M392.184 243.352C392.25 243.339 392.311 243.295 392.342 243.228C392.393 243.118 392.346 242.985 392.235 242.933C391.505 242.591 391.428 241.488 391.674 240.547L391.767 240.201C392.009 239.328 392.281 238.338 391.814 237.497C391.47 236.878 390.847 236.561 390.244 236.254C389.946 236.102 389.637 235.946 389.376 235.755C388.318 234.986 387.914 233.4 388.476 232.219C388.541 232.084 388.616 231.953 388.69 231.822C388.82 231.595 388.954 231.36 389.04 231.098C389.175 230.688 389.183 230.082 388.764 229.722C388.671 229.641 388.531 229.652 388.451 229.745C388.372 229.838 388.382 229.978 388.475 230.058C388.711 230.262 388.717 230.658 388.618 230.96C388.547 231.18 388.428 231.385 388.304 231.602C388.224 231.743 388.144 231.883 388.075 232.029C387.414 233.417 387.87 235.21 389.114 236.115C389.403 236.324 389.727 236.489 390.041 236.65C390.609 236.939 391.146 237.212 391.425 237.712C391.805 238.395 391.568 239.253 391.339 240.085L391.244 240.434C390.973 241.471 391.018 242.853 392.046 243.335C392.091 243.354 392.139 243.36 392.184 243.352Z" fill="white"/>
<path d="M386.865 253.515C387.753 257.158 388.542 261.467 389.411 265.231C389.555 265.854 390.165 266.257 390.791 266.132C396.608 264.967 402.296 263.149 407.807 260.947C408.346 260.732 408.652 260.15 408.524 259.584C407.635 255.684 406.502 251.84 405.136 248.081C403.833 248.043 402.601 248.513 401.352 248.883C395.986 250.47 391.626 251.672 386.865 253.515Z" fill="#BB5631"/>
<path d="M388.051 247.832C388.278 248.849 388.242 250 387.605 250.825C387.481 250.986 387.324 251.138 387.127 251.185C386.906 251.238 386.668 251.147 386.499 250.993C386.331 250.839 386.223 250.631 386.14 250.418C385.738 249.394 385.771 247.87 386.336 246.898C387.036 245.689 387.874 247.04 388.051 247.832Z" fill="white"/>
<path d="M305.782 309.893C305.782 309.893 310.708 271.765 326.773 243.278L341.98 263.199C341.98 263.199 344.98 316.318 337.696 322.531C330.414 328.742 307.281 333.026 305.782 309.893Z" fill="#BB5631"/>
<path d="M326.772 243.278C326.772 243.278 343.158 218.432 347.977 216.719C352.796 215.006 374.751 215.113 377.322 215.648C379.892 216.183 398.099 221.966 397.456 225.394C396.814 228.822 391.994 227.964 391.994 227.964C391.994 227.964 394.78 229.248 393.708 232.034C392.637 234.819 385.675 234.175 385.675 234.175C385.675 234.175 389.316 234.817 389.209 237.067C389.102 239.316 388.246 241.244 384.176 241.565C380.106 241.887 372.61 240.602 365.647 241.458C358.687 242.315 354.402 244.779 354.402 244.779C354.402 244.779 377.75 242.423 378.178 245.85C378.607 249.277 375.609 249.277 370.361 250.027C365.113 250.776 357.295 252.596 357.295 252.596C357.295 252.596 352.689 262.128 341.98 263.199L326.772 243.278Z" fill="#BB5631"/>
<path d="M346.826 217.548C346.826 217.548 347.709 215.782 356.384 215.541C365.06 215.3 375.18 215.059 378.876 216.023C382.571 216.986 397.912 221.886 397.35 225.099C396.87 227.847 394.699 228.072 392.531 227.911" stroke="#33160D" stroke-width="0.4466" stroke-miterlimit="10" stroke-linecap="round" stroke-linejoin="round"/>
<path d="M355.26 224.296C355.26 224.296 370.522 221.966 378.715 224.136C386.909 226.304 394.378 226.866 393.896 230.561C393.414 234.257 389.211 234.658 385.944 234.176" stroke="#33160D" stroke-width="0.4466" stroke-miterlimit="10" stroke-linecap="round" stroke-linejoin="round"/>
<path d="M354.215 234.738C354.215 234.738 365.621 232.49 375.26 232.731C384.899 232.972 389.424 234.738 389.21 237.068C388.995 239.397 388.273 241.727 382.811 241.486C377.349 241.245 372.449 240.683 367.951 241.004C363.453 241.326 353.332 245.262 353.332 245.262" stroke="#33160D" stroke-width="0.4466" stroke-miterlimit="10" stroke-linecap="round" stroke-linejoin="round"/>
<path opacity="0.5" d="M401.908 221.508C394.405 214.047 384.098 210.144 373.868 207.441C363.637 204.739 353.087 203.005 343.324 198.925C339.081 197.152 334.961 194.905 331.679 191.683C324.2 184.344 322.112 172.984 322.912 162.537C323.269 157.878 324.139 153.196 326.166 148.985C328.194 144.776 331.465 141.05 335.717 139.11C339.254 137.495 343.616 137.257 346.909 139.323C351.465 142.178 352.63 148.244 352.852 153.616C353.071 158.988 352.911 164.81 356.075 169.156C357.72 171.417 361.294 172.974 363.174 170.903C363.854 170.154 364.101 169.123 364.418 168.162C366.246 162.638 372.352 158.178 377.853 160.077C382.297 161.611 384.699 166.561 385.149 171.24C385.6 175.919 384.586 180.61 384.541 185.309C384.496 190.009 385.69 195.143 389.435 197.984C391.259 199.368 393.496 200.059 395.629 200.892C401.977 203.367 407.846 207.396 411.725 212.998C415.893 219.017 417.534 226.5 417.633 233.821C417.72 240.292 416.422 246.489 415.589 252.859C414.958 241.927 409.826 229.379 401.908 221.508Z" fill="#FFE2D6"/>
<path d="M409.238 58.5699C409.238 60.4112 401.591 59.2208 400.385 60.4267C399.178 61.634 400.37 69.2795 398.528 69.2795C396.687 69.2795 397.878 61.6326 396.672 60.4267C395.464 59.2194 387.819 60.4112 387.819 58.5699C387.819 56.7286 395.466 57.9191 396.672 56.7131C397.879 55.5072 396.687 47.8604 398.528 47.8604C400.37 47.8604 399.179 55.5072 400.385 56.7131C401.591 57.9205 409.238 56.7286 409.238 58.5699Z" fill="white"/>
<path d="M495.916 130.114C495.916 131.955 488.269 130.765 487.063 131.971C485.856 133.178 487.047 140.823 485.206 140.823C483.365 140.823 484.555 133.176 483.349 131.971C482.142 130.765 474.497 131.955 474.497 130.114C474.497 128.272 482.143 129.463 483.349 128.257C484.557 127.05 483.365 119.404 485.206 119.404C487.047 119.404 485.857 127.051 487.063 128.257C488.269 129.463 495.916 128.272 495.916 130.114Z" fill="white"/>
<path d="M508.051 277.62C508.051 279.462 500.405 278.271 499.199 279.477C497.991 280.684 499.183 288.33 497.342 288.33C495.501 288.33 496.691 280.683 495.485 279.477C494.278 278.27 486.632 279.462 486.632 277.62C486.632 275.779 494.279 276.969 495.485 275.763C496.691 274.556 495.501 266.911 497.342 266.911C499.183 266.911 497.993 274.558 499.199 275.763C500.406 276.971 508.051 275.779 508.051 277.62Z" fill="white"/>
<path d="M324.988 287.902C324.988 289.743 317.342 288.553 316.136 289.758C314.928 290.966 316.12 298.611 314.279 298.611C312.438 298.611 313.628 290.964 312.422 289.758C311.215 288.553 303.569 289.743 303.569 287.902C303.569 286.06 311.216 287.251 312.422 286.045C313.629 284.839 312.438 277.192 314.279 277.192C316.12 277.192 314.93 284.839 316.136 286.045C317.342 287.252 324.988 286.06 324.988 287.902Z" fill="white"/>
<path d="M318.704 166.098C318.704 167.939 311.057 166.749 309.851 167.955C308.644 169.162 309.836 176.808 307.994 176.808C306.153 176.808 307.343 169.161 306.137 167.955C304.93 166.749 297.285 167.939 297.285 166.098C297.285 164.257 304.932 165.447 306.137 164.241C307.343 163.035 306.153 155.389 307.994 155.389C309.836 155.389 308.645 163.035 309.851 164.241C311.057 165.447 318.704 164.257 318.704 166.098Z" fill="white"/>
<path d="M338.98 84.4281L348.918 73.4227L348.161 88.2319L362.971 87.4753L351.964 97.4115L362.971 107.349L348.161 106.593L348.918 121.402L338.98 110.395L329.044 121.402L329.801 106.593L314.992 107.349L325.999 97.4115L314.992 87.4753L329.801 88.2319L329.044 73.4227L338.98 84.4281Z" fill="#FFE2D6"/>
<path d="M489.559 199.023L499.497 188.016L498.74 202.825L513.549 202.07L502.542 212.006L513.549 221.944L498.74 221.187L499.497 235.996L489.559 224.99L479.623 235.996L480.379 221.187L465.569 221.944L476.576 212.006L465.569 202.07L480.379 202.825L479.623 188.016L489.559 199.023Z" fill="#FFE2D6"/>
<path d="M321.259 205.436C321.139 206.777 321.145 208.17 321.18 209.579C321.169 209.703 321.182 209.817 321.182 209.937C321.237 212.308 321.368 214.707 321.172 216.964C321.118 217.552 321.076 218.137 321.022 218.727C321.003 218.867 320.991 218.989 320.984 219.126C320.756 221.367 320.438 223.613 319.74 225.8C318.964 228.225 317.73 230.553 316.125 232.648C316.003 232.835 315.859 233.003 315.73 233.166C312.666 236.999 308.366 240.082 303.404 241.713L303.094 241.817C303.09 241.806 303.09 241.806 303.086 241.793C300.199 237.322 299.557 231.749 300.888 226.4C300.916 226.245 300.954 226.086 301.011 225.933C301.011 225.933 301.011 225.933 301.006 225.922C301.483 224.181 302.157 222.48 303.028 220.846C304.297 218.467 305.95 216.276 307.89 214.269C308.017 214.133 308.136 214.014 308.267 213.89C311.488 210.68 315.439 208.022 319.728 206.086C319.728 206.086 319.728 206.086 319.74 206.082C319.994 205.969 320.249 205.858 320.507 205.758C320.758 205.644 321 205.536 321.259 205.436Z" fill="#9AAFCE"/>
<path d="M303.262 242.194C303.242 242.201 303.219 242.204 303.198 242.202C303.111 242.194 303.046 242.118 303.054 242.032C304.238 228.413 310.514 215.114 320.274 205.544C320.336 205.484 320.436 205.484 320.497 205.546C320.557 205.608 320.556 205.708 320.495 205.768C310.789 215.287 304.545 228.514 303.369 242.058C303.362 242.123 303.318 242.174 303.262 242.194Z" fill="#33160D"/>
<path d="M309.316 220.519C309.344 220.603 309.383 220.683 309.424 220.762C309.448 220.834 309.428 220.932 309.349 220.973C309.338 220.977 309.338 220.977 309.325 220.981C309.254 221.005 309.175 220.966 309.138 220.898C309.134 220.887 309.134 220.887 309.13 220.874C308.132 218.86 307.707 216.534 307.887 214.269C308.014 214.133 308.134 214.014 308.265 213.89C307.986 216.134 308.351 218.481 309.316 220.519Z" fill="#33160D"/>
<path d="M321.021 218.728C321.001 218.867 320.99 218.99 320.983 219.126C317.516 221.33 313.808 223.096 309.909 224.409C309.121 224.674 308.327 224.915 307.528 225.145L307.384 225.192C307.312 225.216 307.233 225.177 307.197 225.109C307.192 225.098 307.192 225.098 307.188 225.085C307.171 224.998 307.215 224.93 307.283 224.894L307.294 224.89C307.429 224.857 307.549 224.818 307.68 224.773C312.425 223.402 316.896 221.379 321.021 218.728Z" fill="#33160D"/>
<path d="M321.18 209.579C321.169 209.703 321.182 209.817 321.182 209.937C319.398 210.95 317.53 211.791 315.586 212.446C315.204 212.574 314.818 212.691 314.421 212.812L314.338 212.84C314.255 212.868 314.159 212.82 314.142 212.733C314.134 212.709 314.129 212.698 314.133 212.67C314.133 212.67 314.129 212.658 314.142 212.654C314.157 212.622 314.177 212.602 314.194 212.571L314.205 212.567C314.214 212.551 314.238 212.543 314.249 212.539C314.415 212.482 314.574 212.443 314.742 212.387C316.992 211.692 319.146 210.755 321.18 209.579Z" fill="#33160D"/>
<path d="M305.024 232.296C305.052 232.339 305.068 232.387 305.06 232.442C305.045 232.474 305.025 232.494 304.993 232.518C304.984 232.534 304.96 232.542 304.949 232.546C304.89 232.566 304.818 232.551 304.775 232.5C304.77 232.489 304.751 232.467 304.746 232.456C303.225 230.578 301.944 228.554 300.888 226.4C300.916 226.245 300.954 226.086 301.01 225.933C302.04 228.123 303.328 230.172 304.842 232.066C304.904 232.136 304.96 232.225 305.024 232.296Z" fill="#33160D"/>
<path d="M316.123 232.646C316 232.834 315.857 233.001 315.727 233.165C314.265 233.869 312.766 234.468 311.227 234.985C308.914 235.764 306.521 236.344 304.09 236.739C304.075 236.73 304.062 236.735 304.051 236.739C303.964 236.754 303.892 236.699 303.876 236.612C303.859 236.525 303.923 236.437 304.003 236.437C304.055 236.433 304.102 236.418 304.154 236.413C308.321 235.74 312.345 234.478 316.123 232.646Z" fill="#33160D"/>
<path d="M475.818 72.7536C474.474 72.8268 473.095 73.0283 471.706 73.265C471.582 73.2706 471.469 73.3002 471.352 73.3171C469.012 73.7087 466.656 74.1793 464.394 74.3061C463.804 74.337 463.218 74.3779 462.627 74.4089C462.486 74.4089 462.362 74.4159 462.227 74.4272C459.976 74.5202 457.708 74.523 455.444 74.144C452.932 73.72 450.453 72.8296 448.152 71.5378C447.949 71.4434 447.763 71.3251 447.583 71.2194C443.352 68.7315 439.691 64.9123 437.372 60.2337L437.224 59.9421C437.235 59.9365 437.235 59.9365 437.247 59.9308C441.263 56.4384 446.688 55.0099 452.171 55.5692C452.329 55.5749 452.493 55.5904 452.65 55.6242C452.65 55.6242 452.65 55.6242 452.662 55.6185C454.452 55.8425 456.231 56.2694 457.974 56.8991C460.51 57.8176 462.912 59.1433 465.176 60.7775C465.328 60.8846 465.463 60.9846 465.606 61.0973C469.24 63.8303 472.432 67.3636 474.958 71.3321C474.958 71.3321 474.958 71.3321 474.964 71.3434C475.111 71.5786 475.258 71.8153 475.395 72.0562C475.54 72.2873 475.681 72.5127 475.818 72.7536Z" fill="#9AAFCE"/>
<path d="M436.876 60.1618C436.866 60.1435 436.86 60.121 436.859 60.0998C436.855 60.0125 436.921 59.9378 437.007 59.9336C450.655 59.17 464.711 63.4936 475.57 71.7941C475.639 71.8477 475.653 71.9463 475.599 72.0139C475.546 72.083 475.447 72.0956 475.379 72.0435C464.578 63.7866 450.599 59.487 437.024 60.2449C436.961 60.2506 436.903 60.2154 436.876 60.1618Z" fill="#33160D"/>
<path d="M459.189 63.0753C459.11 63.1148 459.037 63.1655 458.965 63.2176C458.898 63.2514 458.796 63.2458 458.745 63.1739C458.74 63.1627 458.74 63.1627 458.734 63.1514C458.7 63.0838 458.729 62.9993 458.789 62.9542C458.8 62.9485 458.8 62.9485 458.812 62.9429C460.664 61.6694 462.907 60.9185 465.174 60.7748C465.326 60.8818 465.461 60.9819 465.603 61.0946C463.341 61.134 461.07 61.83 459.189 63.0753Z" fill="#33160D"/>
<path d="M462.628 74.4076C462.487 74.4076 462.363 74.4147 462.227 74.426C459.554 71.3069 457.278 67.8878 455.424 64.2151C455.05 63.4741 454.699 62.7204 454.358 61.9625L454.29 61.8272C454.257 61.7596 454.285 61.6751 454.345 61.63C454.357 61.6243 454.357 61.6243 454.368 61.6187C454.452 61.5905 454.526 61.6243 454.571 61.6849L454.576 61.6962C454.627 61.8258 454.685 61.9385 454.747 62.0611C456.778 66.5621 459.417 70.6997 462.628 74.4076Z" fill="#33160D"/>
<path d="M471.705 73.265C471.581 73.2707 471.468 73.3002 471.351 73.3171C470.096 71.6956 468.997 69.9657 468.073 68.1356C467.891 67.7764 467.721 67.4115 467.545 67.034L467.505 66.9551C467.466 66.8762 467.5 66.7748 467.583 66.7466C467.605 66.7353 467.616 66.7297 467.645 66.7297C467.645 66.7297 467.656 66.724 467.662 66.7353C467.695 66.7466 467.718 66.7635 467.752 66.7748L467.757 66.786C467.774 66.7917 467.786 66.8142 467.791 66.8255C467.87 66.9833 467.933 67.134 468.012 67.2918C469.017 69.4205 470.251 71.4181 471.705 73.265Z" fill="#33160D"/>
<path d="M446.923 60.4986C446.884 60.5324 446.839 60.555 446.783 60.555C446.749 60.5437 446.726 60.5268 446.698 60.4986C446.681 60.493 446.67 60.4704 446.664 60.4592C446.636 60.4028 446.642 60.3296 446.685 60.2789C446.697 60.2732 446.714 60.2507 446.725 60.245C448.368 58.4714 450.19 56.9175 452.171 55.5651C452.329 55.5707 452.492 55.5862 452.65 55.62C450.629 56.9499 448.783 58.5165 447.125 60.2831C447.063 60.3577 446.985 60.4254 446.923 60.4986Z" fill="#33160D"/>
<path d="M448.152 71.5365C447.949 71.4421 447.763 71.3238 447.583 71.2181C446.677 69.8713 445.873 68.4724 445.142 67.0227C444.041 64.8434 443.127 62.5569 442.392 60.2071C442.397 60.1901 442.392 60.1789 442.386 60.1676C442.358 60.0831 442.401 60.0042 442.486 59.976C442.571 59.9478 442.666 59.9986 442.678 60.076C442.689 60.1268 442.711 60.1718 442.723 60.2225C443.984 64.2531 445.804 68.0554 448.152 71.5365Z" fill="#33160D"/>
<defs>
<clipPath id="clip0_290_371">
<rect width="820" height="550" fill="white"/>
</clipPath>
</defs>
</svg>
