<svg width="820" height="550" viewBox="0 0 820 550" fill="none" xmlns="http://www.w3.org/2000/svg">
<g clip-path="url(#clip0_292_491)">
<rect width="820" height="550" fill="white"/>
<rect x="-47" y="-19" width="914" height="1217" fill="#BB5631"/>
<path d="M87.5 57.37L101.377 42L100.32 62.6796L121 61.6251L105.63 75.5L121 89.3769L100.32 88.3205L101.377 109L87.5 93.63L73.6251 109L74.6815 88.3205L54 89.3769L69.37 75.5L54 61.6251L74.6815 62.6796L73.6251 42L87.5 57.37Z" fill="#FCB149"/>
<path d="M645.5 244.37L659.377 229L658.32 249.68L679 248.625L663.63 262.5L679 276.377L658.32 275.32L659.377 296L645.5 280.63L631.625 296L632.682 275.32L612 276.377L627.37 262.5L612 248.625L632.682 249.68L631.625 229L645.5 244.37Z" fill="#FCB149"/>
<path d="M729.5 57.37L743.377 42L742.32 62.6796L763 61.6251L747.63 75.5L763 89.3769L742.32 88.3205L743.377 109L729.5 93.63L715.625 109L716.682 88.3205L696 89.3769L711.37 75.5L696 61.6251L716.682 62.6796L715.625 42L729.5 57.37Z" fill="#FCB149"/>
<path d="M171.5 295.37L185.377 280L184.32 300.68L205 299.625L189.63 313.5L205 327.377L184.32 326.32L185.377 347L171.5 331.63L157.625 347L158.682 326.32L138 327.377L153.37 313.5L138 299.625L158.682 300.68L157.625 280L171.5 295.37Z" fill="#FCB149"/>
<path d="M229.697 133.348C229.697 137.534 212.311 134.828 209.57 137.57C206.825 140.315 209.535 157.697 205.348 157.697C201.162 157.697 203.869 140.311 201.127 137.57C198.382 134.828 181 137.534 181 133.348C181 129.162 198.385 131.869 201.127 129.127C203.872 126.382 201.162 109 205.348 109C209.535 109 206.828 126.385 209.57 129.127C212.311 131.869 229.697 129.162 229.697 133.348Z" fill="white"/>
<path d="M654 431C654 434.61 639.006 432.276 636.641 434.641C634.274 437.008 636.611 452 633 452C629.39 452 631.724 437.006 629.359 434.641C626.992 432.276 612 434.61 612 431C612 427.39 626.994 429.724 629.359 427.359C631.726 424.992 629.39 410 633 410C636.611 410 634.276 424.994 636.641 427.359C639.006 429.724 654 427.39 654 431Z" fill="white"/>
<path d="M797 171.5C797 177.088 773.794 173.475 770.135 177.135C766.471 180.799 770.088 204 764.5 204C758.912 204 762.525 180.794 758.865 177.135C755.201 173.475 732 177.088 732 171.5C732 165.912 755.206 169.525 758.865 165.865C762.529 162.201 758.912 139 764.5 139C770.088 139 766.475 162.206 770.135 165.865C773.794 169.525 797 165.912 797 171.5Z" fill="white"/>
<path d="M205 417.5C205 420.337 193.219 418.503 191.361 420.361C189.501 422.221 191.337 434 188.5 434C185.663 434 187.497 422.219 185.639 420.361C183.779 418.503 172 420.337 172 417.5C172 414.663 183.781 416.497 185.639 414.639C187.499 412.779 185.663 401 188.5 401C191.337 401 189.503 412.781 191.361 414.639C193.219 416.497 205 414.663 205 417.5Z" fill="white"/>
<path d="M645.697 99.3483C645.697 103.534 628.311 100.828 625.57 103.57C622.825 106.315 625.535 123.697 621.348 123.697C617.162 123.697 619.869 106.311 617.127 103.57C614.382 100.828 597 103.534 597 99.3483C597 95.1621 614.385 97.8685 617.127 95.1269C619.872 92.382 617.162 75 621.348 75C625.535 75 622.828 92.3852 625.57 95.1269C628.311 97.8685 645.697 95.1621 645.697 99.3483Z" fill="white"/>
<path d="M78.6966 401.348C78.6966 405.534 61.3114 402.828 58.5697 405.57C55.8249 408.315 58.5345 425.697 54.3484 425.697C50.1622 425.697 52.8685 408.311 50.1269 405.57C47.382 402.828 30 405.534 30 401.348C30 397.162 47.3852 399.869 50.1269 397.127C52.8718 394.382 50.1622 377 54.3484 377C58.5345 377 55.8281 394.385 58.5697 397.127C61.3114 399.869 78.6966 397.162 78.6966 401.348Z" fill="white"/>
<path d="M807.574 362.337C804.519 362.503 801.383 362.961 798.225 363.499C797.943 363.512 797.687 363.579 797.421 363.618C792.101 364.508 786.746 365.578 781.602 365.866C780.26 365.937 778.928 366.029 777.586 366.1C777.266 366.1 776.984 366.116 776.676 366.142C771.558 366.353 766.401 366.359 761.254 365.498C755.544 364.534 749.907 362.51 744.676 359.572C744.215 359.358 743.792 359.089 743.382 358.849C733.764 353.192 725.44 344.509 720.168 333.873L719.832 333.21C719.857 333.197 719.857 333.197 719.883 333.184C729.014 325.244 741.349 321.996 753.814 323.268C754.173 323.281 754.544 323.316 754.903 323.393C754.903 323.393 754.903 323.393 754.929 323.38C759 323.889 763.045 324.86 767.007 326.291C772.772 328.38 778.233 331.394 783.38 335.109C783.726 335.352 784.033 335.58 784.357 335.836C792.62 342.05 799.878 350.082 805.621 359.105C805.621 359.105 805.621 359.105 805.633 359.13C805.967 359.665 806.303 360.203 806.614 360.751C806.943 361.276 807.264 361.789 807.574 362.337Z" fill="#9AAFCE"/>
<path d="M719.039 333.709C719.017 333.667 719.004 333.616 719 333.568C718.991 333.37 719.141 333.2 719.337 333.19C750.366 331.454 782.321 341.284 807.009 360.155C807.166 360.277 807.198 360.501 807.076 360.655C806.955 360.812 806.731 360.841 806.577 360.722C782.02 341.95 750.238 332.175 719.375 333.898C719.231 333.911 719.1 333.831 719.039 333.709Z" fill="#33160D"/>
<path d="M769.771 340.333C769.592 340.423 769.425 340.538 769.262 340.656C769.108 340.733 768.877 340.72 768.762 340.557C768.749 340.531 768.749 340.531 768.737 340.506C768.66 340.352 768.724 340.16 768.861 340.057C768.887 340.045 768.887 340.045 768.913 340.032C773.124 337.136 778.223 335.429 783.377 335.103C783.723 335.346 784.03 335.573 784.354 335.83C779.21 335.919 774.047 337.502 769.771 340.333Z" fill="#33160D"/>
<path d="M777.586 366.097C777.265 366.097 776.984 366.113 776.676 366.138C770.597 359.047 765.424 351.274 761.209 342.924C760.357 341.239 759.56 339.526 758.785 337.802L758.631 337.495C758.554 337.341 758.618 337.149 758.756 337.047C758.782 337.034 758.782 337.034 758.807 337.021C758.999 336.957 759.166 337.034 759.268 337.171L759.281 337.197C759.397 337.492 759.528 337.748 759.669 338.027C764.287 348.26 770.286 357.667 777.586 366.097Z" fill="#33160D"/>
<path d="M798.222 363.499C797.94 363.512 797.684 363.579 797.418 363.618C794.564 359.931 792.066 355.998 789.965 351.837C789.552 351.021 789.164 350.191 788.764 349.333L788.674 349.153C788.584 348.974 788.661 348.743 788.85 348.679C788.901 348.654 788.927 348.641 788.991 348.641C788.991 348.641 789.017 348.628 789.03 348.654C789.106 348.679 789.158 348.718 789.235 348.743L789.247 348.769C789.286 348.782 789.311 348.833 789.324 348.859C789.504 349.217 789.648 349.56 789.827 349.919C792.111 354.758 794.916 359.3 798.222 363.499Z" fill="#33160D"/>
<path d="M741.884 334.475C741.794 334.552 741.691 334.603 741.563 334.603C741.486 334.577 741.435 334.539 741.371 334.475C741.333 334.462 741.307 334.411 741.294 334.385C741.23 334.257 741.243 334.09 741.342 333.975C741.368 333.962 741.406 333.911 741.432 333.898C745.167 329.866 749.311 326.333 753.814 323.258C754.173 323.271 754.545 323.306 754.903 323.383C750.307 326.407 746.111 329.968 742.342 333.985C742.201 334.154 742.024 334.308 741.884 334.475Z" fill="#33160D"/>
<path d="M744.675 359.569C744.214 359.355 743.791 359.086 743.381 358.846C741.322 355.784 739.493 352.603 737.831 349.307C735.329 344.353 733.25 339.154 731.579 333.812C731.591 333.773 731.579 333.748 731.566 333.722C731.502 333.53 731.601 333.351 731.793 333.287C731.985 333.223 732.203 333.338 732.229 333.514C732.254 333.629 732.306 333.732 732.331 333.847C735.198 343.011 739.336 351.655 744.675 359.569Z" fill="#33160D"/>
<path d="M101.822 199C101.55 202.049 101.563 205.217 101.643 208.42C101.617 208.702 101.646 208.961 101.646 209.233C101.771 214.624 102.069 220.078 101.623 225.209C101.502 226.548 101.406 227.877 101.284 229.219C101.239 229.536 101.214 229.815 101.198 230.126C100.679 235.221 99.9548 240.327 98.3694 245.298C96.6046 250.813 93.7988 256.104 90.1508 260.867C89.8721 261.293 89.5454 261.674 89.2507 262.045C82.2845 270.76 72.5093 277.768 61.2288 281.477L60.5241 281.714C60.5145 281.689 60.5145 281.689 60.5049 281.66C53.9422 271.494 52.4817 258.823 55.5084 246.662C55.5724 246.31 55.6589 245.948 55.787 245.602C55.787 245.602 55.7871 245.602 55.7775 245.576C56.86 241.617 58.3942 237.752 60.3736 234.036C63.2594 228.627 67.0163 223.646 71.4267 219.082C71.715 218.775 71.9872 218.502 72.2851 218.22C79.6069 210.924 88.591 204.88 98.3405 200.48C98.3405 200.48 98.3405 200.48 98.3694 200.47C98.9459 200.214 99.5256 199.961 100.112 199.733C100.682 199.474 101.233 199.227 101.822 199Z" fill="#9AAFCE"/>
<path d="M60.9046 282.57C60.8597 282.586 60.8085 282.592 60.7605 282.589C60.5619 282.57 60.4146 282.397 60.4338 282.201C63.1242 251.239 77.393 221.004 99.5826 199.247C99.7235 199.109 99.9509 199.109 100.089 199.25C100.226 199.391 100.223 199.618 100.085 199.756C78.0175 221.398 63.8224 251.47 61.148 282.262C61.132 282.41 61.0327 282.525 60.9046 282.57Z" fill="#33160D"/>
<path d="M74.6681 233.293C74.7322 233.482 74.8219 233.665 74.9148 233.844C74.9692 234.007 74.9243 234.232 74.745 234.324C74.7193 234.334 74.7194 234.334 74.6905 234.344C74.5272 234.398 74.3478 234.308 74.2646 234.155C74.2549 234.129 74.2549 234.129 74.2453 234.1C71.9777 229.52 71.0104 224.232 71.4204 219.082C71.7087 218.774 71.9809 218.502 72.2788 218.22C71.6446 223.323 72.4742 228.659 74.6681 233.293Z" fill="#33160D"/>
<path d="M101.28 229.219C101.235 229.536 101.21 229.815 101.194 230.126C93.3113 235.135 84.8814 239.152 76.0158 242.137C74.2254 242.739 72.419 243.286 70.6029 243.808L70.2763 243.917C70.1129 243.972 69.9336 243.882 69.8503 243.728C69.8407 243.703 69.8407 243.703 69.831 243.674C69.7926 243.475 69.8919 243.322 70.0456 243.238L70.0713 243.229C70.3788 243.155 70.651 243.065 70.9488 242.963C81.7361 239.847 91.9021 235.247 101.28 229.219Z" fill="#33160D"/>
<path d="M101.642 208.42C101.616 208.702 101.645 208.961 101.645 209.233C97.5901 211.536 93.3431 213.448 88.9231 214.938C88.0552 215.229 87.1776 215.495 86.2744 215.77L86.0854 215.834C85.8965 215.898 85.6786 215.789 85.6402 215.591C85.621 215.536 85.6113 215.511 85.621 215.447C85.621 215.447 85.6114 215.421 85.6402 215.412C85.6754 215.338 85.7202 215.293 85.7587 215.223L85.7843 215.213C85.8035 215.178 85.858 215.159 85.8836 215.149C86.2615 215.021 86.6235 214.931 87.0046 214.803C92.1196 213.224 97.0168 211.094 101.642 208.42Z" fill="#33160D"/>
<path d="M64.9099 260.066C64.974 260.166 65.0092 260.274 64.9932 260.399C64.958 260.473 64.9132 260.518 64.8395 260.572C64.8203 260.608 64.7659 260.627 64.7402 260.636C64.6057 260.681 64.4424 260.646 64.3431 260.531C64.3335 260.505 64.2886 260.457 64.279 260.431C60.8199 256.162 57.9085 251.559 55.5063 246.662C55.5704 246.31 55.6568 245.948 55.7849 245.602C58.1262 250.579 61.0537 255.24 64.4968 259.544C64.6377 259.704 64.7658 259.906 64.9099 260.066Z" fill="#33160D"/>
<path d="M90.1439 260.863C89.8652 261.289 89.5385 261.67 89.2439 262.042C85.9193 263.643 82.5114 265.005 79.0139 266.18C73.7547 267.951 68.313 269.271 62.788 270.168C62.7528 270.148 62.724 270.158 62.6984 270.168C62.4998 270.203 62.3364 270.078 62.3012 269.879C62.2627 269.681 62.4069 269.482 62.5894 269.482C62.7079 269.473 62.8137 269.437 62.9322 269.428C72.4063 267.897 81.5538 265.027 90.1439 260.863Z" fill="#33160D"/>
<path d="M296.365 316.999C291.745 316.999 288 313.253 288 308.634V146.055C288 145.631 288.001 145.209 288.015 144.772C288.347 112.97 301.199 83.1263 324.209 60.7355C347.222 38.3419 377.728 26.01 410.11 26.01C441.026 26.01 470.513 37.3824 493.135 58.0312C494.232 59.0247 495.321 60.0549 496.381 61.0838C501.746 66.3454 506.651 72.1622 510.983 78.3955C518.971 89.8632 524.809 102.478 528.334 115.881C528.989 118.374 529.535 120.771 530.004 123.217C530.626 126.367 531.116 129.541 531.496 132.885C531.984 137.273 532.232 141.697 532.232 146.057V308.635C532.232 313.255 528.487 317 523.868 317L296.365 316.999Z" fill="white"/>
<path d="M525.262 146.055V308.635H297.758V146.055C297.758 145.693 297.758 145.33 297.771 144.954C298.357 83.7946 349.046 34.3746 411.503 34.3746C441.407 34.3746 468.606 45.6953 488.89 64.2087C489.935 65.1573 490.953 66.1182 491.943 67.0804C496.962 72.0017 501.506 77.4102 505.508 83.1686C512.798 93.6386 518.32 105.391 521.638 118.007C522.223 120.238 522.739 122.482 523.185 124.796C523.77 127.765 524.231 130.762 524.579 133.83C525.024 137.83 525.262 141.929 525.262 146.055Z" fill="#DBD495"/>
<path d="M525.262 252.732V308.37L523.771 308.635H297.758V265.098C299.151 257.179 300.797 248.857 302.749 240.756C306.388 225.533 311.044 211.132 316.829 201.875C334.617 173.407 413.636 169.127 413.636 169.127C413.636 169.127 484.471 176.962 505.829 198.682C512.548 205.499 517.567 218.758 521.303 233.743V233.757C522.822 239.906 524.146 246.332 525.262 252.732Z" fill="#FCB149"/>
<path d="M414.006 59.9191C419.371 59.1011 425.353 59.3515 429.525 62.8207C431.481 64.447 432.922 66.694 435.112 67.987C438.696 70.1006 443.197 69.1343 447.328 68.6552C455.547 67.7025 465.157 69.7562 469.175 76.9898C472.104 82.2636 471.244 88.7351 470.383 94.7057C470.179 96.1184 469.99 97.6142 470.54 98.9316C471.754 101.839 475.6 102.262 478.356 103.786C481.975 105.787 483.887 110.152 483.69 114.282C483.491 118.413 481.458 122.282 478.773 125.427C476.947 127.565 474.754 129.525 473.798 132.169C472.282 136.364 474.285 141.115 473.228 145.449C472.267 149.384 468.99 152.267 465.842 154.818C462.878 157.218 459.773 159.62 456.111 160.687C449.967 162.477 443.378 160.23 437.007 160.824C431.008 161.383 425.572 164.406 419.996 166.685C414.42 168.965 407.993 170.51 402.471 168.101C395.885 165.228 392.096 157.364 385.106 155.701C381.373 154.812 377.501 155.916 373.725 156.598C369.95 157.28 365.676 157.42 362.69 155.011C358.312 151.48 359.032 144.814 358.673 139.202C358.398 134.912 357.241 130.682 355.295 126.848C353.179 122.679 350.031 118.323 351.224 113.803C353.067 106.828 363.723 105.32 365.671 98.3736C366.213 96.4437 365.958 94.39 366.101 92.3907C366.439 87.6695 369.163 83.1796 373.196 80.6999C376.861 78.4461 381.345 77.7166 384.254 74.3237C386.697 71.4751 387.668 66.8546 391.487 65.3902C394.247 64.3327 397.434 65.0949 400.304 64.0945C404.907 62.4899 409.13 60.6622 414.006 59.9191Z" fill="#33160D"/>
<path d="M361.114 130.917C356.049 131.992 352.955 137.474 352.705 142.648C352.495 146.996 353.861 151.404 356.496 154.869C359.131 158.336 363.011 160.833 367.258 161.795C369.969 162.409 372.983 162.363 375.324 160.864C378.735 158.681 379.75 154.014 379.015 150.034C377.575 142.246 371.071 128.801 361.114 130.917Z" fill="#BB5631"/>
<path d="M359.02 137.389C362.589 137.134 365.694 139.772 367.961 142.54C371.904 147.355 374.689 153.114 376.014 159.194" stroke="#33160D" stroke-width="0.5122" stroke-miterlimit="10" stroke-linecap="round" stroke-linejoin="round"/>
<path d="M465.667 130.917C470.733 131.992 473.826 137.474 474.077 142.648C474.287 146.996 472.92 151.404 470.285 154.869C467.652 158.336 463.77 160.833 459.525 161.795C456.814 162.409 453.8 162.363 451.459 160.864C448.048 158.681 447.033 154.014 447.768 150.034C449.206 142.246 455.709 128.801 465.667 130.917Z" fill="#BB5631"/>
<path d="M467.761 137.389C464.191 137.134 461.086 139.772 458.819 142.54C454.876 147.355 452.092 153.114 450.766 159.194" stroke="#33160D" stroke-width="0.5122" stroke-miterlimit="10" stroke-linecap="round" stroke-linejoin="round"/>
<path d="M457.243 133.103C456.476 138.178 455.389 143.21 454.594 147.783C452.935 157.527 451.151 167.37 448.293 176.85C443.539 192.506 394.187 192.269 383.746 183.25C382.1 181.841 380.972 179.889 379.996 177.994C375.968 170.033 374.182 160.818 372.552 152.119C371.715 147.644 370.991 143.14 370.363 138.623C370.07 136.533 369.778 134.427 369.541 132.322C369.012 127.61 368.719 122.87 369.235 118.143C371.117 100.55 383.358 85.5353 399.598 79.9866C399.822 79.9036 400.031 79.8328 400.254 79.7634C404.408 78.397 408.829 77.658 413.401 77.658C414.475 77.658 415.534 77.6852 416.594 77.7696C438.231 79.3034 453.524 95.7114 457.484 116.247C457.582 116.749 457.665 117.252 457.734 117.767C458.414 122.619 458.01 127.889 457.243 133.103Z" fill="#BB5631"/>
<path d="M460.033 129.446L458.487 128.564C458.844 124.818 458.917 121.11 458.425 117.619C458.354 117.098 458.27 116.592 458.172 116.085C454.182 95.3509 438.77 78.7837 416.966 77.2349C415.897 77.1505 414.83 77.1219 413.748 77.1219C409.14 77.1219 404.687 77.8678 400.501 79.2478C400.276 79.3186 400.065 79.388 399.84 79.4724C399.842 79.4765 399.845 79.4819 399.847 79.486C383.458 85.0919 370.16 100.289 368.26 118.055C367.87 121.646 368.496 125.214 369.056 128.786L367.902 129.445L372.025 143.682L376.294 124.782C376.429 124.249 376.524 123.77 376.562 123.403C376.871 120.447 376.338 116.97 378.515 114.957C380.426 113.184 383.46 113.577 385.863 112.55C389.656 110.916 391.02 106.074 390.5 101.979C390.135 99.1916 389.249 95.996 391.076 93.8716C392.72 91.943 395.698 92.0424 398.015 91.0149C400.671 89.8322 402.455 86.9333 402.315 84.0194C402.305 83.818 402.259 83.622 402.233 83.4233C403.276 84.7326 404.428 85.8418 405.448 86.525C408.637 88.6781 412.655 89.3545 416.476 88.9462C419.398 88.6508 422.686 87.8628 424.961 89.692C426.97 91.3102 427.195 94.2241 428.221 96.5894C429.598 99.785 432.885 102.206 436.369 102.093C438.631 102.036 440.738 100.981 442.958 100.531C445.164 100.067 447.889 100.446 449.013 102.417C449.982 104.093 449.406 106.203 448.928 108.09C447.608 113.27 447.271 119.027 449.799 123.756C450.352 124.807 451.08 125.792 452.023 126.483L455.909 143.682L460.033 129.446Z" fill="#33160D"/>
<path d="M382.665 121.256C381.934 122.554 381.853 124.29 382.756 125.475C383.593 126.571 385.039 126.98 386.397 127.222C388.626 127.619 390.903 127.744 393.161 127.591C394.795 127.481 396.469 127.21 397.864 126.351C402.205 123.683 399.352 117.6 395.187 116.556C391.426 115.611 384.572 117.867 382.665 121.256Z" fill="#33160D"/>
<path d="M443.603 121.611C444.334 122.91 444.415 124.646 443.512 125.83C442.674 126.926 441.228 127.335 439.871 127.578C437.642 127.974 435.365 128.099 433.105 127.947C431.471 127.836 429.797 127.565 428.402 126.707C424.062 124.038 426.914 117.956 431.079 116.912C434.842 115.967 441.696 118.222 443.603 121.611Z" fill="#33160D"/>
<path d="M395.846 137.544C395.846 139.658 394.132 141.37 392.019 141.37C389.905 141.37 388.193 139.656 388.193 137.544C388.193 135.432 389.906 133.718 392.019 133.718C394.132 133.718 395.846 135.431 395.846 137.544Z" fill="#33160D"/>
<path d="M432.063 141.371C434.177 141.371 435.89 139.658 435.89 137.544C435.89 135.431 434.177 133.717 432.063 133.717C429.95 133.717 428.236 135.431 428.236 137.544C428.236 139.658 429.95 141.371 432.063 141.371Z" fill="#33160D"/>
<path d="M407.74 127.843C405.273 136.277 404.127 145.084 404.174 153.872C404.184 155.638 404.723 157.945 406.484 158.072C407.624 158.154 408.67 157.164 409.798 157.352C410.742 157.508 411.423 158.453 412.374 158.559C413.618 158.698 414.548 157.381 415.77 157.111C416.872 156.867 417.953 157.511 419.054 157.758C420.155 158.004 421.678 157.461 421.585 156.335" stroke="#33160D" stroke-width="0.5122" stroke-miterlimit="10" stroke-linecap="round" stroke-linejoin="round"/>
<path d="M462.263 202.272C460.638 209.44 456.335 215.573 450.461 219.114C446.901 221.262 442.849 222.356 438.864 222.356C438.194 222.356 437.525 222.323 436.855 222.264C435.177 222.104 433.533 221.746 431.961 221.19C431.305 220.964 430.668 220.698 430.045 220.4L430.9 218.611C431.185 218.743 431.47 218.869 431.761 218.989C433.518 219.712 435.415 220.136 437.357 220.282C441.469 220.587 445.791 219.606 449.432 217.41C454.843 214.148 458.815 208.471 460.327 201.827C460.983 198.936 461.043 196.463 460.512 194.255C459.895 191.688 458.416 189.573 456.453 188.439C453.946 186.987 450.4 187.033 446.72 188.566C445.785 188.956 444.877 189.415 444.014 189.932C440.738 191.888 438.02 194.706 436.203 198.088L435.063 197.472L434.453 197.14C435.023 196.078 435.673 195.071 436.402 194.123C438.537 191.304 441.308 188.997 444.485 187.406C444.963 187.161 445.453 186.935 445.951 186.73C450.208 184.959 454.398 184.952 457.448 186.716C459.882 188.122 461.699 190.701 462.449 193.792C463.051 196.304 462.993 199.075 462.263 202.272Z" fill="#9AAFCE"/>
<path d="M431.762 218.988C433.519 219.71 435.416 220.135 437.358 220.28C437.192 220.943 437.026 221.606 436.854 222.263C435.176 222.104 433.532 221.746 431.96 221.19C431.815 220.474 431.769 219.731 431.762 218.988Z" fill="#33160D"/>
<path d="M444.485 187.405C444.339 188.247 444.18 189.089 444.014 189.931C440.738 191.886 438.02 194.705 436.203 198.087L435.062 197.47C435.467 196.337 435.912 195.222 436.402 194.122C438.537 191.304 441.309 188.997 444.485 187.405Z" fill="#33160D"/>
<path d="M446.808 170.49L444.891 178.056L444.799 178.421L431.942 229.147L431.697 230.103L431.265 231.807L428.905 240.135C415.617 247.8 390.599 239.962 390.599 239.962L384.386 212.258L383.896 210.069L383.16 206.773L382.424 203.497L381.953 201.382L381.197 198.027L376.748 178.175L376.669 177.817L375.025 170.489L446.808 170.49Z" fill="#9AAFCE"/>
<path d="M446.718 170.239C446.718 171.081 445.246 171.869 442.646 172.566C442.614 172.573 442.587 172.58 442.554 172.593C436.533 174.184 424.585 175.266 410.825 175.266C396.662 175.266 384.407 174.119 378.573 172.448C378.559 172.448 378.552 172.441 378.54 172.441C376.226 171.778 374.932 171.028 374.932 170.239C374.932 167.468 391.005 165.22 410.825 165.22C430.652 165.218 446.718 167.467 446.718 170.239Z" fill="#FFE2D6"/>
<path d="M442.557 172.592C436.536 174.183 424.588 175.265 410.829 175.265C396.665 175.265 384.411 174.118 378.576 172.446C378.563 172.446 378.556 172.439 378.543 172.439C380.732 170.08 394.206 168.268 410.491 168.268C427.12 168.269 440.812 170.158 442.557 172.592Z" fill="#33160D"/>
<path d="M444.892 178.056L444.799 178.421C433.805 180.483 422.599 181.517 411.392 181.517C399.768 181.517 388.137 180.403 376.746 178.175L376.667 177.817C399.092 182.226 422.433 182.307 444.892 178.056Z" fill="#FFE2D6"/>
<path d="M319.495 230.534L322.521 221.101C322.521 221.101 321.275 216.296 321.987 213.093C322.699 209.89 319.318 208.111 320.563 204.551C321.809 200.992 323.411 198.5 323.589 196.186C323.767 193.872 325.546 189.423 327.683 186.041C329.818 182.659 330.887 178.922 333.378 176.608C335.87 174.295 351.531 170.201 351.531 170.201C351.531 170.201 379.117 171.269 379.295 174.116C379.474 176.963 376.748 178.175 376.748 178.175C376.748 178.175 381.61 178.922 381.075 182.838C380.542 186.753 371.999 188.177 371.999 188.177C371.999 188.177 374.669 189.6 373.956 192.982C373.244 196.364 364.168 197.61 364.168 197.61C364.168 197.61 355.447 215.051 353.49 220.39C351.531 225.729 342.1 239.789 342.1 239.789L319.495 230.534Z" fill="#BB5631"/>
<path d="M333.377 176.608C333.377 176.608 346.251 170.319 350.997 170.201C355.742 170.082 378.879 170.437 379.234 174.59C379.539 178.154 376.745 178.173 376.745 178.173" stroke="#33160D" stroke-width="0.5122" stroke-miterlimit="10" stroke-linecap="round" stroke-linejoin="round"/>
<path d="M333.436 182.659C333.436 182.659 345.062 177.438 349.453 177.083C353.843 176.727 379.826 176.371 380.894 180.761C381.963 185.151 375.555 187.938 371.403 188.473" stroke="#33160D" stroke-width="0.5122" stroke-miterlimit="10" stroke-linecap="round" stroke-linejoin="round"/>
<path d="M328.454 194.169C328.454 194.169 334.741 189.066 340.2 188.236C345.658 187.406 370.693 187.643 372.947 189.185C375.201 190.727 374.134 195.354 370.1 196.184C366.066 197.014 341.744 197.608 341.744 197.608L330.947 202.947" stroke="#33160D" stroke-width="0.5122" stroke-miterlimit="10" stroke-linecap="round" stroke-linejoin="round"/>
<path d="M327.503 205.321C327.503 205.321 355.859 199.27 356.691 202.117C357.521 204.964 355.029 207.219 347.793 209.236C340.555 211.253 336.521 212.558 336.521 212.558" stroke="#33160D" stroke-width="0.5122" stroke-miterlimit="10" stroke-linecap="round" stroke-linejoin="round"/>
<path d="M347.094 209.713C347.016 210.682 346.81 211.641 346.483 212.557" stroke="#33160D" stroke-width="0.5122" stroke-miterlimit="10" stroke-linecap="round" stroke-linejoin="round"/>
<path d="M351.933 308.636H297.758V245.189C299.278 243.613 300.81 242.206 302.387 241.036C302.512 240.938 302.623 240.841 302.749 240.757C304.31 239.614 305.913 238.68 307.516 238.01C307.545 238.01 307.558 237.997 307.585 237.983C308.519 237.592 309.468 237.313 310.415 237.119L310.777 236.408L311.711 234.596L311.724 234.567L315.404 227.388L315.739 227.527L316.409 227.792L329.987 233.256L330.043 233.284L350.55 241.537L350.76 241.62L346.48 253.26C346.48 253.26 353.366 261.082 354.078 273.656C354.512 281.298 353.103 297.274 351.933 308.636Z" fill="#FCB149"/>
<path d="M347.179 308.636H346.469C347.362 303.756 350.233 287.11 349.941 275.037C349.592 260.873 345.048 253.387 345.006 253.317C344.95 253.219 344.936 253.094 344.979 252.996L349.83 241.927L330.049 233.283L329.993 233.256L316.624 227.415L316.414 227.792L311.786 235.864C311.757 235.933 311.701 235.989 311.632 236.018C311.339 236.143 311.06 236.283 310.781 236.408C309.638 236.938 308.579 237.467 307.588 237.984C307.56 237.998 307.546 238.012 307.519 238.012C305.539 239.057 303.839 240.075 302.388 241.037C300.436 242.319 298.931 243.518 297.759 244.565V243.589C300.436 241.302 304.646 238.402 311.24 235.419L311.713 234.597L311.727 234.568L315.742 227.528L316.16 226.803C316.258 226.649 316.452 226.593 316.606 226.649L350.427 241.426C350.482 241.455 350.525 241.496 350.552 241.538C350.58 241.566 350.594 241.594 350.608 241.621C350.636 241.704 350.636 241.802 350.608 241.886L345.686 253.109C346.356 254.294 350.301 261.808 350.636 275.025C350.929 287.055 348.099 303.589 347.179 308.636Z" fill="#33160D"/>
<path d="M475.933 243.703L472.196 238.186C472.196 238.186 462.586 231.423 459.559 224.66C459.559 224.66 445.143 223.237 447.101 215.406C447.101 215.406 441.583 211.135 444.253 205.796C444.253 205.796 438.381 202.237 441.761 193.337C441.761 193.337 434.642 188.355 440.516 179.99C446.389 171.626 462.584 178.21 467.745 179.634C472.906 181.057 480.916 185.151 482.873 188.355C484.83 191.558 499.068 226.085 499.068 226.085C499.068 226.085 490.704 244.06 475.933 243.703Z" fill="#BB5631"/>
<path d="M480.915 185.626C480.915 185.626 464.186 177.558 456.355 176.61C448.524 175.66 439.033 175.423 438.084 185.271C438.084 185.271 438.084 191.678 441.761 193.339" stroke="#33160D" stroke-width="0.5122" stroke-miterlimit="10" stroke-linecap="round" stroke-linejoin="round"/>
<path d="M466.915 203.304L444.253 205.796C444.253 205.796 442.355 204.847 441.168 201.168C439.981 197.491 441.049 194.049 442.71 191.795C444.372 189.542 466.913 190.253 466.913 190.253" stroke="#33160D" stroke-width="0.5122" stroke-miterlimit="10" stroke-linecap="round" stroke-linejoin="round"/>
<path d="M444.254 205.796C444.254 205.796 441.762 211.372 447.101 215.406L463 216.711" stroke="#33160D" stroke-width="0.5122" stroke-miterlimit="10" stroke-linecap="round" stroke-linejoin="round"/>
<path d="M525.263 237.048V308.635H480.094C478.142 304.063 476.121 298.849 474.518 293.467C471.869 284.685 470.28 275.47 471.702 268.067C471.702 268.067 471.702 268.067 471.715 268.054C471.952 266.757 472.301 265.53 472.747 264.36C473.095 263.426 473.513 262.534 474.002 261.697C474.029 261.641 474.058 261.599 474.085 261.543C474.518 260.79 475.019 260.093 475.577 259.424L475.311 258.741L469.874 244.716L477.862 238.484L498.996 221.978L500.251 220.988L505.952 230.956C505.952 230.956 513.717 228.851 521.301 233.745V233.758C522.642 234.609 523.98 235.696 525.263 237.048Z" fill="#FCB149"/>
<path d="M525.263 249.371V251.03C522.822 245.788 520.006 240.296 518.041 238.247C513.915 233.953 503.431 233.549 503.333 233.549C503.194 233.549 503.068 233.466 503.012 233.339L498.564 222.73L471.017 244.883L476.425 257.443C476.454 257.499 476.467 257.569 476.454 257.638C476.44 257.763 476.148 259.116 471.713 268.052C471.7 268.066 471.7 268.066 471.7 268.066C471.561 268.359 471.407 268.651 471.253 268.959C468.786 273.88 471.365 284.336 474.516 293.467C476.789 300.061 479.368 305.987 480.552 308.635H479.77C476.662 301.762 466.261 277.379 470.64 268.639C471.462 266.98 472.16 265.558 472.745 264.359C473.247 263.327 473.665 262.434 474 261.695C474.027 261.639 474.056 261.597 474.083 261.541C474.683 260.244 475.072 259.353 475.309 258.739C475.588 258.069 475.7 257.75 475.742 257.609L470.278 244.909C470.208 244.77 470.249 244.603 470.376 244.491L477.862 238.482L498.495 221.892C498.578 221.822 498.689 221.809 498.801 221.822C498.87 221.85 498.955 221.906 498.996 221.976C499.009 221.99 499.024 222.005 499.038 222.032L503.569 232.864C505.185 232.947 514.512 233.575 518.541 237.772C520.411 239.738 522.961 244.535 525.263 249.371Z" fill="#33160D"/>
<path d="M339.837 83.4515L347.208 75.287L346.647 86.2715L357.633 85.7107L349.467 93.0818L357.633 100.453L346.647 99.8922L347.208 110.878L339.837 102.713L332.466 110.878L333.026 99.8922L322.041 100.453L330.206 93.0818L322.041 85.7107L333.026 86.2715L332.466 75.287L339.837 83.4515Z" fill="#FFE2D6"/>
<path d="M499.537 150.576L505.83 143.605L505.351 152.984L514.729 152.505L507.759 158.798L514.729 165.091L505.351 164.612L505.83 173.991L499.537 167.02L493.244 173.991L493.723 164.612L484.344 165.091L491.315 158.798L484.344 152.505L493.723 152.984L493.244 143.605L499.537 150.576Z" fill="#FFE2D6"/>
<path d="M336.409 139.729C336.291 141.056 336.296 142.435 336.332 143.829C336.321 143.951 336.333 144.066 336.333 144.183C336.388 146.529 336.517 148.904 336.324 151.137C336.271 151.72 336.228 152.3 336.175 152.882C336.156 153.019 336.144 153.142 336.137 153.275C335.911 155.492 335.596 157.715 334.906 159.879C334.138 162.28 332.916 164.582 331.328 166.655C331.206 166.84 331.065 167.006 330.936 167.168C327.903 170.963 323.649 174.011 318.738 175.625L318.431 175.729C318.427 175.717 318.427 175.717 318.423 175.706C315.566 171.281 314.93 165.765 316.248 160.472C316.275 160.318 316.315 160.161 316.369 160.011C316.369 160.011 316.369 160.011 316.365 159.999C316.836 158.276 317.504 156.592 318.366 154.975C319.622 152.621 321.258 150.453 323.177 148.467C323.302 148.332 323.42 148.214 323.55 148.091C326.737 144.915 330.647 142.284 334.891 140.369C334.891 140.369 334.891 140.369 334.903 140.365C335.155 140.253 335.406 140.143 335.662 140.044C335.914 139.935 336.154 139.829 336.409 139.729Z" fill="#9AAFCE"/>
<path d="M318.599 176.105C318.58 176.111 318.557 176.114 318.537 176.113C318.451 176.105 318.387 176.03 318.395 175.944C319.567 162.468 325.777 149.307 335.435 139.837C335.496 139.777 335.595 139.777 335.655 139.839C335.715 139.9 335.714 139.999 335.654 140.059C326.048 149.478 319.871 162.568 318.706 175.971C318.699 176.034 318.657 176.086 318.599 176.105Z" fill="#33160D"/>
<path d="M324.59 154.656C324.619 154.739 324.658 154.816 324.697 154.895C324.722 154.966 324.702 155.064 324.624 155.105C324.612 155.109 324.612 155.109 324.601 155.113C324.53 155.137 324.451 155.098 324.416 155.031C324.412 155.019 324.412 155.019 324.408 155.008C323.421 153.014 323 150.713 323.179 148.471C323.304 148.336 323.422 148.218 323.552 148.096C323.274 150.317 323.635 152.639 324.59 154.656Z" fill="#33160D"/>
<path d="M336.175 152.883C336.156 153.021 336.144 153.143 336.137 153.277C332.706 155.457 329.037 157.206 325.178 158.506C324.4 158.768 323.613 159.006 322.823 159.234L322.681 159.281C322.61 159.306 322.531 159.266 322.496 159.2C322.492 159.187 322.492 159.187 322.488 159.177C322.471 159.089 322.515 159.023 322.582 158.987L322.594 158.983C322.727 158.952 322.846 158.911 322.975 158.868C327.668 157.509 332.091 155.506 336.175 152.883Z" fill="#33160D"/>
<path d="M336.332 143.829C336.321 143.951 336.333 144.066 336.333 144.183C334.568 145.184 332.72 146.017 330.797 146.665C330.42 146.793 330.037 146.907 329.644 147.027L329.561 147.054C329.478 147.083 329.384 147.035 329.368 146.948C329.36 146.925 329.355 146.913 329.36 146.886C329.36 146.886 329.355 146.873 329.368 146.869C329.383 146.838 329.403 146.817 329.418 146.786L329.43 146.782C329.438 146.766 329.462 146.759 329.474 146.755C329.639 146.699 329.796 146.66 329.961 146.604C332.188 145.921 334.319 144.992 336.332 143.829Z" fill="#33160D"/>
<path d="M320.343 166.309C320.37 166.353 320.386 166.399 320.378 166.455C320.363 166.486 320.343 166.507 320.312 166.53C320.303 166.546 320.28 166.553 320.268 166.557C320.209 166.578 320.137 166.561 320.095 166.511C320.091 166.499 320.071 166.48 320.068 166.467C318.561 164.61 317.296 162.605 316.249 160.474C316.276 160.32 316.316 160.162 316.37 160.012C317.39 162.179 318.663 164.207 320.162 166.081C320.224 166.153 320.28 166.239 320.343 166.309Z" fill="#33160D"/>
<path d="M331.327 166.656C331.206 166.842 331.064 167.008 330.935 167.17C329.488 167.868 328.005 168.458 326.483 168.972C324.194 169.743 321.825 170.318 319.42 170.707C319.404 170.699 319.393 170.703 319.38 170.707C319.293 170.723 319.223 170.667 319.206 170.582C319.19 170.494 319.252 170.409 319.331 170.407C319.383 170.403 319.429 170.387 319.481 170.383C323.606 169.717 327.587 168.468 331.327 166.656Z" fill="#33160D"/>
<path d="M489.368 85.7613C488.063 85.4904 486.694 85.3353 485.305 85.2101C485.185 85.1842 485.069 85.1828 484.952 85.1706C482.615 84.9542 480.242 84.8086 478.045 84.3581C477.472 84.2383 476.902 84.1294 476.329 84.0096C476.194 83.9743 476.074 83.9498 475.942 83.9266C473.765 83.4462 471.595 82.876 469.525 81.941C467.229 80.9012 465.083 79.4218 463.208 77.6035C463.038 77.462 462.889 77.3014 462.744 77.1544C459.325 73.7043 456.788 69.126 455.752 64.0618L455.686 63.7447C455.698 63.7419 455.698 63.7419 455.71 63.7392C460.435 61.4119 465.987 61.4187 471.092 63.3391C471.242 63.384 471.394 63.4398 471.536 63.5119C471.536 63.5119 471.536 63.5119 471.548 63.5092C473.204 64.1761 474.799 65.0348 476.306 66.076C478.5 67.5962 480.464 69.4716 482.215 71.607C482.334 71.7472 482.438 71.8779 482.545 72.0208C485.332 75.5539 487.493 79.7416 488.906 84.1771C488.906 84.1771 488.906 84.1771 488.908 84.1893C488.99 84.452 489.07 84.7147 489.14 84.98C489.22 85.2454 489.299 85.4959 489.368 85.7613Z" fill="#9AAFCE"/>
<path d="M455.294 63.8686C455.29 63.8482 455.29 63.8264 455.294 63.8047C455.312 63.7203 455.393 63.6658 455.478 63.6835C468.728 66.4041 481.083 74.0923 489.374 84.7801C489.427 84.8481 489.415 84.9461 489.347 84.9978C489.279 85.0509 489.181 85.0387 489.129 84.9706C480.883 74.3413 468.595 66.6926 455.415 63.987C455.353 63.9761 455.308 63.9272 455.294 63.8686Z" fill="#33160D"/>
<path d="M475.908 72.2985C475.823 72.3162 475.741 72.3474 475.658 72.3774C475.585 72.3924 475.489 72.3624 475.459 72.2794C475.457 72.2672 475.457 72.2671 475.454 72.2549C475.439 72.1814 475.487 72.1079 475.557 72.0807C475.57 72.078 475.57 72.078 475.582 72.0753C477.676 71.3254 480.012 71.1729 482.217 71.6098C482.335 71.75 482.44 71.8806 482.546 72.0235C480.371 71.4914 478.022 71.5826 475.908 72.2985Z" fill="#33160D"/>
<path d="M476.331 84.0098C476.196 83.9744 476.076 83.9499 475.944 83.9267C474.175 80.267 472.861 76.4209 472.016 72.4373C471.846 71.633 471.699 70.8246 471.566 70.0121L471.534 69.8664C471.52 69.7929 471.567 69.7195 471.638 69.6922C471.65 69.6895 471.65 69.6895 471.662 69.6868C471.751 69.6814 471.812 69.7317 471.839 69.8025L471.842 69.8147C471.858 69.9508 471.884 70.0733 471.913 70.2067C472.717 75.0246 474.195 79.6505 476.331 84.0098Z" fill="#33160D"/>
<path d="M485.305 85.2101C485.185 85.1842 485.069 85.1828 484.952 85.1706C484.161 83.302 483.548 81.3694 483.126 79.3837C483.043 78.9945 482.972 78.6011 482.9 78.1969L482.882 78.1112C482.864 78.0255 482.922 77.937 483.01 77.9315C483.035 77.9261 483.047 77.9234 483.074 77.9302C483.074 77.9302 483.086 77.9275 483.089 77.9397C483.119 77.9588 483.135 77.9805 483.165 77.9996L483.168 78.0119C483.183 78.0214 483.188 78.0459 483.191 78.0581C483.228 78.2282 483.248 78.3902 483.285 78.5603C483.706 80.8522 484.382 83.0774 485.305 85.2101Z" fill="#33160D"/>
<path d="M464.822 66.732C464.776 66.7552 464.727 66.7647 464.674 66.7511C464.644 66.732 464.626 66.7103 464.607 66.6763C464.592 66.6667 464.586 66.6422 464.584 66.63C464.57 66.5687 464.595 66.5007 464.65 66.4626C464.663 66.4598 464.684 66.4422 464.697 66.4394C466.716 65.1574 468.853 64.1312 471.091 63.3378C471.24 63.3827 471.393 63.4385 471.534 63.5106C469.264 64.2728 467.103 65.3044 465.068 66.5755C464.992 66.6327 464.9 66.6776 464.822 66.732Z" fill="#33160D"/>
<path d="M463.208 77.6023C463.038 77.4607 462.889 77.3001 462.744 77.1531C462.218 75.6356 461.802 74.0936 461.468 72.523C460.967 70.1604 460.669 67.7405 460.561 65.3071C460.57 65.2921 460.567 65.2799 460.565 65.2677C460.559 65.1792 460.622 65.1152 460.709 65.1098C460.797 65.1043 460.876 65.1765 460.867 65.254C460.865 65.3058 460.875 65.3534 460.874 65.4051C461.06 69.5806 461.84 73.6785 463.208 77.6023Z" fill="#33160D"/>
<path d="M461.172 283.067C462.305 282.364 463.404 281.534 464.499 280.669C464.603 280.605 464.688 280.526 464.782 280.455C466.626 279.003 468.447 277.474 470.349 276.289C470.848 275.981 471.336 275.667 471.834 275.361C471.955 275.294 472.06 275.229 472.172 275.155C474.081 274.004 476.048 272.923 478.193 272.176C480.575 271.35 483.149 270.944 485.761 270.97C485.983 270.957 486.199 270.969 486.406 270.976C491.261 271.124 496.254 272.697 500.492 275.655L500.759 275.838C500.752 275.849 500.752 275.849 500.746 275.859C498.921 280.801 494.892 284.618 489.867 286.741C489.728 286.812 489.579 286.876 489.426 286.921C489.426 286.921 489.426 286.921 489.42 286.932C487.759 287.589 486.012 288.066 484.202 288.347C481.564 288.756 478.849 288.749 476.108 288.406C475.925 288.385 475.759 288.364 475.584 288.332C471.131 287.689 466.679 286.141 462.6 283.897C462.6 283.897 462.6 283.897 462.589 283.89C462.35 283.755 462.11 283.621 461.876 283.476C461.635 283.34 461.405 283.212 461.172 283.067Z" fill="#9AAFCE"/>
<path d="M500.957 275.479C500.973 275.491 500.989 275.506 501 275.525C501.045 275.599 501.023 275.695 500.95 275.74C489.469 282.892 475.214 285.824 461.844 283.784C461.758 283.772 461.699 283.691 461.713 283.607C461.727 283.521 461.805 283.464 461.89 283.476C475.189 285.505 489.367 282.59 500.787 275.478C500.841 275.441 500.908 275.445 500.957 275.479Z" fill="#33160D"/>
<path d="M480.207 283.561C480.256 283.489 480.295 283.41 480.335 283.331C480.377 283.269 480.468 283.226 480.547 283.264C480.558 283.271 480.558 283.271 480.567 283.278C480.629 283.32 480.645 283.407 480.612 283.475C480.606 283.486 480.606 283.486 480.599 283.495C479.597 285.481 478.007 287.2 476.107 288.402C475.925 288.381 475.759 288.359 475.583 288.328C477.526 287.219 479.166 285.535 480.207 283.561Z" fill="#33160D"/>
<path d="M471.833 275.359C471.955 275.293 472.059 275.227 472.171 275.154C475.975 276.59 479.575 278.475 482.931 280.78C483.609 281.246 484.271 281.732 484.927 282.228L485.05 282.313C485.111 282.355 485.128 282.442 485.096 282.51C485.089 282.521 485.089 282.521 485.083 282.53C485.023 282.596 484.944 282.601 484.874 282.569L484.864 282.562C484.757 282.473 484.655 282.404 484.542 282.326C480.64 279.388 476.383 277.051 471.833 275.359Z" fill="#33160D"/>
<path d="M464.499 280.669C464.603 280.605 464.688 280.526 464.782 280.455C466.642 281.265 468.418 282.243 470.091 283.393C470.419 283.619 470.74 283.855 471.072 284.098L471.144 284.147C471.216 284.196 471.235 284.301 471.175 284.365C471.162 284.385 471.154 284.396 471.131 284.41C471.131 284.41 471.124 284.421 471.113 284.413C471.079 284.419 471.05 284.415 471.016 284.422L471.007 284.415C470.989 284.418 470.969 284.404 470.959 284.398C470.815 284.298 470.69 284.198 470.545 284.098C468.659 282.728 466.638 281.58 464.499 280.669Z" fill="#33160D"/>
<path d="M492.077 279.964C492.094 279.916 492.123 279.874 492.172 279.848C492.206 279.841 492.234 279.845 492.273 279.856C492.29 279.853 492.311 279.867 492.32 279.874C492.372 279.909 492.402 279.975 492.387 280.04C492.38 280.051 492.376 280.078 492.369 280.088C491.787 282.407 490.944 284.624 489.868 286.74C489.729 286.811 489.579 286.875 489.427 286.92C490.548 284.805 491.406 282.567 492.004 280.245C492.022 280.153 492.058 280.056 492.077 279.964Z" fill="#33160D"/>
<path d="M485.762 270.97C485.984 270.957 486.2 270.969 486.407 270.976C487.834 271.715 489.197 272.545 490.52 273.455C492.511 274.823 494.392 276.373 496.148 278.064C496.151 278.081 496.161 278.088 496.172 278.095C496.238 278.155 496.236 278.245 496.176 278.309C496.117 278.374 496.01 278.375 495.963 278.313C495.929 278.275 495.888 278.246 495.854 278.208C492.843 275.308 489.456 272.873 485.762 270.97Z" fill="#33160D"/>
<path d="M392.977 57.3098C392.977 59.1321 385.41 57.9535 384.217 59.1471C383.022 60.3406 384.202 67.9077 382.379 67.9077C380.557 67.9077 381.735 60.3406 380.542 59.1471C379.347 57.9535 371.781 59.1321 371.781 57.3098C371.781 55.4874 379.348 56.666 380.542 55.4724C381.735 54.2789 380.557 46.7118 382.379 46.7118C384.202 46.7118 383.023 54.2789 384.217 55.4724C385.411 56.666 392.977 55.4874 392.977 57.3098Z" fill="white"/>
<path d="M507.769 111.826C507.769 113.649 500.202 112.47 499.008 113.664C497.814 114.859 498.993 122.424 497.171 122.424C495.348 122.424 496.527 114.857 495.333 113.664C494.138 112.47 486.573 113.649 486.573 111.826C486.573 110.004 494.14 111.183 495.333 109.989C496.527 108.796 495.348 101.229 497.171 101.229C498.993 101.229 497.814 108.796 499.008 109.989C500.202 111.184 507.769 110.004 507.769 111.826Z" fill="white"/>
<path d="M342.197 259.485C342.197 261.307 334.63 260.129 333.437 261.322C332.243 262.517 333.422 270.083 331.599 270.083C329.777 270.083 330.956 262.516 329.762 261.322C328.569 260.129 321.001 261.307 321.001 259.485C321.001 257.663 328.569 258.841 329.762 257.648C330.956 256.454 329.777 248.887 331.599 248.887C333.422 248.887 332.243 256.454 333.437 257.648C334.63 258.841 342.197 257.663 342.197 259.485Z" fill="white"/>
<path d="M229.312 340.504L239.008 364.696H234.4L231.968 358.168H223.264L220.896 364.696H216.32L225.792 340.504H229.312ZM224.544 354.584H230.624L227.68 346.712H227.424L224.544 354.584ZM260.081 340.504V364.696H255.729L244.944 347.864H244.624L244.753 350.744V364.696H240.432V340.504H244.785L255.569 357.368H255.889L255.792 354.488V340.504H260.081ZM288.342 348.056C288.342 352.6 285.334 355.608 279.414 355.608H274.614V364.696H270.326V340.504H279.414C285.334 340.504 288.342 343.512 288.342 348.056ZM284.054 348.056C284.054 345.912 282.646 344.152 279.414 344.152H274.614V351.96H279.414C282.646 351.96 284.054 350.2 284.054 348.056ZM298.787 340.504L308.483 364.696H303.875L301.443 358.168H292.739L290.371 364.696H285.795L295.267 340.504H298.787ZM294.019 354.584H300.099L297.155 346.712H296.899L294.019 354.584ZM334.612 340.504V364.696H330.324V351.896L330.452 349.656H330.132L323.924 364.696H320.596L314.388 349.656H314.068L314.196 351.896V364.696H309.908V340.504H314.772L322.1 358.552H322.42L329.748 340.504H334.612ZM363.552 364.184V364.696H359.008L353.984 355.288H349.152V364.696H344.864V340.504H353.664C359.584 340.504 362.592 343.352 362.592 347.896C362.592 351.064 361.12 353.4 358.272 354.52L363.552 364.184ZM358.304 347.896C358.304 345.752 356.864 344.152 353.664 344.152H349.152V351.64H353.664C356.864 351.64 358.304 350.072 358.304 347.896ZM381.383 361.048V364.696H365.639V340.504H381.319V344.152H369.927V350.424H380.103V354.072H369.927V361.048H381.383ZM400.884 358.232C400.884 362.488 397.076 365.016 391.796 365.016C386.804 365.016 381.94 362.808 381.94 356.792H386.26C386.26 360.504 389.076 361.368 391.796 361.368C394.708 361.368 396.596 360.184 396.596 358.264C396.596 356.344 395.252 355.352 391.124 354.2H391.092C386.036 352.824 382.676 351.224 382.676 346.968C382.676 342.936 386.388 340.216 391.668 340.216C397.204 340.216 400.724 343.576 400.724 348.408H396.436C396.436 345.496 394.58 343.864 391.668 343.864C388.564 343.864 386.964 345.176 386.964 346.904C386.964 348.728 388.628 349.688 392.308 350.68C397.844 352.184 400.884 354.232 400.884 358.232ZM418.933 361.048V364.696H403.189V340.504H418.869V344.152H407.477V350.424H417.653V354.072H407.477V361.048H418.933ZM439.714 364.184V364.696H435.17L430.146 355.288H425.314V364.696H421.026V340.504H429.826C435.746 340.504 438.754 343.352 438.754 347.896C438.754 351.064 437.282 353.4 434.434 354.52L439.714 364.184ZM434.466 347.896C434.466 345.752 433.026 344.152 429.826 344.152H425.314V351.64H429.826C433.026 351.64 434.466 350.072 434.466 347.896ZM456.625 340.504H461.169L451.857 364.696H448.401L439.089 340.504H443.633L449.201 355.48L449.969 358.04H450.289L451.057 355.48L456.625 340.504ZM478.351 361.048V364.696H462.607V340.504H478.287V344.152H466.895V350.424H477.071V354.072H466.895V361.048H478.351ZM529.853 358.232C529.853 362.488 526.045 365.016 520.765 365.016C515.773 365.016 510.909 362.808 510.909 356.792H515.229C515.229 360.504 518.045 361.368 520.765 361.368C523.677 361.368 525.565 360.184 525.565 358.264C525.565 356.344 524.221 355.352 520.093 354.2H520.061C515.005 352.824 511.645 351.224 511.645 346.968C511.645 342.936 515.357 340.216 520.637 340.216C526.173 340.216 529.693 343.576 529.693 348.408H525.405C525.405 345.496 523.549 343.864 520.637 343.864C517.533 343.864 515.933 345.176 515.933 346.904C515.933 348.728 517.597 349.688 521.277 350.68C526.813 352.184 529.853 354.232 529.853 358.232ZM550.174 348.056C550.174 352.6 547.166 355.608 541.246 355.608H536.446V364.696H532.158V340.504H541.246C547.166 340.504 550.174 343.512 550.174 348.056ZM545.885 348.056C545.885 345.912 544.478 344.152 541.246 344.152H536.446V351.96H541.246C544.478 351.96 545.885 350.2 545.885 348.056ZM571.277 364.184V364.696H566.733L561.709 355.288H556.877V364.696H552.589V340.504H561.389C567.309 340.504 570.317 343.352 570.317 347.896C570.317 351.064 568.845 353.4 565.997 354.52L571.277 364.184ZM566.029 347.896C566.029 345.752 564.589 344.152 561.389 344.152H556.877V351.64H561.389C564.589 351.64 566.029 350.072 566.029 347.896ZM578.132 340.504V364.696H573.844V340.504H578.132ZM602.099 340.504V364.696H597.747L586.963 347.864H586.643L586.771 350.744V364.696H582.451V340.504H586.803L597.587 357.368H597.907L597.811 354.488V340.504H602.099ZM624.953 351.544V360.632C623.513 362.968 620.473 364.984 615.577 364.984C609.113 364.984 604.985 360.504 604.985 352.6C604.985 344.696 609.113 340.216 615.577 340.216C620.345 340.216 623.929 342.712 624.953 347.608H620.665C620.217 345.272 618.361 343.864 615.577 343.864C611.609 343.864 609.273 347.096 609.273 352.6C609.273 358.104 611.609 361.336 615.577 361.336C618.393 361.336 619.897 360.632 620.665 359.576V355.192H615.289V351.544H624.953Z" fill="white"/>
<path d="M488.776 340.564V341.932H485.812V349.636H484.204V341.932H481.24V340.564H488.776ZM498.7 340.564V349.636H497.092V344.836L497.14 343.996H497.02L494.692 349.636H493.444L491.116 343.996H490.996L491.044 344.836V349.636H489.436V340.564H491.26L494.008 347.332H494.128L496.876 340.564H498.7Z" fill="white"/>
<path d="M260.922 407H258.408L263.994 391.445H266.723L272.33 407H269.816L268.398 402.896H262.34L260.922 407ZM263.027 400.92H267.711L265.412 394.281H265.305L263.027 400.92ZM285.754 391.445V407H283.584L275.699 395.635H275.57V407H273.207V391.445H275.398L283.283 402.832H283.433V391.445H285.754ZM292.104 407V391.445H297.647C301.257 391.445 303.04 393.615 303.04 396.494C303.04 399.352 301.257 401.543 297.647 401.543H294.468V407H292.104ZM294.468 399.523H297.411C299.71 399.523 300.655 398.234 300.655 396.494C300.655 394.732 299.71 393.465 297.411 393.465H294.468V399.523ZM304.11 407H301.596L307.182 391.445H309.911L315.518 407H313.004L311.586 402.896H305.528L304.11 407ZM306.215 400.92H310.899L308.6 394.281H308.493L306.215 400.92ZM316.395 391.445H319.273L324.193 403.498H324.387L329.307 391.445H332.186V407H329.93V395.764H329.779L325.225 406.979H323.355L318.779 395.742H318.65V407H316.395V391.445ZM353.64 389.576V408.869H351.599V389.576H353.64ZM347.753 391.316V398.342H340.835V402.553C343.95 402.542 346.679 402.402 349.902 401.865L350.095 403.541C346.679 404.121 343.779 404.25 340.384 404.25H338.751V396.709H345.669V392.971H338.73V391.316H347.753ZM371.639 389.576V408.869H369.598V398.17H365.624V396.494H369.598V389.576H371.639ZM362.444 394.99C362.444 398.256 364.485 401.758 367.45 403.068L366.225 404.701C364.002 403.627 362.283 401.382 361.434 398.75C360.575 401.554 358.824 403.949 356.6 405.088L355.354 403.498C358.298 402.102 360.36 398.449 360.382 394.99V393.186H356.128V391.51H366.72V393.186H362.444V394.99ZM391.1 404.658V406.334H373.483V404.658H391.1ZM377.543 390.908V394.367H386.996V390.908H389.016V401.006H375.502V390.908H377.543ZM377.543 399.395H386.996V395.979H377.543V399.395ZM405.443 392.305C405.443 395.441 408.795 398.406 412.49 399.072L411.545 400.77C408.472 400.104 405.636 398.084 404.39 395.377C403.123 398.062 400.297 400.082 397.214 400.77L396.312 399.072C399.964 398.385 403.295 395.441 403.295 392.305V390.844H405.443V392.305ZM413.285 404.594V406.291H395.668V404.594H413.285ZM431.198 404.701V406.42H413.581V404.701H431.198ZM429.587 391.424V393.1H426.644V399.523H429.523V401.156H415.128V399.523H418.007V393.1H415.085V391.424H429.587ZM420.027 399.523H424.646V393.1H420.027V399.523ZM447.458 389.598V401.393H445.417V389.598H447.458ZM441.313 390.779V396.236H434.503V398.643C437.865 398.61 440.346 398.514 443.268 398.062L443.526 399.717C440.389 400.232 437.747 400.318 434.116 400.318H432.505V394.668H439.294V392.455H432.462V390.779H441.313ZM441.034 401.758C445.095 401.758 447.587 403.025 447.587 405.281C447.587 407.494 445.095 408.805 441.034 408.783C436.952 408.805 434.481 407.494 434.481 405.281C434.481 403.025 436.952 401.758 441.034 401.758ZM441.034 403.369C438.177 403.369 436.501 404.057 436.501 405.281C436.501 406.506 438.177 407.172 441.034 407.172C443.891 407.172 445.546 406.506 445.546 405.281C445.546 404.057 443.891 403.369 441.034 403.369ZM469.643 389.598V403.691H467.602V389.598H469.643ZM470.223 406.764V408.418H457.053V402.359H459.115V406.764H470.223ZM460.684 392.562C460.662 395.377 462.467 397.955 465.432 398.986L464.379 400.619C462.155 399.792 460.512 398.159 459.652 396.064C458.804 398.299 457.139 400.093 454.883 400.963L453.787 399.352C456.816 398.234 458.6 395.463 458.6 392.562V390.65H460.684V392.562ZM486.761 390.758V392.154C486.761 393.862 486.761 396.043 486.246 399.115H489.146V400.791H484.656V408.805H482.636V400.791H478.017V408.805H475.976V400.791H471.593V399.115H484.183C484.753 396.215 484.785 394.077 484.785 392.434H473.785V390.758H486.761ZM503.596 391.531C503.575 397.203 501.727 402.252 494.895 405.732L493.757 404.186C497.13 402.456 499.214 400.383 500.374 397.934L494.143 398.535L493.821 396.773L501.018 396.322C501.308 395.334 501.491 394.281 501.577 393.186H494.809V391.531H503.596ZM509.805 389.576V408.826H507.786V398.879H503.554V397.203H507.786V389.576H509.805ZM527.698 389.576V408.826H525.635V389.576H527.698ZM523.121 391.553V393.229H521.123V402.166C522.122 402.102 523.111 402.016 524.067 401.908L524.174 403.412C520.006 404.078 515.43 404.143 511.885 404.164L511.649 402.467L514.184 402.445V393.229H512.164V391.553H523.121ZM516.161 402.402C517.127 402.381 518.126 402.349 519.125 402.295V393.229H516.161V402.402ZM539.097 407.215C535.982 407.215 534.048 405.367 534.048 402.875C534.048 401.006 535.273 399.856 537.056 398.643C536.068 397.461 535.337 396.365 535.337 394.969C535.337 392.82 536.906 391.273 539.269 391.273C541.675 391.273 543.136 392.842 543.136 394.668C543.136 396.15 542.363 397.225 541.074 398.17L540 398.943L543.115 402.66C543.512 401.897 543.759 400.974 543.759 399.932H545.822C545.822 402.08 545.199 403.477 544.533 404.336L546.746 407H544.168L543.115 405.754C542.062 406.753 540.515 407.215 539.097 407.215ZM536.347 402.811C536.347 404.143 537.443 405.281 539.119 405.281C540.064 405.281 541.031 404.916 541.826 404.25L538.345 400.168L537.959 400.469C536.734 401.371 536.347 402.316 536.347 402.811ZM537.486 394.99C537.486 395.774 538.045 396.569 538.754 397.439L539.699 396.773C540.537 396.215 541.052 395.656 541.052 394.732C541.052 394.002 540.365 393.186 539.312 393.186C538.238 393.186 537.486 394.088 537.486 394.99ZM566.739 389.598V404.186H564.698V402.338H560.831V400.898H564.698V389.598H566.739ZM567.212 406.764V408.418H553.311V402.768H555.331V406.764H567.212ZM550.647 398.385C554.214 398.363 559.005 398.32 563.108 397.805L563.237 399.266C561.594 399.534 559.864 399.717 558.167 399.824V403.584H556.126V399.932C554.257 400.018 552.463 400.028 550.905 400.018L550.647 398.385ZM556.942 390.328C559.757 390.328 561.712 391.682 561.712 393.723C561.712 395.764 559.757 397.074 556.942 397.074C554.085 397.074 552.151 395.764 552.151 393.723C552.151 391.682 554.085 390.328 556.942 390.328ZM556.942 391.854C555.223 391.832 554.063 392.562 554.085 393.723C554.063 394.861 555.223 395.57 556.942 395.57C558.596 395.57 559.757 394.861 559.778 393.723C559.757 392.562 558.596 391.832 556.942 391.854ZM584.073 396.666V398.277H571.01V390.672H583.836V392.326H573.073V396.666H584.073ZM586.243 400.619V402.273H578.379V408.783H576.381V402.273H568.625V400.619H586.243Z" fill="white"/>
<path d="M274.43 436.867V452.371H273.34V436.867H274.43ZM269.859 438.572C269.842 442.949 267.645 446.904 262.547 449.365L261.932 448.451C266.186 446.438 268.462 443.266 268.752 439.486H262.617V438.572H269.859ZM288.418 436.867V441.701H290.809V442.65H288.418V448.293H287.293V436.867H288.418ZM284.235 438.08C284.235 442 281.299 444.971 276.887 446.395L276.413 445.498C280.192 444.285 282.758 441.947 283.039 439.012H277.028V438.08H284.235ZM289.174 451.07V452.002H278.803V447.115H279.911V451.07H289.174ZM295.97 449.277C295.443 449.277 295.021 448.855 295.021 448.346C295.021 447.818 295.443 447.396 295.97 447.396C296.48 447.396 296.902 447.818 296.902 448.346C296.902 448.855 296.48 449.277 295.97 449.277ZM295.97 441.877C295.443 441.877 295.021 441.455 295.021 440.945C295.021 440.418 295.443 439.996 295.97 439.996C296.48 439.996 296.902 440.418 296.902 440.945C296.902 441.455 296.48 441.877 295.97 441.877ZM301.957 451V450.086L306.264 445.428C307.898 443.652 308.566 442.756 308.584 441.561C308.566 440.154 307.424 439.205 305.912 439.205C304.295 439.205 303.258 440.26 303.258 441.754H302.062C302.062 439.609 303.715 438.098 305.947 438.098C308.162 438.098 309.744 439.609 309.744 441.561C309.744 442.984 309.094 444.057 306.896 446.377L303.732 449.787V449.875H310.131V451H301.957ZM315.664 451.176C312.94 451.176 311.358 448.768 311.358 444.637C311.358 440.523 312.957 438.098 315.664 438.098C318.354 438.098 319.954 440.523 319.954 444.637C319.954 448.768 318.371 451.176 315.664 451.176ZM315.664 450.051C317.598 450.051 318.741 448.082 318.741 444.637C318.741 441.191 317.58 439.205 315.664 439.205C313.731 439.205 312.588 441.191 312.588 444.637C312.588 448.082 313.731 450.051 315.664 450.051ZM321.251 451V450.086L325.557 445.428C327.192 443.652 327.86 442.756 327.878 441.561C327.86 440.154 326.718 439.205 325.206 439.205C323.589 439.205 322.552 440.26 322.552 441.754H321.356C321.356 439.609 323.009 438.098 325.241 438.098C327.456 438.098 329.038 439.609 329.038 441.561C329.038 442.984 328.388 444.057 326.19 446.377L323.026 449.787V449.875H329.425V451H321.251ZM334.888 451.176C332.655 451.176 330.986 449.77 330.933 447.801H332.146C332.216 449.102 333.376 450.068 334.888 450.068C336.663 450.068 337.946 448.732 337.929 446.992C337.929 445.164 336.575 443.898 334.8 443.881C333.728 443.881 332.849 444.232 332.339 445.059H331.091L331.97 438.273H338.597V439.398H333.025L332.48 443.6H332.585C333.148 443.072 334.062 442.756 335.011 442.756C337.349 442.756 339.159 444.496 339.159 446.975C339.159 449.4 337.366 451.176 334.888 451.176ZM352.779 436.867V448.381H351.671V442.914H346.996V441.982H351.671V439.926H346.996V439.012H351.671V436.867H352.779ZM353.218 451.07V452.002H342.9V447.414H344.007V451.07H353.218ZM342.056 438.045V445.006H342.091C344.289 445.006 346.416 444.883 348.929 444.426L349.07 445.375C346.468 445.85 344.341 445.955 342.091 445.955H340.931V438.045H342.056ZM362.932 451.176C360.489 451.176 358.713 449.805 358.643 447.801H359.909C359.979 449.154 361.28 450.051 362.914 450.051C364.707 450.051 365.973 449.014 365.991 447.572C365.973 446.078 364.725 445.023 362.668 445.023H361.877V443.898H362.668C364.338 443.898 365.534 442.967 365.551 441.525C365.534 440.154 364.514 439.205 362.95 439.205C361.455 439.205 360.19 440.084 360.155 441.455H358.942C358.995 439.469 360.752 438.098 362.967 438.098C365.287 438.098 366.764 439.627 366.746 441.473C366.764 442.932 365.885 444.004 364.514 444.391V444.479C366.184 444.777 367.221 445.955 367.204 447.59C367.221 449.646 365.393 451.176 362.932 451.176ZM380.805 436.867V446.061H379.698V445.094H376.446V444.32H379.698V436.867H380.805ZM368.079 442.844C371.085 442.861 374.952 442.809 378.327 442.422L378.397 443.195C376.842 443.406 375.207 443.538 373.616 443.617V446.131H372.526V443.652C370.988 443.714 369.52 443.723 368.22 443.723L368.079 442.844ZM380.805 446.658V449.717H371.647V451.316H381.386V452.178H370.557V448.926H379.716V447.484H370.505V446.658H380.805ZM373.159 437.201C375.462 437.201 376.991 438.08 376.991 439.539C376.991 440.998 375.462 441.859 373.159 441.842C370.821 441.859 369.327 440.998 369.327 439.539C369.327 438.08 370.821 437.201 373.159 437.201ZM373.159 437.992C371.471 437.992 370.364 438.625 370.382 439.539C370.364 440.436 371.471 441.068 373.159 441.051C374.829 441.068 375.936 440.436 375.936 439.539C375.936 438.625 374.829 437.992 373.159 437.992ZM387.197 451L393.138 439.469V439.398H386.3V438.273H394.457V439.451L388.515 451H387.197ZM399.498 437.465C401.818 437.482 403.471 438.871 403.488 440.875C403.471 442.896 401.818 444.268 399.498 444.268C397.178 444.268 395.508 442.896 395.525 440.875C395.508 438.871 397.178 437.482 399.498 437.465ZM399.498 438.414C397.828 438.414 396.598 439.451 396.615 440.875C396.598 442.299 397.828 443.336 399.498 443.336C401.168 443.336 402.416 442.299 402.416 440.875C402.416 439.451 401.168 438.414 399.498 438.414ZM407.865 436.867V444.883H406.758V436.867H407.865ZM407.865 445.674V449.26H399.006V451.229H408.463V452.143H397.934V448.398H406.775V446.588H397.881V445.674H407.865ZM410.727 446.148C410.727 442.896 411.588 440.102 413.118 437.729H414.19C412.959 439.68 411.957 443.037 411.957 446.148C411.957 449.277 412.959 452.635 414.19 454.586H413.118C411.588 452.195 410.727 449.4 410.727 446.148ZM427.018 437.729V438.854C427.018 440.058 427.018 441.508 426.579 443.494H428.934V444.426H414.731V443.494H425.454C425.911 441.49 425.911 440.058 425.911 438.854V438.66H416.559V437.729H427.018ZM427.106 446.711V452.143H416.507V446.711H427.106ZM417.596 447.607V451.229H426.016V447.607H417.596ZM432.921 446.148C432.921 449.4 432.06 452.195 430.53 454.586H429.458C430.689 452.635 431.691 449.277 431.691 446.148C431.691 443.037 430.689 439.68 429.458 437.729H430.53C432.06 440.102 432.921 442.896 432.921 446.148ZM443.602 444.074V445.199H438.258V444.074H443.602ZM448.534 451V450.086L452.841 445.428C454.475 443.652 455.143 442.756 455.161 441.561C455.143 440.154 454.001 439.205 452.489 439.205C450.872 439.205 449.835 440.26 449.835 441.754H448.639C448.639 439.609 450.292 438.098 452.524 438.098C454.739 438.098 456.321 439.609 456.321 441.561C456.321 442.984 455.671 444.057 453.473 446.377L450.309 449.787V449.875H456.708V451H448.534ZM462.241 451.176C459.517 451.176 457.935 448.768 457.935 444.637C457.935 440.523 459.534 438.098 462.241 438.098C464.931 438.098 466.53 440.523 466.53 444.637C466.53 448.768 464.948 451.176 462.241 451.176ZM462.241 450.051C464.175 450.051 465.318 448.082 465.318 444.637C465.318 441.191 464.157 439.205 462.241 439.205C460.308 439.205 459.165 441.191 459.165 444.637C459.165 448.082 460.308 450.051 462.241 450.051ZM467.828 451V450.086L472.134 445.428C473.769 443.652 474.437 442.756 474.455 441.561C474.437 440.154 473.295 439.205 471.783 439.205C470.166 439.205 469.129 440.26 469.129 441.754H467.933C467.933 439.609 469.586 438.098 471.818 438.098C474.033 438.098 475.615 439.609 475.615 441.561C475.615 442.984 474.964 444.057 472.767 446.377L469.603 449.787V449.875H476.002V451H467.828ZM481.465 451.176C479.232 451.176 477.562 449.77 477.51 447.801H478.723C478.793 449.102 479.953 450.068 481.465 450.068C483.24 450.068 484.523 448.732 484.506 446.992C484.506 445.164 483.152 443.898 481.377 443.881C480.305 443.881 479.426 444.232 478.916 445.059H477.668L478.547 438.273H485.174V439.398H479.602L479.057 443.6H479.162C479.725 443.072 480.639 442.756 481.588 442.756C483.926 442.756 485.736 444.496 485.736 446.975C485.736 449.4 483.943 451.176 481.465 451.176ZM499.356 436.867V448.381H498.248V442.914H493.573V441.982H498.248V439.926H493.573V439.012H498.248V436.867H499.356ZM499.795 451.07V452.002H489.477V447.414H490.584V451.07H499.795ZM488.633 438.045V445.006H488.668C490.866 445.006 492.993 444.883 495.506 444.426L495.647 445.375C493.045 445.85 490.918 445.955 488.668 445.955H487.508V438.045H488.633ZM509.175 451.176C506.943 451.176 505.273 449.77 505.22 447.801H506.433C506.503 449.102 507.663 450.068 509.175 450.068C510.95 450.068 512.234 448.732 512.216 446.992C512.216 445.164 510.863 443.898 509.087 443.881C508.015 443.881 507.136 444.232 506.626 445.059H505.378L506.257 438.273H512.884V439.398H507.312L506.767 443.6H506.872C507.435 443.072 508.349 442.756 509.298 442.756C511.636 442.756 513.446 444.496 513.446 446.975C513.446 449.4 511.654 451.176 509.175 451.176ZM526.943 436.867V446.061H525.836V445.094H522.584V444.32H525.836V436.867H526.943ZM514.216 442.844C517.222 442.861 521.089 442.809 524.464 442.422L524.535 443.195C522.979 443.406 521.344 443.538 519.754 443.617V446.131H518.664V443.652C517.126 443.714 515.658 443.723 514.357 443.723L514.216 442.844ZM526.943 446.658V449.717H517.785V451.316H527.523V452.178H516.695V448.926H525.853V447.484H516.642V446.658H526.943ZM519.296 437.201C521.599 437.201 523.129 438.08 523.129 439.539C523.129 440.998 521.599 441.859 519.296 441.842C516.959 441.859 515.464 440.998 515.464 439.539C515.464 438.08 516.959 437.201 519.296 437.201ZM519.296 437.992C517.609 437.992 516.502 438.625 516.519 439.539C516.502 440.436 517.609 441.068 519.296 441.051C520.966 441.068 522.074 440.436 522.074 439.539C522.074 438.625 520.966 437.992 519.296 437.992ZM537.096 451.176C534.53 451.176 532.684 449.682 532.684 447.643C532.684 446.043 533.827 444.672 535.338 444.408V444.338C534.038 444.004 533.159 442.826 533.159 441.438C533.159 439.521 534.846 438.098 537.096 438.098C539.329 438.098 541.034 439.521 541.034 441.438C541.034 442.826 540.155 444.004 538.871 444.338V444.408C540.366 444.672 541.508 446.043 541.526 447.643C541.508 449.682 539.645 451.176 537.096 451.176ZM537.096 450.068C538.995 450.068 540.278 449.014 540.278 447.572C540.278 446.096 538.924 444.953 537.096 444.953C535.286 444.953 533.914 446.096 533.932 447.572C533.914 449.014 535.198 450.068 537.096 450.068ZM537.096 443.898C538.643 443.898 539.821 442.896 539.821 441.508C539.821 440.154 538.678 439.188 537.096 439.188C535.496 439.188 534.371 440.154 534.371 441.508C534.371 442.896 535.532 443.898 537.096 443.898ZM546.673 437.465C548.993 437.482 550.645 438.871 550.663 440.875C550.645 442.896 548.993 444.268 546.673 444.268C544.352 444.268 542.682 442.896 542.7 440.875C542.682 438.871 544.352 437.482 546.673 437.465ZM546.673 438.414C545.003 438.414 543.772 439.451 543.79 440.875C543.772 442.299 545.003 443.336 546.673 443.336C548.343 443.336 549.591 442.299 549.591 440.875C549.591 439.451 548.343 438.414 546.673 438.414ZM555.04 436.867V444.883H553.932V436.867H555.04ZM555.04 445.674V449.26H546.18V451.229H555.638V452.143H545.108V448.398H553.95V446.588H545.055V445.674H555.04ZM557.902 446.148C557.902 442.896 558.763 440.102 560.292 437.729H561.364C560.134 439.68 559.132 443.037 559.132 446.148C559.132 449.277 560.134 452.635 561.364 454.586H560.292C558.763 452.195 557.902 449.4 557.902 446.148ZM574.211 437.518V442.703H569.535V444.83H576.039V445.762H561.906V444.83H568.427V442.703H563.752V437.518H574.211ZM564.841 438.432V441.789H573.121V438.432H564.841ZM574.263 447.537V452.371H573.156V448.451H563.47V447.537H574.263ZM580.096 446.148C580.096 449.4 579.234 452.195 577.705 454.586H576.633C577.863 452.635 578.865 449.277 578.865 446.148C578.865 443.037 577.863 439.68 576.633 437.729H577.705C579.234 440.102 580.096 442.896 580.096 446.148Z" fill="white"/>
</g>
<defs>
<clipPath id="clip0_292_491">
<rect width="820" height="550" fill="white"/>
</clipPath>
</defs>
</svg>
