<svg width="359" height="187" viewBox="0 0 359 187" fill="none" xmlns="http://www.w3.org/2000/svg">
<path d="M88.9531 21V3.32422H91.1504V11.1855H100.501V3.32422H102.723V21H100.501V13.1143H91.1504V21H88.9531ZM120.296 12.1621C120.296 17.7529 117 21.2441 112.483 21.2441C107.942 21.2441 104.671 17.7529 104.671 12.1621C104.671 6.57129 107.942 3.08008 112.483 3.08008C117 3.08008 120.296 6.57129 120.296 12.1621ZM118.172 12.1621C118.172 7.59668 115.682 5.13086 112.483 5.13086C109.285 5.13086 106.795 7.59668 106.795 12.1621C106.795 16.7275 109.285 19.1934 112.483 19.1934C115.682 19.1934 118.172 16.7275 118.172 12.1621ZM136.307 3.32422V21H134.207L124.637 7.23047H124.466V21H122.269V3.32422H124.393L133.963 17.1182H134.134V3.32422H136.307ZM138.963 21V3.32422H149.681V5.27734H141.16V11.1855H149.119V13.1143H141.16V19.0469H149.803V21H138.963ZM150.384 3.32422H152.898L157.757 11.5273H157.977L162.835 3.32422H165.374L158.978 13.749V21H156.756V13.749L150.384 3.32422ZM171.517 21V3.32422H177.522C181.673 3.32422 183.553 5.79004 183.553 8.93945C183.553 12.0645 181.673 14.5791 177.547 14.5791H173.714V21H171.517ZM173.714 12.626H177.449C180.257 12.626 181.38 11.0391 181.38 8.93945C181.38 6.81543 180.257 5.27734 177.425 5.27734H173.714V12.626ZM185.379 21V3.32422H191.385C195.535 3.32422 197.415 5.61914 197.415 8.76855C197.415 11.1001 196.365 12.9434 194.119 13.7246L198.099 21H195.535L191.849 14.1152L191.409 14.1396H187.576V21H185.379ZM187.576 12.1377H191.312C194.119 12.1377 195.242 10.8682 195.242 8.76855C195.242 6.64453 194.119 5.27734 191.287 5.27734H187.576V12.1377ZM214.28 12.1621C214.28 17.7529 210.984 21.2441 206.468 21.2441C201.927 21.2441 198.655 17.7529 198.655 12.1621C198.655 6.57129 201.927 3.08008 206.468 3.08008C210.984 3.08008 214.28 6.57129 214.28 12.1621ZM212.156 12.1621C212.156 7.59668 209.666 5.13086 206.468 5.13086C203.27 5.13086 200.779 7.59668 200.779 12.1621C200.779 16.7275 203.27 19.1934 206.468 19.1934C209.666 19.1934 212.156 16.7275 212.156 12.1621ZM228.313 8.89062C227.801 6.44922 225.701 5.13086 223.382 5.13086C220.184 5.13086 217.693 7.59668 217.693 12.1621C217.693 16.7275 220.184 19.1934 223.382 19.1934C225.701 19.1934 227.776 17.875 228.313 15.458H230.511C229.876 19.0713 226.971 21.2441 223.382 21.2441C218.841 21.2441 215.569 17.7529 215.569 12.1621C215.569 6.57129 218.841 3.08008 223.382 3.08008C226.946 3.08008 229.852 5.22852 230.511 8.89062H228.313ZM232.337 21V3.32422H243.055V5.27734H234.534V11.1855H242.493V13.1143H234.534V19.0469H243.177V21H232.337ZM254.915 7.76758C254.72 6.03418 253.133 5.0332 251.009 5.0332C248.665 5.0332 247.127 6.25391 247.127 7.93848C247.127 9.79395 249.202 10.4775 250.545 10.8193L252.303 11.3076C254.207 11.7959 257.308 12.8945 257.308 16.1904C257.308 19.0713 254.988 21.3174 250.887 21.3174C247.078 21.3174 244.71 19.3398 244.515 16.4102H246.761C246.956 18.3877 248.787 19.3154 250.887 19.3154C253.328 19.3154 255.159 18.0703 255.159 16.1416C255.159 14.4326 253.523 13.7734 251.668 13.2363L249.495 12.6504C246.712 11.8447 245.003 10.4287 245.003 8.03613C245.003 5.05762 247.664 3.08008 251.082 3.08008C254.5 3.08008 256.966 5.08203 257.063 7.76758H254.915ZM268.851 7.76758C268.655 6.03418 267.068 5.0332 264.944 5.0332C262.601 5.0332 261.062 6.25391 261.062 7.93848C261.062 9.79395 263.138 10.4775 264.48 10.8193L266.238 11.3076C268.143 11.7959 271.243 12.8945 271.243 16.1904C271.243 19.0713 268.924 21.3174 264.822 21.3174C261.014 21.3174 258.646 19.3398 258.45 16.4102H260.696C260.892 18.3877 262.723 19.3154 264.822 19.3154C267.264 19.3154 269.095 18.0703 269.095 16.1416C269.095 14.4326 267.459 13.7734 265.604 13.2363L263.431 12.6504C260.647 11.8447 258.938 10.4287 258.938 8.03613C258.938 5.05762 261.6 3.08008 265.018 3.08008C268.436 3.08008 270.901 5.08203 270.999 7.76758H268.851Z" fill="white"/>
<path d="M110.977 85.2773V83.3242H124.307V85.2773H118.765V101H116.543V85.2773H110.977ZM130.434 83.3242V101H128.236V83.3242H130.434ZM147.4 88.8906C146.888 86.4492 144.788 85.1309 142.469 85.1309C139.271 85.1309 136.78 87.5967 136.78 92.1621C136.78 96.7275 139.271 99.1934 142.469 99.1934C144.788 99.1934 146.863 97.875 147.4 95.458H149.598C148.963 99.0713 146.058 101.244 142.469 101.244C137.928 101.244 134.656 97.7529 134.656 92.1621C134.656 86.5713 137.928 83.0801 142.469 83.0801C146.033 83.0801 148.938 85.2285 149.598 88.8906H147.4ZM154.431 101H152.136L158.605 83.3242H160.925L167.395 101H165.075L163.317 96.0195H156.213L154.431 101ZM156.872 94.0908H162.634L159.826 86.1807H159.68L156.872 94.0908ZM178.062 101V83.3242H180.259V99.0469H188.462V101H178.062ZM194.589 83.3242V101H192.392V83.3242H194.589ZM213.533 83.3242V101H211.434L201.863 87.2305H201.692V101H199.495V83.3242H201.619L211.189 97.1182H211.36V83.3242H213.533ZM223.933 101H218.439V83.3242H224.152C229.304 83.3242 232.355 86.6445 232.355 92.1377C232.355 97.6553 229.304 101 223.933 101ZM220.637 99.0469H223.786C228.132 99.0469 230.207 96.4346 230.207 92.1377C230.207 87.8652 228.132 85.2773 224.006 85.2773H220.637V99.0469ZM236.505 101H234.21L240.68 83.3242H242.999L249.469 101H247.149L245.392 96.0195H238.287L236.505 101ZM238.946 94.0908H244.708L241.9 86.1807H241.754L238.946 94.0908Z" fill="white"/>
<path d="M333.703 37.6797V36.2734H343.301V37.6797H339.311V49H337.711V37.6797H333.703ZM344.51 36.2734H346.409L350.698 46.75H350.856L355.145 36.2734H357.043V49H355.549V39.3848H355.426L351.471 49H350.065L346.11 39.3848H346.004V49H344.51V36.2734Z" fill="white"/>
<path d="M10.0195 68H0.966797L11.5576 36.1836H22.9395L33.4863 68H24.4775L22.5879 61.7598H11.9092L10.0195 68ZM13.8428 55.4316H20.6543L17.3584 44.7529H17.0947L13.8428 55.4316ZM61.7783 36.1836V68H54.791L42.9697 50.8174H42.75V68H34.4004V36.1836H41.5195L53.165 53.2783H53.4287V36.1836H61.7783ZM71.3848 68V36.1836H84.9199C92.0391 36.1836 96.6973 40.666 96.6973 47.3457C96.6973 54.1572 91.9072 58.4199 84.6562 58.4199H79.7344V68H71.3848ZM79.7344 51.916H82.9863C86.1504 51.916 87.9521 50.1582 87.9521 47.3457C87.9521 44.5771 86.1504 42.8633 82.9863 42.8633H79.7344V51.916ZM101.654 68H92.6016L103.192 36.1836H114.574L125.121 68H116.112L114.223 61.7598H103.544L101.654 68ZM105.478 55.4316H112.289L108.993 44.7529H108.729L105.478 55.4316ZM126.035 36.1836H136.45L144.009 54.6846H144.404L151.963 36.1836H162.378V68H154.204V49.2793H153.94L146.689 67.7803H141.68L134.473 49.1475H134.209V68H126.035V36.1836ZM192.946 48.0049C192.683 45.0166 190.661 43.0391 187.277 43.0391C182.883 43.0391 180.378 46.4229 180.378 52.0918C180.378 58.0684 182.927 61.1445 187.233 61.1445C190.441 61.1445 192.507 59.3867 192.946 56.5742L201.428 56.6621C200.988 62.1113 196.198 68.4395 187.058 68.4395C178.312 68.4395 171.765 62.6387 171.765 52.0918C171.765 41.501 178.488 35.7441 187.058 35.7441C194.968 35.7441 200.725 40.1826 201.428 48.0049H192.946ZM233.807 52.0918C233.807 62.6826 227.039 68.4395 218.426 68.4395C209.725 68.4395 203.001 62.6387 203.001 52.0918C203.001 41.501 209.725 35.7441 218.426 35.7441C227.039 35.7441 233.807 41.501 233.807 52.0918ZM225.193 52.0918C225.193 46.2471 222.776 43.0391 218.426 43.0391C214.031 43.0391 211.614 46.2471 211.614 52.0918C211.614 57.9365 214.031 61.1445 218.426 61.1445C222.776 61.1445 225.193 57.9365 225.193 52.0918ZM235.644 68V36.1836H257.836V42.9512H243.993V48.708H256.43V55.4756H243.993V68H235.644ZM258.926 68V36.1836H281.118V42.9512H267.275V48.708H279.712V55.4756H267.275V68H258.926ZM282.208 68V36.1836H304.928V42.9512H290.558V48.708H303.741V55.4756H290.558V61.2324H304.884V68H282.208ZM307.072 68V36.1836H329.792V42.9512H315.422V48.708H328.605V55.4756H315.422V61.2324H329.748V68H307.072Z" fill="white"/>
<path d="M10.0195 68H0.966797L11.5576 36.1836H22.9395L33.4863 68H24.4775L22.5879 61.7598H11.9092L10.0195 68ZM13.8428 55.4316H20.6543L17.3584 44.7529H17.0947L13.8428 55.4316ZM61.7783 36.1836V68H54.791L42.9697 50.8174H42.75V68H34.4004V36.1836H41.5195L53.165 53.2783H53.4287V36.1836H61.7783ZM71.3848 68V36.1836H84.9199C92.0391 36.1836 96.6973 40.666 96.6973 47.3457C96.6973 54.1572 91.9072 58.4199 84.6562 58.4199H79.7344V68H71.3848ZM79.7344 51.916H82.9863C86.1504 51.916 87.9521 50.1582 87.9521 47.3457C87.9521 44.5771 86.1504 42.8633 82.9863 42.8633H79.7344V51.916ZM101.654 68H92.6016L103.192 36.1836H114.574L125.121 68H116.112L114.223 61.7598H103.544L101.654 68ZM105.478 55.4316H112.289L108.993 44.7529H108.729L105.478 55.4316ZM126.035 36.1836H136.45L144.009 54.6846H144.404L151.963 36.1836H162.378V68H154.204V49.2793H153.94L146.689 67.7803H141.68L134.473 49.1475H134.209V68H126.035V36.1836ZM192.946 48.0049C192.683 45.0166 190.661 43.0391 187.277 43.0391C182.883 43.0391 180.378 46.4229 180.378 52.0918C180.378 58.0684 182.927 61.1445 187.233 61.1445C190.441 61.1445 192.507 59.3867 192.946 56.5742L201.428 56.6621C200.988 62.1113 196.198 68.4395 187.058 68.4395C178.312 68.4395 171.765 62.6387 171.765 52.0918C171.765 41.501 178.488 35.7441 187.058 35.7441C194.968 35.7441 200.725 40.1826 201.428 48.0049H192.946ZM233.807 52.0918C233.807 62.6826 227.039 68.4395 218.426 68.4395C209.725 68.4395 203.001 62.6387 203.001 52.0918C203.001 41.501 209.725 35.7441 218.426 35.7441C227.039 35.7441 233.807 41.501 233.807 52.0918ZM225.193 52.0918C225.193 46.2471 222.776 43.0391 218.426 43.0391C214.031 43.0391 211.614 46.2471 211.614 52.0918C211.614 57.9365 214.031 61.1445 218.426 61.1445C222.776 61.1445 225.193 57.9365 225.193 52.0918ZM235.644 68V36.1836H257.836V42.9512H243.993V48.708H256.43V55.4756H243.993V68H235.644ZM258.926 68V36.1836H281.118V42.9512H267.275V48.708H279.712V55.4756H267.275V68H258.926ZM282.208 68V36.1836H304.928V42.9512H290.558V48.708H303.741V55.4756H290.558V61.2324H304.884V68H282.208ZM307.072 68V36.1836H329.792V42.9512H315.422V48.708H328.605V55.4756H315.422V61.2324H329.748V68H307.072Z" fill="white"/>
<path d="M38.9801 135.512V140.372H41.7691V141.459H38.9801V146.401H37.6881V135.512H38.9801ZM33.2174 146.771C36.8883 146.771 39.1236 148.021 39.1236 150.154C39.1236 152.308 36.8883 153.538 33.2174 153.538C29.526 153.538 27.2701 152.308 27.2906 150.154C27.2701 148.021 29.526 146.771 33.2174 146.771ZM33.2174 147.857C30.3668 147.837 28.5416 148.739 28.5416 150.154C28.5416 151.569 30.3668 152.472 33.2174 152.472C36.0475 152.472 37.8932 151.569 37.8932 150.154C37.8932 148.739 36.0475 147.837 33.2174 147.857ZM27.1471 143.674C30.8385 143.674 33.0123 143.571 35.5553 143.059L35.7193 144.146C33.0738 144.658 30.8795 144.761 27.1471 144.761H25.773V136.947H33.7916V138.034H27.0445V143.674H27.1471ZM56.8588 135.512V148.801H55.5668V135.512H56.8588ZM57.4535 152.082V153.169H45.3129V147.591H46.6049V152.082H57.4535ZM48.225 138.362C48.2045 141.254 50.2963 143.776 52.9008 144.761L52.2035 145.807C50.1117 144.956 48.3788 143.233 47.5893 141.008C46.8202 143.366 45.0873 145.243 42.9955 146.135L42.2572 145.109C44.8822 144.043 46.9125 141.356 46.933 138.362V136.517H48.225V138.362ZM65.0168 136.865C67.8674 136.865 69.8361 138.567 69.8566 141.049C69.8361 143.551 67.8674 145.232 65.0168 145.232C62.1867 145.232 60.1769 143.551 60.1769 141.049C60.1769 138.567 62.1867 136.865 65.0168 136.865ZM65.0168 138.014C62.9455 138.014 61.4279 139.285 61.4484 141.049C61.4279 142.812 62.9455 144.104 65.0168 144.084C67.0881 144.104 68.5852 142.812 68.5852 141.049C68.5852 139.285 67.0881 138.014 65.0168 138.014ZM73.8146 135.512V153.62H72.5227V135.512H73.8146ZM59.1926 148.391C62.5764 148.411 67.2111 148.391 71.2717 147.775L71.3742 148.76C67.1906 149.539 62.6789 149.539 59.3977 149.539L59.1926 148.391ZM94.5809 137.419V139.244C94.5603 141.459 94.5603 143.92 93.9246 147.488L92.6121 147.324C93.2684 143.92 93.2684 141.418 93.2889 139.244V138.506H81.9891V137.419H94.5809ZM96.6932 149.806V150.913H80.2049V149.806H86.8494V143.264H88.1209V149.806H96.6932ZM113.875 150.093V151.2H97.3043V150.093H101.529V145.068C99.9395 144.269 98.9859 142.966 98.9859 141.336C98.9859 138.547 101.693 136.742 105.528 136.722C109.383 136.742 112.09 138.547 112.09 141.336C112.09 142.946 111.157 144.238 109.609 145.027V150.093H113.875ZM105.528 137.809C102.452 137.788 100.216 139.224 100.216 141.336C100.216 143.407 102.452 144.863 105.528 144.843C108.604 144.863 110.86 143.407 110.86 141.336C110.86 139.224 108.604 137.788 105.528 137.809ZM102.8 150.093H108.317V145.52C107.486 145.766 106.543 145.889 105.528 145.889C104.533 145.889 103.61 145.766 102.8 145.54V150.093ZM128.493 135.512V141.623H131.282V142.73H128.493V149.088H127.201V135.512H128.493ZM125.252 137.829V138.916H114.465V137.829H119.223V135.532H120.495V137.829H125.252ZM119.859 140.023C122.422 140.023 124.165 141.336 124.165 143.366C124.165 145.396 122.422 146.688 119.859 146.688C117.254 146.688 115.532 145.396 115.532 143.366C115.532 141.336 117.254 140.023 119.859 140.023ZM119.859 141.069C117.993 141.069 116.742 141.992 116.762 143.366C116.742 144.72 117.993 145.643 119.859 145.622C121.704 145.643 122.935 144.72 122.955 143.366C122.935 141.992 121.704 141.069 119.859 141.069ZM129.374 152.082V153.169H117.295V147.98H118.567V152.082H129.374ZM143.742 136.783C147.577 136.783 150.305 138.629 150.305 141.438C150.305 144.104 147.885 145.858 144.398 146.053V150.093H152.089V151.2H135.519V150.093H143.106V146.053C139.63 145.868 137.2 144.104 137.2 141.438C137.2 138.629 139.928 136.783 143.742 136.783ZM143.742 137.85C140.687 137.85 138.431 139.306 138.431 141.438C138.431 143.571 140.687 145.027 143.742 145.027C146.798 145.027 149.074 143.571 149.074 141.438C149.074 139.306 146.798 137.85 143.742 137.85ZM168.122 137.645V138.731H153.5V137.645H160.206V135.368H161.498V137.645H168.122ZM169.188 147.222V148.329H161.498V153.62H160.206V148.329H152.618V147.222H169.188ZM160.842 139.88C164.471 139.88 166.645 140.946 166.645 142.874C166.645 144.761 164.471 145.848 160.842 145.848C157.212 145.848 155.038 144.761 155.058 142.874C155.038 140.946 157.212 139.88 160.842 139.88ZM160.842 140.885C158.073 140.885 156.371 141.644 156.391 142.874C156.371 144.084 158.073 144.843 160.842 144.822C163.61 144.843 165.292 144.084 165.312 142.874C165.292 141.644 163.61 140.885 160.842 140.885ZM185.16 135.512V153.6H183.909V135.512H185.16ZM181.571 135.922V152.656H180.32V143.776H177.715C177.562 147.283 176.054 149.498 173.819 149.498C171.481 149.498 169.963 147.078 169.963 143.305C169.963 139.511 171.481 137.111 173.819 137.111C176.024 137.111 177.521 139.244 177.695 142.669H180.32V135.922H181.571ZM173.819 138.321C172.219 138.321 171.173 140.311 171.194 143.305C171.173 146.278 172.219 148.288 173.819 148.288C175.439 148.288 176.485 146.278 176.485 143.305C176.485 140.311 175.439 138.321 173.819 138.321ZM195.652 136.947C198.123 136.947 199.886 139.111 200.102 142.546H204.47V135.512H205.741V153.62H204.47V143.612H200.122C199.968 147.191 198.184 149.457 195.652 149.457C193.006 149.457 191.16 147.017 191.181 143.202C191.16 139.388 193.006 136.947 195.652 136.947ZM195.652 138.096C193.724 138.096 192.411 140.188 192.411 143.202C192.411 146.237 193.724 148.309 195.652 148.309C197.559 148.309 198.892 146.237 198.892 143.202C198.892 140.188 197.559 138.096 195.652 138.096ZM216.155 135.737C220.134 135.737 222.492 136.865 222.492 138.896C222.492 140.926 220.134 142.054 216.155 142.054C212.177 142.054 209.818 140.926 209.818 138.896C209.818 136.865 212.177 135.737 216.155 135.737ZM216.155 136.763C213.059 136.763 211.151 137.562 211.151 138.896C211.151 140.249 213.059 141.028 216.155 141.028C219.272 141.028 221.18 140.249 221.18 138.896C221.18 137.562 219.272 136.763 216.155 136.763ZM224.42 143.366V144.433H216.812V146.299H222.246V150.175H211.274V152.308H222.82V153.374H210.023V149.17H220.995V147.324H209.962V146.299H215.52V144.433H207.932V143.366H224.42ZM239.899 135.512V153.62H238.628V135.512H239.899ZM227.595 148.083C230.568 148.083 233.337 147.96 236.721 147.406L236.844 148.514C233.419 149.047 230.65 149.19 227.595 149.19H226.097V142.423H233.132V138.342H226.077V137.234H234.424V143.51H227.43V148.083H227.595ZM256.732 141.151V142.238H244.427V136.168H245.699V141.151H256.732ZM258.66 144.863V145.93H242.11V144.863H258.66ZM256.835 152.041V153.148H244.345V147.898H245.617V152.041H256.835ZM272.412 137.439C272.412 142.546 270.423 147.365 264.066 150.523L263.327 149.519C266.783 147.806 268.926 145.581 270.074 143.018L263.635 143.612L263.348 142.464L270.485 141.972C270.854 140.885 271.059 139.726 271.141 138.526H264.271V137.439H272.412ZM278.134 135.512V153.6H276.862V143.981H272.351V142.874H276.862V135.512H278.134ZM295.213 135.512V153.6H293.941V135.512H295.213ZM291.152 137.562V138.649H288.958V147.632C290.055 147.56 291.142 147.468 292.178 147.345L292.26 148.329C288.281 148.924 283.852 148.985 280.488 149.006L280.324 147.857L282.99 147.837V138.649H280.796V137.562H291.152ZM284.241 147.816C285.359 147.796 286.528 147.755 287.687 147.693V138.649H284.241V147.816ZM315.548 135.512V141.623H318.337V142.73H315.548V149.088H314.256V135.512H315.548ZM312.308 137.829V138.916H301.521V137.829H306.279V135.532H307.55V137.829H312.308ZM306.915 140.023C309.478 140.023 311.221 141.336 311.221 143.366C311.221 145.396 309.478 146.688 306.915 146.688C304.31 146.688 302.587 145.396 302.587 143.366C302.587 141.336 304.31 140.023 306.915 140.023ZM306.915 141.069C305.048 141.069 303.797 141.992 303.818 143.366C303.797 144.72 305.048 145.643 306.915 145.622C308.76 145.643 309.991 144.72 310.011 143.366C309.991 141.992 308.76 141.069 306.915 141.069ZM316.43 152.082V153.169H304.351V147.98H305.623V152.082H316.43ZM324.506 139.388C324.506 141.931 326.475 144.146 329.059 145.068L328.341 146.053C326.301 145.294 324.65 143.766 323.891 141.787C323.122 143.961 321.369 145.684 319.256 146.504L318.579 145.479C321.184 144.494 323.235 142.074 323.255 139.388V138.239H319.01V137.173H328.71V138.239H324.506V139.388ZM332.648 135.491V141.131H335.437V142.238H332.648V148.739H331.356V135.491H332.648ZM333.53 152.082V153.169H321.451V147.591H322.722V152.082H333.53ZM36.2177 180V165.152H41.078C44.2773 165.152 45.8974 167.019 45.8974 169.623C45.8974 171.612 44.954 173.14 43.1083 173.745L46.5126 180H44.831L41.6112 174.032L41.0985 174.053H37.6737V180H36.2177ZM37.6737 172.72H41.037C43.3544 172.72 44.4618 171.53 44.4618 169.623C44.4618 167.716 43.3544 166.465 41.0165 166.465H37.6737V172.72ZM51.9226 180.226C48.7849 180.226 46.8161 177.888 46.8161 174.504C46.8161 171.12 48.8259 168.7 51.7175 168.7C54.1374 168.7 56.4753 170.423 56.4753 174.196V174.853H48.2107C48.2722 177.365 49.6975 178.975 51.9226 178.975C53.4607 178.975 54.363 178.175 54.7526 177.478H56.2497C55.7575 179.016 54.1784 180.226 51.9226 180.226ZM48.2312 173.643H55.0398C55.0398 171.551 53.6862 169.972 51.738 169.972C49.718 169.972 48.344 171.633 48.2312 173.643ZM62.2544 180.226C59.2192 180.226 57.2915 177.806 57.2915 174.483C57.2915 171.12 59.2808 168.7 62.2339 168.7C64.4898 168.7 66.2329 170.115 66.52 172.187H65.1255C64.8589 170.977 63.813 169.972 62.2544 169.972C60.1421 169.972 58.686 171.776 58.686 174.442C58.686 177.108 60.1011 178.975 62.2544 178.975C63.6899 178.975 64.8179 178.113 65.1255 176.739H66.5405C66.2329 178.749 64.5923 180.226 62.2544 180.226ZM72.2171 180.226C69.305 180.226 67.2747 177.888 67.2747 174.483C67.2747 171.059 69.305 168.7 72.2171 168.7C75.1292 168.7 77.139 171.059 77.139 174.483C77.139 177.888 75.1292 180.226 72.2171 180.226ZM72.2171 178.975C74.4935 178.975 75.7444 176.924 75.7444 174.483C75.7444 172.043 74.4935 169.972 72.2171 169.972C69.9202 169.972 68.6692 172.043 68.6692 174.483C68.6692 176.924 69.9202 178.975 72.2171 178.975ZM78.5294 180V168.864H79.8829V170.587H80.006C80.4571 169.418 81.544 168.721 83.0001 168.721C84.5177 168.721 85.5226 169.479 86.0148 170.73H86.0968C86.6095 169.5 87.7784 168.721 89.3985 168.721C91.4698 168.721 92.7823 170.033 92.7823 172.535V180H91.3673V172.556C91.3673 170.833 90.4034 169.992 88.9679 169.992C87.3067 169.992 86.3634 171.12 86.3634 172.699V180H84.9483V172.433C84.9483 170.977 84.0665 169.992 82.5899 169.992C81.0724 169.992 79.9444 171.182 79.9444 172.904V180H78.5294ZM94.7265 180V168.864H96.08V170.587H96.203C96.6542 169.418 97.7411 168.721 99.1972 168.721C100.715 168.721 101.72 169.479 102.212 170.73H102.294C102.807 169.5 103.975 168.721 105.596 168.721C107.667 168.721 108.979 170.033 108.979 172.535V180H107.564V172.556C107.564 170.833 106.6 169.992 105.165 169.992C103.504 169.992 102.56 171.12 102.56 172.699V180H101.145V172.433C101.145 170.977 100.264 169.992 98.787 169.992C97.2694 169.992 96.1415 171.182 96.1415 172.904V180H94.7265ZM115.476 180.226C112.339 180.226 110.37 177.888 110.37 174.504C110.37 171.12 112.38 168.7 115.271 168.7C117.691 168.7 120.029 170.423 120.029 174.196V174.853H111.764C111.826 177.365 113.251 178.975 115.476 178.975C117.014 178.975 117.917 178.175 118.306 177.478H119.803C119.311 179.016 117.732 180.226 115.476 180.226ZM111.785 173.643H118.593C118.593 171.551 117.24 169.972 115.292 169.972C113.272 169.972 111.898 171.633 111.785 173.643ZM122.814 173.089V180H121.399V168.864H122.752V170.628H122.875C123.409 169.479 124.516 168.721 126.157 168.721C128.413 168.721 129.93 170.156 129.93 172.802V180H128.536V172.904C128.536 171.1 127.469 169.992 125.788 169.992C124.065 169.992 122.814 171.161 122.814 173.089ZM135.914 180.226C133.187 180.226 131.321 177.929 131.321 174.463C131.321 170.997 133.187 168.7 135.935 168.7C137.986 168.7 138.888 169.992 139.319 170.936H139.421V165.152H140.836V180H139.462V177.99H139.319C138.867 178.954 137.945 180.226 135.914 180.226ZM136.099 178.975C138.232 178.975 139.462 177.088 139.462 174.442C139.462 171.817 138.252 169.972 136.099 169.972C133.905 169.972 132.736 171.92 132.736 174.442C132.736 176.985 133.925 178.975 136.099 178.975ZM147.6 180.226C144.462 180.226 142.493 177.888 142.493 174.504C142.493 171.12 144.503 168.7 147.395 168.7C149.815 168.7 152.152 170.423 152.152 174.196V174.853H143.888C143.949 177.365 145.375 178.975 147.6 178.975C149.138 178.975 150.04 178.175 150.43 177.478H151.927C151.435 179.016 149.856 180.226 147.6 180.226ZM143.908 173.643H150.717C150.717 171.551 149.363 169.972 147.415 169.972C145.395 169.972 144.021 171.633 143.908 173.643ZM157.562 180.226C154.835 180.226 152.969 177.929 152.969 174.463C152.969 170.997 154.835 168.7 157.583 168.7C159.634 168.7 160.536 169.992 160.967 170.936H161.069V165.152H162.484V180H161.11V177.99H160.967C160.516 178.954 159.593 180.226 157.562 180.226ZM157.747 178.975C159.88 178.975 161.11 177.088 161.11 174.442C161.11 171.817 159.9 169.972 157.747 169.972C155.553 169.972 154.384 171.92 154.384 174.442C154.384 176.985 155.573 178.975 157.747 178.975ZM168.977 180V165.152H174.042C176.975 165.152 178.431 166.813 178.431 169.049C178.431 170.895 177.385 171.92 176.052 172.269V172.392C177.508 172.494 179.026 173.827 179.026 176.104C179.026 178.339 177.549 180 174.309 180H168.977ZM174.289 178.688C176.565 178.688 177.611 177.58 177.611 176.083C177.611 174.422 176.319 173.089 174.35 173.089H170.433V178.688H174.289ZM174.125 171.817C175.847 171.817 177.037 170.669 177.037 169.049C177.037 167.531 176.032 166.465 174.022 166.465H170.433V171.817H174.125ZM180.56 180V168.864H181.913V170.587H182.016C182.467 169.459 183.657 168.7 185.031 168.7C185.256 168.7 185.584 168.7 185.748 168.721V170.136C185.625 170.115 185.297 170.054 184.928 170.054C183.226 170.054 181.975 171.223 181.975 172.843V180H180.56ZM190.707 180.226C187.569 180.226 185.601 177.888 185.601 174.504C185.601 171.12 187.61 168.7 190.502 168.7C192.922 168.7 195.26 170.423 195.26 174.196V174.853H186.995C187.057 177.365 188.482 178.975 190.707 178.975C192.245 178.975 193.148 178.175 193.537 177.478H195.034C194.542 179.016 192.963 180.226 190.707 180.226ZM187.016 173.643H193.824C193.824 171.551 192.471 169.972 190.523 169.972C188.503 169.972 187.129 171.633 187.016 173.643ZM199.111 180L195.748 168.864H197.225L199.809 177.908H199.911L202.475 168.864H203.951L206.515 177.888H206.597L209.181 168.864H210.657L207.294 180H205.879L203.274 170.997H203.131L200.547 180H199.111ZM215.903 180.226C212.765 180.226 210.797 177.888 210.797 174.504C210.797 171.12 212.806 168.7 215.698 168.7C218.118 168.7 220.456 170.423 220.456 174.196V174.853H212.191C212.253 177.365 213.678 178.975 215.903 178.975C217.441 178.975 218.343 178.175 218.733 177.478H220.23C219.738 179.016 218.159 180.226 215.903 180.226ZM212.212 173.643H219.02C219.02 171.551 217.667 169.972 215.718 169.972C213.698 169.972 212.324 171.633 212.212 173.643ZM221.826 180V168.864H223.179V170.587H223.282C223.733 169.459 224.922 168.7 226.296 168.7C226.522 168.7 226.85 168.7 227.014 168.721V170.136C226.891 170.115 226.563 170.054 226.194 170.054C224.492 170.054 223.241 171.223 223.241 172.843V180H221.826ZM237.896 172.986V174.299H231.661V172.986H237.896ZM243.958 180V165.152H248.818C252.017 165.152 253.637 167.142 253.637 169.767C253.637 172.371 252.017 174.381 248.839 174.381H245.414V180H243.958ZM245.414 173.068H248.777C251.094 173.068 252.202 171.674 252.202 169.767C252.202 167.839 251.094 166.465 248.757 166.465H245.414V173.068ZM259.375 180.226C256.463 180.226 254.433 177.888 254.433 174.483C254.433 171.059 256.463 168.7 259.375 168.7C262.288 168.7 264.297 171.059 264.297 174.483C264.297 177.888 262.288 180.226 259.375 180.226ZM259.375 178.975C261.652 178.975 262.903 176.924 262.903 174.483C262.903 172.043 261.652 169.972 259.375 169.972C257.079 169.972 255.828 172.043 255.828 174.483C255.828 176.924 257.079 178.975 259.375 178.975ZM272.763 175.693V168.864H274.158V180H272.763V178.154H272.66C272.148 179.282 270.999 180.144 269.359 180.144C267.226 180.144 265.688 178.708 265.688 176.062V168.864H267.103V175.96C267.103 177.662 268.19 178.79 269.769 178.79C271.225 178.79 272.763 177.724 272.763 175.693ZM276.102 180V168.864H277.455V170.587H277.558C278.009 169.459 279.198 168.7 280.572 168.7C280.798 168.7 281.126 168.7 281.29 168.721V170.136C281.167 170.115 280.839 170.054 280.47 170.054C278.768 170.054 277.517 171.223 277.517 172.843V180H276.102ZM298.591 172.576C298.591 177.231 295.904 180.205 292.151 180.205C288.378 180.205 285.691 177.231 285.691 172.576C285.691 167.921 288.378 164.947 292.151 164.947C295.904 164.947 298.591 167.921 298.591 172.576ZM297.175 172.576C297.175 168.618 295.022 166.321 292.151 166.321C289.28 166.321 287.127 168.618 287.127 172.576C287.127 176.514 289.259 178.831 292.151 178.831C295.022 178.831 297.175 176.534 297.175 172.576ZM308.902 168.864L304.841 180H303.344L299.284 168.864H300.801L304.042 178.175H304.144L307.405 168.864H308.902ZM314.107 180.226C310.969 180.226 309 177.888 309 174.504C309 171.12 311.01 168.7 313.902 168.7C316.322 168.7 318.659 170.423 318.659 174.196V174.853H310.395C310.456 177.365 311.882 178.975 314.107 178.975C315.645 178.975 316.547 178.175 316.937 177.478H318.434C317.942 179.016 316.363 180.226 314.107 180.226ZM310.415 173.643H317.224C317.224 171.551 315.87 169.972 313.922 169.972C311.902 169.972 310.528 171.633 310.415 173.643ZM320.029 180V168.864H321.383V170.587H321.485C321.937 169.459 323.126 168.7 324.5 168.7C324.726 168.7 325.054 168.7 325.218 168.721V170.136C325.095 170.115 324.767 170.054 324.398 170.054C322.695 170.054 321.444 171.223 321.444 172.843V180H320.029Z" fill="white"/>
</svg>
