<svg width="218" height="304" viewBox="0 0 218 304" fill="none" xmlns="http://www.w3.org/2000/svg">
<path d="M108.575 145.15C68.5565 145.15 36 112.593 36 72.575C36 32.5579 68.5565 0 108.575 0C148.593 0 181.15 32.5565 181.15 72.575C181.15 112.593 148.593 145.15 108.575 145.15ZM108.575 3.39612C70.4298 3.39612 39.3961 34.4298 39.3961 72.575C39.3961 110.72 70.4298 141.754 108.575 141.754C146.72 141.754 177.754 110.72 177.754 72.575C177.754 34.4298 146.72 3.39612 108.575 3.39612Z" fill="white"/>
<path d="M66.8423 57.041C73.1468 40.112 89.4496 28.0517 108.575 28.0517C127.701 28.0517 144.003 40.112 150.307 57.041H172.869C165.878 28.0069 139.754 6.42798 108.575 6.42798C77.3961 6.42798 51.2718 28.0069 44.2812 57.041H66.8423Z" fill="white"/>
<path d="M150.307 88.1086C144.003 105.038 127.699 117.098 108.575 117.098C89.4508 117.098 73.1467 105.038 66.8422 88.1086H44.2798C51.2703 117.143 77.3946 138.722 108.574 138.722C139.753 138.722 165.877 117.143 172.868 88.1086H150.307Z" fill="white"/>
<path d="M128.23 49.2031C126.305 45.932 123.927 42.9516 121.249 40.5594C114.014 34.0959 103.068 34.1258 95.8476 40.6042C93.1918 42.9883 90.8308 45.9524 88.9181 49.2018C85.1104 55.6707 83.2412 64.2629 83.2412 73.3849C83.2412 82.5068 85.0941 91.1085 88.9018 97.5774C89.6232 98.8027 90.4084 99.9506 91.2506 101.017C95.4292 106.314 101.8 109.412 108.546 109.42C115.292 109.43 121.673 106.352 125.862 101.063C126.718 99.9846 127.516 98.8204 128.248 97.5761C132.056 91.1072 133.909 82.5068 133.909 73.3835C133.907 64.2642 132.039 55.6721 128.23 49.2031Z" fill="white"/>
<path d="M115.483 38.8218C123.884 43.1865 129.094 51.8235 131.172 60.8368C133.563 71.2044 133.146 83.0419 128.905 92.8907C127.159 96.9443 124.521 100.806 120.988 103.514C127.822 97.7675 130.547 88.2543 131.387 79.7015C132.411 69.2754 131.178 57.7449 125.452 48.7425C122.909 44.7419 119.597 41.214 115.483 38.8218Z" fill="#826B69"/>
<path d="M110.918 42.135C110.918 42.135 110.861 42.4013 110.755 42.9012C110.66 43.4024 110.531 44.1401 110.438 45.0883C110.215 46.9819 110.243 49.7015 110.36 52.9659C110.44 54.5933 110.416 56.3919 110.548 58.2272C110.694 60.0719 111.068 61.9941 111.69 63.9041C112.307 65.8317 113.26 67.6493 114.389 69.4887C115.475 71.3457 116.555 73.2842 117.292 75.3938C118.024 77.5008 118.336 79.7748 118.162 81.9714C117.988 84.145 117.556 86.2478 117.044 88.2379C116.536 90.2335 115.907 92.115 115.314 93.8945C114.73 95.6673 114.156 97.3667 113.479 98.8719C112.155 101.896 110.538 104.154 109.291 105.598C108.669 106.324 108.136 106.857 107.77 107.211C107.396 107.561 107.196 107.747 107.196 107.747C107.196 107.747 107.386 107.551 107.741 107.184C108.09 106.811 108.591 106.255 109.174 105.502C110.359 104.014 111.782 101.68 113.015 98.6735C113.638 97.1738 114.153 95.4975 114.691 93.6948C115.231 91.903 115.791 90.0134 116.288 88.045C116.776 86.0753 117.177 84.0186 117.326 81.9089C117.47 79.821 117.156 77.6923 116.445 75.6845C115.761 73.6645 114.728 71.7586 113.667 69.9057C112.566 68.08 111.561 66.1238 110.951 64.1418C110.308 62.1626 109.996 60.1616 109.897 58.2693C109.814 56.362 109.891 54.6137 109.856 52.9727C109.819 49.7002 109.988 46.9561 110.288 45.0665C110.429 44.1197 110.595 43.3861 110.716 42.8889C110.849 42.3985 110.918 42.135 110.918 42.135Z" fill="#826B69"/>
<path d="M109.259 40.5906C108.025 45.2446 108.529 49.3756 108.311 54.444C108.094 59.5395 108.734 64.0686 111.047 68.5719C112.389 71.1842 114.177 73.6484 115.108 76.4658C116.815 81.6374 114.502 87.6037 113.067 92.7834C111.645 97.9224 109.714 102.595 105.806 106.303C106.951 101.991 108.136 98.1792 108.591 93.4341C109.047 88.6728 107.841 84.1437 106.259 79.779C104.809 75.7811 101.967 72.328 100.928 68.1467C99.628 62.9126 101.417 57.3579 103.051 52.2365C104.487 47.7442 105.798 43.8699 109.259 40.5906Z" fill="#826B69"/>
<path d="M62.3607 44.2855C62.4938 44.0125 62.8267 44.0057 63.3565 44.2652C63.889 44.5246 64.3005 44.8873 64.594 45.3533C64.8901 45.8192 65.0626 46.2906 65.1156 46.7728C65.1672 47.2537 65.1523 47.7591 65.0722 48.2902C64.8385 50.0847 64.1226 51.5179 62.9245 52.5924C62.3172 53.1331 61.7345 53.4904 61.1761 53.6629C60.6165 53.8354 60.0187 53.9006 59.383 53.8558C58.4239 53.7974 57.5083 53.5529 56.6321 53.1249C55.7573 52.697 54.9939 52.1876 54.335 51.598C53.6775 51.0085 53.1111 50.3211 52.637 49.5359C52.1642 48.7521 51.9183 47.846 51.898 46.819C51.8789 45.7934 52.1343 44.7406 52.6628 43.662C52.8869 43.2015 53.1803 42.7505 53.5403 42.3117C53.9003 41.8716 54.2426 41.536 54.57 41.3024C54.896 41.0714 55.2954 40.9193 55.7709 40.8473C56.245 40.7767 56.7191 40.8568 57.1973 41.0905C57.704 41.3404 58.087 41.7235 58.341 42.2411C58.4592 42.4774 58.5163 42.7899 58.5095 43.1784C58.5041 43.5683 58.3954 43.9799 58.1862 44.4119C57.8615 45.0721 57.4051 45.4293 56.8169 45.481C56.5846 45.5095 56.3632 45.4728 56.1526 45.3696C55.942 45.2663 55.8646 45.1142 55.923 44.9104C55.9774 44.6876 55.9489 44.4404 55.8334 44.1714C55.7179 43.8997 55.5277 43.7 55.2642 43.571C55.0536 43.4677 54.8349 43.4514 54.6081 43.518C54.1978 43.6566 53.865 43.9839 53.6123 44.5015C53.3596 45.0191 53.3108 45.5801 53.4683 46.1846C53.6259 46.7878 53.9288 47.3339 54.3785 47.8202C55.2723 48.7942 56.1852 49.5088 57.1158 49.9638C58.0449 50.4203 58.8736 50.62 59.6017 50.5656C60.4942 50.5045 61.2101 50.2206 61.7467 49.7166C62.0795 49.3974 62.3702 48.9871 62.6174 48.4831C63.0331 47.6341 63.1119 46.7267 62.8579 45.7635C62.7682 45.3628 62.6066 44.9892 62.3756 44.6442C62.3064 44.5192 62.305 44.401 62.3607 44.2855Z" fill="#826B69"/>
<path d="M60.7903 36.4474L60.77 36.3035C60.448 35.8103 60.2497 35.2914 60.1736 34.748C60.0989 34.2047 60.1016 33.7306 60.1872 33.3257C60.27 32.9196 60.4181 32.5107 60.6287 32.1004C60.9058 31.557 61.1911 31.1156 61.4858 30.7759C62.1895 29.9663 62.9435 29.393 63.7409 29.0589C64.541 28.7233 65.3167 28.6201 66.0733 28.7464C67.4956 29.0086 68.8038 29.6566 69.9938 30.6931C71.9921 32.4319 72.9213 34.3038 72.7813 36.3048C72.7107 37.2856 72.4445 38.2012 71.9826 39.0516C71.696 39.5882 71.374 40.0609 71.014 40.4725C69.699 41.9831 68.3338 42.7479 66.9183 42.7697C65.5014 42.7914 64.1851 42.2725 62.9679 41.2115C62.2615 40.5975 61.6815 39.9536 61.2277 39.2825C60.774 38.6115 60.501 38.0857 60.4072 37.7067L60.2497 37.1566C60.2075 37.0343 60.2347 36.9202 60.3312 36.8115C60.4235 36.7028 60.5024 36.6268 60.5635 36.5846C60.6246 36.5425 60.6749 36.5127 60.7156 36.495C60.7564 36.476 60.7795 36.461 60.7903 36.4474ZM62.2833 31.9469C61.9043 32.3816 61.71 32.8503 61.6991 33.3502C61.6856 34.2305 62.0062 34.9559 62.6609 35.5264C63.3143 36.097 63.8971 36.2219 64.4065 35.9C64.5301 35.8158 64.6374 35.8131 64.7298 35.8946C65.0097 36.1377 65.1387 36.4624 65.1184 36.8699C65.098 37.2775 64.954 37.6728 64.6877 38.0545C64.5926 38.1645 64.5763 38.246 64.6429 38.3031C64.7339 38.4036 64.8752 38.5367 65.0654 38.7025C65.2583 38.8682 65.4756 39.038 65.7242 39.2133C65.9741 39.3885 66.2934 39.5651 66.6833 39.7458C67.0745 39.9264 67.4494 40.0405 67.8067 40.0881C68.1667 40.1343 68.5512 40.0881 68.9614 39.9455C69.373 39.8028 69.7751 39.5053 70.1677 39.0516C70.5644 38.5992 70.779 38.0694 70.8157 37.4636C70.851 36.8577 70.7097 36.2885 70.3905 35.756C69.8403 34.8092 69.2059 34.024 68.4846 33.3964C67.7646 32.7688 67.0772 32.2784 66.4224 31.9211C65.7704 31.5638 65.227 31.3424 64.7978 31.2541C64.3685 31.1658 63.9637 31.1604 63.586 31.2364C63.2097 31.3125 62.9326 31.4103 62.7547 31.5312C62.5781 31.6508 62.4191 31.7907 62.2833 31.9469Z" fill="#826B69"/>
<path d="M75.2648 31.178L73.488 28.4258L72.1743 29.3577C72.0697 29.4324 71.9963 29.4392 71.9542 29.3795C71.8252 29.1988 71.7885 28.9108 71.8442 28.5168C71.8972 28.1229 72.0548 27.8335 72.317 27.6474L72.7286 27.3554C72.1444 26.5892 71.7206 26.0445 71.453 25.7212C70.9653 25.1452 70.498 24.7662 70.0551 24.5828L69.8514 24.5013C69.7617 24.4877 69.6938 24.4469 69.6449 24.3763C69.5946 24.3056 69.6218 24.1929 69.7318 24.0421C69.8378 23.89 70.0089 23.6781 70.2385 23.4091C70.4708 23.1388 71.0006 22.6212 71.8347 21.8564C72.6674 21.0916 73.6224 20.3254 74.6997 19.5606C75.7796 18.7958 76.41 18.4385 76.5947 18.4888C76.7781 18.539 76.9615 18.6939 77.1421 18.9507C77.3242 19.2061 77.3704 19.3677 77.278 19.4315C77.2644 19.4411 77.2141 19.4682 77.1313 19.5144C76.8922 19.6231 76.558 19.8282 76.1274 20.1366C75.6968 20.4422 75.2539 20.8022 74.8002 21.2138C74.3451 21.6268 74.0096 21.9555 73.7909 22.2028L73.492 22.5723C73.4051 22.6674 73.3738 22.7937 73.4078 22.9499C73.7229 23.6183 74.2894 24.5244 75.1018 25.6695L78.2778 23.4159C78.3947 23.3316 78.4748 23.3208 78.5182 23.3806C78.6473 23.5612 78.6921 23.8465 78.6541 24.2364C78.6174 24.6262 78.4667 24.9142 78.2072 25.099L75.8625 26.74L79.2097 31.1658C79.3673 31.3872 79.4352 31.5801 79.4148 31.7459C79.3442 32.1738 79.0562 32.6615 78.5522 33.2089C78.0455 33.7564 77.5986 34.1693 77.206 34.4465C77.1028 34.5225 77.0118 34.5089 76.9425 34.4084C76.9072 34.3582 76.8854 34.3133 76.8745 34.2726C76.9085 33.9941 76.3733 32.9603 75.2648 31.178Z" fill="#826B69"/>
<path d="M84.2374 25.3474L83.046 22.2963L81.5721 22.9484C81.4553 23 81.3819 22.9932 81.3534 22.9239C81.2637 22.7215 81.2828 22.4322 81.4159 22.0572C81.5477 21.6823 81.7596 21.431 82.0544 21.3006L82.5163 21.0968C82.0965 20.2302 81.7895 19.612 81.5898 19.2412C81.2257 18.5796 80.8467 18.115 80.4473 17.8474L80.2626 17.7265C80.177 17.6966 80.1199 17.6409 80.0846 17.5622C80.0507 17.4834 80.0996 17.3815 80.2354 17.2538C80.374 17.1261 80.5804 16.9522 80.8603 16.7349C81.1401 16.5175 81.7664 16.1154 82.7336 15.5313C83.7022 14.9485 84.7903 14.3902 85.9993 13.855C87.2097 13.3197 87.8984 13.0956 88.0682 13.1825C88.2353 13.2695 88.3847 13.4569 88.5111 13.7436C88.6388 14.0329 88.651 14.1973 88.5491 14.2435C88.5328 14.2503 88.4785 14.2679 88.3874 14.2951C88.1321 14.3535 87.7639 14.4893 87.2817 14.704C86.7967 14.9186 86.2914 15.1822 85.7657 15.496C85.2372 15.8084 84.8432 16.0652 84.5797 16.2621L84.2143 16.565C84.107 16.6398 84.0527 16.758 84.0554 16.9183C84.232 17.6355 84.6042 18.6367 85.1734 19.9204L88.7339 18.346C88.867 18.2876 88.9471 18.293 88.977 18.3596C89.0667 18.562 89.0545 18.8513 88.9404 19.2249C88.8262 19.5985 88.6224 19.8511 88.3277 19.9815L85.7045 21.1213L88.1035 26.1258C88.2122 26.3744 88.2407 26.5768 88.1891 26.7344C88.0356 27.1392 87.6552 27.559 87.0507 27.9964C86.4476 28.4324 85.9246 28.7462 85.4858 28.9419C85.3676 28.9948 85.2834 28.9636 85.2345 28.8508C85.21 28.7938 85.1978 28.7463 85.1965 28.7055C85.2875 28.4338 84.9682 27.3158 84.2374 25.3474Z" fill="#826B69"/>
<path d="M103.624 20.5182C103.795 21.3631 103.572 22.0627 102.957 22.6143C102.34 23.1658 101.404 23.5693 100.148 23.8233C98.1357 24.2295 96.5531 24.0148 95.3957 23.1794C94.2383 22.3453 93.4925 21.0996 93.1583 19.4437C93.1053 19.1788 93.0415 18.7889 92.9708 18.2754L91.6518 18.5403C91.5254 18.5675 91.4548 18.543 91.4412 18.471C91.3991 18.2645 91.4833 17.9901 91.6912 17.6464C91.9004 17.3028 92.1612 17.099 92.475 17.0351L92.9219 16.9455C92.9505 16.034 93.1298 15.1999 93.4585 14.4405C93.79 13.6825 94.1717 13.0712 94.6105 12.6039C95.0479 12.1393 95.5492 11.7358 96.1184 11.3935C97.019 10.8338 98.0039 10.448 99.073 10.2321C100.139 10.0161 100.835 10.0147 101.155 10.2266C101.306 10.3339 101.418 10.5662 101.491 10.9221C101.563 11.2794 101.544 11.4682 101.434 11.49C101.418 11.4927 101.344 11.4832 101.208 11.4614C100.771 11.399 100.245 11.4302 99.6326 11.5525C98.2973 11.8214 97.3287 12.3947 96.7296 13.2709C96.1306 14.1471 95.8195 15.1781 95.7977 16.3641C96.9877 16.11 98.6043 15.7772 100.647 15.3656C100.802 15.3344 100.891 15.3615 100.908 15.4458C100.946 15.64 100.87 15.909 100.679 16.2568C100.486 16.6032 100.233 16.8083 99.9193 16.8721L95.8671 17.6899C95.8806 17.8366 95.9363 18.1559 96.0341 18.6449C96.1333 19.1339 96.3507 19.6257 96.6862 20.1175C97.0231 20.6092 97.5379 20.9787 98.2362 21.2273C98.9331 21.4773 99.7753 21.5017 100.764 21.302C101.752 21.1023 102.552 20.7654 103.161 20.29C103.228 20.2261 103.295 20.1881 103.355 20.1745C103.485 20.1487 103.572 20.2642 103.624 20.5182Z" fill="#826B69"/>
<path d="M115.839 20.7912C115.808 21.6525 115.427 22.2815 114.701 22.674C113.973 23.068 112.969 23.2405 111.688 23.1957C109.636 23.121 108.149 22.5436 107.216 21.4609C106.284 20.3796 105.849 18.9954 105.91 17.3068C105.92 17.0351 105.951 16.6425 106 16.125L104.656 16.0774C104.527 16.0733 104.463 16.0339 104.467 15.9592C104.474 15.75 104.618 15.5028 104.902 15.2175C105.185 14.9323 105.486 14.795 105.807 14.8059L106.263 14.8236C106.504 13.9447 106.871 13.1731 107.369 12.5129C107.866 11.8527 108.381 11.3473 108.915 10.9955C109.449 10.645 110.033 10.3706 110.665 10.1709C111.671 9.83671 112.72 9.69 113.808 9.7294C114.898 9.76743 115.573 9.92774 115.835 10.2103C115.957 10.3502 116.014 10.6029 116.001 10.9656C115.987 11.3283 115.923 11.5076 115.813 11.5035C115.794 11.5035 115.726 11.4764 115.6 11.422C115.187 11.259 114.669 11.1666 114.046 11.1435C112.683 11.0946 111.61 11.4247 110.821 12.1366C110.036 12.8484 109.492 13.7789 109.196 14.9268C110.413 14.9581 112.063 15.0124 114.145 15.0871C114.304 15.0925 114.384 15.1387 114.379 15.2257C114.373 15.4227 114.237 15.6672 113.968 15.9592C113.701 16.2527 113.407 16.3926 113.087 16.3804L108.957 16.2323C108.934 16.379 108.916 16.7037 108.897 17.2009C108.88 17.7008 108.976 18.2265 109.188 18.7835C109.401 19.3404 109.817 19.8213 110.436 20.2248C111.055 20.6296 111.87 20.851 112.878 20.8863C113.887 20.923 114.741 20.7804 115.444 20.4611C115.524 20.4136 115.599 20.3932 115.662 20.3959C115.789 20.4 115.847 20.5318 115.839 20.7912Z" fill="#826B69"/>
<path d="M132.539 17.5756L132.838 17.0771C133.046 16.5487 132.909 16.1058 132.431 15.7458C132.053 15.4782 131.753 15.3002 131.529 15.2133L131.506 15.2038C131.059 15.0286 130.648 14.9321 130.279 14.9117C129.908 14.8914 129.616 14.9335 129.405 15.0367C128.961 15.2459 128.645 15.5258 128.457 15.8762C128.285 16.3123 128.392 16.7877 128.775 17.3012C129.158 17.8161 129.666 18.3323 130.299 18.8512C130.931 19.3702 131.553 19.9081 132.171 20.4678C132.787 21.0261 133.246 21.6619 133.551 22.3778C133.857 23.0923 133.868 23.8123 133.584 24.535C133.031 25.9477 132.039 26.7764 130.61 27.025C129.18 27.2722 127.729 27.1079 126.259 26.5332C124.789 25.9586 123.674 25.2264 122.912 24.3394C122.147 23.4523 121.935 22.5774 122.272 21.7162L122.279 21.6985C122.447 21.2733 122.677 20.9378 122.972 20.6878C123.267 20.4392 123.564 20.2885 123.86 20.2328C124.474 20.1159 124.986 20.1241 125.399 20.2586L125.675 20.3455C126.092 20.5099 126.441 20.7354 126.724 21.0261C127.006 21.3141 127.093 21.598 126.985 21.8724C126.932 22.011 126.79 22.0871 126.558 22.1034C126.328 22.1197 126.106 22.1903 125.894 22.3193C125.68 22.447 125.542 22.572 125.477 22.6916L125.357 22.8627C125.083 23.5623 125.319 24.1913 126.066 24.7482C126.333 24.9452 126.555 25.0783 126.735 25.149C127.554 25.4696 128.291 25.5389 128.938 25.3555C129.586 25.1721 130.025 24.7876 130.254 24.2022C130.527 23.5012 130.362 22.7812 129.757 22.0422C129.302 21.4934 128.775 20.9758 128.183 20.4936C127.591 20.01 127.192 19.6744 126.989 19.4897C126.785 19.3049 126.574 19.0971 126.356 18.8648C126.136 18.6339 125.907 18.3391 125.67 17.9805C125.14 17.217 125.038 16.4264 125.359 15.6045C125.679 14.784 126.242 14.2067 127.043 13.8725C128.487 13.2599 130.254 13.3618 132.342 14.1809C133.447 14.6129 134.316 15.1413 134.949 15.7676C135.584 16.3911 135.786 16.9915 135.561 17.5648C135.4 17.9791 135.112 18.263 134.698 18.4179C134.284 18.5728 133.837 18.5578 133.361 18.3703C133.138 18.2834 132.932 18.1625 132.742 18.009C132.553 17.8596 132.486 17.7128 132.539 17.5756Z" fill="#826B69"/>
<path d="M141.287 24.754L141.136 24.9632L144.57 27.475L144.59 27.4451C144.78 27.2155 145.006 26.9194 145.272 26.5553C145.536 26.1926 145.763 25.8693 145.951 25.5867C146.138 25.3028 146.294 25.061 146.419 24.8627C146.545 24.6643 146.648 24.4891 146.731 24.3356C146.813 24.1821 146.875 24.0625 146.919 23.9783C146.959 23.8955 147.004 23.8221 147.048 23.7623C147.091 23.7039 147.212 23.6849 147.412 23.7107C148.266 23.8466 149.074 24.1916 149.838 24.7513C150.316 25.1018 150.506 25.3408 150.414 25.4699C150.406 25.4794 150.354 25.5242 150.255 25.6058C149.318 26.3719 148.205 27.566 146.92 29.1893C145.658 30.8344 144.983 31.7147 144.897 31.8342C143.77 33.3761 143.103 34.5307 142.899 35.2969C142.88 35.4069 142.851 35.4871 142.811 35.5414C142.771 35.5958 142.673 35.6216 142.517 35.6148C141.865 35.5047 141.157 35.1692 140.394 34.6109C139.902 34.2509 139.72 33.9194 139.845 33.6124C139.909 33.4453 140.046 33.2144 140.261 32.921C140.476 32.6276 140.827 32.1928 141.318 31.6196C141.805 31.045 142.616 30.0112 143.748 28.5183L140.353 26.035C138.693 28.3036 137.62 29.9623 137.132 31.011C136.957 31.2487 136.516 31.2284 135.808 30.9472C135.099 30.666 134.551 30.3848 134.164 30.1008C133.776 29.8169 133.614 29.6295 133.681 29.5398C133.724 29.48 133.799 29.4202 133.903 29.3591C134.454 29.1214 135.807 27.5293 137.96 24.5828L138.101 24.3886L136.956 23.5518C136.853 23.4757 136.821 23.4091 136.866 23.3494C136.882 23.329 136.963 23.2706 137.115 23.1741C137.263 23.079 137.498 23.0084 137.817 22.9676C138.135 22.9255 138.412 22.9907 138.644 23.1605L138.856 23.3168C140.291 21.3565 140.967 20.119 140.888 19.6028L140.875 19.4561C140.834 19.3501 140.841 19.2591 140.895 19.1844C140.951 19.1083 141.068 19.0988 141.246 19.1531C141.504 19.2061 141.915 19.3691 142.479 19.6435C143.043 19.9179 143.527 20.2018 143.926 20.4953C144.328 20.7887 144.476 21.0047 144.374 21.1446L144.343 21.1894C143.427 22.1132 142.411 23.3004 141.287 24.754Z" fill="#826B69"/>
<path d="M152.894 32.2836L153.041 32.2891C153.584 32.0636 154.133 31.9644 154.679 31.9916C155.225 32.0187 155.693 32.1097 156.076 32.2673C156.457 32.4249 156.834 32.645 157.196 32.9275C157.681 33.3011 158.062 33.6638 158.34 34.0156C159.005 34.8579 159.427 35.7028 159.612 36.5505C159.792 37.3955 159.75 38.1793 159.487 38.8993C158.967 40.2496 158.088 41.4137 156.849 42.3905C154.769 44.0328 152.758 44.5993 150.817 44.0899C149.865 43.8399 149.015 43.4093 148.263 42.7967C147.791 42.4149 147.386 42.0101 147.046 41.5822C145.805 40.0105 145.306 38.527 145.546 37.1333C145.788 35.7368 146.542 34.54 147.81 33.5388C148.546 32.9588 149.285 32.5064 150.028 32.1858C150.772 31.8652 151.339 31.6913 151.73 31.6696L152.301 31.6166C152.427 31.5976 152.536 31.6452 152.625 31.7593C152.712 31.872 152.773 31.963 152.803 32.031C152.835 32.0989 152.855 32.1546 152.866 32.1981C152.875 32.2442 152.886 32.2714 152.894 32.2836ZM157.044 34.5835C156.687 34.1311 156.263 33.8526 155.774 33.7494C154.912 33.5742 154.141 33.7535 153.458 34.2928C152.776 34.8307 152.545 35.3795 152.768 35.9406C152.829 36.0764 152.81 36.1824 152.714 36.2571C152.422 36.4867 152.078 36.5546 151.683 36.4595C151.285 36.3644 150.922 36.1498 150.596 35.8156C150.508 35.7015 150.429 35.6716 150.361 35.7259C150.244 35.7966 150.086 35.912 149.888 36.0683C149.688 36.2245 149.481 36.4079 149.265 36.6211C149.047 36.8331 148.814 37.1143 148.564 37.4647C148.314 37.8152 148.133 38.1616 148.02 38.5067C147.909 38.8504 147.882 39.2375 147.947 39.6681C148.009 40.096 148.229 40.5471 148.6 41.0184C148.972 41.4912 149.453 41.8009 150.04 41.949C150.63 42.097 151.214 42.0631 151.798 41.8484C152.83 41.4817 153.72 41.0049 154.47 40.4126C155.22 39.8203 155.831 39.2362 156.303 38.6588C156.774 38.0828 157.092 37.5911 157.258 37.1849C157.425 36.7787 157.505 36.3834 157.502 35.999C157.494 35.6145 157.449 35.3238 157.365 35.1255C157.281 34.9272 157.171 34.7465 157.044 34.5835Z" fill="#826B69"/>
<path d="M161.318 49.7886C161.344 49.8471 161.345 49.9761 161.326 50.1785C161.306 50.3782 161.336 50.5684 161.413 50.7436L161.423 50.7654C161.64 51.2639 161.965 51.5927 162.401 51.7557C162.833 51.916 163.209 51.9445 163.527 51.8413L164.012 51.7068C164.441 51.5193 164.774 51.2734 165.011 50.9678C165.248 50.6635 165.394 50.3674 165.451 50.0807C165.508 49.7941 165.51 49.4857 165.46 49.157C165.414 48.7413 165.301 48.331 165.125 47.9262C164.948 47.5228 164.774 47.2103 164.604 46.9889C164.432 46.7661 164.311 46.652 164.242 46.6479L164.132 46.6697C162.548 47.2035 161.155 47.7347 159.953 48.2604C158.751 48.7861 157.724 49.2643 156.878 49.6963C156.03 50.1283 155.383 50.4706 154.936 50.7287C154.489 50.9841 154.243 51.1226 154.199 51.143C153.916 51.2653 153.549 51.0411 153.096 50.4692C152.645 49.8973 152.281 49.2955 152.006 48.6639C151.877 48.3704 151.869 48.1979 151.982 48.1504C152.016 48.1354 152.105 48.1218 152.248 48.1123C152.866 48.1748 155.237 47.3041 159.359 45.5041C161.788 44.4432 163.084 43.6227 163.247 43.044C163.276 42.9258 163.329 42.8511 163.401 42.8198C163.476 42.7872 163.605 42.8565 163.787 43.0304C163.97 43.2043 164.335 43.7571 164.884 44.689C165.433 45.6209 165.948 46.6384 166.43 47.7388C167.188 49.4721 167.395 50.9338 167.052 52.1225C166.713 53.3125 166.043 54.1262 165.043 54.5622C164.043 54.9997 163.022 55.0214 161.976 54.6315C160.931 54.2403 160.157 53.4714 159.657 52.3262C159.497 51.9595 159.387 51.5696 159.328 51.158C159.21 50.3348 159.474 49.7832 160.117 49.502C160.253 49.4422 160.462 49.4205 160.745 49.4382C161.033 49.4504 161.222 49.5686 161.318 49.7886Z" fill="#826B69"/>
<path d="M62.7882 96.4757C62.9512 96.3779 63.0639 96.4119 63.2066 96.651L64.2879 98.4727C65.6654 100.792 65.4956 102.337 63.6019 103.464C61.3537 104.8 59.714 103.682 58.6205 101.843L58.2387 101.2L54.5859 103.371C54.3685 103.5 54.3685 103.5 53.4814 102.009L62.7882 96.4757ZM63.4851 99.3258L62.939 98.4047L59.2603 100.59L59.7398 101.4C60.3525 102.431 61.2287 102.634 62.7406 101.734C63.7078 101.158 64.129 100.408 63.4851 99.3258Z" fill="#826B69"/>
<path d="M62.9035 113.489C62.0667 114.168 62.0056 114.22 61.7896 113.955L58.5918 110.018L66.9993 103.19C66.9993 103.19 67.2234 103.038 67.4394 103.303L70.663 107.273C69.8493 107.931 69.7637 108.001 69.5613 107.753L67.4163 105.114L64.8434 107.203L66.8661 109.695C66.1013 110.313 65.9424 110.445 65.74 110.195L63.9197 107.952L60.5955 110.651L62.9035 113.489Z" fill="#826B69"/>
<path d="M71.5069 108.574C71.5069 108.574 71.689 108.374 71.9579 108.62L73.5201 110.048C75.5116 111.864 75.7969 113.392 74.3094 115.018C73.1642 116.269 71.9701 116.468 70.8372 116.058C70.8888 116.985 70.7734 118.791 69.241 120.784C69.0807 120.957 68.9802 120.974 68.3798 120.426C68.1747 120.236 67.9165 119.981 67.6421 119.71C69.2764 117.574 69.4217 115.924 69.3959 115.192C69.275 115.104 69.1636 115.002 69.0699 114.916L68.517 114.412L65.6507 117.549C65.4795 117.735 65.4632 117.72 64.2012 116.566L71.5069 108.574ZM72.9999 111.095L72.2106 110.375L69.3212 113.534L70.0167 114.169C70.901 114.978 71.7976 114.915 72.9319 113.675C73.7429 112.785 73.9304 111.947 72.9999 111.095Z" fill="#826B69"/>
<path d="M71.6143 122.914L77.6702 113.938C77.6702 113.938 77.84 113.729 78.1226 113.918L82.3637 116.782C81.7782 117.648 81.7415 117.7 81.4766 117.522L78.6565 115.617L76.7764 118.404L79.4376 120.2C78.8969 121.001 78.7814 121.172 78.5138 120.993L76.1175 119.376L73.2091 123.687C73.2091 123.687 73.0855 123.909 72.7825 123.707L71.6143 122.914Z" fill="#826B69"/>
<path d="M84.0393 128.761C83.5611 129.726 83.5271 129.797 83.2201 129.645L78.6748 127.398L83.466 117.7C83.466 117.7 83.6059 117.466 83.9116 117.619L88.495 119.884C88.0317 120.82 87.9829 120.921 87.6949 120.778L84.6465 119.272L83.1794 122.239L86.0552 123.662C85.6205 124.541 85.5295 124.727 85.2415 124.586L82.6523 123.305L80.7587 127.139L84.0393 128.761Z" fill="#826B69"/>
<path d="M95.3598 122.935C95.2661 123.221 95.0528 123.453 94.8518 123.586C94.6942 123.384 94.2853 122.981 93.655 122.772C92.3767 122.35 90.8512 122.597 89.5403 126.569C88.5323 129.626 89.1409 130.577 90.3404 130.973C91.112 131.229 91.923 131.229 92.3631 131.123C92.4202 131.359 92.4487 131.686 92.3631 131.942C92.1689 132.53 90.9897 132.69 89.4873 132.194C87.5556 131.555 86.3275 130.433 87.7716 126.054C89.471 120.908 91.9148 120.88 93.7229 121.479C95.2267 121.973 95.4903 122.544 95.3598 122.935Z" fill="#826B69"/>
<path d="M100.588 124.484L98.9688 133.976C98.9267 134.227 98.9036 134.221 97.2178 133.934L98.8819 124.192L96.0142 123.704L96.1717 122.783C96.203 122.595 96.3225 122.535 96.5752 122.58L103.745 123.801L103.586 124.74C103.554 124.926 103.438 124.97 103.184 124.927L100.588 124.484Z" fill="#826B69"/>
<path d="M109.365 135.025L108.813 124.21C108.813 124.21 108.82 123.939 109.163 123.922L114.27 123.665C114.325 124.711 114.327 124.773 114.007 124.788L110.609 124.959L110.781 128.319L113.986 128.156C114.034 129.123 114.046 129.327 113.726 129.344L110.84 129.49L111.105 134.682C111.105 134.682 111.139 134.934 110.776 134.953L109.365 135.025Z" fill="#826B69"/>
<path d="M119.199 132.852L122.815 132.169L122.992 133.104C123.028 133.306 122.891 133.382 122.682 133.421L117.699 134.363L115.706 123.815C115.637 123.456 115.681 123.449 117.362 123.13L119.199 132.852Z" fill="#826B69"/>
<path d="M130.44 128.024L126.979 129.273L127.075 131.998C127.075 132.185 127.041 132.28 126.396 132.513C126.176 132.593 125.746 132.729 125.354 132.837L125.236 121.295C125.221 121.132 125.422 120.992 125.783 120.861C126.064 120.761 126.351 120.674 126.563 120.632L133.85 129.542C133.949 129.691 133.879 129.815 133.237 130.048C132.995 130.135 132.673 130.251 132.26 130.366L130.44 128.024ZM126.921 128.046L129.699 127.046L128.251 125.177C127.575 124.31 126.873 123.248 126.515 122.57C126.652 123.328 126.786 124.578 126.843 125.684L126.921 128.046Z" fill="#826B69"/>
<path d="M130.79 118.978L132.014 118.271L136.614 122.704C137.633 123.746 138.593 124.856 139.285 125.631C138.926 124.665 138.421 123.272 138.023 121.892L136.524 116.112C136.454 115.859 136.446 115.718 136.724 115.559L138.042 114.801L140.742 126.106C140.358 126.383 140.088 126.556 139.513 126.886C139.031 127.163 138.582 126.982 138.164 126.602C136.133 124.79 130.646 119.499 130.646 119.499C130.437 119.31 130.381 119.212 130.79 118.978Z" fill="#826B69"/>
<path d="M141.685 111.602C143.813 109.812 145.435 110.144 148.192 113.417C150.996 116.749 150.992 118.636 148.83 120.454C146.718 122.23 145.119 122.024 142.179 118.534C139.465 115.309 139.571 113.377 141.685 111.602ZM148.05 119.393C149.228 118.401 148.852 117.124 146.771 114.652C144.73 112.23 143.679 111.643 142.499 112.636C141.352 113.599 141.67 114.907 143.873 117.523C145.771 119.777 146.886 120.369 148.05 119.393Z" fill="#826B69"/>
<path d="M152.977 111.791C153.967 112.608 154.816 112.972 155.959 111.587C156.435 111.008 156.816 110.325 156.937 109.953L149.6 103.909C149.393 103.739 149.405 103.721 150.508 102.385L158.75 109.173C158.606 109.748 157.951 111.038 156.876 112.344C154.697 114.983 153.227 114.327 151.809 113.159L145.951 108.335C145.743 108.164 145.743 108.164 146.887 106.775L152.977 111.791Z" fill="#826B69"/>
<path d="M151.787 100.889C151.787 100.889 151.553 100.753 151.735 100.44L152.788 98.6002C154.126 96.2582 155.554 95.6442 157.466 96.7391C158.939 97.5814 159.394 98.7048 159.24 99.8989C160.133 99.6448 161.922 99.3609 164.201 100.419C164.409 100.539 164.446 100.634 164.042 101.34C163.904 101.582 163.71 101.889 163.505 102.218C161.061 101.092 159.418 101.309 158.711 101.496C158.649 101.635 158.575 101.764 158.512 101.877L158.141 102.527L161.83 104.637C162.05 104.763 162.039 104.781 161.19 106.269L151.787 100.889ZM153.922 98.8787L153.391 99.8092L157.106 101.935L157.574 101.117C158.169 100.077 157.913 99.2156 156.454 98.3815C155.41 97.7824 154.55 97.7851 153.922 98.8787Z" fill="#826B69"/>
<path d="M45.741 76.2604H48.4565V78.0767H43.8364V67.0732H48.3492V68.8895H45.7396V71.5711H47.9634V73.3887H45.7396V76.2604H45.741Z" fill="white"/>
<path d="M52.2225 75.8269V73.8382C52.2225 73.6887 52.1967 73.5814 52.1437 73.5189C52.0894 73.4537 51.997 73.4238 51.8639 73.4238H50.6929C49.6455 73.4238 49.1226 72.7772 49.1226 71.4853V68.9763C49.1226 67.7088 49.6809 67.0745 50.7989 67.0745H52.4222C53.5402 67.0745 54.0999 67.7088 54.0999 68.9763V70.4135H52.1967V69.3241C52.1967 69.0347 52.0772 68.8907 51.8367 68.8907H51.3843C51.1439 68.8907 51.0257 69.0347 51.0257 69.3241V71.2612C51.0257 71.4106 51.0515 71.5179 51.1045 71.5804C51.1588 71.6429 51.2512 71.6755 51.3843 71.6755H52.5295C53.0974 71.6755 53.5063 71.8345 53.7535 72.151C54.0021 72.4689 54.1257 72.9375 54.1257 73.561V76.1557C54.1257 77.4367 53.5674 78.0765 52.4494 78.0765H50.8383C49.7108 78.0765 49.147 77.4367 49.147 76.1557V74.7375H51.0502V75.8269C51.0502 76.1163 51.1697 76.2603 51.4102 76.2603H51.8625C52.1043 76.2603 52.2225 76.1163 52.2225 75.8269Z" fill="white"/>
<path d="M59.6384 67.0732V68.8895H58.0817V78.0767H56.1785V68.8895H54.6353V67.0732H59.6384Z" fill="white"/>
<path d="M60.3975 67.0732H63.9254C65.0529 67.0732 65.6166 67.7076 65.6166 68.9751V76.1545C65.6166 77.4355 65.0529 78.0753 63.9254 78.0753H60.3975V67.0732ZM63.7121 75.948V69.2019C63.7121 68.9126 63.5925 68.7686 63.3521 68.7686H62.3006V76.38H63.3521C63.5912 76.38 63.7121 76.2373 63.7121 75.948Z" fill="white"/>
<path d="M155.195 67.0732V78.0767H153.292V68.8895H152.186V67.0732H155.195Z" fill="white"/>
<path d="M157.91 67.0732H159.534C160.66 67.0732 161.224 67.7076 161.224 68.9751V76.1545C161.224 77.4355 160.66 78.0753 159.534 78.0753H157.99C156.862 78.0753 156.3 77.4355 156.3 76.1545V74.7362H158.15V75.8257C158.15 76.1151 158.27 76.2591 158.51 76.2591H159.015C159.246 76.2591 159.36 76.1151 159.36 75.8257V73.7324H157.91C156.782 73.7324 156.22 73.098 156.22 71.8305V68.9751C156.221 67.709 156.784 67.0732 157.91 67.0732ZM158.442 72.0397H159.36V69.3242C159.36 69.0349 159.245 68.8909 159.015 68.8909H158.442C158.202 68.8909 158.084 69.0349 158.084 69.3242V71.6064C158.084 71.7694 158.109 71.8808 158.162 71.9446C158.217 72.0071 158.31 72.0397 158.442 72.0397Z" fill="white"/>
<path d="M163.899 67.0732H165.524C166.65 67.0732 167.214 67.7076 167.214 68.9751V76.1545C167.214 77.4355 166.65 78.0753 165.524 78.0753H163.979C162.852 78.0753 162.29 77.4355 162.29 76.1545V74.7362H164.138V75.8257C164.138 76.1151 164.258 76.2591 164.498 76.2591H165.004C165.235 76.2591 165.349 76.1151 165.349 75.8257V73.7324H163.898C162.77 73.7324 162.208 73.098 162.208 71.8305V68.9751C162.211 67.709 162.773 67.0732 163.899 67.0732ZM164.433 72.0397H165.351V69.3242C165.351 69.0349 165.236 68.8909 165.006 68.8909H164.433C164.193 68.8909 164.075 69.0349 164.075 69.3242V71.6064C164.075 71.7694 164.1 71.8808 164.153 71.9446C164.206 72.0071 164.3 72.0397 164.433 72.0397Z" fill="white"/>
<path d="M170.169 71.5886H171.62C172.748 71.5886 173.312 72.223 173.312 73.4904V76.1557C173.312 77.4367 172.748 78.0765 171.62 78.0765H169.997C168.869 78.0765 168.306 77.4367 168.306 76.1557V68.9763C168.306 67.7088 168.869 67.0745 169.997 67.0745H171.528C172.655 67.0745 173.219 67.7088 173.219 68.9763V70.4651H171.355V69.3241C171.355 69.0347 171.236 68.8907 170.995 68.8907H170.516C170.285 68.8907 170.169 69.0347 170.169 69.3241V71.5886ZM171.448 75.8269V73.7689C171.448 73.4809 171.328 73.3369 171.088 73.3369H170.169V75.8269C170.169 76.1163 170.285 76.2603 170.516 76.2603H171.088C171.328 76.2603 171.448 76.1163 171.448 75.8269Z" fill="white"/>
<path d="M3 166.15L215 166.15" stroke="white" stroke-width="5" stroke-linecap="round"/>
<path d="M68.1777 303.15V197.095H113.295C137.025 197.095 152.553 210.572 152.553 232.984C152.553 247.632 145.814 258.033 134.389 263.453L156.068 303.15H125.746L106.996 267.847H96.0098V303.15H68.1777ZM96.0098 246.021H106.85C117.396 246.021 123.402 242.212 123.402 232.984C123.402 223.609 117.396 219.361 106.85 219.361H96.0098V246.021Z" fill="white"/>
</svg>
