<svg width="1100" height="240" viewBox="0 0 1100 240" fill="none" xmlns="http://www.w3.org/2000/svg">
<g clip-path="url(#clip0_292_626)">
<rect width="1100" height="240" fill="#F7EAE2"/>
<path d="M265.457 63H259.623L266.448 42.4961H273.783L280.58 63H274.774L273.557 58.9785H266.675L265.457 63ZM267.921 54.9004H272.311L270.187 48.0186H270.017L267.921 54.9004ZM298.813 42.4961V63H294.31L286.692 51.9268H286.55V63H281.169V42.4961H285.757L293.262 53.5127H293.432V42.4961H298.813ZM305.004 63V42.4961H313.726C318.314 42.4961 321.316 45.3848 321.316 49.6895C321.316 54.0791 318.229 56.8262 313.556 56.8262H310.384V63H305.004ZM310.384 52.6348H312.48C314.519 52.6348 315.68 51.502 315.68 49.6895C315.68 47.9053 314.519 46.8008 312.48 46.8008H310.384V52.6348ZM324.511 63H318.677L325.502 42.4961H332.837L339.634 63H333.828L332.61 58.9785H325.728L324.511 63ZM326.974 54.9004H331.364L329.24 48.0186H329.07L326.974 54.9004ZM340.223 42.4961H346.935L351.806 54.4189H352.061L356.932 42.4961H363.644V63H358.376V50.9355H358.206L353.533 62.8584H350.305L345.66 50.8506H345.49V63H340.223V42.4961ZM377.6 41.6748V54.5605H364.742V41.6748H377.6ZM369.245 45.2432V51.0205H373.097V45.2432H369.245ZM385.133 39.6641V46.9141H388.39V50.624H385.133V58.6953H380.573V39.6641H385.133ZM385.898 61.8105V65.4355H367.773V56.7695H372.332V61.8105H385.898ZM396.201 41.2783C400.392 41.25 403.592 44.0537 403.592 47.877C403.592 51.7285 400.392 54.5039 396.201 54.4756C392.094 54.5039 388.809 51.7285 388.809 47.877C388.809 44.0537 392.094 41.25 396.201 41.2783ZM396.201 45.1865C394.615 45.1865 393.34 46.0928 393.34 47.877C393.34 49.7178 394.615 50.5674 396.201 50.5674C397.871 50.5674 399.174 49.7178 399.174 47.877C399.174 46.0928 397.871 45.1865 396.201 45.1865ZM410.106 39.6074V65.8887H405.603V39.6074H410.106ZM387.874 57.166C392.434 57.166 398.806 57.0811 404.272 56.3447L404.612 59.6016C398.948 60.7344 392.859 60.791 388.384 60.791L387.874 57.166ZM440.171 53.0879V56.6279H416.212V53.0879H440.171ZM437.31 57.8174V65.8037H432.751V61.3574H418.93V57.8174H437.31ZM437.763 48.585V51.9834H419.072V40.1455H437.48V43.6006H423.603V44.4219H436.942V47.707H423.603V48.585H437.763ZM462.17 39.6074V52.9746H457.639V50.8223H453.702V52.4082H440.873V40.6553H445.433V43.2891H449.228V40.6553H453.702V42.6943H457.639V39.6074H462.17ZM462.17 53.7393V61.3008H449.058V62.0371H462.793V65.5771H444.47V57.9873H457.639V57.1943H444.47V53.7393H462.17ZM445.433 48.8965H449.228V46.6592H445.433V48.8965ZM453.702 47.4238H457.639V46.0361H453.702V47.4238ZM484.452 39.6641V47.3105H487.709V50.9922H484.452V59.1768H479.893V39.6641H484.452ZM478.958 42.1279V45.6396H463.467V42.1279H468.933V39.6074H473.492V42.1279H478.958ZM471.198 46.2344C475.022 46.2344 477.74 48.3584 477.74 51.417C477.74 54.4756 475.022 56.543 471.198 56.5146C467.347 56.543 464.6 54.4756 464.6 51.417C464.6 48.3584 467.347 46.2344 471.198 46.2344ZM471.198 49.6611C469.896 49.6895 469.046 50.2275 469.046 51.417C469.046 52.6064 469.896 53.1162 471.198 53.1162C472.529 53.1162 473.436 52.6064 473.436 51.417C473.436 50.2275 472.529 49.6895 471.198 49.6611ZM485.217 61.8105V65.4355H467.092V57.7041H471.652V61.8105H485.217ZM514.829 39.6074V65.8037H510.496V39.6074H514.829ZM509.476 40.0039V64.7275H505.285V57.5908H502.821C501.83 59.4316 500.06 60.5645 497.921 60.5645C494.693 60.5645 492.257 57.9023 492.286 54.1074C492.257 50.3125 494.693 47.6221 497.921 47.6221C500.145 47.6221 501.957 48.854 502.906 50.8223V47.8203H505.285V40.0039H509.476ZM504.039 43.2324V46.8291H491.946V43.2324H495.797V40.2305H500.3V43.2324H504.039ZM497.921 51.4736C496.845 51.4453 496.194 52.2666 496.194 54.1074C496.194 55.9199 496.845 56.7412 497.921 56.7412C498.998 56.7412 499.706 55.9199 499.734 54.1074C499.706 52.2666 498.998 51.4453 497.921 51.4736ZM503.189 51.4736C503.458 52.2383 503.6 53.1021 503.614 54.0225H505.285V51.4736H503.189ZM526.803 41.2783V44.875H520.685V46.3193H526.576V49.7178H520.685V51.2188C523.064 51.1621 525.018 51.0488 527.199 50.709L527.624 54.334C524.565 54.8438 521.96 54.9004 518.221 54.9004H516.352V41.2783H526.803ZM538.244 39.6641V55.665H533.939V49.3779H532.58V55.4951H528.36V40.0889H532.58V45.7812H533.939V39.6641H538.244ZM538.244 56.5996V65.8037H533.713V60.1963H519.864V56.5996H538.244ZM545.488 60.791L542.854 69.0889H539.258L540.561 60.791H545.488ZM555.842 63H550.008L556.833 42.4961H564.168L570.965 63H565.16L563.942 58.9785H557.06L555.842 63ZM558.306 54.9004H562.696L560.572 48.0186H560.402L558.306 54.9004ZM589.198 42.4961V63H584.695L577.077 51.9268H576.935V63H571.554V42.4961H576.142L583.647 53.5127H583.817V42.4961H589.198ZM595.389 63V42.4961H604.111C608.699 42.4961 611.701 45.3848 611.701 49.6895C611.701 54.0791 608.614 56.8262 603.941 56.8262H600.77V63H595.389ZM600.77 52.6348H602.865C604.904 52.6348 606.065 51.502 606.065 49.6895C606.065 47.9053 604.904 46.8008 602.865 46.8008H600.77V52.6348ZM614.896 63H609.062L615.887 42.4961H623.222L630.019 63H624.213L622.995 58.9785H616.113L614.896 63ZM617.36 54.9004H621.749L619.625 48.0186H619.455L617.36 54.9004ZM630.608 42.4961H637.32L642.191 54.4189H642.446L647.317 42.4961H654.029V63H648.761V50.9355H648.591L643.918 62.8584H640.69L636.045 50.8506H635.875V63H630.608V42.4961ZM681.573 39.6074V65.8887H677.042V39.6074H681.573ZM673.36 41.6748V52.2666H665.459V56.1748C669.197 56.1323 672.27 55.9199 675.597 55.3535L675.966 59.0068C672.001 59.7432 668.178 59.8848 663.221 59.8848H660.758V48.7266H668.716V45.2998H660.758V41.6748H673.36ZM705.838 39.6641V65.7754H701.193V60.4795H696.322V57.1094H701.193V39.6641H705.838ZM682.955 52.6064C687.77 52.6064 694.17 52.5781 699.749 51.8418L700.004 55.127C697.88 55.5234 695.713 55.7783 693.575 55.9482V65.0391H688.959V56.1748C687.019 56.2456 685.164 56.2598 683.465 56.2598L682.955 52.6064ZM691.479 40.5703C695.331 40.5703 698.248 42.8643 698.248 46.0645C698.248 49.3496 695.331 51.5586 691.479 51.5586C687.543 51.5586 684.654 49.3496 684.654 46.0645C684.654 42.8643 687.543 40.5703 691.479 40.5703ZM691.479 43.9404C689.95 43.9688 688.931 44.7051 688.931 46.0645C688.931 47.4805 689.95 48.1035 691.479 48.1035C692.924 48.1035 693.915 47.4805 693.943 46.0645C693.915 44.7051 692.924 43.9688 691.479 43.9404ZM728.12 51.4453V55.042H709.316V41.6465H727.95V45.2998H713.79V51.4453H728.12ZM730.584 59.1768V62.8867H706.654V59.1768H730.584Z" fill="#33160D"/>
<path d="M262.021 109H259.332L263.499 96.9805H266.703L270.854 109H268.181L267.284 106.228H262.935L262.021 109ZM263.565 104.285H266.653L265.143 99.6865H265.06L263.565 104.285ZM281.392 96.9805V109H279.234L273.955 101.363H273.855V109H271.365V96.9805H273.556L278.802 104.617H278.919V96.9805H281.392ZM285.636 109V96.9805H290.35C293.09 96.9805 294.65 98.6572 294.65 101.031C294.65 103.438 293.056 105.082 290.284 105.082H288.126V109H285.636ZM288.126 103.073H289.886C291.363 103.073 292.077 102.243 292.077 101.031C292.077 99.8359 291.363 99.0225 289.886 99.0225H288.126V103.073ZM295.992 109H293.302L297.469 96.9805H300.673L304.824 109H302.151L301.254 106.228H296.905L295.992 109ZM297.536 104.285H300.623L299.113 99.6865H299.03L297.536 104.285ZM305.335 96.9805H308.423L311.76 105.132H311.893L315.229 96.9805H318.317V109H315.894V101.131H315.794L312.656 108.95H310.996L307.858 101.098H307.759V109H305.335V96.9805ZM334.696 95.4199V110.527H332.588V95.4199H334.696ZM322.063 106.261C323.217 106.252 324.536 106.252 325.914 106.211V104.933C324.254 104.642 323.175 103.613 323.192 102.193C323.175 100.5 324.719 99.3545 326.944 99.3545C329.185 99.3545 330.745 100.5 330.745 102.193C330.745 103.604 329.666 104.634 328.006 104.933V106.145C329.268 106.086 330.546 105.987 331.758 105.829L331.907 107.39C328.604 107.954 325.034 107.987 322.345 107.987L322.063 106.261ZM331.542 97.0967V98.7568H322.362V97.0967H325.914V95.4863H328.023V97.0967H331.542ZM326.944 100.965C325.914 100.965 325.184 101.413 325.2 102.193C325.184 102.99 325.914 103.422 326.944 103.422C328.006 103.422 328.72 102.99 328.72 102.193C328.72 101.413 328.006 100.965 326.944 100.965ZM348.638 95.4365V106.842H346.513V105.646H343.625V104.202H346.513V95.4365H348.638ZM348.971 108.568V110.262H337.715V105.746H339.823V103.737C338.47 103.795 337.183 103.804 336.038 103.804L335.789 102.127C338.561 102.11 342.297 102.077 345.484 101.679L345.6 103.189C344.405 103.389 343.168 103.53 341.948 103.621V106.493H339.823V108.568H348.971ZM340.703 95.9512C342.894 95.9346 344.471 97.0469 344.471 98.6572C344.471 100.268 342.894 101.313 340.703 101.313C338.462 101.313 336.901 100.268 336.901 98.6572C336.901 97.0469 338.445 95.9346 340.703 95.9512ZM340.703 97.4951C339.624 97.4951 338.893 97.9102 338.91 98.6572C338.893 99.3877 339.624 99.7861 340.703 99.7861C341.716 99.7861 342.446 99.3877 342.463 98.6572C342.446 97.9102 341.716 97.4951 340.703 97.4951ZM508.893 101.147V102.874H506.752V110.494H504.627V95.4199H506.752V101.147H508.893ZM497.422 96.8643V105.049C499.356 105.024 501.431 104.841 503.614 104.401L503.83 106.161C501.306 106.676 498.849 106.809 496.625 106.809H495.313V96.8643H497.422ZM516.377 96.665V103.92H509.122V96.665H516.377ZM511.214 98.3584V102.26H514.286V98.3584H511.214ZM520.661 95.4199V99.7695H522.703V101.513H520.661V106.443H518.536V95.4199H520.661ZM521.208 108.568V110.262H510.866V105.364H512.974V108.568H521.208ZM527.414 96.4326C529.805 96.416 531.598 97.9766 531.598 100.135C531.598 102.31 529.805 103.854 527.414 103.854C525.023 103.854 523.214 102.31 523.214 100.135C523.214 97.9766 525.023 96.416 527.414 96.4326ZM527.414 98.2588C526.219 98.2588 525.306 98.9561 525.322 100.135C525.306 101.33 526.219 102.011 527.414 102.011C528.609 102.011 529.522 101.33 529.539 100.135C529.522 98.9561 528.626 98.2588 527.414 98.2588ZM535.217 95.4199V110.561H533.108V95.4199H535.217ZM522.583 105.746C525.272 105.763 529.008 105.713 532.245 105.265L532.411 106.792C529.058 107.439 525.472 107.473 522.832 107.473L522.583 105.746ZM552.094 95.4199V110.561H549.986V95.4199H552.094ZM547.412 96.6816V102.509H542.432V105.281C544.731 105.273 546.69 105.14 548.906 104.783L549.089 106.493C546.599 106.925 544.358 107.024 541.602 107.024H540.24V100.832H545.254V98.3916H540.224V96.6816H547.412ZM566.169 95.4365V110.527H564.011V107.19H560.939V105.597H564.011V95.4365H566.169ZM553.203 103.09C556.025 103.09 559.794 103.073 563.048 102.642L563.164 104.186C561.836 104.426 560.466 104.576 559.13 104.667V110.079H556.988V104.767C555.735 104.808 554.548 104.816 553.469 104.816L553.203 103.09ZM558.15 96.0342C560.375 96.0342 562.018 97.3291 562.035 99.1387C562.018 100.998 560.375 102.227 558.15 102.227C555.892 102.227 554.265 100.998 554.265 99.1387C554.265 97.3291 555.892 96.0342 558.15 96.0342ZM558.15 97.6445C557.021 97.6445 556.258 98.2256 556.258 99.1387C556.258 100.085 557.021 100.616 558.15 100.616C559.246 100.616 560.01 100.085 560.026 99.1387C560.01 98.2256 559.246 97.6445 558.15 97.6445ZM579.43 102.409V104.103H568.739V96.6816H579.314V98.3916H570.83V102.409H579.43ZM580.941 106.941V108.685H567.112V106.941H580.941ZM262.021 134H259.332L263.499 121.98H266.703L270.854 134H268.181L267.284 131.228H262.935L262.021 134ZM263.565 129.285H266.653L265.143 124.687H265.06L263.565 129.285ZM281.392 121.98V134H279.234L273.955 126.363H273.855V134H271.365V121.98H273.556L278.802 129.617H278.919V121.98H281.392ZM285.636 134V121.98H290.35C293.09 121.98 294.65 123.657 294.65 126.031C294.65 128.438 293.056 130.082 290.284 130.082H288.126V134H285.636ZM288.126 128.073H289.886C291.363 128.073 292.077 127.243 292.077 126.031C292.077 124.836 291.363 124.022 289.886 124.022H288.126V128.073ZM295.992 134H293.302L297.469 121.98H300.673L304.824 134H302.151L301.254 131.228H296.905L295.992 134ZM297.536 129.285H300.623L299.113 124.687H299.03L297.536 129.285ZM305.335 121.98H308.423L311.76 130.132H311.893L315.229 121.98H318.317V134H315.894V126.131H315.794L312.656 133.95H310.996L307.858 126.098H307.759V134H305.335V121.98ZM334.696 120.42V135.527H332.588V120.42H334.696ZM322.063 131.261C323.217 131.252 324.536 131.252 325.914 131.211V129.933C324.254 129.642 323.175 128.613 323.192 127.193C323.175 125.5 324.719 124.354 326.944 124.354C329.185 124.354 330.745 125.5 330.745 127.193C330.745 128.604 329.666 129.634 328.006 129.933V131.145C329.268 131.086 330.546 130.987 331.758 130.829L331.907 132.39C328.604 132.954 325.034 132.987 322.345 132.987L322.063 131.261ZM331.542 122.097V123.757H322.362V122.097H325.914V120.486H328.023V122.097H331.542ZM326.944 125.965C325.914 125.965 325.184 126.413 325.2 127.193C325.184 127.99 325.914 128.422 326.944 128.422C328.006 128.422 328.72 127.99 328.72 127.193C328.72 126.413 328.006 125.965 326.944 125.965ZM348.638 120.437V131.842H346.513V130.646H343.625V129.202H346.513V120.437H348.638ZM348.971 133.568V135.262H337.715V130.746H339.823V128.737C338.47 128.795 337.183 128.804 336.038 128.804L335.789 127.127C338.561 127.11 342.297 127.077 345.484 126.679L345.6 128.189C344.405 128.389 343.168 128.53 341.948 128.621V131.493H339.823V133.568H348.971ZM340.703 120.951C342.894 120.935 344.471 122.047 344.471 123.657C344.471 125.268 342.894 126.313 340.703 126.313C338.462 126.313 336.901 125.268 336.901 123.657C336.901 122.047 338.445 120.935 340.703 120.951ZM340.703 122.495C339.624 122.495 338.893 122.91 338.91 123.657C338.893 124.388 339.624 124.786 340.703 124.786C341.716 124.786 342.446 124.388 342.463 123.657C342.446 122.91 341.716 122.495 340.703 122.495Z" fill="#33160D"/>
<path d="M362.331 95.4199V110.561H360.19V95.4199H362.331ZM354.13 96.4824C356.405 96.4824 358.098 98.5742 358.098 101.861C358.098 105.182 356.405 107.257 354.13 107.257C351.806 107.257 350.113 105.182 350.129 101.861C350.113 98.5742 351.806 96.4824 354.13 96.4824ZM354.13 98.3916C352.952 98.3916 352.171 99.6201 352.171 101.861C352.171 104.119 352.952 105.331 354.13 105.331C355.276 105.331 356.056 104.119 356.056 101.861C356.056 99.6201 355.276 98.3916 354.13 98.3916ZM368.371 99.2217C368.371 101.662 369.052 104.186 371.11 105.514L369.965 107.157C368.662 106.369 367.832 105.074 367.358 103.521C366.811 105.231 365.906 106.659 364.536 107.489L363.241 105.929C365.482 104.534 366.312 101.878 366.312 99.3213V96.7148H368.371V99.2217ZM376.622 95.4199V110.527H374.597V95.4199H376.622ZM373.451 95.6357V109.83H371.476V102.243H369.517V100.517H371.476V95.6357H373.451ZM391.195 107.024V108.768H377.366V107.024H380.454V103.322C379.283 102.625 378.578 101.554 378.578 100.218C378.578 97.7773 380.968 96.1504 384.255 96.1504C387.526 96.1504 389.933 97.7773 389.95 100.218C389.942 101.521 389.253 102.583 388.124 103.289V107.024H391.195ZM384.255 97.8271C382.097 97.8271 380.67 98.6904 380.67 100.218C380.67 101.695 382.097 102.608 384.255 102.608C386.397 102.608 387.841 101.695 387.858 100.218C387.841 98.6904 386.397 97.8271 384.255 97.8271ZM382.546 107.024H385.982V104.086C385.442 104.194 384.861 104.252 384.255 104.252C383.65 104.252 383.077 104.202 382.546 104.086V107.024ZM393.848 105.215C393.864 103.156 394.412 102.509 395.408 101.895C396.122 101.43 396.67 100.915 396.67 100.151C396.67 99.3213 396.023 98.7734 395.226 98.7734C394.446 98.7734 393.732 99.2881 393.698 100.268H391.341C391.391 97.9268 393.117 96.8145 395.242 96.8145C397.55 96.8145 399.194 98.0264 399.194 100.068C399.194 101.43 398.496 102.31 397.401 102.957C396.471 103.521 396.056 104.053 396.039 105.215V105.397H393.848V105.215ZM394.993 109.149C394.213 109.149 393.582 108.519 393.599 107.755C393.582 106.991 394.213 106.377 394.993 106.377C395.724 106.377 396.371 106.991 396.371 107.755C396.371 108.519 395.724 109.149 394.993 109.149ZM419.471 107.107V108.851H405.642V107.107H411.469V104.833H407.235V99.7529H415.785V98.0928H407.219V96.3994H417.877V101.413H409.36V103.106H418.226V104.833H413.577V107.107H419.471ZM431.57 96.8145V98.624C431.57 100.699 431.57 102.758 431.022 105.879L428.88 105.696C429.445 102.791 429.445 100.633 429.462 98.624V98.5078H420.912V96.8145H431.57ZM433.263 106.809V108.552H419.484V106.809H433.263ZM445.977 95.4365V106.294H443.852V95.4365H445.977ZM446.375 108.568V110.262H435.85V105.198H437.991V108.568H446.375ZM437.693 96.3994C440.017 96.3994 441.826 97.9932 441.826 100.201C441.826 102.459 440.017 104.036 437.693 104.036C435.368 104.036 433.559 102.459 433.559 100.201C433.559 97.9932 435.368 96.3994 437.693 96.3994ZM437.693 98.2422C436.514 98.2256 435.617 98.9727 435.634 100.201C435.617 101.463 436.514 102.193 437.693 102.193C438.838 102.193 439.735 101.463 439.735 100.201C439.735 98.9727 438.838 98.2256 437.693 98.2422ZM454.058 95.6357C457.528 95.6357 459.537 96.5488 459.554 98.209C459.537 99.8857 457.528 100.799 454.058 100.799C450.572 100.799 448.547 99.8857 448.547 98.209C448.547 96.5488 450.572 95.6357 454.058 95.6357ZM454.058 97.1797C451.834 97.1797 450.755 97.5449 450.771 98.209C450.755 98.9561 451.834 99.2383 454.058 99.2383C456.3 99.2383 457.362 98.9561 457.362 98.209C457.362 97.5449 456.3 97.1797 454.058 97.1797ZM460.948 101.513V103.189H447.169V101.513H460.948ZM459.271 104.069V107.921H450.854V108.834H459.67V110.428H448.779V106.443H457.179V105.613H448.762V104.069H459.271ZM477.858 103.206V104.866H464.046V103.206H469.89V102.276H465.772V95.7852H476.248V97.4121H467.897V98.2588H475.899V99.7861H467.897V100.649H476.381V102.276H472.015V103.206H477.858ZM470.952 105.563C474.289 105.547 476.198 106.443 476.215 108.037C476.198 109.664 474.289 110.527 470.952 110.527C467.565 110.527 465.656 109.664 465.656 108.037C465.656 106.443 467.565 105.547 470.952 105.563ZM470.952 107.124C468.777 107.124 467.765 107.406 467.781 108.037C467.765 108.685 468.777 108.967 470.952 108.967C473.077 108.967 474.073 108.685 474.09 108.037C474.073 107.406 473.077 107.124 470.952 107.124ZM485.21 97.7275V99.4043H477.905V97.7275H480.528V95.835H482.62V97.7275H485.21ZM481.59 100.085C483.516 100.085 484.894 101.579 484.911 103.671C484.894 105.779 483.516 107.273 481.59 107.273C479.665 107.273 478.254 105.779 478.254 103.671C478.254 101.579 479.665 100.085 481.59 100.085ZM481.59 101.845C480.711 101.845 480.113 102.525 480.113 103.671C480.113 104.816 480.711 105.48 481.59 105.48C482.437 105.48 483.035 104.816 483.051 103.671C483.035 102.525 482.437 101.845 481.59 101.845ZM490.987 95.4199V110.527H488.978V103.256H487.75V109.88H485.774V95.7188H487.75V101.562H488.978V95.4199H490.987ZM594.767 102.193V103.771H580.938V102.193H594.767ZM593.106 104.518V108.087H584.64V108.95H593.555V110.395H582.531V106.742H591.015V105.979H582.515V104.518H593.106ZM593.09 95.6855V99.2383H584.772V100.052H593.355V101.479H582.664V97.8936H590.965V97.1299H582.631V95.6855H593.09ZM609.95 95.4365V99.7529H611.876V101.496H609.95V105.696H607.825V95.4365H609.95ZM597.698 103.754C598.802 103.754 600.064 103.754 601.367 103.721V102.874C599.724 102.642 598.695 101.845 598.711 100.683C598.695 99.2881 600.172 98.4248 602.413 98.4248C604.638 98.4248 606.099 99.2881 606.115 100.683C606.099 101.845 605.094 102.633 603.476 102.857V103.638C604.721 103.588 605.958 103.488 607.128 103.339L607.278 104.8C604.09 105.364 600.587 105.397 597.914 105.397L597.698 103.754ZM609.95 106.311V110.527H607.825V107.938H599.624V106.311H609.95ZM606.746 96.5322V98.0762H598.097V96.5322H601.367V95.3037H603.476V96.5322H606.746ZM602.413 99.8359C601.334 99.8359 600.72 100.102 600.737 100.683C600.72 101.23 601.334 101.546 602.413 101.546C603.476 101.546 604.073 101.23 604.09 100.683C604.073 100.102 603.476 99.8359 602.413 99.8359ZM624.357 95.4365V106.294H622.232V95.4365H624.357ZM624.756 108.568V110.262H614.23V105.198H616.372V108.568H624.756ZM616.073 96.3994C618.397 96.3994 620.207 97.9932 620.207 100.201C620.207 102.459 618.397 104.036 616.073 104.036C613.749 104.036 611.939 102.459 611.939 100.201C611.939 97.9932 613.749 96.3994 616.073 96.3994ZM616.073 98.2422C614.894 98.2256 613.998 98.9727 614.014 100.201C613.998 101.463 614.894 102.193 616.073 102.193C617.219 102.193 618.115 101.463 618.115 100.201C618.115 98.9727 617.219 98.2256 616.073 98.2422ZM632.837 97.7275V99.4043H625.533V97.7275H628.156V95.835H630.247V97.7275H632.837ZM629.218 100.085C631.144 100.085 632.522 101.579 632.538 103.671C632.522 105.779 631.144 107.273 629.218 107.273C627.292 107.273 625.881 105.779 625.881 103.671C625.881 101.579 627.292 100.085 629.218 100.085ZM629.218 101.845C628.338 101.845 627.741 102.525 627.741 103.671C627.741 104.816 628.338 105.48 629.218 105.48C630.065 105.48 630.663 104.816 630.679 103.671C630.663 102.525 630.065 101.845 629.218 101.845ZM638.615 95.4199V110.527H636.606V103.256H635.377V109.88H633.402V95.7188H635.377V101.562H636.606V95.4199H638.615ZM653.221 107.041V108.768H639.392V107.041H645.219V104.252H640.853V96.3828H642.978V98.7236H649.568V96.3828H651.677V104.252H647.327V107.041H653.221ZM642.978 102.559H649.568V100.417H642.978V102.559ZM658.082 99.2217C658.082 101.662 658.762 104.186 660.821 105.514L659.675 107.157C658.372 106.369 657.542 105.074 657.069 103.521C656.521 105.231 655.616 106.659 654.247 107.489L652.952 105.929C655.193 104.534 656.023 101.878 656.023 99.3213V96.7148H658.082V99.2217ZM666.333 95.4199V110.527H664.307V95.4199H666.333ZM663.162 95.6357V109.83H661.186V102.243H659.227V100.517H661.186V95.6357H663.162ZM680.905 107.024V108.768H667.076V107.024H670.164V103.322C668.994 102.625 668.288 101.554 668.288 100.218C668.288 97.7773 670.679 96.1504 673.966 96.1504C677.237 96.1504 679.644 97.7773 679.66 100.218C679.652 101.521 678.963 102.583 677.834 103.289V107.024H680.905ZM673.966 97.8271C671.808 97.8271 670.38 98.6904 670.38 100.218C670.38 101.695 671.808 102.608 673.966 102.608C676.108 102.608 677.552 101.695 677.569 100.218C677.552 98.6904 676.108 97.8271 673.966 97.8271ZM672.256 107.024H675.693V104.086C675.153 104.194 674.572 104.252 673.966 104.252C673.36 104.252 672.787 104.202 672.256 104.086V107.024ZM682.878 109.149C682.097 109.149 681.467 108.519 681.483 107.755C681.467 106.991 682.097 106.377 682.878 106.377C683.608 106.377 684.256 106.991 684.256 107.755C684.256 108.519 683.608 109.149 682.878 109.149ZM362.331 120.42V135.561H360.19V120.42H362.331ZM354.13 121.482C356.405 121.482 358.098 123.574 358.098 126.861C358.098 130.182 356.405 132.257 354.13 132.257C351.806 132.257 350.113 130.182 350.129 126.861C350.113 123.574 351.806 121.482 354.13 121.482ZM354.13 123.392C352.952 123.392 352.171 124.62 352.171 126.861C352.171 129.119 352.952 130.331 354.13 130.331C355.276 130.331 356.056 129.119 356.056 126.861C356.056 124.62 355.276 123.392 354.13 123.392ZM370.659 121.482C372.966 121.482 374.627 123.574 374.643 126.861C374.627 130.182 372.966 132.257 370.659 132.257C368.351 132.257 366.658 130.182 366.674 126.861C366.658 123.574 368.351 121.482 370.659 121.482ZM370.659 123.392C369.497 123.392 368.716 124.62 368.716 126.861C368.716 129.119 369.497 130.331 370.659 130.331C371.838 130.331 372.601 129.119 372.618 126.861C372.601 124.62 371.838 123.392 370.659 123.392ZM378.511 120.42V126.114H380.736V127.874H378.511V135.527H376.386V120.42H378.511ZM393.134 120.42V135.527H391.026V120.42H393.134ZM383.339 121.864V129.982C385.381 129.958 387.572 129.767 389.797 129.335L390.063 131.078C387.406 131.626 384.916 131.809 382.575 131.792H381.247V121.864H383.339ZM399.124 124.222C399.124 126.662 399.804 129.186 401.863 130.514L400.718 132.157C399.414 131.369 398.584 130.074 398.111 128.521C397.563 130.231 396.658 131.659 395.289 132.489L393.994 130.929C396.235 129.534 397.065 126.878 397.065 124.321V121.715H399.124V124.222ZM407.375 120.42V135.527H405.349V120.42H407.375ZM404.204 120.636V134.83H402.228V127.243H400.269V125.517H402.228V120.636H404.204ZM421.948 132.024V133.768H408.119V132.024H411.206V128.322C410.036 127.625 409.33 126.554 409.33 125.218C409.33 122.777 411.721 121.15 415.008 121.15C418.279 121.15 420.686 122.777 420.703 125.218C420.694 126.521 420.005 127.583 418.876 128.289V132.024H421.948ZM415.008 122.827C412.85 122.827 411.422 123.69 411.422 125.218C411.422 126.695 412.85 127.608 415.008 127.608C417.15 127.608 418.594 126.695 418.611 125.218C418.594 123.69 417.15 122.827 415.008 122.827ZM413.298 132.024H416.735V129.086C416.195 129.194 415.614 129.252 415.008 129.252C414.402 129.252 413.829 129.202 413.298 129.086V132.024ZM424.601 130.215C424.617 128.156 425.165 127.509 426.161 126.895C426.875 126.43 427.423 125.915 427.423 125.151C427.423 124.321 426.775 123.773 425.979 123.773C425.198 123.773 424.484 124.288 424.451 125.268H422.094C422.144 122.927 423.87 121.814 425.995 121.814C428.303 121.814 429.946 123.026 429.946 125.068C429.946 126.43 429.249 127.31 428.153 127.957C427.224 128.521 426.809 129.053 426.792 130.215V130.397H424.601V130.215ZM425.746 134.149C424.966 134.149 424.335 133.519 424.352 132.755C424.335 131.991 424.966 131.377 425.746 131.377C426.477 131.377 427.124 131.991 427.124 132.755C427.124 133.519 426.477 134.149 425.746 134.149ZM448.314 120.42V126.214H450.456V127.957H448.314V135.494H446.189V120.42H448.314ZM444.28 121.964C444.263 126.479 442.504 130.397 437.424 132.888L436.228 131.261C439.806 129.468 441.723 127.061 442.122 123.69H437.092V121.964H444.28ZM462.887 120.42V128.538H460.762V120.42H462.887ZM454.869 129.202V130.613H460.779V129.202H462.887V135.361H452.777V129.202H454.869ZM454.869 133.651H460.779V132.257H454.869V133.651ZM454.603 121.051C456.96 121.034 458.737 122.512 458.737 124.637C458.737 126.695 456.96 128.173 454.603 128.173C452.246 128.173 450.469 126.695 450.469 124.637C450.469 122.512 452.246 121.034 454.603 121.051ZM454.603 122.811C453.391 122.811 452.528 123.491 452.544 124.637C452.528 125.766 453.391 126.43 454.603 126.43C455.782 126.43 456.645 125.766 456.645 124.637C456.645 123.491 455.782 122.811 454.603 122.811ZM470.969 120.636C474.438 120.636 476.447 121.549 476.464 123.209C476.447 124.886 474.438 125.799 470.969 125.799C467.482 125.799 465.457 124.886 465.457 123.209C465.457 121.549 467.482 120.636 470.969 120.636ZM470.969 122.18C468.744 122.18 467.665 122.545 467.682 123.209C467.665 123.956 468.744 124.238 470.969 124.238C473.21 124.238 474.272 123.956 474.272 123.209C474.272 122.545 473.21 122.18 470.969 122.18ZM477.858 126.513V128.189H464.079V126.513H477.858ZM476.182 129.069V132.921H467.765V133.834H476.58V135.428H465.689V131.443H474.09V130.613H465.673V129.069H476.182ZM494.769 128.206V129.866H480.956V128.206H486.8V127.276H482.683V120.785H493.158V122.412H484.808V123.259H492.81V124.786H484.808V125.649H493.291V127.276H488.925V128.206H494.769ZM487.863 130.563C491.199 130.547 493.109 131.443 493.125 133.037C493.109 134.664 491.199 135.527 487.863 135.527C484.476 135.527 482.567 134.664 482.567 133.037C482.567 131.443 484.476 130.547 487.863 130.563ZM487.863 132.124C485.688 132.124 484.675 132.406 484.692 133.037C484.675 133.685 485.688 133.967 487.863 133.967C489.988 133.967 490.984 133.685 491 133.037C490.984 132.406 489.988 132.124 487.863 132.124ZM502.12 122.728V124.404H494.815V122.728H497.438V120.835H499.53V122.728H502.12ZM498.501 125.085C500.427 125.085 501.804 126.579 501.821 128.671C501.804 130.779 500.427 132.273 498.501 132.273C496.575 132.273 495.164 130.779 495.164 128.671C495.164 126.579 496.575 125.085 498.501 125.085ZM498.501 126.845C497.621 126.845 497.023 127.525 497.023 128.671C497.023 129.816 497.621 130.48 498.501 130.48C499.347 130.48 499.945 129.816 499.962 128.671C499.945 127.525 499.347 126.845 498.501 126.845ZM507.897 120.42V135.527H505.888V128.256H504.66V134.88H502.684V120.719H504.66V126.562H505.888V120.42H507.897ZM524.409 120.42V135.561H522.301V120.42H524.409ZM519.728 121.682V127.509H514.747V130.281C517.046 130.273 519.005 130.14 521.222 129.783L521.404 131.493C518.914 131.925 516.673 132.024 513.917 132.024H512.556V125.832H517.569V123.392H512.539V121.682H519.728ZM538.484 120.437V135.527H536.326V132.19H533.254V130.597H536.326V120.437H538.484ZM525.518 128.09C528.34 128.09 532.109 128.073 535.363 127.642L535.479 129.186C534.151 129.426 532.781 129.576 531.445 129.667V135.079H529.303V129.767C528.05 129.808 526.863 129.816 525.784 129.816L525.518 128.09ZM530.465 121.034C532.69 121.034 534.334 122.329 534.35 124.139C534.334 125.998 532.69 127.227 530.465 127.227C528.208 127.227 526.581 125.998 526.581 124.139C526.581 122.329 528.208 121.034 530.465 121.034ZM530.465 122.645C529.337 122.645 528.573 123.226 528.573 124.139C528.573 125.085 529.337 125.616 530.465 125.616C531.561 125.616 532.325 125.085 532.341 124.139C532.325 123.226 531.561 122.645 530.465 122.645ZM551.745 127.409V129.103H541.054V121.682H551.629V123.392H543.146V127.409H551.745ZM553.256 131.941V133.685H539.427V131.941H553.256ZM569.436 120.42V135.527H567.411V120.42H569.436ZM566.448 120.669V134.863H564.472V130.497H562.762C562.231 131.643 561.177 132.356 559.873 132.356C558.014 132.356 556.636 130.862 556.653 128.721C556.636 126.579 558.014 125.085 559.873 125.085C561.766 125.085 563.127 126.579 563.127 128.721V128.837H564.472V127.027H562.812V125.301H564.472V120.669H566.448ZM563.509 122.711V124.388H556.321V122.711H558.877V120.785H560.986V122.711H563.509ZM559.873 126.878C559.043 126.878 558.496 127.525 558.496 128.721C558.496 129.883 559.043 130.563 559.873 130.563C560.72 130.563 561.285 129.883 561.301 128.721C561.285 127.525 560.72 126.878 559.873 126.878ZM576.688 121.433V123.126H572.736V124.371H576.538V125.981H572.736V127.31C574.413 127.301 575.658 127.235 577.053 126.994L577.269 128.688C575.492 129.003 574.015 129.053 571.74 129.053H570.711V121.433H576.688ZM583.162 120.437V129.65H581.153V125.815H579.842V129.534H577.866V120.702H579.842V124.122H581.153V120.437H583.162ZM583.162 130.281V135.527H581.054V131.975H572.72V130.281H583.162ZM590.912 120.636C594.381 120.636 596.39 121.549 596.407 123.209C596.39 124.886 594.381 125.799 590.912 125.799C587.425 125.799 585.4 124.886 585.4 123.209C585.4 121.549 587.425 120.636 590.912 120.636ZM590.912 122.18C588.687 122.18 587.608 122.545 587.625 123.209C587.608 123.956 588.687 124.238 590.912 124.238C593.153 124.238 594.215 123.956 594.215 123.209C594.215 122.545 593.153 122.18 590.912 122.18ZM597.801 126.513V128.189H584.022V126.513H597.801ZM596.125 129.069V132.921H587.708V133.834H596.523V135.428H585.632V131.443H594.033V130.613H585.616V129.069H596.125ZM614.712 126.562V128.239H600.932V126.562H614.712ZM613.035 129.069V132.921H604.618V133.834H613.433V135.428H602.543V131.443H610.943V130.613H602.526V129.069H613.035ZM613.467 120.901V122.562H609.217C609.681 123.483 611.275 124.354 614.114 124.521L613.45 126.147C610.653 125.94 608.719 125.06 607.805 123.79C606.901 125.052 604.983 125.94 602.211 126.147L601.547 124.521C604.361 124.354 605.938 123.483 606.411 122.562H602.194V120.901H613.467ZM627.475 120.42V135.527H625.333V120.42H627.475ZM622.943 121.997C622.943 126.579 621.332 130.381 615.937 132.938L614.825 131.244C618.726 129.401 620.444 127.011 620.785 123.657H615.638V121.997H622.943ZM633.465 124.222C633.465 126.662 634.146 129.186 636.204 130.514L635.059 132.157C633.755 131.369 632.925 130.074 632.452 128.521C631.904 130.231 631 131.659 629.63 132.489L628.335 130.929C630.576 129.534 631.406 126.878 631.406 124.321V121.715H633.465V124.222ZM641.716 120.42V135.527H639.69V120.42H641.716ZM638.545 120.636V134.83H636.569V127.243H634.61V125.517H636.569V120.636H638.545ZM656.289 132.024V133.768H642.46V132.024H645.547V128.322C644.377 127.625 643.671 126.554 643.671 125.218C643.671 122.777 646.062 121.15 649.349 121.15C652.62 121.15 655.027 122.777 655.044 125.218C655.035 126.521 654.346 127.583 653.217 128.289V132.024H656.289ZM649.349 122.827C647.191 122.827 645.763 123.69 645.763 125.218C645.763 126.695 647.191 127.608 649.349 127.608C651.491 127.608 652.935 126.695 652.952 125.218C652.935 123.69 651.491 122.827 649.349 122.827ZM647.639 132.024H651.076V129.086C650.536 129.194 649.955 129.252 649.349 129.252C648.743 129.252 648.171 129.202 647.639 129.086V132.024ZM658.261 134.149C657.481 134.149 656.85 133.519 656.866 132.755C656.85 131.991 657.481 131.377 658.261 131.377C658.991 131.377 659.639 131.991 659.639 132.755C659.639 133.519 658.991 134.149 658.261 134.149Z" fill="#676666"/>
<path d="M269.582 174.912V187.162H268.283V174.912H269.582ZM259.52 183.826C260.524 183.819 261.68 183.812 262.883 183.771V182.555C261.447 182.37 260.518 181.529 260.531 180.326C260.518 178.945 261.721 178.029 263.498 178.029C265.289 178.029 266.52 178.945 266.52 180.326C266.52 181.516 265.59 182.35 264.168 182.541V183.73C265.303 183.683 266.451 183.594 267.531 183.457L267.627 184.428C264.906 184.879 261.939 184.906 259.697 184.906L259.52 183.826ZM267.258 176.375V177.414H259.779V176.375H262.883V174.939H264.182V176.375H267.258ZM263.498 179.041C262.473 179.041 261.748 179.547 261.762 180.326C261.748 181.105 262.473 181.584 263.498 181.584C264.551 181.584 265.275 181.105 265.275 180.326C265.275 179.547 264.551 179.041 263.498 179.041ZM281.036 174.926V184.209H279.738V183.033H277.277V182.117H279.738V174.926H281.036ZM281.337 185.85V186.902H272.491V183.307H273.777V185.85H281.337ZM270.796 180.518C273.066 180.504 276.114 180.477 278.726 180.148L278.808 181.078C277.762 181.249 276.661 181.365 275.581 181.434V183.826H274.282V181.502C273.093 181.557 271.951 181.563 270.96 181.557L270.796 180.518ZM274.802 175.391C276.593 175.391 277.837 176.252 277.837 177.551C277.837 178.85 276.593 179.684 274.802 179.684C272.984 179.684 271.753 178.85 271.753 177.551C271.753 176.252 272.984 175.391 274.802 175.391ZM274.802 176.361C273.708 176.348 272.97 176.812 272.984 177.551C272.97 178.275 273.708 178.727 274.802 178.727C275.855 178.727 276.593 178.275 276.607 177.551C276.593 176.812 275.855 176.348 274.802 176.361ZM294.511 174.912V179.793H296.412V180.873H294.511V187.148H293.212V174.912H294.511ZM291.312 176.197C291.298 179.738 289.74 182.896 285.707 184.893L284.982 183.881C288.051 182.35 289.719 180.135 289.986 177.277H285.597V176.197H291.312ZM306.526 174.912V181.488H305.227V174.912H306.526ZM299.786 182.076V183.457H305.241V182.076H306.526V187.012H298.514V182.076H299.786ZM299.786 185.945H305.241V184.482H299.786V185.945ZM299.882 175.473C301.755 175.473 303.136 176.635 303.136 178.316C303.136 179.998 301.755 181.16 299.882 181.146C298.009 181.16 296.614 179.998 296.614 178.316C296.614 176.635 298.009 175.473 299.882 175.473ZM299.882 176.566C298.72 176.553 297.886 177.277 297.886 178.316C297.886 179.369 298.72 180.08 299.882 180.08C301.03 180.08 301.864 179.369 301.864 178.316C301.864 177.277 301.03 176.553 299.882 176.566ZM321.027 176.266V177.332H311.06V176.266H315.421V174.857H316.706V176.266H321.027ZM321.696 182.842V183.908H316.706V187.176H315.421V183.908H310.486V182.842H321.696ZM316.064 177.961C318.607 177.961 320.138 178.686 320.138 180.025C320.138 181.338 318.607 182.062 316.064 182.076C313.507 182.062 311.976 181.338 311.989 180.025C311.976 178.686 313.507 177.961 316.064 177.961ZM316.064 178.932C314.3 178.932 313.329 179.314 313.329 180.025C313.329 180.709 314.3 181.092 316.064 181.092C317.814 181.092 318.784 180.709 318.798 180.025C318.784 179.314 317.814 178.932 316.064 178.932ZM324.086 185.057L322.993 188.83H321.83L322.555 185.057H324.086ZM328.893 186H327.294L330.848 176.102H332.585L336.153 186H334.554L333.651 183.389H329.796L328.893 186ZM330.233 182.131H333.214L331.751 177.906H331.682L330.233 182.131ZM344.695 176.102V186H343.314L338.297 178.768H338.215V186H336.711V176.102H338.105L343.123 183.348H343.219V176.102H344.695ZM348.737 186V176.102H352.264C354.561 176.102 355.696 177.482 355.696 179.314C355.696 181.133 354.561 182.527 352.264 182.527H350.241V186H348.737ZM350.241 181.242H352.114C353.577 181.242 354.178 180.422 354.178 179.314C354.178 178.193 353.577 177.387 352.114 177.387H350.241V181.242ZM356.377 186H354.777L358.332 176.102H360.068L363.636 186H362.037L361.134 183.389H357.279L356.377 186ZM357.716 182.131H360.697L359.234 177.906H359.166L357.716 182.131ZM364.194 176.102H366.026L369.157 183.771H369.28L372.411 176.102H374.243V186H372.807V178.85H372.712L369.813 185.986H368.624L365.712 178.836H365.63V186H364.194V176.102ZM388.935 184.551V185.631H377.724V184.551H382.659V181.721H379.009V175.896H387.595V181.721H383.945V184.551H388.935ZM380.267 176.936V180.695H386.323V176.936H380.267ZM398.666 174.912V179.656H400.635V180.75H398.666V187.162H397.368V174.912H398.666ZM390.873 175.938V179.082H394.114V175.938H395.399V184.25H389.588V175.938H390.873ZM390.873 183.184H394.114V180.107H390.873V183.184ZM403.996 175.322C405.841 175.336 407.195 176.471 407.209 178.07C407.195 179.684 405.841 180.805 403.996 180.805C402.136 180.805 400.769 179.684 400.769 178.07C400.769 176.471 402.136 175.336 403.996 175.322ZM403.996 176.416C402.861 176.402 402.027 177.072 402.041 178.07C402.027 179.082 402.861 179.752 403.996 179.752C405.117 179.752 405.951 179.082 405.951 178.07C405.951 177.072 405.117 176.402 403.996 176.416ZM410.681 174.912V181.146H409.382V174.912H410.681ZM410.681 181.707V184.797H403.927V185.973H411.091V187.012H402.67V183.826H409.396V182.746H402.629V181.707H410.681ZM421.012 176.156C420.998 179.766 419.891 182.979 415.42 185.18L414.709 184.209C416.924 183.122 418.243 181.803 418.975 180.244L414.969 180.627L414.777 179.506L419.371 179.191C419.556 178.569 419.665 177.906 419.713 177.209H415.42V176.156H421.012ZM424.184 174.912V179.807H426.084V180.873H424.184V187.148H422.885V174.912H424.184ZM435.966 180.723V181.789H427.435V176.006H435.857V177.072H428.72V180.723H435.966ZM437.251 184.469V185.549H426.04V184.469H437.251ZM448.637 180.531V181.529H437.426V180.531H448.637ZM447.256 182.391V185.084H440.065V186.096H447.639V187.012H438.766V184.223H445.971V183.32H438.752V182.391H447.256ZM447.229 175.227V177.879H440.147V178.809H447.434V179.725H438.862V177.018H445.93V176.143H438.834V175.227H447.229ZM453.102 176.102V179.629H451.899V176.102H453.102ZM455.591 176.102V179.629H454.387V176.102H455.591ZM467.592 179.725V180.791H465.691V187.148H464.393V174.912H465.691V179.725H467.592ZM457.898 176.102V182.992C459.607 182.992 461.392 182.849 463.34 182.445L463.49 183.539C461.398 183.963 459.457 184.072 457.625 184.072H456.613V176.102H457.898ZM478.089 174.912V187.162H476.845V174.912H478.089ZM475.601 175.145V186.561H474.357V180.654H472.976C472.866 183.047 471.841 184.537 470.323 184.523C468.724 184.537 467.685 182.855 467.685 180.203C467.685 177.551 468.724 175.883 470.323 175.896C471.814 175.883 472.825 177.298 472.976 179.602H474.357V175.145H475.601ZM470.323 177.113C469.435 177.113 468.888 178.248 468.888 180.203C468.888 182.158 469.435 183.293 470.323 183.293C471.226 183.293 471.786 182.158 471.786 180.203C471.786 178.248 471.226 177.113 470.323 177.113ZM489.475 174.912V187.162H488.245V174.912H489.475ZM486.891 175.227V186.561H485.661V180.873H483.268C482.537 182.295 481.374 183.539 479.645 184.551L478.907 183.621C481.504 182.076 482.755 180.019 482.981 177.496H479.481V176.43H484.266C484.259 177.626 484.095 178.768 483.719 179.834H485.661V175.227H486.891ZM497.386 177.154C497.386 178.809 498.493 180.422 500.339 181.064L499.628 182.076C498.288 181.563 497.29 180.552 496.77 179.273C496.237 180.695 495.191 181.816 493.749 182.363L493.052 181.338C494.952 180.654 496.087 178.959 496.1 177.113V175.664H497.386V177.154ZM503.278 174.926V184.059H501.979V178.781H499.395V177.715H501.979V174.926H503.278ZM503.552 185.85V186.902H495.28V183.033H496.593V185.85H503.552ZM515.635 179.984V181.023H510.686V182.09H514.227V184.961H507.09V186.041H514.568V187.039H505.818V184.018H512.941V183.088H505.805V182.09H509.387V181.023H504.465V179.984H515.635ZM514.199 175.309V179.082H505.9V175.309H514.199ZM507.172 176.334V178.057H512.9V176.334H507.172ZM525.407 174.912V179.875H527.376V180.955H525.407V187.162H524.122V174.912H525.407ZM523.056 176.826V177.893H515.796V176.826H518.818V175.076H520.116V176.826H523.056ZM519.474 178.795C521.224 178.795 522.509 179.971 522.523 181.639C522.509 183.32 521.224 184.482 519.474 184.496C517.71 184.482 516.425 183.32 516.425 181.639C516.425 179.971 517.71 178.795 519.474 178.795ZM519.474 179.861C518.435 179.861 517.655 180.586 517.669 181.639C517.655 182.705 518.435 183.416 519.474 183.402C520.513 183.416 521.279 182.705 521.279 181.639C521.279 180.586 520.513 179.861 519.474 179.861ZM537.45 174.912V187.162H536.137V174.912H537.45ZM533.799 176.225C533.799 179.807 532.268 182.924 528.071 184.934L527.387 183.881C530.648 182.329 532.234 180.121 532.487 177.264H527.975V176.225H533.799ZM540.209 176.102V179.629H539.005V176.102H540.209ZM542.697 176.102V179.629H541.494V176.102H542.697ZM554.466 184.605V185.699H543.255V184.605H548.19V182.459H544.622V178.562H551.813V176.84H544.595V175.773H553.098V179.602H545.907V181.393H553.386V182.459H549.475V184.605H554.466ZM567.12 175.678V176.758C567.12 177.92 567.12 179.178 566.779 180.928H568.542V181.994H563.579V187.176H562.267V181.994H557.372V180.928H565.466C565.835 179.185 565.835 177.899 565.835 176.758V176.744H558.739V175.678H567.12ZM579.313 174.912V187.162H578.069V180.777H576.551V186.561H575.321V175.145H576.551V179.711H578.069V174.912H579.313ZM573.94 176.293V183.936H569.182V176.293H573.94ZM570.413 177.318V182.896H572.723V177.318H570.413ZM589.714 174.912V179.875H591.683V180.955H589.714V187.162H588.429V174.912H589.714ZM587.363 176.826V177.893H580.103V176.826H583.125V175.076H584.423V176.826H587.363ZM583.781 178.795C585.531 178.795 586.816 179.971 586.83 181.639C586.816 183.32 585.531 184.482 583.781 184.496C582.017 184.482 580.732 183.32 580.732 181.639C580.732 179.971 582.017 178.795 583.781 178.795ZM583.781 179.861C582.742 179.861 581.962 180.586 581.976 181.639C581.962 182.705 582.742 183.416 583.781 183.402C584.82 183.416 585.586 182.705 585.586 181.639C585.586 180.586 584.82 179.861 583.781 179.861ZM596.069 178.029C596.055 180.271 597.409 182.514 599.309 183.361L598.53 184.387C597.122 183.717 596.008 182.343 595.44 180.668C594.866 182.459 593.738 183.942 592.268 184.66L591.475 183.566C593.403 182.705 594.757 180.367 594.757 178.029V175.938H596.069V178.029ZM601.716 174.912V187.189H600.417V174.912H601.716ZM612.883 176.088V177.291C612.883 178.809 612.883 180.504 612.418 183.006L611.105 182.869C611.584 180.504 611.584 178.768 611.584 177.291V177.141H604.146V176.088H612.883ZM614.141 184.428V185.508H602.971V184.428H607.223V180.107H608.508V184.428H614.141ZM616.571 185.057L615.478 188.83H614.316L615.04 185.057H616.571ZM630.183 174.912V184.004H628.884V180.627H626.97V179.533H628.884V178.248H626.97V177.182H628.884V174.912H630.183ZM626.834 175.869V176.922H625.658V181.023C626.177 180.982 626.676 180.941 627.162 180.887L627.216 181.844C624.865 182.213 622.117 182.254 620.148 182.268L619.984 181.174L621.474 181.16V176.922H620.326V175.869H626.834ZM630.498 185.85V186.902H622.199V183.266H623.511V185.85H630.498ZM622.732 181.146C623.286 181.133 623.846 181.119 624.414 181.092V176.922H622.732V181.146ZM641.542 174.912V187.189H640.243V174.912H641.542ZM637.796 176.02V180.49H633.393V183.17C635.376 183.163 637.112 183.074 639.163 182.732L639.286 183.799C637.112 184.168 635.266 184.25 633.106 184.25H632.067V179.451H636.47V177.072H632.054V176.02H637.796ZM652.312 174.912V179.875H654.281V180.955H652.312V187.162H651.027V174.912H652.312ZM649.961 176.826V177.893H642.701V176.826H645.723V175.076H647.021V176.826H649.961ZM646.379 178.795C648.129 178.795 649.414 179.971 649.428 181.639C649.414 183.32 648.129 184.482 646.379 184.496C644.615 184.482 643.33 183.32 643.33 181.639C643.33 179.971 644.615 178.795 646.379 178.795ZM646.379 179.861C645.34 179.861 644.561 180.586 644.574 181.639C644.561 182.705 645.34 183.416 646.379 183.402C647.418 183.416 648.184 182.705 648.184 181.639C648.184 180.586 647.418 179.861 646.379 179.861ZM664.696 174.912V187.162H663.466V174.912H664.696ZM662.112 175.227V186.561H660.882V180.873H658.489C657.758 182.295 656.596 183.539 654.866 184.551L654.128 183.621C656.726 182.076 657.977 180.019 658.202 177.496H654.702V176.43H659.487C659.481 177.626 659.317 178.768 658.941 179.834H660.882V175.227H662.112ZM679.47 180.668V181.734H668.287V180.668H679.47ZM678.171 178.549V179.602H669.681V175.35H678.089V176.416H670.966V178.549H678.171ZM673.865 182.691C676.504 182.691 678.089 183.498 678.089 184.92C678.089 186.342 676.504 187.148 673.865 187.135C671.212 187.148 669.613 186.342 669.613 184.92C669.613 183.498 671.212 182.691 673.865 182.691ZM673.865 183.689C671.992 183.703 670.925 184.141 670.925 184.92C670.925 185.699 671.992 186.137 673.865 186.137C675.711 186.137 676.791 185.699 676.791 184.92C676.791 184.141 675.711 183.703 673.865 183.689ZM690.884 181.598V182.65H679.673V181.598H684.636V180.436H681.108V177.318H688.177V176.225H681.081V175.199H689.475V178.275H682.393V179.424H689.721V180.436H685.921V181.598H690.884ZM689.544 183.512V187.066H688.231V184.551H680.93V183.512H689.544ZM700.629 174.912V179.875H702.598V180.955H700.629V187.162H699.344V174.912H700.629ZM698.277 176.826V177.893H691.018V176.826H694.039V175.076H695.338V176.826H698.277ZM694.695 178.795C696.445 178.795 697.73 179.971 697.744 181.639C697.73 183.32 696.445 184.482 694.695 184.496C692.932 184.482 691.646 183.32 691.646 181.639C691.646 179.971 692.932 178.795 694.695 178.795ZM694.695 179.861C693.656 179.861 692.877 180.586 692.891 181.639C692.877 182.705 693.656 183.416 694.695 183.402C695.734 183.416 696.5 182.705 696.5 181.639C696.5 180.586 695.734 179.861 694.695 179.861ZM706.218 178.262C706.218 180.217 707.038 182.309 708.679 183.307L707.954 184.305C706.806 183.614 706.027 182.391 705.616 180.969C705.158 182.527 704.318 183.854 703.128 184.578L702.321 183.607C704.058 182.568 704.96 180.408 704.96 178.316V176.033H706.218V178.262ZM713.027 174.912V187.162H711.782V174.912H713.027ZM710.484 175.145V186.561H709.253V180.299H707.353V179.219H709.253V175.145H710.484ZM725.096 184.551V185.631H713.885V184.551H716.565V181.352C715.56 180.798 714.952 179.916 714.952 178.822C714.952 176.895 716.838 175.623 719.463 175.623C722.102 175.623 723.989 176.895 723.989 178.822C723.989 179.902 723.401 180.771 722.416 181.324V184.551H725.096ZM719.463 176.662C717.536 176.662 716.209 177.496 716.209 178.822C716.209 180.135 717.536 180.996 719.463 180.996C721.377 180.996 722.731 180.135 722.731 178.822C722.731 177.496 721.377 176.662 719.463 176.662ZM717.85 184.551H721.104V181.816C720.605 181.946 720.051 182.008 719.463 182.008C718.889 182.008 718.342 181.946 717.85 181.83V184.551ZM727.541 176.102L727.418 183.143H726.064L725.941 176.102H727.541ZM726.748 186.096C726.214 186.096 725.763 185.658 725.777 185.125C725.763 184.592 726.214 184.154 726.748 184.154C727.267 184.154 727.718 184.592 727.718 185.125C727.718 185.658 727.267 186.096 726.748 186.096ZM265.822 198.156C265.809 201.766 264.701 204.979 260.23 207.18L259.52 206.209C261.734 205.122 263.054 203.803 263.785 202.244L259.779 202.627L259.588 201.506L264.182 201.191C264.366 200.569 264.476 199.906 264.523 199.209H260.23V198.156H265.822ZM268.994 196.912V201.807H270.895V202.873H268.994V209.148H267.695V196.912H268.994ZM280.777 202.723V203.789H272.245V198.006H280.667V199.072H273.53V202.723H280.777ZM282.062 206.469V207.549H270.851V206.469H282.062ZM293.448 202.531V203.529H282.237V202.531H293.448ZM292.067 204.391V207.084H284.875V208.096H292.45V209.012H283.577V206.223H290.782V205.32H283.563V204.391H292.067ZM292.039 197.227V199.879H284.957V200.809H292.245V201.725H283.672V199.018H290.741V198.143H283.645V197.227H292.039ZM307.552 202.668V203.734H296.368V202.668H307.552ZM306.253 200.549V201.602H297.763V197.35H306.171V198.416H299.048V200.549H306.253ZM301.946 204.691C304.585 204.691 306.171 205.498 306.171 206.92C306.171 208.342 304.585 209.148 301.946 209.135C299.294 209.148 297.694 208.342 297.694 206.92C297.694 205.498 299.294 204.691 301.946 204.691ZM301.946 205.689C300.073 205.703 299.007 206.141 299.007 206.92C299.007 207.699 300.073 208.137 301.946 208.137C303.792 208.137 304.872 207.699 304.872 206.92C304.872 206.141 303.792 205.703 301.946 205.689ZM318.965 203.598V204.65H307.754V203.598H312.717V202.436H309.189V199.318H316.258V198.225H309.162V197.199H317.557V200.275H310.475V201.424H317.803V202.436H314.002V203.598H318.965ZM317.625 205.512V209.066H316.312V206.551H309.012V205.512H317.625ZM328.71 196.912V201.875H330.679V202.955H328.71V209.162H327.425V196.912H328.71ZM326.359 198.826V199.893H319.099V198.826H322.12V197.076H323.419V198.826H326.359ZM322.777 200.795C324.527 200.795 325.812 201.971 325.825 203.639C325.812 205.32 324.527 206.482 322.777 206.496C321.013 206.482 319.728 205.32 319.728 203.639C319.728 201.971 321.013 200.795 322.777 200.795ZM322.777 201.861C321.737 201.861 320.958 202.586 320.972 203.639C320.958 204.705 321.737 205.416 322.777 205.402C323.816 205.416 324.581 204.705 324.581 203.639C324.581 202.586 323.816 201.861 322.777 201.861ZM333.889 197.828C335.003 197.828 335.926 198.471 336.473 199.578H339.495V196.912H340.78V209.189H339.495V204.486H336.555C336.029 205.717 335.065 206.428 333.889 206.428C332.057 206.428 330.772 204.76 330.786 202.121C330.772 199.496 332.057 197.828 333.889 197.828ZM333.889 198.99C332.782 198.99 332.016 200.193 332.016 202.121C332.016 204.062 332.782 205.266 333.889 205.266C334.996 205.266 335.762 204.062 335.762 202.121C335.762 200.193 334.996 198.99 333.889 198.99ZM336.842 200.645C336.931 201.096 336.993 201.588 336.993 202.121C336.993 202.586 336.952 203.017 336.87 203.42H339.495V200.645H336.842ZM346.093 208H344.493L348.048 198.102H349.784L353.352 208H351.753L350.85 205.389H346.995L346.093 208ZM347.432 204.131H350.413L348.95 199.906H348.882L347.432 204.131ZM361.895 198.102V208H360.514L355.496 200.768H355.414V208H353.91V198.102H355.305L360.322 205.348H360.418V198.102H361.895ZM365.936 208V198.102H369.463C371.76 198.102 372.895 199.482 372.895 201.314C372.895 203.133 371.76 204.527 369.463 204.527H367.44V208H365.936ZM367.44 203.242H369.313C370.776 203.242 371.377 202.422 371.377 201.314C371.377 200.193 370.776 199.387 369.313 199.387H367.44V203.242ZM373.576 208H371.976L375.531 198.102H377.267L380.836 208H379.236L378.334 205.389H374.478L373.576 208ZM374.916 204.131H377.896L376.433 199.906H376.365L374.916 204.131ZM381.393 198.102H383.225L386.356 205.771H386.479L389.61 198.102H391.442V208H390.007V200.85H389.911L387.012 207.986H385.823L382.911 200.836H382.829V208H381.393V198.102ZM405.095 196.912V209.189H403.796V196.912H405.095ZM401.349 198.02V202.49H396.946V205.17C398.929 205.163 400.665 205.074 402.716 204.732L402.839 205.799C400.665 206.168 398.82 206.25 396.659 206.25H395.62V201.451H400.023V199.072H395.607V198.02H401.349ZM416.563 196.926V209.162H415.25V206.236H412.543V205.252H415.25V196.926H416.563ZM406.268 203.297C408.592 203.283 411.682 203.27 414.362 202.9L414.43 203.857C413.268 204.062 412.058 204.186 410.875 204.254V208.779H409.577V204.322C408.455 204.37 407.389 204.377 406.446 204.377L406.268 203.297ZM410.301 197.486C412.106 197.486 413.405 198.484 413.405 199.934C413.405 201.41 412.106 202.367 410.301 202.367C408.455 202.367 407.17 201.41 407.17 199.934C407.17 198.484 408.455 197.486 410.301 197.486ZM410.301 198.484C409.166 198.484 408.387 199.072 408.401 199.934C408.387 200.809 409.166 201.369 410.301 201.369C411.395 201.369 412.174 200.809 412.174 199.934C412.174 199.072 411.395 198.484 410.301 198.484ZM427.648 202.723V203.789H419.117V198.006H427.539V199.072H420.402V202.723H427.648ZM428.933 206.469V207.549H417.722V206.469H428.933ZM441.971 196.912V209.162H440.672V196.912H441.971ZM431.908 205.826C432.913 205.819 434.068 205.812 435.271 205.771V204.555C433.836 204.37 432.906 203.529 432.92 202.326C432.906 200.945 434.109 200.029 435.887 200.029C437.678 200.029 438.908 200.945 438.908 202.326C438.908 203.516 437.979 204.35 436.557 204.541V205.73C437.691 205.683 438.84 205.594 439.92 205.457L440.016 206.428C437.295 206.879 434.328 206.906 432.086 206.906L431.908 205.826ZM439.646 198.375V199.414H432.168V198.375H435.271V196.939H436.57V198.375H439.646ZM435.887 201.041C434.861 201.041 434.137 201.547 434.15 202.326C434.137 203.105 434.861 203.584 435.887 203.584C436.939 203.584 437.664 203.105 437.664 202.326C437.664 201.547 436.939 201.041 435.887 201.041ZM453.425 196.926V206.209H452.126V205.033H449.665V204.117H452.126V196.926H453.425ZM453.726 207.85V208.902H444.88V205.307H446.165V207.85H453.726ZM443.185 202.518C445.454 202.504 448.503 202.477 451.114 202.148L451.196 203.078C450.151 203.249 449.05 203.365 447.97 203.434V205.826H446.671V203.502C445.482 203.557 444.34 203.563 443.349 203.557L443.185 202.518ZM447.191 197.391C448.982 197.391 450.226 198.252 450.226 199.551C450.226 200.85 448.982 201.684 447.191 201.684C445.372 201.684 444.142 200.85 444.142 199.551C444.142 198.252 445.372 197.391 447.191 197.391ZM447.191 198.361C446.097 198.348 445.359 198.812 445.372 199.551C445.359 200.275 446.097 200.727 447.191 200.727C448.243 200.727 448.982 200.275 448.995 199.551C448.982 198.812 448.243 198.348 447.191 198.361ZM464.784 196.912V209.189H463.485V196.912H464.784ZM458.235 197.828C460.053 197.828 461.393 199.496 461.393 202.121C461.393 204.76 460.053 206.428 458.235 206.428C456.389 206.428 455.063 204.76 455.063 202.121C455.063 199.496 456.389 197.828 458.235 197.828ZM458.235 198.99C457.1 198.99 456.321 200.193 456.321 202.121C456.321 204.062 457.1 205.266 458.235 205.266C459.356 205.266 460.135 204.062 460.135 202.121C460.135 200.193 459.356 198.99 458.235 198.99ZM476.057 202.094V203.16H473.473V205.43C474.608 205.375 475.75 205.3 476.823 205.184L476.919 206.141C474.225 206.551 471.313 206.578 468.989 206.592L468.825 205.512C469.857 205.512 470.999 205.505 472.175 205.471V203.16H469.714V198.047H476.003V199.1H470.999V202.094H476.057ZM478.887 196.912V209.189H477.589V196.912H478.887ZM490.314 196.926V205.895H489.016V196.926H490.314ZM490.684 207.85V208.902H482.303V205.047H483.615V207.85H490.684ZM484.613 198.812C484.6 200.604 485.748 202.244 487.635 202.9L486.965 203.939C485.55 203.413 484.504 202.374 483.957 201.041C483.417 202.463 482.357 203.604 480.922 204.158L480.225 203.133C482.152 202.422 483.287 200.658 483.287 198.812V197.596H484.613V198.812ZM504.815 198.266V199.332H494.848V198.266H499.209V196.857H500.495V198.266H504.815ZM505.485 204.842V205.908H500.495V209.176H499.209V205.908H494.274V204.842H505.485ZM499.852 199.961C502.395 199.961 503.926 200.686 503.926 202.025C503.926 203.338 502.395 204.062 499.852 204.076C497.295 204.062 495.764 203.338 495.778 202.025C495.764 200.686 497.295 199.961 499.852 199.961ZM499.852 200.932C498.088 200.932 497.118 201.314 497.118 202.025C497.118 202.709 498.088 203.092 499.852 203.092C501.602 203.092 502.573 202.709 502.586 202.025C502.573 201.314 501.602 200.932 499.852 200.932ZM507.875 207.057L506.781 210.83H505.619L506.343 207.057H507.875ZM515.566 199.551C515.566 200.986 516.674 202.354 518.547 202.9L517.932 203.912C516.53 203.488 515.491 202.606 514.951 201.479C514.418 202.75 513.358 203.755 511.916 204.24L511.273 203.201C513.146 202.613 514.281 201.137 514.281 199.551V199.346H511.615V198.307H514.281V196.871H515.58V198.307H518.232V199.346H515.566V199.551ZM521.486 196.912V205.361H520.188V201.396H517.863V200.316H520.188V196.912H521.486ZM518.137 204.801C518.137 206.387 519.887 207.727 522.225 208.082L521.705 209.107C519.798 208.793 518.198 207.843 517.467 206.496C516.722 207.829 515.122 208.793 513.201 209.107L512.736 208.082C515.006 207.713 516.797 206.332 516.811 204.801V204.555H518.137V204.801ZM535.139 197.678V198.758C535.139 199.92 535.139 201.178 534.797 202.928H536.561V203.994H531.598V209.176H530.286V203.994H525.391V202.928H533.485C533.854 201.185 533.854 199.899 533.854 198.758V198.744H526.758V197.678H535.139ZM547.332 196.912V209.162H546.087V202.777H544.57V208.561H543.339V197.145H544.57V201.711H546.087V196.912H547.332ZM541.959 198.293V205.936H537.201V198.293H541.959ZM538.431 199.318V204.896H540.742V199.318H538.431ZM559.388 202.531V203.529H548.177V202.531H559.388ZM558.007 204.391V207.084H550.815V208.096H558.389V209.012H549.516V206.223H556.721V205.32H549.503V204.391H558.007ZM557.979 197.227V199.879H550.897V200.809H558.184V201.725H549.612V199.018H556.68V198.143H549.585V197.227H557.979ZM571.851 196.912V201.875H573.82V202.955H571.851V209.162H570.566V196.912H571.851ZM569.499 198.826V199.893H562.239V198.826H565.261V197.076H566.56V198.826H569.499ZM565.917 200.795C567.667 200.795 568.952 201.971 568.966 203.639C568.952 205.32 567.667 206.482 565.917 206.496C564.154 206.482 562.868 205.32 562.868 203.639C562.868 201.971 564.154 200.795 565.917 200.795ZM565.917 201.861C564.878 201.861 564.099 202.586 564.112 203.639C564.099 204.705 564.878 205.416 565.917 205.402C566.956 205.416 567.722 204.705 567.722 203.639C567.722 202.586 566.956 201.861 565.917 201.861ZM578.205 200.029C578.192 202.271 579.545 204.514 581.446 205.361L580.666 206.387C579.258 205.717 578.144 204.343 577.577 202.668C577.002 204.459 575.874 205.942 574.405 206.66L573.612 205.566C575.539 204.705 576.893 202.367 576.893 200.029V197.938H578.205V200.029ZM583.852 196.912V209.189H582.553V196.912H583.852ZM591.355 197.951V198.99H594.021V196.926H595.32V205.854H594.021V202.682H591.355V203.748H585.668V197.951H591.355ZM586.953 199.004V202.723H590.084V199.004H586.953ZM595.593 207.85V208.902H587.322V205.033H588.634V207.85H595.593ZM591.355 201.615H594.021V200.057H591.355V201.615ZM610.422 203.939V204.992H605.418V209.148H604.146V204.992H599.211V203.939H610.422ZM609.014 197.568V202.381H600.619V197.568H609.014ZM601.891 198.607V201.369H607.715V198.607H601.891ZM621.835 206.605V207.699H610.624V206.605H613.687V204.445H611.991V200.549H619.183V198.84H611.964V197.773H620.468V201.602H613.277V203.379H620.755V204.445H618.896V206.605H621.835ZM614.945 206.605H617.624V204.445H614.945V206.605ZM630.32 197.172C633.013 197.172 634.695 198.047 634.695 199.523C634.695 200.973 633.013 201.834 630.32 201.834C627.64 201.834 625.945 200.973 625.945 199.523C625.945 198.047 627.64 197.172 630.32 197.172ZM630.32 198.197C628.433 198.197 627.271 198.676 627.285 199.523C627.271 200.344 628.433 200.809 630.32 200.822C632.193 200.809 633.355 200.344 633.355 199.523C633.355 198.676 632.193 198.197 630.32 198.197ZM634.545 204.924V209.012H626.082V204.924H634.545ZM627.367 205.963V207.959H633.287V205.963H627.367ZM635.912 202.777V203.83H624.742V202.777H635.912ZM647.352 206.605V207.699H636.141V206.605H639.204V204.445H637.509V200.549H644.7V198.84H637.481V197.773H645.985V201.602H638.794V203.379H646.272V204.445H644.413V206.605H647.352ZM640.462 206.605H643.141V204.445H640.462V206.605ZM657.33 197.65V198.771C657.33 200.05 657.33 201.465 656.906 203.461H658.711V204.514H653.789V209.148H652.49V204.514H647.541V203.461H655.635C655.819 202.661 655.936 201.943 656.004 201.287L648.73 201.656L648.566 200.535L656.072 200.303C656.1 199.756 656.1 199.25 656.1 198.771V198.703H648.922V197.65H657.33ZM669.058 197.432V198.498H667.28V201.068H669.003V202.094H665.161V203.475H670.111V204.514H658.941V203.475H663.876V202.094H660.021V201.068H661.757V198.498H659.966V197.432H669.058ZM668.853 207.85V208.902H660.349V205.498H661.661V207.85H668.853ZM663.042 201.068H665.982V198.498H663.042V201.068ZM675.918 197.117C678.68 197.117 680.293 197.855 680.293 199.223C680.293 200.59 678.68 201.342 675.918 201.342C673.157 201.342 671.543 200.59 671.543 199.223C671.543 197.855 673.157 197.117 675.918 197.117ZM675.918 198.074C673.963 198.074 672.883 198.498 672.897 199.223C672.883 199.975 673.963 200.371 675.918 200.371C677.873 200.371 678.954 199.975 678.954 199.223C678.954 198.498 677.873 198.074 675.918 198.074ZM681.51 202.094V203.133H670.34V202.094H681.51ZM680.102 204.076V206.947H672.965V208.041H680.444V209.039H671.694V206.004H678.817V205.047H671.68V204.076H680.102ZM694.384 202.723V203.789H685.852V198.006H694.274V199.072H687.138V202.723H694.384ZM695.669 206.469V207.549H684.458V206.469H695.669ZM706.016 196.926V203.68H704.717V196.926H706.016ZM702.105 197.5V200.918H697.771V202.367C699.911 202.354 701.49 202.299 703.35 201.998L703.514 203.051C701.518 203.379 699.836 203.434 697.525 203.447H696.5V199.906H700.82V198.553H696.473V197.5H702.105ZM699.275 204.254V205.58H704.73V204.254H706.016V209.012H697.977V204.254H699.275ZM699.275 207.959H704.73V206.605H699.275V207.959ZM717.429 196.912V209.162H716.13V196.912H717.429ZM709.294 198.102V204.924C711.078 204.91 712.958 204.767 714.927 204.363L715.105 205.457C712.931 205.895 710.962 206.045 709.034 206.045H708.009V198.102H709.294ZM728.2 196.912V201.656H730.168V202.723H728.2V209.189H726.901V196.912H728.2ZM724.905 198.088V199.141H720.475V205.061C722.533 205.054 724.078 204.965 725.821 204.65L725.985 205.744C724.071 206.086 722.444 206.154 720.161 206.141H719.176V198.088H724.905ZM732.312 198.102L732.189 205.143H730.836L730.712 198.102H732.312ZM731.519 208.096C730.986 208.096 730.535 207.658 730.548 207.125C730.535 206.592 730.986 206.154 731.519 206.154C732.039 206.154 732.49 206.592 732.49 207.125C732.49 207.658 732.039 208.096 731.519 208.096Z" fill="#676666"/>
<line x1="259" y1="151.75" x2="794" y2="151.75" stroke="#33160D" stroke-width="0.5"/>
<path d="M64.975 77.7217C64.4855 78.4577 68.0798 139.055 70.0944 172.325C70.7653 183.407 81.3327 191.151 92.1054 188.465L204.198 160.513L220.418 175.382L223.46 79.411L64.975 77.7217Z" fill="#FFAB6D"/>
<path d="M223.458 79.4111C223.458 79.4111 212.221 106.867 214.756 135.507C217.291 164.145 220.416 175.382 220.416 175.382L223.458 79.4111Z" fill="#260B05"/>
<path d="M199.809 78.7264L189.693 78.6751L151.73 78.5039H149.933L129.103 78.4012L125.389 78.3841H124.79L123.3 78.4183L103.223 78.6408L95.3844 78.7264C95.4357 78.7949 95.4871 78.8462 95.5213 78.8976C97.4554 81.1398 118.131 105.735 117.96 126.018C117.926 130.913 116.659 135.568 113.647 139.591C113.51 139.762 113.373 139.916 113.219 140.07C112.654 140.618 111.953 140.96 111.217 141.097C110.84 141.165 110.464 141.182 110.087 141.131C109.351 141.063 108.649 140.772 108.05 140.292C108.016 140.258 107.982 140.241 107.93 140.207C107.93 140.207 107.93 140.19 107.913 140.19C104.935 137.793 100.006 133.857 94.3745 129.355C91.2252 126.839 87.8191 124.135 84.4302 121.448C82.9753 120.301 81.5205 119.154 80.0999 118.007C79.7747 117.751 79.4495 117.494 79.1414 117.254C74.4345 113.54 69.9501 110.031 66.2873 107.19C62.7614 104.486 60.0058 102.398 58.5509 101.388C50.7803 95.9621 36.5912 83.4675 21.7346 81.0884C12.4235 79.6164 -17.187 77.4769 -38 76.0734C-18.6932 37.2031 15.1278 6.80527 56.3772 -8C80.2197 -7.55499 108.033 -6.25416 113.288 -2.36885C121.264 3.50191 135.983 16.955 151.062 31.2297C164.053 43.5361 177.301 56.4757 186.698 65.7354C194.623 73.5403 199.809 78.7264 199.809 78.7264Z" fill="#BA684E"/>
<path d="M107.71 139.395C109.851 138.24 110.989 135.719 111.066 133.288C111.143 130.856 110.323 128.489 109.365 126.252C107.773 122.539 105.707 118.926 102.633 116.304C99.5591 113.682 95.3366 112.174 91.4034 113.097C87.4701 114.019 84.1531 117.761 84.4457 121.79C92.3704 128.398 99.7833 132.787 107.71 139.395Z" fill="#DC9F8E"/>
<path d="M151.723 78.5117H149.937C146.601 74.7787 126.113 52.2661 114.479 49.5464C112.256 49.0295 109.735 48.9713 107.075 49.2486C106.359 49.3273 105.646 49.4266 104.93 49.5464C93.1185 51.4326 79.8759 58.6983 79.6979 58.7788C79.3402 58.9773 78.8832 58.8386 78.6847 58.4809C78.4861 58.1232 78.6059 57.6679 78.9825 57.4676C79.8965 56.9507 101.675 45.0398 114.816 48.0967C127.919 51.1741 150.572 76.9832 151.544 78.0752C151.643 78.1933 151.703 78.3525 151.723 78.5117Z" fill="#260B05"/>
<path d="M88.9647 70.3552C88.7952 70.3552 88.6241 70.297 88.4855 70.1789C88.1705 69.9153 88.1311 69.4446 88.3964 69.1297L105.8 48.517C106.065 48.2004 106.534 48.1627 106.849 48.4297C107.164 48.6932 107.203 49.1639 106.938 49.4789L89.5347 70.0916C89.3875 70.2662 89.1769 70.3552 88.9647 70.3552Z" fill="#260B05"/>
<path d="M125.377 78.3931H124.782L123.293 78.4136C111.539 66.8792 98.2776 60.9041 98.1184 60.8236C97.9199 60.7449 97.7813 60.5857 97.7214 60.4077C97.6614 60.2297 97.6615 60.0311 97.7419 59.8514C97.8805 59.533 98.2177 59.3756 98.5361 59.4338C98.596 59.4338 98.6747 59.4543 98.7346 59.4732C98.8733 59.5331 113.187 65.9652 125.377 78.3931Z" fill="#260B05"/>
<path d="M64.7214 41.2246C64.7214 41.2246 85.5036 65.3016 96.9079 80.7607C108.312 96.2198 128.968 134.111 111.227 141.081C111.227 141.081 110.087 143.109 97.9212 132.718C84.9405 121.63 45.2059 89.3785 33.7998 84.8171" stroke="#260B05" stroke-width="0.8699" stroke-miterlimit="10" stroke-linecap="round" stroke-linejoin="round"/>
<path d="M103.497 83.0433C103.497 83.0433 97.4139 34.8894 141.26 31.0879C185.106 27.2865 189.92 80.5084 189.92 80.5084" stroke="#FFAB6D" stroke-width="3.4797" stroke-miterlimit="10"/>
<path d="M255.572 34.41C255.372 35.75 255.062 37.08 254.642 38.36C254.592 38.53 254.532 38.7 254.472 38.86V38.87C253.442 41.87 251.842 44.65 249.602 46.96C248.772 47.82 247.872 48.61 246.902 49.31C246.672 49.48 246.432 49.65 246.202 49.79C242.082 52.6 237.032 54.19 232.022 55.18C227.992 55.97 223.632 56.58 220.642 59.27C220.642 59.08 220.632 58.89 220.612 58.7C220.582 58.15 220.532 57.59 220.462 57.02C219.852 52.12 218.162 46.56 218.012 41.9C217.952 39.91 218.112 37.91 218.502 35.96C218.552 35.66 218.622 35.37 218.692 35.07C219.952 29.64 222.882 24.59 227.242 21.03C227.392 20.91 227.532 20.79 227.702 20.67C228.292 20.2 228.922 19.76 229.582 19.35C232.062 17.79 234.802 16.76 237.672 16.03C237.842 15.99 238.022 15.95 238.192 15.91C239.842 15.52 241.522 15.23 243.232 15C244.362 16.38 245.452 17.8 246.492 19.24C246.652 19.45 246.812 19.67 246.952 19.88C248.652 22.24 250.232 24.67 251.702 27.18C251.802 27.34 251.892 27.5 251.982 27.66C253.272 29.86 254.462 32.11 255.572 34.41Z" fill="#5D7A72"/>
<path d="M246.952 19.8802C244.182 22.5902 241.552 25.4202 239.062 28.3702C238.902 28.5702 238.752 28.7502 238.592 28.9402C236.242 31.7702 234.022 34.7102 231.952 37.7502C231.842 37.9102 231.732 38.0702 231.612 38.2402C229.332 41.6202 227.232 45.1202 225.322 48.7202C225.222 48.8802 225.142 49.0402 225.052 49.2202C223.422 52.3002 221.942 55.4703 220.612 58.7003C220.582 58.1503 220.532 57.5902 220.462 57.0202C221.612 54.3202 222.862 51.6602 224.232 49.0602V49.0502C224.332 48.8402 224.442 48.6503 224.552 48.4503C226.562 44.6603 228.782 40.9802 231.202 37.4302V37.4202C231.342 37.2202 231.472 37.0302 231.602 36.8302C233.642 33.8802 235.812 31.0203 238.112 28.2603C238.282 28.0703 238.462 27.8602 238.632 27.6702C241.102 24.7402 243.722 21.9302 246.492 19.2402C246.652 19.4502 246.812 19.6702 246.952 19.8802Z" fill="#260B05"/>
<path d="M251.982 27.6602L238.592 28.9402L238.152 28.9802L238.112 28.2602L237.672 16.0302C237.842 15.9902 238.022 15.9502 238.192 15.9102L238.632 27.6701L238.662 28.4102L239.062 28.3701L251.702 27.1801C251.802 27.3401 251.892 27.5002 251.982 27.6602Z" fill="#260B05"/>
<path d="M227.244 21.0308L231.206 37.4178L231.205 37.4278L231.398 38.2338L231.613 38.2398L254.47 38.8688L254.471 38.8588C254.533 38.7018 254.587 38.5328 254.64 38.3648L231.955 37.7468L231.826 37.7418L231.603 36.8288L227.699 20.6748C227.533 20.7878 227.388 20.9138 227.244 21.0308Z" fill="#260B05"/>
<path d="M218.503 35.9643L224.231 49.0463L224.23 49.0563L224.299 49.1983L224.472 49.1993L225.053 49.2193L246.2 49.7933C246.434 49.6463 246.67 49.4803 246.907 49.3133L225.32 48.7163L224.664 48.6973L224.554 48.4473L218.689 35.0713C218.619 35.3713 218.551 35.6613 218.503 35.9643Z" fill="#260B05"/>
<path d="M751.009 106.802C749.78 107.223 748.448 107.229 747.148 107.198C737.442 106.954 727.497 104.581 719.821 98.6379C719.283 98.2192 718.746 97.7744 718.371 97.2041C717.992 96.6331 717.781 95.943 717.972 95.2881C717.972 95.2881 718.194 94.9335 718.673 94.543C719.358 93.9804 720.56 93.3382 722.353 93.5476C722.353 93.5476 722.427 93.4764 722.566 93.3495C722.85 93.0887 723.431 92.5938 724.214 92.0849C725.923 90.9823 728.615 89.8023 731.489 90.718C731.67 90.7758 731.847 90.8096 732.022 90.8202C732.459 90.8562 732.883 90.7695 733.293 90.5841C734.598 90.0194 735.737 88.5489 736.46 87.2681C737.022 86.2804 737.342 85.0912 737.03 84C738.711 84.5618 740.351 85.1173 741.877 86.0154C743.408 86.9149 744.775 88.1802 745.487 89.8023C746.055 91.0902 746.177 92.5529 745.951 93.9501L745.866 94.4013C745.854 94.4478 745.845 94.5 745.832 94.5465C745.832 94.5465 745.832 94.5465 745.836 94.5479L745.823 94.5944C746.767 94.9123 747.656 95.4707 748.173 96.325C748.599 97.0271 748.812 97.8597 748.783 98.6809C748.782 98.8177 748.772 98.9558 748.75 99.0912C748.749 99.1278 748.744 99.1624 748.739 99.1976C749.143 99.1694 749.455 99.4317 749.815 99.6149C750.731 100.089 751.602 100.679 752.275 101.462C752.466 101.682 752.635 101.919 752.786 102.169C753.172 102.801 753.421 103.52 753.439 104.263C753.479 105.563 752.236 106.376 751.009 106.802Z" fill="white"/>
<path opacity="0.13" d="M748.748 99.0913C745.778 99.1893 742.84 100.608 739.824 100.611C738.648 100.613 737.481 100.395 736.338 100.106C733.493 99.3852 730.765 98.2136 728.287 96.6395C726.422 95.4588 724.657 94.0313 722.566 93.3496C722.85 93.0888 723.431 92.5939 724.215 92.085C726.527 94.598 729.304 96.667 732.445 98.0141C735.806 99.4564 739.571 100.024 743.179 99.4191C744.443 99.2083 745.685 98.8593 746.956 98.705C747.63 98.6218 748.21 98.6006 748.781 98.681C748.781 98.8178 748.771 98.9559 748.748 99.0913Z" fill="#BA684E"/>
<path opacity="0.13" d="M745.95 93.9498C745.729 93.9223 745.51 93.9089 745.292 93.9047C744.153 93.8849 743.027 94.1105 741.9 94.2494C740.77 94.3868 739.597 94.4263 738.523 94.0506C737.003 93.5183 735.888 92.2297 734.561 91.3211C734.157 91.044 733.73 90.8015 733.292 90.583C732.882 90.7691 732.459 90.8551 732.021 90.8192C732.349 90.9897 732.661 91.1871 732.962 91.405C733.446 91.7539 733.884 92.1592 734.369 92.5082C734.961 92.9319 735.615 93.2625 736.269 93.5754C737.511 94.1739 738.809 94.7153 740.182 94.8429C741.444 94.9642 742.712 94.7217 743.976 94.5934C744.59 94.5306 745.214 94.4982 745.83 94.5454C745.83 94.5454 745.83 94.5454 745.834 94.5469L745.95 93.9498Z" fill="#BA684E"/>
<path opacity="0.13" d="M751.009 106.802C749.78 107.223 748.448 107.229 747.148 107.198C737.442 106.954 727.497 104.581 719.821 98.6379C719.283 98.2192 718.746 97.7744 718.371 97.2041C717.992 96.6331 717.781 95.943 717.972 95.2881C717.972 95.2881 718.194 94.9335 718.673 94.543C720.719 97.6221 724.37 99.3569 727.925 100.519C733.043 102.189 738.464 103.07 743.833 102.67C746.814 102.447 749.844 101.837 752.784 102.169C753.17 102.801 753.418 103.52 753.437 104.263C753.479 105.563 752.236 106.376 751.009 106.802Z" fill="#BA684E"/>
<path d="M768.34 109.829L768.086 116.208L767.332 117.426L767.987 118.647L767.536 130.032C767.536 130.032 710.387 127.959 710.119 128.227L709.985 115.32L711.373 113.372L709.929 110.336L709.816 99.4449L709.795 97.3936C709.781 95.589 711.452 94.9545 713.207 95.3634L766.197 107.714C767.353 107.982 768.192 108.242 768.318 109.392C768.34 109.532 768.347 109.681 768.34 109.829Z" fill="#BA684E"/>
<path d="M768.086 116.209L767.987 118.648L709.984 115.321L709.929 110.337L768.086 116.209Z" fill="white"/>
<path d="M724.27 107.084C724.021 107.514 722.843 107.299 721.638 106.603C720.432 105.907 719.657 104.994 719.906 104.564C720.155 104.133 721.333 104.349 722.538 105.044C723.743 105.74 724.519 106.653 724.27 107.084Z" fill="white"/>
<path d="M738.189 107.863C738.438 108.294 737.662 109.207 736.457 109.902C735.252 110.598 734.074 110.813 733.825 110.383C733.576 109.953 734.352 109.04 735.557 108.344C736.762 107.648 737.94 107.433 738.189 107.863Z" fill="white"/>
<path d="M750.026 112.339C749.7 112.714 748.585 112.276 747.535 111.362C746.485 110.448 745.9 109.403 746.226 109.029C746.552 108.654 747.668 109.091 748.717 110.005C749.767 110.919 750.353 111.964 750.026 112.339Z" fill="white"/>
<path d="M756.956 124.368C756.63 124.743 755.514 124.306 754.465 123.391C753.415 122.477 752.829 121.432 753.156 121.058C753.482 120.683 754.597 121.121 755.647 122.034C756.696 122.948 757.282 123.993 756.956 124.368Z" fill="white"/>
<path d="M745.509 121.362C745.757 121.793 744.982 122.706 743.777 123.402C742.572 124.097 741.394 124.312 741.145 123.882C740.896 123.452 741.672 122.539 742.877 121.843C744.082 121.147 745.26 120.932 745.509 121.362Z" fill="white"/>
<path d="M761.257 111.254C761.505 111.685 760.73 112.598 759.525 113.294C758.32 113.989 757.142 114.204 756.893 113.774C756.644 113.344 757.42 112.431 758.625 111.735C759.831 111.039 761.009 110.824 761.257 111.254Z" fill="white"/>
<path d="M719.351 120.222C719.599 120.653 718.824 121.565 717.619 122.261C716.414 122.957 715.236 123.172 714.987 122.742C714.738 122.311 715.514 121.398 716.719 120.703C717.924 120.007 719.103 119.791 719.351 120.222Z" fill="white"/>
<path d="M731.794 123.651C731.402 123.956 730.392 123.313 729.537 122.214C728.683 121.116 728.309 119.978 728.7 119.673C729.092 119.367 730.103 120.01 730.958 121.109C731.813 122.208 732.187 123.345 731.794 123.651Z" fill="white"/>
<path d="M768.318 109.392C767.064 110.224 765.478 111.077 764.357 111.013C762.193 110.893 760.515 106.932 760.515 106.932C760.515 106.932 757.998 109.455 755.714 108.976C753.437 108.49 752.598 105.254 752.598 105.254C752.598 105.254 750.794 107.89 747.438 107.171C744.076 106.452 743.836 103.936 743.836 103.936C743.836 103.936 742.158 106.213 738.916 105.733C735.68 105.254 735.321 101.891 735.321 101.891C735.321 101.891 733.756 104.415 730.999 104.415C728.236 104.415 726.438 99.9741 726.438 99.9741C726.438 99.9741 725 103.217 721.638 102.611C718.282 102.011 717.676 98.7757 717.676 98.7757C717.676 98.7757 715.879 101.772 712.643 101.292C711.254 101.088 710.373 100.291 709.816 99.4454L709.795 97.394C709.781 95.5894 711.452 94.25 713.207 94.6589L766.197 107.009C767.353 107.277 768.192 108.243 768.318 109.392Z" fill="#DC9F8E"/>
<path d="M704 126.07H774.733L767.531 132.822C766.607 133.688 765.389 134.169 764.124 134.169H714.31C713.008 134.169 711.758 133.66 710.827 132.749L704 126.07Z" fill="white"/>
<path d="M778.635 193.471C779.07 197.291 778.367 202.027 778.457 206.091C778.47 206.568 778.496 207.032 778.538 207.483C778.544 207.639 778.559 207.792 778.574 207.945C775.818 206.117 772.19 206.144 768.811 205.981C764.605 205.774 760.295 205.089 756.604 203.29C756.396 203.198 756.183 203.091 755.971 202.983C755.102 202.523 754.27 201.992 753.491 201.393C751.39 199.778 749.748 197.704 748.55 195.377L748.548 195.369C748.478 195.249 748.414 195.118 748.351 194.987C747.46 193.179 746.835 191.237 746.465 189.259C746.269 188.213 746.135 187.157 746.065 186.101C746.063 185.962 746.053 185.825 746.043 185.689C745.863 182.235 746.266 178.735 746.945 175.307C746.963 175.205 746.984 175.113 747.001 175.012C747.2 175.001 747.405 174.98 747.603 174.969C751.407 174.684 755.308 174.381 759.061 174.704C759.211 174.715 759.36 174.726 759.502 174.74C761.933 174.989 764.291 175.503 766.5 176.477C767.084 176.736 767.647 177.017 768.191 177.331C768.339 177.404 768.473 177.49 768.604 177.567C772.592 179.948 775.586 183.712 777.264 187.985C777.356 188.222 777.447 188.45 777.522 188.691C778.075 190.235 778.444 191.846 778.635 193.471Z" fill="#5D7A72"/>
<path d="M778.456 206.091C778.468 206.569 778.494 207.033 778.536 207.484C777.059 205.007 775.474 202.604 773.774 200.284C773.682 200.152 773.593 200.027 773.496 199.906C771.508 197.203 769.373 194.6 767.107 192.122C766.99 191.997 766.884 191.877 766.769 191.76C764.72 189.537 762.559 187.404 760.299 185.379C760.152 185.245 760.006 185.11 759.848 184.97C755.841 181.423 751.527 178.188 746.943 175.308C746.961 175.206 746.982 175.114 746.999 175.013C747.198 175.002 747.403 174.98 747.601 174.97C752.053 177.774 756.232 180.915 760.115 184.346C760.28 184.484 760.449 184.63 760.607 184.77C762.815 186.74 764.933 188.814 766.944 190.969C767.076 191.116 767.206 191.255 767.338 191.402L767.34 191.411C769.742 194.018 771.994 196.745 774.086 199.595C774.201 199.746 774.313 199.891 774.42 200.045L774.423 200.053C775.851 202.011 777.193 204.027 778.456 206.091Z" fill="#260B05"/>
<path d="M759.503 174.74L760.61 184.77L760.67 185.355L760.301 185.379L746.066 186.102C746.065 185.963 746.055 185.826 746.044 185.689L759.85 184.971L760.186 184.957L760.119 184.347L759.063 174.704C759.212 174.715 759.361 174.726 759.503 174.74Z" fill="#260B05"/>
<path d="M768.603 177.567L767.34 191.402L767.343 191.41L767.283 192.091L767.108 192.122L748.55 195.378L748.548 195.37C748.477 195.25 748.414 195.119 748.351 194.988L766.77 191.761L766.875 191.741L766.946 190.97L768.191 177.332C768.339 177.404 768.472 177.489 768.603 177.567Z" fill="#260B05"/>
<path d="M777.522 188.692L774.423 200.044L774.425 200.052L774.387 200.177L774.246 200.198L773.774 200.284L756.603 203.29C756.395 203.198 756.182 203.091 755.97 202.983L773.496 199.906L774.029 199.812L774.088 199.594L777.263 187.985C777.356 188.222 777.446 188.451 777.522 188.692Z" fill="#260B05"/>
</g>
<defs>
<clipPath id="clip0_292_626">
<rect width="1100" height="240" fill="white"/>
</clipPath>
</defs>
</svg>
