<svg width="358" height="287" viewBox="0 0 358 287" fill="none" xmlns="http://www.w3.org/2000/svg">
<path d="M286.271 202.011V115.603H323.031C342.366 115.603 355.017 126.583 355.017 144.843C355.017 156.778 349.527 165.252 340.217 169.668L357.881 202.011H333.176L317.899 173.248H308.948V202.011H286.271ZM308.948 155.465H317.78C326.373 155.465 331.266 152.362 331.266 144.843C331.266 137.205 326.373 133.744 317.78 133.744H308.948V155.465Z" fill="black"/>
<path d="M245.788 115.603H268.465V171.1C268.465 190.673 253.546 203.086 231.347 203.086C209.148 203.086 194.349 190.673 194.349 171.1V115.603H217.025V169.071C217.025 177.425 222.992 183.393 231.347 183.393C239.821 183.393 245.788 177.425 245.788 169.071V115.603Z" fill="black"/>
<path d="M177.138 158.807C177.138 187.57 158.759 203.205 135.366 203.205C111.735 203.205 93.4746 187.451 93.4746 158.807C93.4746 130.044 111.735 114.409 135.366 114.409C158.759 114.409 177.138 130.044 177.138 158.807ZM153.746 158.807C153.746 142.934 147.182 134.221 135.366 134.221C123.431 134.221 116.867 142.934 116.867 158.807C116.867 174.681 123.431 183.393 135.366 183.393C147.182 183.393 153.746 174.681 153.746 158.807Z" fill="black"/>
<path d="M0 115.603H25.4214L42.6077 150.93H43.3238L60.6294 115.603H86.0508L54.3039 174.322V202.011H31.7469V174.322L0 115.603Z" fill="black"/>
<path d="M269.531 88.5271V2.11816H292.208V37.4456H293.401L320.135 2.11816H346.75L317.152 40.668L347.347 88.5271H320.135L300.204 55.706L292.208 65.97V88.5271H269.531Z" fill="black"/>
<path d="M218.407 34.2233C217.691 26.1075 212.201 20.7368 203.011 20.7368C191.076 20.7368 184.273 29.9267 184.273 45.3227C184.273 61.5542 191.196 69.9087 202.892 69.9087C211.604 69.9087 217.214 65.1347 218.407 57.4964L241.442 57.7351C240.248 72.5344 227.239 89.7207 202.414 89.7207C178.664 89.7207 160.881 73.9666 160.881 45.3227C160.881 16.5596 179.141 0.924805 202.414 0.924805C223.897 0.924805 239.532 12.9791 241.442 34.2233H218.407Z" fill="black"/>
<path d="M132.671 2.11816V88.5271H109.994V2.11816H132.671Z" fill="black"/>
<path d="M15.1885 88.5271V2.11816H51.9481C71.2826 2.11816 83.9337 14.2918 83.9337 32.4329C83.9337 50.932 70.9246 62.5089 51.232 62.5089H37.8648V88.5271H15.1885ZM37.8648 44.8452H46.6967C55.2898 44.8452 60.1832 40.0712 60.1832 32.4329C60.1832 24.9139 55.2898 20.2593 46.6967 20.2593H37.8648V44.8452Z" fill="black"/>
<path d="M334.201 285.667V250.486H357.817V256.511H341.49V265.064H356.602V271.089H341.49V279.641H357.866V285.667H334.201Z" fill="black"/>
<path d="M283.948 256.511V250.486H312.763V256.511H301.976V285.667H294.736V256.511H283.948Z" fill="black"/>
<path d="M262.464 250.486V285.667H255.175V250.486H262.464Z" fill="black"/>
<path d="M206.816 285.667V250.486H220.617C228.634 250.486 233.202 255.005 233.202 261.954C233.202 266.764 230.991 270.263 226.982 271.964L234.465 285.667H226.399L219.693 273.178H214.105V285.667H206.816ZM214.105 267.25H219.256C223.581 267.25 225.67 265.452 225.67 261.954C225.67 258.406 223.581 256.463 219.256 256.463H214.105V267.25Z" fill="black"/>
<path d="M184.651 268.076C184.651 279.544 177.508 286.153 168.227 286.153C158.848 286.153 151.754 279.495 151.754 268.076C151.754 256.609 158.848 250 168.227 250C177.508 250 184.651 256.609 184.651 268.076ZM177.216 268.076C177.216 260.545 173.669 256.463 168.227 256.463C162.784 256.463 159.189 260.545 159.189 268.076C159.189 275.608 162.784 279.69 168.227 279.69C173.669 279.69 177.216 275.608 177.216 268.076Z" fill="black"/>
<path d="M107.964 250.486L116.517 277.309H116.857L125.457 250.486H133.524L121.376 285.667H111.997L99.8008 250.486H107.964Z" fill="black"/>
<path d="M59.3651 285.667H51.4932L63.6898 250.486H73.0681L85.2162 285.667H77.3928L74.7688 277.552H62.0377L59.3651 285.667ZM63.8842 271.866H72.9223L68.5004 258.406H68.2575L63.8842 271.866Z" fill="black"/>
<path d="M13 285.667V250.486H36.1785V256.511H20.2888V265.064H34.6721V271.089H20.2888V285.667H13Z" fill="black"/>
</svg>
