<svg width="200" height="200" viewBox="0 0 200 200" fill="none" xmlns="http://www.w3.org/2000/svg">
<path d="M140.315 162.025C140.315 162.025 123.34 167.417 106.472 167.417C89.6187 167.417 76.9121 163.266 76.9121 163.266L82.316 156.902L86.8165 151.614L128.228 150.376L131.214 153.232L140.315 162.025Z" fill="#DC9F8E"/>
<path d="M131.214 153.229C125.913 155.953 116.445 160.133 107.647 160.293C98.1491 160.468 87.5021 158.181 82.3164 156.899L86.8169 151.611L128.229 150.373L131.214 153.229Z" fill="#8B4034"/>
<path d="M41.5752 53.8018H174.343C174.343 53.8018 192.566 156.445 108.145 155.33C35.6583 154.372 40.8313 98.429 41.5752 53.8018Z" fill="#DC9F8E"/>
<path d="M48.621 71.7445L41.7178 76.9762C41.5519 76.7592 41.3988 76.5423 41.2202 76.3382C37.8642 71.9742 33.8703 68.0951 29.3405 65.4538C24.6448 62.6083 19.2728 61.3705 14.2708 62.4934C12.5737 62.8379 10.9404 63.4504 9.40918 64.3181C9.6261 61.396 9.95785 58.5122 10.3917 55.654C11.068 55.4115 11.757 55.1946 12.4588 55.016C16.0317 54.0845 19.8087 54.0079 23.3943 54.6204C26.9799 55.2584 30.374 56.5344 33.4365 58.2315C36.3458 59.8393 38.9744 61.7788 41.3733 63.9225C44.0529 66.3087 46.439 68.9628 48.621 71.7445Z" fill="#DC9F8E"/>
<path d="M57.3864 126.597L56.2635 127.516C56.1741 127.414 56.0976 127.325 55.9955 127.235C54.056 125.13 51.6188 123.497 49.0157 122.221C48.5691 122.004 48.1225 121.787 47.6632 121.595C45.3408 120.562 42.8909 119.732 40.4282 118.98C34.533 117.168 28.4464 115.841 22.3471 113.99C17.8045 112.612 13.2364 110.839 9 108.338V102.417C13.2491 105.786 18.3149 108.261 23.6231 110.239C29.3651 112.395 35.4262 114.067 41.3469 116.338C43.0823 117.015 44.8177 117.729 46.5148 118.533C47.7014 119.082 48.8754 119.694 50.0238 120.358C52.3716 121.723 54.6047 123.395 56.4421 125.462C56.7739 125.819 57.0801 126.202 57.3864 126.597Z" fill="#DC9F8E"/>
<path d="M152.433 74.3532C151 75.6483 149.797 77.2637 149.043 78.6673C145.714 84.8662 145.557 92.6665 148.635 98.993C150.074 101.952 152.608 104.818 155.896 104.943C159.329 105.073 162.051 102.169 163.489 99.3285C164.641 97.0547 165.179 94.5167 165.473 91.9838C166.029 87.1758 165.675 82.0909 163.681 77.6287C162.761 75.5692 161.511 73.1614 159.303 72.2733C156.822 71.2754 154.256 72.7071 152.433 74.3532Z" fill="white"/>
<path d="M149.364 117.95C149.263 119.574 149.604 121.268 150.554 122.588C151.505 123.909 153.122 124.798 154.742 124.648C155.432 124.584 156.097 124.342 156.708 124.014C159.153 122.703 160.73 119.923 160.599 117.153C160.479 114.621 157.89 109.904 154.859 110.109C151.638 110.327 149.53 115.263 149.364 117.95Z" fill="white"/>
<path d="M174.096 53.4328C174.096 54.0044 173.389 54.5557 172.071 55.0878C164.789 57.9779 138.736 57.5722 107.71 57.5722C76.6825 57.5722 50.6315 57.9792 43.3493 55.0878C42.0311 54.5569 41.3242 54.0057 41.3242 53.4328C41.3242 49.7349 71.0489 46.7324 107.71 46.7324C144.371 46.7324 174.096 49.7362 174.096 53.4328Z" fill="#8B4034"/>
<path d="M172.072 55.0907C170.237 55.8193 167.222 56.4892 163.215 57.1004C151.795 58.8486 59.0542 58.0613 54.0573 57.3773C49.1345 56.6921 45.4634 55.9201 43.3516 55.0907C45.2158 54.3481 48.3191 53.6628 52.4113 53.0363C53.8531 52.8181 55.4124 52.614 57.0866 52.4098C65.8553 51.3609 77.7414 50.589 91.3028 50.2393C91.3169 50.2393 91.3169 50.2393 91.3169 50.2393C96.5613 50.1079 102.052 50.0352 107.703 50.0352C113.093 50.0352 118.322 50.0939 123.333 50.224H123.347C130.091 50.3848 136.428 50.6604 142.195 51.01C151.372 51.5779 159.092 52.3652 164.642 53.2966C167.935 53.853 170.469 54.4502 172.072 55.0907Z" fill="#260B05"/>
<path d="M164.642 53.299C164.51 54.6541 163.986 55.9353 163.214 57.1003C151.794 58.8484 132.437 60.0428 110.311 60.1155C109.437 60.1295 108.578 60.1295 107.704 60.1295C94.7981 60.1295 82.7372 59.7506 72.5559 59.11C65.3452 58.6583 59.0531 58.0611 54.0575 57.3772C53.1107 56.1241 52.4549 54.6388 52.4115 53.0362C52.3975 52.9341 52.3975 52.832 52.3975 52.7299C52.3975 52.7299 52.7764 51.3901 53.8827 49.7288C55.4561 47.3248 58.5006 44.2228 63.9773 43.3487C63.9773 43.3487 64.1381 43.0578 64.443 42.5333C65.0836 41.4411 66.3953 39.3573 68.317 37.0413C72.4832 32.0304 79.5038 25.9133 88.7383 26.365C89.3214 26.3943 89.8739 26.3509 90.3984 26.2335C91.7089 25.9719 92.9032 25.3161 93.9674 24.3693C97.3756 21.4268 99.5601 15.7319 100.682 10.9826C101.556 7.32686 101.556 3.23341 99.7643 0C105.182 0.349627 110.485 0.713281 115.699 2.2866C120.942 3.84461 125.998 6.72971 129.391 11.317C132.1 14.9587 133.63 19.5613 134.066 24.2366L134.168 25.8533C134.168 25.9847 134.182 26.1302 134.182 26.2616C134.182 26.2616 134.182 26.2616 134.196 26.2616V26.4224C137.241 26.6265 140.313 27.6461 142.529 29.948C144.349 31.8263 145.646 34.3184 146.2 36.9839C146.316 37.4203 146.389 37.872 146.433 38.3237C146.463 38.4399 146.477 38.5573 146.492 38.6874C147.657 38.2357 148.794 38.8189 150.002 39.0957C153.09 39.8243 156.135 40.96 158.742 42.897C159.484 43.4355 160.183 44.048 160.824 44.7179C162.47 46.4226 163.767 48.505 164.421 50.8797C164.657 51.7117 164.715 52.513 164.642 53.299Z" fill="#FFE9D9"/>
<path opacity="0.13" d="M146.437 38.3322C137.735 41.2147 130.177 48.3106 121.259 50.929C117.783 51.9536 114.159 52.2598 110.549 52.3185C101.564 52.4653 92.5639 51.0604 83.9827 48.1485C77.5299 45.9691 71.1716 42.9105 64.4482 42.5302C65.0811 41.4469 66.4018 39.3555 68.3146 37.0434C77.1522 43.1146 87.0133 47.3574 97.3732 48.9664C108.46 50.6929 120.047 49.2587 130.231 44.1967C133.801 42.4269 137.195 40.2321 140.833 38.6371C142.76 37.7885 144.457 37.2182 146.207 36.9834C146.316 37.4249 146.396 37.8792 146.437 38.3322Z" fill="#BA684E"/>
<path opacity="0.13" d="M134.069 24.2432C133.395 24.3452 132.736 24.492 132.089 24.6668C128.707 25.5881 125.556 27.2852 122.335 28.7054C119.102 30.1243 115.667 31.2651 112.191 30.9869C107.273 30.5926 102.949 27.4179 98.3013 25.6468C96.8862 25.1058 95.4316 24.6962 93.9629 24.3733C92.8987 25.324 91.7133 25.9684 90.3926 26.2312C91.4976 26.4941 92.5746 26.8603 93.6388 27.2992C95.3499 28.001 96.9666 28.9236 98.6777 29.6254C100.765 30.474 102.961 30.9716 105.145 31.4105C109.294 32.2591 113.565 32.8741 117.727 32.0983C121.553 31.3965 125.11 29.5233 128.747 28.0163C130.512 27.2852 132.33 26.6408 134.189 26.2606C134.189 26.2606 134.189 26.2606 134.202 26.2606L134.069 24.2432Z" fill="#BA684E"/>
<path opacity="0.13" d="M57.0868 52.4104C61.6613 55.7459 66.9912 57.8284 72.5559 59.1108C65.3452 58.6591 59.0531 58.0619 54.0575 57.3779C53.1107 56.1249 52.4549 54.6396 52.4115 53.0369C52.3975 52.9348 52.3975 52.8328 52.3975 52.7307C52.3975 52.7307 52.7764 51.3909 53.8827 49.7295C54.9023 50.7056 55.9652 51.595 57.0868 52.4104Z" fill="#BA684E"/>
<path opacity="0.13" d="M164.642 53.2993C164.51 54.6544 163.986 55.9356 163.214 57.1006C151.794 58.8487 132.437 60.0431 110.311 60.1158C118.643 59.0529 126.843 57.0865 134.753 54.0713C137.243 53.1245 139.72 52.0616 142.196 51.0127C148.313 48.4058 154.445 45.7836 160.825 44.7207C162.471 46.4255 163.768 48.5079 164.422 50.8826C164.657 51.712 164.715 52.5133 164.642 53.2993Z" fill="#BA684E"/>
<path d="M61.5183 163.976C61.4431 163.871 61.369 163.751 61.3091 163.661C60.5447 162.491 59.8838 161.262 59.3746 159.986C57.8894 156.357 57.4696 152.397 58.2352 148.603C58.5503 146.997 59.0748 145.423 59.8251 143.908C69.6032 124.052 83.7899 91.5227 74.267 86.9188C66.0035 82.9147 57.6201 108.545 52.1767 129.931C51.9968 130.635 51.8321 131.325 51.6522 132.016C50.9925 134.685 50.3775 137.265 49.8224 139.679C49.8071 139.769 49.7778 139.859 49.7625 139.95C48.577 145.064 45.3985 149.323 41.0792 152.007C39.4893 153.012 37.7501 153.792 35.8896 154.317C32.4253 155.321 29.1255 157.181 26.3068 159.955C19.0935 167.064 17.5329 178.446 22.5872 187.295C27.5062 195.934 36.7892 199.982 45.6077 198.768C46.1322 198.692 46.6426 198.618 47.167 198.512C48.1419 198.288 49.1321 198.033 50.0763 197.673C52.5811 196.803 54.9801 195.454 57.1403 193.624C65.6284 186.471 67.5781 173.813 61.7442 164.334C61.6676 164.216 61.5923 164.096 61.5183 163.976ZM68.2212 95.1402C69.1514 92.9658 70.846 91.5852 72.0161 92.0803C73.2002 92.6047 73.3955 94.765 72.4806 96.9547C71.5504 99.1443 69.8711 100.508 68.701 100.015C67.5169 99.4888 67.3063 97.3145 68.2212 95.1402Z" fill="#FFE9D9"/>
<path opacity="0.34" d="M42.9388 157.331C48.6056 157.41 54.1716 160.026 57.8567 164.912C64.1908 173.309 62.5741 185.204 54.229 191.5C49.3367 195.19 43.231 196.123 37.7441 194.584C41.7968 194.67 45.9017 193.428 49.3788 190.805C57.724 184.51 59.3522 172.605 53.0282 164.22C50.406 160.747 46.823 158.414 42.9388 157.331Z" fill="#DC9F8E"/>
</svg>
